<svg xmlns="http://www.w3.org/2000/svg" xmlns:xlink="http://www.w3.org/1999/xlink" width="735" height="454" xmlns:v="https://vecta.io/nano"><style><![CDATA[.B{fill:#263238}.C{fill:#fff}.D{fill:#66a310}.E{fill:#92e3a9}]]></style><use xlink:href="#B" fill="#000"/><use xlink:href="#B" opacity=".7" class="C"/><path d="M733.855 431.975H.5a.5.5 0 1 1 0-1h733.355a.5.5 0 1 1 0 1z" class="B"/><g class="E"><path d="M409.895 40.966h-3.903c-.532 0-.963-.431-.963-.963a.96.96 0 0 1 .963-.962h3.903c.532 0 .963.431.963.962s-.431.963-.963.963zm.963 3.498a.96.96 0 0 0-.963-.962h-3.903a.96.96 0 0 0-.963.962c0 .532.431.963.963.963h3.903c.532-.001.963-.431.963-.963zm0 4.46a.96.96 0 0 0-.963-.963h-3.903c-.532 0-.963.431-.963.963a.96.96 0 0 0 .963.962h3.903a.96.96 0 0 0 .963-.962zm0 4.461a.96.96 0 0 0-.963-.963h-3.903c-.532 0-.963.431-.963.963s.431.963.963.963h3.903c.532 0 .963-.431.963-.963zm0 4.461a.96.96 0 0 0-.963-.963h-3.903c-.532 0-.963.431-.963.963s.431.963.963.963h3.903c.532-.001.963-.431.963-.963zm0 4.461a.96.96 0 0 0-.963-.963h-3.903a.96.96 0 0 0-.963.963c0 .532.431.963.963.963h3.903c.532 0 .963-.431.963-.963zm0 4.461a.96.96 0 0 0-.963-.962h-3.903a.96.96 0 0 0-.963.962c0 .532.431.963.963.963h3.903c.532-.001.963-.431.963-.963zm0 4.46a.96.96 0 0 0-.963-.963h-3.903a.96.96 0 0 0-.963.963c0 .532.431.963.963.963h3.903c.532 0 .963-.431.963-.963zm14.602-31.225a.96.96 0 0 0-.962-.962h-10.246a.962.962 0 1 0 0 1.925h10.246c.531 0 .962-.431.962-.963zm0 4.461a.96.96 0 0 0-.962-.962h-10.246a.962.962 0 1 0 0 1.925h10.246c.531-.001.962-.431.962-.963zm0 4.46c0-.532-.431-.963-.962-.963h-10.246a.962.962 0 0 0 0 1.925h10.246a.96.96 0 0 0 .962-.962zm0 4.461c0-.532-.431-.963-.962-.963h-10.246a.963.963 0 1 0 0 1.926h10.246c.531 0 .962-.431.962-.963zm0 4.461c0-.532-.431-.963-.962-.963h-10.246a.963.963 0 1 0 0 1.926h10.246c.531-.001.962-.431.962-.963zm12.267 4.461a.96.96 0 0 0-.963-.963h-10.246a.96.96 0 0 0-.963.963c0 .532.431.963.963.963h10.246c.532 0 .963-.431.963-.963zm0 4.461a.96.96 0 0 0-.963-.962h-10.246a.96.96 0 0 0-.963.962c0 .532.431.963.963.963h10.246c.532-.001.963-.431.963-.963zm0 4.46a.96.96 0 0 0-.963-.963h-10.246a.96.96 0 0 0-.963.963c0 .532.431.963.963.963h10.246c.532 0 .963-.431.963-.963zm-7.758-31.225c0-.616-.499-1.115-1.115-1.115s-1.115.499-1.115 1.115.499 1.115 1.115 1.115 1.115-.499 1.115-1.115zm3.345 0c0-.616-.499-1.115-1.115-1.115s-1.115.499-1.115 1.115.499 1.115 1.115 1.115 1.115-.499 1.115-1.115zm3.346 0c0-.616-.499-1.115-1.115-1.115s-1.115.499-1.115 1.115.499 1.115 1.115 1.115 1.115-.499 1.115-1.115zm3.345 0c0-.616-.499-1.115-1.115-1.115s-1.115.499-1.115 1.115.499 1.115 1.115 1.115 1.115-.499 1.115-1.115zm3.346 0c0-.616-.499-1.115-1.116-1.115s-1.115.499-1.115 1.115.499 1.115 1.115 1.115 1.116-.499 1.116-1.115zm3.345 0c0-.616-.499-1.115-1.115-1.115s-1.115.499-1.115 1.115.499 1.115 1.115 1.115 1.115-.499 1.115-1.115zm-16.727 8.921c0-.616-.499-1.115-1.115-1.115s-1.115.499-1.115 1.115.499 1.115 1.115 1.115 1.115-.499 1.115-1.115zm3.345 0c0-.616-.499-1.115-1.115-1.115s-1.115.499-1.115 1.115.499 1.115 1.115 1.115 1.115-.499 1.115-1.115zm3.346 0c0-.616-.499-1.115-1.115-1.115s-1.115.499-1.115 1.115.499 1.115 1.115 1.115 1.115-.499 1.115-1.115zm3.345 0c0-.616-.499-1.115-1.115-1.115s-1.115.499-1.115 1.115.499 1.115 1.115 1.115 1.115-.499 1.115-1.115zm3.346 0c0-.616-.499-1.115-1.116-1.115s-1.115.499-1.115 1.115.499 1.115 1.115 1.115 1.116-.499 1.116-1.115zm3.345 0c0-.616-.499-1.115-1.115-1.115s-1.115.499-1.115 1.115.499 1.115 1.115 1.115 1.115-.499 1.115-1.115zm-5.297 12.825c0-.616-.499-1.115-1.115-1.115s-1.115.499-1.115 1.115.499 1.115 1.115 1.115 1.115-.499 1.115-1.115zm3.346 0c0-.616-.499-1.115-1.115-1.115s-1.115.499-1.115 1.115.5 1.115 1.115 1.115 1.115-.499 1.115-1.115zm3.346 0c0-.616-.499-1.115-1.115-1.115s-1.115.499-1.115 1.115.499 1.115 1.115 1.115 1.115-.499 1.115-1.115zm3.345 0c0-.616-.499-1.115-1.115-1.115s-1.115.499-1.115 1.115.499 1.115 1.115 1.115 1.115-.499 1.115-1.115zm3.345 0c0-.616-.499-1.115-1.115-1.115s-1.115.499-1.115 1.115.499 1.115 1.115 1.115 1.115-.499 1.115-1.115zm3.346 0c0-.616-.499-1.115-1.115-1.115s-1.115.499-1.115 1.115.499 1.115 1.115 1.115 1.115-.499 1.115-1.115zm-16.728 9.2c0-.616-.499-1.115-1.115-1.115s-1.115.499-1.115 1.115.499 1.115 1.115 1.115 1.115-.499 1.115-1.115zm3.346 0c0-.616-.499-1.115-1.115-1.115s-1.115.499-1.115 1.115.5 1.115 1.115 1.115 1.115-.499 1.115-1.115zm3.346 0c0-.616-.499-1.115-1.115-1.115s-1.115.499-1.115 1.115.499 1.115 1.115 1.115 1.115-.499 1.115-1.115zm3.345 0c0-.616-.499-1.115-1.115-1.115s-1.115.499-1.115 1.115.499 1.115 1.115 1.115 1.115-.499 1.115-1.115zm3.345 0c0-.616-.499-1.115-1.115-1.115s-1.115.499-1.115 1.115.499 1.115 1.115 1.115 1.115-.499 1.115-1.115zm3.346 0c0-.616-.499-1.115-1.115-1.115s-1.115.499-1.115 1.115.499 1.115 1.115 1.115 1.115-.499 1.115-1.115zm-48.232 5.712h-3.903c-.532 0-.963-.431-.963-.963s.431-.963.963-.963h3.903c.532 0 .963.431.963.963s-.431.963-.963.963zm.963 3.498a.96.96 0 0 0-.963-.963h-3.903a.96.96 0 0 0-.963.963c0 .532.431.963.963.963h3.903c.532 0 .963-.431.963-.963zm0 4.46a.96.96 0 0 0-.963-.962h-3.903a.96.96 0 0 0-.963.962c0 .532.431.963.963.963h3.903a.96.96 0 0 0 .963-.963zm0 4.461a.96.96 0 0 0-.963-.963h-3.903c-.532 0-.963.431-.963.963a.96.96 0 0 0 .963.962h3.903a.96.96 0 0 0 .963-.962zm0 4.461a.96.96 0 0 0-.963-.963h-3.903c-.532 0-.963.431-.963.963s.431.963.963.963h3.903c.532-.001.963-.431.963-.963zm0 4.461a.96.96 0 0 0-.963-.963h-3.903c-.532 0-.963.431-.963.963s.431.963.963.963h3.903c.532 0 .963-.431.963-.963zm0 4.461a.96.96 0 0 0-.963-.963h-3.903c-.532 0-.963.431-.963.963s.431.963.963.963h3.903c.532-.001.963-.431.963-.963zm0 4.461a.96.96 0 0 0-.963-.963h-3.903c-.532 0-.963.431-.963.963a.96.96 0 0 0 .963.962h3.903c.532 0 .963-.431.963-.962zm14.602-31.226c0-.532-.431-.963-.962-.963h-10.246a.963.963 0 1 0 0 1.926h10.246c.531 0 .962-.431.962-.963zm0 4.461c0-.532-.431-.963-.962-.963h-10.246a.963.963 0 1 0 0 1.926h10.246c.531 0 .962-.431.962-.963zm0 4.46a.96.96 0 0 0-.962-.962h-10.246a.962.962 0 1 0 0 1.925h10.246a.96.96 0 0 0 .962-.963zm0 4.461c0-.532-.431-.963-.962-.963h-10.246a.962.962 0 0 0 0 1.925h10.246a.96.96 0 0 0 .962-.962zm0 4.461c0-.532-.431-.963-.962-.963h-10.246a.963.963 0 1 0 0 1.926h10.246c.531-.001.962-.431.962-.963zm12.267 4.461a.96.96 0 0 0-.963-.963h-10.246c-.532 0-.963.431-.963.963s.431.963.963.963h10.246c.532 0 .963-.431.963-.963zm0 4.461a.96.96 0 0 0-.963-.963h-10.246c-.532 0-.963.431-.963.963s.431.963.963.963h10.246c.532-.001.963-.431.963-.963zm0 4.461a.96.96 0 0 0-.963-.963h-10.246c-.532 0-.963.431-.963.963a.96.96 0 0 0 .963.962h10.246c.532 0 .963-.431.963-.962zm-7.758-31.226c0-.616-.499-1.115-1.115-1.115s-1.115.499-1.115 1.115.499 1.115 1.115 1.115 1.115-.499 1.115-1.115zm3.345 0c0-.616-.499-1.115-1.115-1.115s-1.115.499-1.115 1.115.499 1.115 1.115 1.115 1.115-.499 1.115-1.115zm3.346 0c0-.616-.499-1.115-1.115-1.115s-1.115.499-1.115 1.115.499 1.115 1.115 1.115 1.115-.499 1.115-1.115zm3.345 0c0-.616-.499-1.115-1.115-1.115s-1.115.499-1.115 1.115.499 1.115 1.115 1.115 1.115-.499 1.115-1.115zm3.346 0c0-.616-.499-1.115-1.116-1.115s-1.115.499-1.115 1.115.499 1.115 1.115 1.115 1.116-.499 1.116-1.115zm3.345 0c0-.616-.499-1.115-1.115-1.115s-1.115.499-1.115 1.115.499 1.115 1.115 1.115 1.115-.499 1.115-1.115zm-16.727 8.922c0-.616-.499-1.115-1.115-1.115s-1.115.499-1.115 1.115.499 1.115 1.115 1.115 1.115-.5 1.115-1.115zm3.345 0c0-.616-.499-1.115-1.115-1.115s-1.115.499-1.115 1.115.499 1.115 1.115 1.115 1.115-.5 1.115-1.115zm3.346 0c0-.616-.499-1.115-1.115-1.115s-1.115.499-1.115 1.115.499 1.115 1.115 1.115 1.115-.5 1.115-1.115zm3.345 0c0-.616-.499-1.115-1.115-1.115s-1.115.499-1.115 1.115.499 1.115 1.115 1.115 1.115-.5 1.115-1.115zm3.346 0c0-.616-.499-1.115-1.116-1.115s-1.115.499-1.115 1.115.499 1.115 1.115 1.115 1.116-.5 1.116-1.115zm3.345 0c0-.616-.499-1.115-1.115-1.115s-1.115.499-1.115 1.115.499 1.115 1.115 1.115 1.115-.5 1.115-1.115zm-5.297 12.824c0-.616-.499-1.115-1.115-1.115s-1.115.499-1.115 1.115.499 1.115 1.115 1.115 1.115-.499 1.115-1.115zm3.346 0c0-.616-.499-1.115-1.115-1.115s-1.115.499-1.115 1.115.5 1.115 1.115 1.115 1.115-.499 1.115-1.115zm3.346 0c0-.616-.499-1.115-1.115-1.115s-1.115.499-1.115 1.115.499 1.115 1.115 1.115 1.115-.499 1.115-1.115zm3.345 0c0-.616-.499-1.115-1.115-1.115s-1.115.499-1.115 1.115.499 1.115 1.115 1.115 1.115-.499 1.115-1.115zm3.345 0c0-.616-.499-1.115-1.115-1.115s-1.115.499-1.115 1.115.499 1.115 1.115 1.115 1.115-.499 1.115-1.115zm3.346 0c0-.616-.499-1.115-1.115-1.115s-1.115.499-1.115 1.115.499 1.115 1.115 1.115 1.115-.499 1.115-1.115zm-16.728 9.2c0-.616-.499-1.115-1.115-1.115s-1.115.499-1.115 1.115.499 1.115 1.115 1.115 1.115-.499 1.115-1.115zm3.346 0c0-.616-.499-1.115-1.115-1.115s-1.115.499-1.115 1.115.5 1.115 1.115 1.115 1.115-.499 1.115-1.115zm3.346 0c0-.616-.499-1.115-1.115-1.115s-1.115.499-1.115 1.115.499 1.115 1.115 1.115 1.115-.499 1.115-1.115zm3.345 0c0-.616-.499-1.115-1.115-1.115s-1.115.499-1.115 1.115.499 1.115 1.115 1.115 1.115-.499 1.115-1.115zm3.345 0c0-.616-.499-1.115-1.115-1.115s-1.115.499-1.115 1.115.499 1.115 1.115 1.115 1.115-.499 1.115-1.115zm3.346 0c0-.616-.499-1.115-1.115-1.115s-1.115.499-1.115 1.115.499 1.115 1.115 1.115 1.115-.499 1.115-1.115zm-48.232 6.574h-3.903c-.532 0-.963-.431-.963-.963s.431-.963.963-.963h3.903c.532 0 .963.431.963.963s-.431.963-.963.963zm.963 3.498a.96.96 0 0 0-.963-.962h-3.903a.96.96 0 0 0-.963.962c0 .532.431.963.963.963h3.903c.532-.001.963-.431.963-.963zm0 4.461a.96.96 0 0 0-.963-.963h-3.903c-.532 0-.963.431-.963.963s.431.963.963.963h3.903c.532-.001.963-.431.963-.963zm0 4.46a.96.96 0 0 0-.963-.963h-3.903c-.532 0-.963.431-.963.963a.96.96 0 0 0 .963.962h3.903a.96.96 0 0 0 .963-.962zm0 4.461a.96.96 0 0 0-.963-.963h-3.903c-.532 0-.963.431-.963.963s.431.963.963.963h3.903c.532-.001.963-.431.963-.963zm0 4.461a.96.96 0 0 0-.963-.963h-3.903c-.532 0-.963.431-.963.963s.431.963.963.963h3.903c.532 0 .963-.431.963-.963zm0 4.461a.96.96 0 0 0-.963-.963h-3.903c-.532 0-.963.431-.963.963s.431.963.963.963h3.903c.532-.001.963-.431.963-.963zm0 4.46a.96.96 0 0 0-.963-.963h-3.903c-.532 0-.963.431-.963.963s.431.963.963.963h3.903a.96.96 0 0 0 .963-.963zm14.602-31.225c0-.532-.431-.963-.962-.963h-10.246a.963.963 0 1 0 0 1.926h10.246c.531 0 .962-.431.962-.963zm0 4.461a.96.96 0 0 0-.962-.962h-10.246a.962.962 0 0 0 0 1.925h10.246c.531-.001.962-.431.962-.963zm0 4.461c0-.532-.431-.963-.962-.963h-10.246a.963.963 0 1 0 0 1.926h10.246c.531-.001.962-.431.962-.963zm0 4.46c0-.532-.431-.963-.962-.963h-10.246a.962.962 0 0 0 0 1.925h10.246a.96.96 0 0 0 .962-.962zm0 4.461c0-.532-.431-.963-.962-.963h-10.246a.963.963 0 1 0 0 1.926h10.246c.531-.001.962-.431.962-.963zm12.267 4.461a.96.96 0 0 0-.963-.963h-10.246c-.532 0-.963.431-.963.963s.431.963.963.963h10.246c.532 0 .963-.431.963-.963zm0 4.461a.96.96 0 0 0-.963-.963h-10.246c-.532 0-.963.431-.963.963s.431.963.963.963h10.246c.532-.001.963-.431.963-.963zm0 4.46a.96.96 0 0 0-.963-.963h-10.246c-.532 0-.963.431-.963.963s.431.963.963.963h10.246a.96.96 0 0 0 .963-.963zm-7.758-31.225c0-.616-.499-1.115-1.115-1.115s-1.115.5-1.115 1.115.499 1.115 1.115 1.115 1.115-.499 1.115-1.115zm3.345 0c0-.616-.499-1.115-1.115-1.115s-1.115.5-1.115 1.115.499 1.115 1.115 1.115 1.115-.499 1.115-1.115zm3.346 0c0-.616-.499-1.115-1.115-1.115s-1.115.5-1.115 1.115.499 1.115 1.115 1.115 1.115-.499 1.115-1.115zm3.345 0c0-.616-.499-1.115-1.115-1.115s-1.115.5-1.115 1.115.499 1.115 1.115 1.115 1.115-.499 1.115-1.115zm3.346 0c0-.616-.499-1.115-1.116-1.115s-1.115.5-1.115 1.115.499 1.115 1.115 1.115 1.116-.499 1.116-1.115zm3.345 0c0-.616-.499-1.115-1.115-1.115s-1.115.5-1.115 1.115.499 1.115 1.115 1.115 1.115-.499 1.115-1.115zm-16.727 8.922c0-.616-.499-1.115-1.115-1.115s-1.115.499-1.115 1.115.499 1.115 1.115 1.115 1.115-.499 1.115-1.115zm3.345 0c0-.616-.499-1.115-1.115-1.115s-1.115.499-1.115 1.115.499 1.115 1.115 1.115 1.115-.499 1.115-1.115zm3.346 0c0-.616-.499-1.115-1.115-1.115s-1.115.499-1.115 1.115.499 1.115 1.115 1.115 1.115-.499 1.115-1.115zm3.345 0c0-.616-.499-1.115-1.115-1.115s-1.115.499-1.115 1.115.499 1.115 1.115 1.115 1.115-.499 1.115-1.115zm3.346 0c0-.616-.499-1.115-1.116-1.115s-1.115.499-1.115 1.115.499 1.115 1.115 1.115 1.116-.499 1.116-1.115zm3.345 0c0-.616-.499-1.115-1.115-1.115s-1.115.499-1.115 1.115.499 1.115 1.115 1.115 1.115-.499 1.115-1.115zm-5.297 12.824c0-.616-.499-1.115-1.115-1.115s-1.115.499-1.115 1.115.499 1.115 1.115 1.115 1.115-.499 1.115-1.115zm3.346 0c0-.616-.499-1.115-1.115-1.115s-1.115.499-1.115 1.115.5 1.115 1.115 1.115 1.115-.499 1.115-1.115zm3.346 0c0-.616-.499-1.115-1.115-1.115s-1.115.499-1.115 1.115.499 1.115 1.115 1.115 1.115-.499 1.115-1.115zm3.345 0c0-.616-.499-1.115-1.115-1.115s-1.115.499-1.115 1.115.499 1.115 1.115 1.115 1.115-.499 1.115-1.115zm3.345 0c0-.616-.499-1.115-1.115-1.115s-1.115.499-1.115 1.115.499 1.115 1.115 1.115 1.115-.499 1.115-1.115zm3.346 0c0-.616-.499-1.115-1.115-1.115s-1.115.499-1.115 1.115.499 1.115 1.115 1.115 1.115-.499 1.115-1.115zm-16.728 9.201c0-.616-.499-1.115-1.115-1.115s-1.115.499-1.115 1.115.499 1.115 1.115 1.115 1.115-.499 1.115-1.115zm3.346 0c0-.616-.499-1.115-1.115-1.115s-1.115.499-1.115 1.115.5 1.115 1.115 1.115 1.115-.499 1.115-1.115zm3.346 0c0-.616-.499-1.115-1.115-1.115s-1.115.499-1.115 1.115.499 1.115 1.115 1.115 1.115-.499 1.115-1.115zm3.345 0c0-.616-.499-1.115-1.115-1.115s-1.115.499-1.115 1.115.499 1.115 1.115 1.115 1.115-.499 1.115-1.115zm3.345 0c0-.616-.499-1.115-1.115-1.115s-1.115.499-1.115 1.115.499 1.115 1.115 1.115 1.115-.499 1.115-1.115zm3.346 0c0-.616-.499-1.115-1.115-1.115s-1.115.499-1.115 1.115.499 1.115 1.115 1.115 1.115-.499 1.115-1.115z"/><path d="M469.82 40.966h-3.903c-.532 0-.963-.431-.963-.963a.96.96 0 0 1 .963-.962h3.903c.532 0 .963.431.963.962a.96.96 0 0 1-.963.963zm.963 3.498a.96.96 0 0 0-.963-.962h-3.903a.96.96 0 0 0-.963.962c0 .532.431.963.963.963h3.903c.533-.001.963-.431.963-.963zm0 4.46a.96.96 0 0 0-.963-.963h-3.903c-.532 0-.963.431-.963.963a.96.96 0 0 0 .963.962h3.903a.96.96 0 0 0 .963-.962zm0 4.461a.96.96 0 0 0-.963-.963h-3.903c-.532 0-.963.431-.963.963s.431.963.963.963h3.903a.96.96 0 0 0 .963-.963zm0 4.461a.96.96 0 0 0-.963-.963h-3.903c-.532 0-.963.431-.963.963s.431.963.963.963h3.903c.533-.001.963-.431.963-.963zm0 4.461a.96.96 0 0 0-.963-.963h-3.903a.96.96 0 0 0-.963.963c0 .532.431.963.963.963h3.903a.96.96 0 0 0 .963-.963zm0 4.461a.96.96 0 0 0-.963-.962h-3.903a.96.96 0 0 0-.963.962c0 .532.431.963.963.963h3.903c.533-.001.963-.431.963-.963zm0 4.46a.96.96 0 0 0-.963-.963h-3.903a.96.96 0 0 0-.963.963c0 .532.431.963.963.963h3.903a.96.96 0 0 0 .963-.963zm14.602-31.225a.96.96 0 0 0-.963-.962h-10.245c-.532 0-.963.431-.963.962s.431.963.963.963h10.246c.531 0 .962-.431.962-.963zm0 4.461a.96.96 0 0 0-.963-.962h-10.245a.96.96 0 0 0-.963.962c0 .532.431.963.963.963h10.246c.531-.001.962-.431.962-.963zm0 4.46c0-.532-.431-.963-.963-.963h-10.245c-.532 0-.963.431-.963.963a.96.96 0 0 0 .963.962h10.246a.96.96 0 0 0 .962-.962zm0 4.461c0-.532-.431-.963-.963-.963h-10.245c-.532 0-.963.431-.963.963s.431.963.963.963h10.246c.531 0 .962-.431.962-.963zm0 4.461c0-.532-.431-.963-.963-.963h-10.245c-.532 0-.963.431-.963.963s.431.963.963.963h10.246c.531-.001.962-.431.962-.963zm12.267 4.461a.96.96 0 0 0-.963-.963h-10.246a.96.96 0 0 0-.963.963c0 .532.431.963.963.963h10.246c.532 0 .963-.431.963-.963zm0 4.461a.96.96 0 0 0-.963-.962h-10.246a.96.96 0 0 0-.963.962c0 .532.431.963.963.963h10.246c.532-.001.963-.431.963-.963zm0 4.46a.96.96 0 0 0-.963-.963h-10.246a.96.96 0 0 0-.963.963c0 .532.431.963.963.963h10.246c.532 0 .963-.431.963-.963zm-7.758-31.225c0-.616-.499-1.115-1.115-1.115s-1.115.499-1.115 1.115.499 1.115 1.115 1.115 1.115-.499 1.115-1.115zm3.345 0c0-.616-.499-1.115-1.115-1.115s-1.115.499-1.115 1.115.499 1.115 1.115 1.115 1.115-.499 1.115-1.115zm3.346 0c0-.616-.499-1.115-1.115-1.115s-1.115.499-1.115 1.115.499 1.115 1.115 1.115 1.115-.499 1.115-1.115zm3.345 0c0-.616-.499-1.115-1.115-1.115s-1.115.499-1.115 1.115.499 1.115 1.115 1.115 1.115-.499 1.115-1.115zm3.346 0c0-.616-.499-1.115-1.115-1.115s-1.115.499-1.115 1.115.499 1.115 1.115 1.115 1.115-.499 1.115-1.115zm3.346 0c0-.616-.499-1.115-1.116-1.115s-1.115.499-1.115 1.115.499 1.115 1.115 1.115 1.116-.499 1.116-1.115zm-16.728 8.921c0-.616-.499-1.115-1.115-1.115s-1.115.499-1.115 1.115.499 1.115 1.115 1.115 1.115-.499 1.115-1.115zm3.345 0c0-.616-.499-1.115-1.115-1.115s-1.115.499-1.115 1.115.499 1.115 1.115 1.115 1.115-.499 1.115-1.115zm3.346 0c0-.616-.499-1.115-1.115-1.115s-1.115.499-1.115 1.115.499 1.115 1.115 1.115 1.115-.499 1.115-1.115zm3.345 0c0-.616-.499-1.115-1.115-1.115s-1.115.499-1.115 1.115.499 1.115 1.115 1.115 1.115-.499 1.115-1.115zm3.346 0c0-.616-.499-1.115-1.115-1.115s-1.115.499-1.115 1.115.499 1.115 1.115 1.115 1.115-.499 1.115-1.115zm3.346 0c0-.616-.499-1.115-1.116-1.115s-1.115.499-1.115 1.115.499 1.115 1.115 1.115 1.116-.499 1.116-1.115zm-5.297 12.825c0-.616-.499-1.115-1.115-1.115s-1.115.499-1.115 1.115.499 1.115 1.115 1.115 1.115-.499 1.115-1.115zm3.345 0c0-.616-.499-1.115-1.115-1.115s-1.115.499-1.115 1.115.499 1.115 1.115 1.115 1.115-.499 1.115-1.115zm3.346 0c0-.616-.499-1.115-1.115-1.115s-1.115.499-1.115 1.115.499 1.115 1.115 1.115 1.115-.499 1.115-1.115zm3.345 0c0-.616-.499-1.115-1.115-1.115s-1.115.499-1.115 1.115.499 1.115 1.115 1.115 1.115-.499 1.115-1.115zm3.346 0c0-.616-.499-1.115-1.115-1.115s-1.115.499-1.115 1.115.499 1.115 1.115 1.115 1.115-.499 1.115-1.115zm3.345 0c0-.616-.499-1.115-1.115-1.115s-1.115.499-1.115 1.115.499 1.115 1.115 1.115 1.115-.499 1.115-1.115zm-16.727 9.2c0-.616-.499-1.115-1.115-1.115s-1.115.499-1.115 1.115.499 1.115 1.115 1.115 1.115-.499 1.115-1.115zm3.345 0c0-.616-.499-1.115-1.115-1.115s-1.115.499-1.115 1.115.499 1.115 1.115 1.115 1.115-.499 1.115-1.115zm3.346 0c0-.616-.499-1.115-1.115-1.115s-1.115.499-1.115 1.115.499 1.115 1.115 1.115 1.115-.499 1.115-1.115zm3.345 0c0-.616-.499-1.115-1.115-1.115s-1.115.499-1.115 1.115.499 1.115 1.115 1.115 1.115-.499 1.115-1.115zm3.346 0c0-.616-.499-1.115-1.115-1.115s-1.115.499-1.115 1.115.499 1.115 1.115 1.115 1.115-.499 1.115-1.115zm3.345 0c0-.616-.499-1.115-1.115-1.115s-1.115.499-1.115 1.115.499 1.115 1.115 1.115 1.115-.499 1.115-1.115zm-48.232 6.574h-3.903c-.532 0-.963-.431-.963-.963s.431-.963.963-.963h3.903a.963.963 0 1 1 0 1.926zm.963 3.498a.96.96 0 0 0-.963-.962h-3.903a.96.96 0 0 0-.963.962c0 .532.431.963.963.963h3.903c.533-.001.963-.431.963-.963zm0 4.46a.96.96 0 0 0-.963-.963h-3.903c-.532 0-.963.431-.963.963s.431.963.963.963h3.903a.96.96 0 0 0 .963-.963zm0 4.461a.96.96 0 0 0-.963-.963h-3.903a.962.962 0 1 0 0 1.925h3.903a.96.96 0 0 0 .963-.962zm0 4.461a.96.96 0 0 0-.963-.963h-3.903c-.532 0-.963.431-.963.963s.431.963.963.963h3.903c.533-.001.963-.431.963-.963zm0 4.461a.96.96 0 0 0-.963-.962h-3.903a.96.96 0 0 0-.963.962c0 .532.431.963.963.963h3.903a.96.96 0 0 0 .963-.963zm0 4.461a.96.96 0 0 0-.963-.963h-3.903c-.532 0-.963.431-.963.963a.96.96 0 0 0 .963.962h3.903a.96.96 0 0 0 .963-.962zm0 4.46a.96.96 0 0 0-.963-.963h-3.903c-.532 0-.963.431-.963.963s.431.963.963.963h3.903a.96.96 0 0 0 .963-.963zm14.602-31.225c0-.532-.431-.963-.963-.963h-10.245a.96.96 0 0 0-.963.963c0 .532.431.963.963.963h10.246c.531 0 .962-.431.962-.963zm0 4.461a.96.96 0 0 0-.963-.962h-10.245a.96.96 0 0 0-.963.962c0 .532.431.963.963.963h10.246c.531-.001.962-.431.962-.963zm0 4.46c0-.532-.431-.963-.963-.963h-10.245c-.532 0-.963.431-.963.963s.431.963.963.963h10.246a.96.96 0 0 0 .962-.963zm0 4.461c0-.532-.431-.963-.963-.963h-10.245a.962.962 0 1 0 0 1.925h10.246a.96.96 0 0 0 .962-.962zm0 4.461c0-.532-.431-.963-.963-.963h-10.245c-.532 0-.963.431-.963.963s.431.963.963.963h10.246c.531-.001.962-.431.962-.963zm12.267 4.461a.96.96 0 0 0-.963-.962h-10.246a.96.96 0 0 0-.963.962c0 .532.431.963.963.963h10.246c.532 0 .963-.431.963-.963zm0 4.461a.96.96 0 0 0-.963-.963h-10.246c-.532 0-.963.431-.963.963a.96.96 0 0 0 .963.962h10.246a.96.96 0 0 0 .963-.962zm0 4.46a.96.96 0 0 0-.963-.963h-10.246c-.532 0-.963.431-.963.963s.431.963.963.963h10.246c.532 0 .963-.431.963-.963zm-7.758-31.225c0-.616-.499-1.115-1.115-1.115s-1.115.5-1.115 1.115.499 1.115 1.115 1.115 1.115-.499 1.115-1.115zm3.345 0c0-.616-.499-1.115-1.115-1.115s-1.115.5-1.115 1.115.499 1.115 1.115 1.115 1.115-.499 1.115-1.115zm3.346 0c0-.616-.499-1.115-1.115-1.115s-1.115.5-1.115 1.115.499 1.115 1.115 1.115 1.115-.499 1.115-1.115zm3.345 0c0-.616-.499-1.115-1.115-1.115s-1.115.5-1.115 1.115.499 1.115 1.115 1.115 1.115-.499 1.115-1.115zm3.346 0c0-.616-.499-1.115-1.115-1.115s-1.115.5-1.115 1.115.499 1.115 1.115 1.115 1.115-.499 1.115-1.115zm3.346 0c0-.616-.499-1.115-1.116-1.115s-1.115.5-1.115 1.115.499 1.115 1.115 1.115 1.116-.499 1.116-1.115zm-16.728 8.921c0-.616-.499-1.115-1.115-1.115s-1.115.499-1.115 1.115.499 1.115 1.115 1.115 1.115-.498 1.115-1.115zm3.345 0c0-.616-.499-1.115-1.115-1.115s-1.115.499-1.115 1.115.499 1.115 1.115 1.115 1.115-.498 1.115-1.115zm3.346 0c0-.616-.499-1.115-1.115-1.115s-1.115.499-1.115 1.115.499 1.115 1.115 1.115 1.115-.498 1.115-1.115zm3.345 0c0-.616-.499-1.115-1.115-1.115s-1.115.499-1.115 1.115.499 1.115 1.115 1.115 1.115-.498 1.115-1.115zm3.346 0c0-.616-.499-1.115-1.115-1.115s-1.115.499-1.115 1.115.499 1.115 1.115 1.115 1.115-.498 1.115-1.115zm3.346 0c0-.616-.499-1.115-1.116-1.115s-1.115.499-1.115 1.115.499 1.115 1.115 1.115 1.116-.498 1.116-1.115zm-5.297 12.825c0-.616-.499-1.115-1.115-1.115s-1.115.499-1.115 1.115.499 1.115 1.115 1.115 1.115-.499 1.115-1.115zm3.345 0c0-.616-.499-1.115-1.115-1.115s-1.115.499-1.115 1.115.499 1.115 1.115 1.115 1.115-.499 1.115-1.115zm3.346 0c0-.616-.499-1.115-1.115-1.115s-1.115.499-1.115 1.115.499 1.115 1.115 1.115 1.115-.499 1.115-1.115zm3.345 0c0-.616-.499-1.115-1.115-1.115s-1.115.499-1.115 1.115.499 1.115 1.115 1.115 1.115-.499 1.115-1.115zm3.346 0c0-.616-.499-1.115-1.115-1.115s-1.115.499-1.115 1.115.499 1.115 1.115 1.115 1.115-.499 1.115-1.115zm3.345 0c0-.616-.499-1.115-1.115-1.115s-1.115.499-1.115 1.115.499 1.115 1.115 1.115 1.115-.499 1.115-1.115zm-16.727 9.2c0-.616-.499-1.115-1.115-1.115s-1.115.499-1.115 1.115.499 1.115 1.115 1.115 1.115-.499 1.115-1.115zm3.345 0c0-.616-.499-1.115-1.115-1.115s-1.115.499-1.115 1.115.499 1.115 1.115 1.115 1.115-.499 1.115-1.115zm3.346 0c0-.616-.499-1.115-1.115-1.115s-1.115.499-1.115 1.115.499 1.115 1.115 1.115 1.115-.499 1.115-1.115zm3.345 0c0-.616-.499-1.115-1.115-1.115s-1.115.499-1.115 1.115.499 1.115 1.115 1.115 1.115-.499 1.115-1.115zm3.346 0c0-.616-.499-1.115-1.115-1.115s-1.115.499-1.115 1.115.499 1.115 1.115 1.115 1.115-.499 1.115-1.115zm3.345 0c0-.616-.499-1.115-1.115-1.115s-1.115.499-1.115 1.115.499 1.115 1.115 1.115 1.115-.499 1.115-1.115z"/><path d="M212.285 186.773h-3.903c-.532 0-.963-.431-.963-.963a.96.96 0 0 1 .963-.962h3.903c.532 0 .963.431.963.962s-.431.963-.963.963zm.962 3.497a.96.96 0 0 0-.963-.962h-3.903a.963.963 0 1 0 0 1.925h3.903a.96.96 0 0 0 .963-.963zm0 4.461a.96.96 0 0 0-.963-.963h-3.903c-.532 0-.963.431-.963.963a.96.96 0 0 0 .963.962h3.903a.96.96 0 0 0 .963-.962zm0 4.461a.96.96 0 0 0-.963-.963h-3.903c-.532 0-.963.431-.963.963a.96.96 0 0 0 .963.963h3.903c.533-.001.963-.431.963-.963zm0 4.46a.96.96 0 0 0-.963-.963h-3.903c-.532 0-.963.431-.963.963a.96.96 0 0 0 .963.963h3.903a.96.96 0 0 0 .963-.963zm0 4.462a.96.96 0 0 0-.963-.963h-3.903a.963.963 0 1 0 0 1.926h3.903c.533-.001.963-.431.963-.963zm0 4.46a.96.96 0 0 0-.963-.963h-3.903a.963.963 0 1 0 0 1.926h3.903a.96.96 0 0 0 .963-.963zm0 4.461a.96.96 0 0 0-.963-.963h-3.903a.963.963 0 1 0 0 1.925h3.903a.96.96 0 0 0 .963-.962zm14.602-31.225a.96.96 0 0 0-.963-.962H216.64a.963.963 0 0 0 0 1.925h10.246c.532 0 .963-.431.963-.963zm0 4.46a.96.96 0 0 0-.963-.962H216.64a.963.963 0 0 0 0 1.925h10.246c.532 0 .963-.431.963-.963zm0 4.461c0-.532-.431-.963-.963-.963H216.64a.963.963 0 1 0 0 1.925h10.246a.96.96 0 0 0 .963-.962zm0 4.461c0-.532-.431-.963-.963-.963H216.64a.963.963 0 1 0 0 1.926h10.246c.532-.001.963-.431.963-.963zm0 4.46c0-.532-.431-.963-.963-.963H216.64a.963.963 0 1 0 0 1.926h10.246c.532 0 .963-.431.963-.963zm12.267 4.462a.96.96 0 0 0-.963-.963h-10.246a.96.96 0 0 0-.963.963c0 .532.431.963.963.963h10.246c.533-.001.963-.431.963-.963zm0 4.46a.96.96 0 0 0-.963-.963h-10.246a.96.96 0 0 0-.963.963c0 .532.431.963.963.963h10.246a.96.96 0 0 0 .963-.963zm0 4.461a.96.96 0 0 0-.963-.963h-10.246a.963.963 0 1 0 0 1.925h10.246a.96.96 0 0 0 .963-.962zm-7.758-31.225c0-.616-.499-1.115-1.115-1.115s-1.115.499-1.115 1.115.499 1.115 1.115 1.115 1.115-.499 1.115-1.115zm3.346 0c0-.616-.499-1.115-1.115-1.115s-1.115.499-1.115 1.115.499 1.115 1.115 1.115 1.115-.499 1.115-1.115zm3.345 0c0-.616-.499-1.115-1.115-1.115s-1.115.499-1.115 1.115.499 1.115 1.115 1.115 1.115-.499 1.115-1.115zm3.346 0c0-.616-.499-1.115-1.115-1.115s-1.115.499-1.115 1.115.499 1.115 1.115 1.115 1.115-.499 1.115-1.115zm3.346 0c0-.616-.499-1.115-1.115-1.115s-1.115.499-1.115 1.115.499 1.115 1.115 1.115 1.115-.499 1.115-1.115zm3.345 0c0-.616-.499-1.115-1.115-1.115s-1.115.499-1.115 1.115.499 1.115 1.115 1.115 1.115-.499 1.115-1.115zm-16.728 8.921c0-.616-.499-1.115-1.115-1.115s-1.115.499-1.115 1.115.499 1.115 1.115 1.115 1.115-.499 1.115-1.115zm3.346 0c0-.616-.499-1.115-1.115-1.115s-1.115.499-1.115 1.115.499 1.115 1.115 1.115 1.115-.499 1.115-1.115zm3.345 0c0-.616-.499-1.115-1.115-1.115s-1.115.499-1.115 1.115.499 1.115 1.115 1.115 1.115-.499 1.115-1.115zm3.346 0c0-.616-.499-1.115-1.115-1.115s-1.115.499-1.115 1.115.499 1.115 1.115 1.115 1.115-.499 1.115-1.115zm3.346 0c0-.616-.499-1.115-1.115-1.115s-1.115.499-1.115 1.115.499 1.115 1.115 1.115 1.115-.499 1.115-1.115zm3.345 0c0-.616-.499-1.115-1.115-1.115s-1.115.499-1.115 1.115.499 1.115 1.115 1.115 1.115-.499 1.115-1.115zm-5.297 12.825c0-.616-.499-1.115-1.115-1.115s-1.115.499-1.115 1.115.499 1.115 1.115 1.115 1.115-.499 1.115-1.115zm3.345 0c0-.616-.499-1.115-1.115-1.115s-1.115.499-1.115 1.115.499 1.115 1.115 1.115 1.115-.499 1.115-1.115zm3.346 0c0-.616-.499-1.115-1.115-1.115s-1.115.499-1.115 1.115.499 1.115 1.115 1.115 1.115-.499 1.115-1.115zm3.345 0c0-.616-.499-1.115-1.115-1.115s-1.115.499-1.115 1.115.499 1.115 1.115 1.115 1.115-.499 1.115-1.115zm3.346 0c0-.616-.499-1.115-1.115-1.115s-1.115.499-1.115 1.115.499 1.115 1.115 1.115 1.115-.499 1.115-1.115zm3.346 0c0-.616-.499-1.115-1.115-1.115s-1.115.499-1.115 1.115.499 1.115 1.115 1.115 1.115-.499 1.115-1.115zm-16.728 9.2c0-.616-.499-1.115-1.115-1.115s-1.115.499-1.115 1.115.499 1.115 1.115 1.115 1.115-.499 1.115-1.115zm3.345 0c0-.616-.499-1.115-1.115-1.115s-1.115.499-1.115 1.115.499 1.115 1.115 1.115 1.115-.499 1.115-1.115zm3.346 0c0-.616-.499-1.115-1.115-1.115s-1.115.499-1.115 1.115.499 1.115 1.115 1.115 1.115-.499 1.115-1.115zm3.345 0c0-.616-.499-1.115-1.115-1.115s-1.115.499-1.115 1.115.499 1.115 1.115 1.115 1.115-.499 1.115-1.115zm3.346 0c0-.616-.499-1.115-1.115-1.115s-1.115.499-1.115 1.115.499 1.115 1.115 1.115 1.115-.499 1.115-1.115zm3.346 0c0-.616-.499-1.115-1.115-1.115s-1.115.499-1.115 1.115.499 1.115 1.115 1.115 1.115-.499 1.115-1.115zm-48.232 5.712h-3.903c-.532 0-.963-.431-.963-.963a.96.96 0 0 1 .963-.963h3.903c.532 0 .963.431.963.963s-.431.963-.963.963zm.962 3.498a.96.96 0 0 0-.963-.963h-3.903a.963.963 0 1 0 0 1.926h3.903c.533-.001.963-.431.963-.963zm0 4.46a.96.96 0 0 0-.963-.962h-3.903a.963.963 0 1 0 0 1.925h3.903a.96.96 0 0 0 .963-.963zm0 4.461a.96.96 0 0 0-.963-.963h-3.903a.963.963 0 1 0 0 1.925h3.903a.96.96 0 0 0 .963-.962zm0 4.461a.96.96 0 0 0-.963-.963h-3.903c-.532 0-.963.431-.963.963a.96.96 0 0 0 .963.962h3.903a.96.96 0 0 0 .963-.962zm0 4.461a.96.96 0 0 0-.963-.963h-3.903c-.532 0-.963.431-.963.963a.96.96 0 0 0 .963.963h3.903a.96.96 0 0 0 .963-.963zm0 4.461a.96.96 0 0 0-.963-.963h-3.903c-.532 0-.963.431-.963.963a.96.96 0 0 0 .963.963h3.903c.533-.001.963-.431.963-.963zm0 4.46a.96.96 0 0 0-.963-.963h-3.903c-.532 0-.963.431-.963.963a.96.96 0 0 0 .963.963h3.903a.96.96 0 0 0 .963-.963zm14.602-31.225c0-.532-.431-.963-.963-.963H216.64a.963.963 0 1 0 0 1.926h10.246c.532 0 .963-.431.963-.963zm0 4.461c0-.532-.431-.963-.963-.963H216.64a.963.963 0 1 0 0 1.926h10.246c.532-.001.963-.431.963-.963zm0 4.46a.96.96 0 0 0-.963-.962H216.64a.963.963 0 0 0 0 1.925h10.246c.532 0 .963-.431.963-.963zm0 4.461c0-.532-.431-.963-.963-.963H216.64a.963.963 0 0 0 0 1.925h10.246a.96.96 0 0 0 .963-.962zm0 4.461c0-.532-.431-.963-.963-.963H216.64a.963.963 0 0 0 0 1.925h10.246c.532 0 .963-.431.963-.962zm12.267 4.461a.96.96 0 0 0-.963-.963h-10.246c-.532 0-.963.431-.963.963s.431.963.963.963h10.246a.96.96 0 0 0 .963-.963zm0 4.461a.96.96 0 0 0-.963-.963h-10.246c-.532 0-.963.431-.963.963s.431.963.963.963h10.246c.533-.001.963-.431.963-.963zm0 4.46a.96.96 0 0 0-.963-.963h-10.246c-.532 0-.963.431-.963.963s.431.963.963.963h10.246a.96.96 0 0 0 .963-.963zm-7.758-31.225c0-.616-.499-1.115-1.115-1.115s-1.115.499-1.115 1.115.499 1.115 1.115 1.115 1.115-.499 1.115-1.115zm3.346 0c0-.616-.499-1.115-1.115-1.115s-1.115.499-1.115 1.115.499 1.115 1.115 1.115 1.115-.499 1.115-1.115zm3.345 0c0-.616-.499-1.115-1.115-1.115s-1.115.499-1.115 1.115.499 1.115 1.115 1.115 1.115-.499 1.115-1.115zm3.346 0c0-.616-.499-1.115-1.115-1.115s-1.115.499-1.115 1.115.499 1.115 1.115 1.115 1.115-.499 1.115-1.115zm3.346 0c0-.616-.499-1.115-1.115-1.115s-1.115.499-1.115 1.115.499 1.115 1.115 1.115 1.115-.499 1.115-1.115zm3.345 0c0-.616-.499-1.115-1.115-1.115s-1.115.499-1.115 1.115.499 1.115 1.115 1.115 1.115-.499 1.115-1.115zm-16.728 8.921c0-.616-.499-1.115-1.115-1.115s-1.115.499-1.115 1.115.499 1.115 1.115 1.115 1.115-.499 1.115-1.115zm3.346 0c0-.616-.499-1.115-1.115-1.115s-1.115.499-1.115 1.115.499 1.115 1.115 1.115 1.115-.499 1.115-1.115zm3.345 0c0-.616-.499-1.115-1.115-1.115s-1.115.499-1.115 1.115.499 1.115 1.115 1.115 1.115-.499 1.115-1.115zm3.346 0c0-.616-.499-1.115-1.115-1.115s-1.115.499-1.115 1.115.499 1.115 1.115 1.115 1.115-.499 1.115-1.115zm3.346 0c0-.616-.499-1.115-1.115-1.115s-1.115.499-1.115 1.115.499 1.115 1.115 1.115 1.115-.499 1.115-1.115zm3.345 0c0-.616-.499-1.115-1.115-1.115s-1.115.499-1.115 1.115.499 1.115 1.115 1.115 1.115-.499 1.115-1.115zm-5.297 12.825c0-.616-.499-1.115-1.115-1.115s-1.115.499-1.115 1.115.499 1.115 1.115 1.115 1.115-.499 1.115-1.115zm3.345 0c0-.616-.499-1.115-1.115-1.115s-1.115.499-1.115 1.115.499 1.115 1.115 1.115 1.115-.499 1.115-1.115zm3.346 0c0-.616-.499-1.115-1.115-1.115s-1.115.499-1.115 1.115.499 1.115 1.115 1.115 1.115-.499 1.115-1.115zm3.345 0c0-.616-.499-1.115-1.115-1.115s-1.115.499-1.115 1.115.499 1.115 1.115 1.115 1.115-.499 1.115-1.115zm3.346 0c0-.616-.499-1.115-1.115-1.115s-1.115.499-1.115 1.115.499 1.115 1.115 1.115 1.115-.499 1.115-1.115zm3.346 0c0-.616-.499-1.115-1.115-1.115s-1.115.499-1.115 1.115.499 1.115 1.115 1.115 1.115-.499 1.115-1.115zm-16.728 9.2c0-.616-.499-1.115-1.115-1.115s-1.115.499-1.115 1.115.499 1.115 1.115 1.115 1.115-.499 1.115-1.115zm3.345 0c0-.616-.499-1.115-1.115-1.115s-1.115.499-1.115 1.115.499 1.115 1.115 1.115 1.115-.499 1.115-1.115zm3.346 0c0-.616-.499-1.115-1.115-1.115s-1.115.499-1.115 1.115.499 1.115 1.115 1.115 1.115-.499 1.115-1.115zm3.345 0c0-.616-.499-1.115-1.115-1.115s-1.115.499-1.115 1.115.499 1.115 1.115 1.115 1.115-.499 1.115-1.115zm3.346 0c0-.616-.499-1.115-1.115-1.115s-1.115.499-1.115 1.115.499 1.115 1.115 1.115 1.115-.499 1.115-1.115zm3.346 0c0-.616-.499-1.115-1.115-1.115s-1.115.499-1.115 1.115.499 1.115 1.115 1.115 1.115-.499 1.115-1.115z"/><path d="M212.285 259.025h-3.903c-.532 0-.963-.431-.963-.963a.96.96 0 0 1 .963-.963h3.903c.532 0 .963.431.963.963s-.431.963-.963.963zm.962 3.497a.96.96 0 0 0-.963-.962h-3.903a.963.963 0 1 0 0 1.925h3.903a.96.96 0 0 0 .963-.963zm0 4.461a.96.96 0 0 0-.963-.963h-3.903c-.532 0-.963.431-.963.963a.96.96 0 0 0 .963.963h3.903a.96.96 0 0 0 .963-.963zm0 4.461a.96.96 0 0 0-.963-.963h-3.903c-.532 0-.963.431-.963.963a.96.96 0 0 0 .963.962h3.903a.96.96 0 0 0 .963-.962zm0 4.46a.96.96 0 0 0-.963-.963h-3.903c-.532 0-.963.431-.963.963a.96.96 0 0 0 .963.963h3.903a.96.96 0 0 0 .963-.963zm0 4.462a.96.96 0 0 0-.963-.963h-3.903c-.532 0-.963.431-.963.963a.96.96 0 0 0 .963.963h3.903a.96.96 0 0 0 .963-.963zm0 4.461a.96.96 0 0 0-.963-.963h-3.903a.963.963 0 1 0 0 1.925h3.903a.96.96 0 0 0 .963-.962zm0 4.46a.96.96 0 0 0-.963-.963h-3.903c-.532 0-.963.431-.963.963a.96.96 0 0 0 .963.962h3.903a.96.96 0 0 0 .963-.962zm14.602-31.225c0-.532-.431-.963-.963-.963H216.64a.963.963 0 1 0 0 1.926h10.246c.532 0 .963-.431.963-.963zm0 4.46a.96.96 0 0 0-.963-.962H216.64a.963.963 0 0 0 0 1.925h10.246a.96.96 0 0 0 .963-.963zm0 4.461c0-.532-.431-.963-.963-.963H216.64a.963.963 0 0 0 0 1.926h10.246c.532 0 .963-.431.963-.963zm0 4.461c0-.532-.431-.963-.963-.963H216.64a.963.963 0 0 0 0 1.925h10.246a.96.96 0 0 0 .963-.962zm0 4.46c0-.532-.431-.963-.963-.963H216.64a.963.963 0 1 0 0 1.926h10.246c.532 0 .963-.431.963-.963zm12.267 4.462a.96.96 0 0 0-.963-.963h-10.246c-.532 0-.963.431-.963.963s.431.963.963.963h10.246a.96.96 0 0 0 .963-.963zm0 4.461a.96.96 0 0 0-.963-.963h-10.246a.963.963 0 1 0 0 1.925h10.246a.96.96 0 0 0 .963-.962zm0 4.46a.96.96 0 0 0-.963-.963h-10.246c-.532 0-.963.431-.963.963a.96.96 0 0 0 .963.962h10.246a.96.96 0 0 0 .963-.962zm-7.758-31.225c0-.616-.499-1.115-1.115-1.115s-1.115.499-1.115 1.115.499 1.115 1.115 1.115 1.115-.499 1.115-1.115zm3.346 0c0-.616-.499-1.115-1.115-1.115s-1.115.499-1.115 1.115.499 1.115 1.115 1.115 1.115-.499 1.115-1.115zm3.345 0c0-.616-.499-1.115-1.115-1.115s-1.115.499-1.115 1.115.499 1.115 1.115 1.115 1.115-.499 1.115-1.115zm3.346 0c0-.616-.499-1.115-1.115-1.115s-1.115.499-1.115 1.115.499 1.115 1.115 1.115 1.115-.499 1.115-1.115zm3.346 0c0-.616-.499-1.115-1.115-1.115s-1.115.499-1.115 1.115.499 1.115 1.115 1.115 1.115-.499 1.115-1.115zm3.345 0c0-.616-.499-1.115-1.115-1.115s-1.115.499-1.115 1.115.499 1.115 1.115 1.115 1.115-.499 1.115-1.115zm-16.728 8.921c0-.616-.499-1.115-1.115-1.115s-1.115.5-1.115 1.115.499 1.115 1.115 1.115 1.115-.499 1.115-1.115zm3.346 0c0-.616-.499-1.115-1.115-1.115s-1.115.5-1.115 1.115.499 1.115 1.115 1.115 1.115-.499 1.115-1.115zm3.345 0c0-.616-.499-1.115-1.115-1.115s-1.115.5-1.115 1.115.499 1.115 1.115 1.115 1.115-.499 1.115-1.115zm3.346 0c0-.616-.499-1.115-1.115-1.115s-1.115.5-1.115 1.115.499 1.115 1.115 1.115 1.115-.499 1.115-1.115zm3.346 0c0-.616-.499-1.115-1.115-1.115s-1.115.5-1.115 1.115.499 1.115 1.115 1.115 1.115-.499 1.115-1.115zm3.345 0c0-.616-.499-1.115-1.115-1.115s-1.115.5-1.115 1.115.499 1.115 1.115 1.115 1.115-.499 1.115-1.115zm-5.297 12.825c0-.616-.499-1.115-1.115-1.115s-1.115.499-1.115 1.115.499 1.115 1.115 1.115 1.115-.499 1.115-1.115zm3.345 0c0-.616-.499-1.115-1.115-1.115s-1.115.499-1.115 1.115.499 1.115 1.115 1.115 1.115-.499 1.115-1.115zm3.346 0c0-.616-.499-1.115-1.115-1.115s-1.115.499-1.115 1.115.499 1.115 1.115 1.115 1.115-.499 1.115-1.115zm3.345 0c0-.616-.499-1.115-1.115-1.115s-1.115.499-1.115 1.115.499 1.115 1.115 1.115 1.115-.499 1.115-1.115zm3.346 0c0-.616-.499-1.115-1.115-1.115s-1.115.499-1.115 1.115.499 1.115 1.115 1.115 1.115-.499 1.115-1.115zm3.346 0c0-.616-.499-1.115-1.115-1.115s-1.115.499-1.115 1.115.499 1.115 1.115 1.115 1.115-.499 1.115-1.115zm-16.728 9.2c0-.616-.499-1.115-1.115-1.115s-1.115.499-1.115 1.115.499 1.115 1.115 1.115 1.115-.499 1.115-1.115zm3.345 0c0-.616-.499-1.115-1.115-1.115s-1.115.499-1.115 1.115.499 1.115 1.115 1.115 1.115-.499 1.115-1.115zm3.346 0c0-.616-.499-1.115-1.115-1.115s-1.115.499-1.115 1.115.499 1.115 1.115 1.115 1.115-.499 1.115-1.115zm3.345 0c0-.616-.499-1.115-1.115-1.115s-1.115.499-1.115 1.115.499 1.115 1.115 1.115 1.115-.499 1.115-1.115zm3.346 0c0-.616-.499-1.115-1.115-1.115s-1.115.499-1.115 1.115.499 1.115 1.115 1.115 1.115-.499 1.115-1.115zm3.346 0c0-.616-.499-1.115-1.115-1.115s-1.115.499-1.115 1.115.499 1.115 1.115 1.115 1.115-.499 1.115-1.115zm11.693-102.235h-3.903a.963.963 0 0 1 0-1.925h3.903c.532 0 .963.431.963.962s-.431.963-.963.963zm.962 3.497a.96.96 0 0 0-.963-.962h-3.903a.963.963 0 0 0 0 1.925h3.903a.96.96 0 0 0 .963-.963zm0 4.461a.96.96 0 0 0-.963-.963h-3.903a.963.963 0 1 0 0 1.925h3.903a.96.96 0 0 0 .963-.962zm0 4.461a.96.96 0 0 0-.963-.963h-3.903a.963.963 0 1 0 0 1.926h3.903c.533-.001.963-.431.963-.963zm0 4.46a.96.96 0 0 0-.963-.963h-3.903a.963.963 0 1 0 0 1.926h3.903a.96.96 0 0 0 .963-.963zm0 4.462a.96.96 0 0 0-.963-.963h-3.903a.963.963 0 1 0 0 1.926h3.903c.533-.001.963-.431.963-.963zm0 4.46a.96.96 0 0 0-.963-.963h-3.903a.963.963 0 1 0 0 1.926h3.903a.96.96 0 0 0 .963-.963zm0 4.461a.96.96 0 0 0-.963-.963h-3.903a.963.963 0 1 0 0 1.925h3.903a.96.96 0 0 0 .963-.962zm14.603-31.225a.96.96 0 0 0-.963-.962h-10.246c-.532 0-.963.431-.963.962s.431.963.963.963h10.246c.532 0 .963-.431.963-.963zm0 4.46a.96.96 0 0 0-.963-.962h-10.246a.96.96 0 0 0-.963.962c0 .532.431.963.963.963h10.246c.532 0 .963-.431.963-.963zm0 4.461c0-.532-.431-.963-.963-.963h-10.246c-.532 0-.963.431-.963.963a.96.96 0 0 0 .963.962h10.246a.96.96 0 0 0 .963-.962zm0 4.461c0-.532-.431-.963-.963-.963h-10.246c-.532 0-.963.431-.963.963s.431.963.963.963h10.246c.532-.001.963-.431.963-.963zm0 4.46c0-.532-.431-.963-.963-.963h-10.246c-.532 0-.963.431-.963.963s.431.963.963.963h10.246c.532 0 .963-.431.963-.963zm12.266 4.462a.96.96 0 0 0-.962-.963h-10.246a.96.96 0 0 0-.963.963c0 .532.431.963.963.963h10.246c.532-.001.962-.431.962-.963zm0 4.46a.96.96 0 0 0-.962-.963h-10.246a.96.96 0 0 0-.963.963c0 .532.431.963.963.963h10.246a.96.96 0 0 0 .962-.963zm0 4.461a.96.96 0 0 0-.962-.963h-10.246a.963.963 0 1 0 0 1.925h10.246a.96.96 0 0 0 .962-.962zm-7.757-31.225c0-.616-.499-1.115-1.115-1.115s-1.115.499-1.115 1.115.499 1.115 1.115 1.115 1.115-.499 1.115-1.115zm3.345 0c0-.616-.499-1.115-1.115-1.115s-1.115.499-1.115 1.115.499 1.115 1.115 1.115 1.115-.499 1.115-1.115zm3.346 0c0-.616-.499-1.115-1.115-1.115s-1.115.499-1.115 1.115.499 1.115 1.115 1.115 1.115-.499 1.115-1.115zm3.345 0c0-.616-.499-1.115-1.115-1.115s-1.115.499-1.115 1.115.499 1.115 1.115 1.115 1.115-.499 1.115-1.115zm3.346 0c0-.616-.499-1.115-1.115-1.115s-1.115.499-1.115 1.115.499 1.115 1.115 1.115 1.115-.499 1.115-1.115zm3.345 0c0-.616-.499-1.115-1.116-1.115s-1.115.499-1.115 1.115.499 1.115 1.115 1.115 1.116-.499 1.116-1.115zm-16.727 8.921c0-.616-.499-1.115-1.115-1.115s-1.115.499-1.115 1.115.499 1.115 1.115 1.115 1.115-.499 1.115-1.115zm3.345 0c0-.616-.499-1.115-1.115-1.115s-1.115.499-1.115 1.115.499 1.115 1.115 1.115 1.115-.499 1.115-1.115zm3.346 0c0-.616-.499-1.115-1.115-1.115s-1.115.499-1.115 1.115.499 1.115 1.115 1.115 1.115-.499 1.115-1.115zm3.345 0c0-.616-.499-1.115-1.115-1.115s-1.115.499-1.115 1.115.499 1.115 1.115 1.115 1.115-.499 1.115-1.115zm3.346 0c0-.616-.499-1.115-1.115-1.115s-1.115.499-1.115 1.115.499 1.115 1.115 1.115 1.115-.499 1.115-1.115zm3.345 0c0-.616-.499-1.115-1.116-1.115s-1.115.499-1.115 1.115.499 1.115 1.115 1.115 1.116-.499 1.116-1.115zm-5.297 12.825c0-.616-.499-1.115-1.116-1.115s-1.115.499-1.115 1.115.499 1.115 1.115 1.115 1.116-.499 1.116-1.115zm3.346 0c0-.616-.499-1.115-1.115-1.115s-1.115.499-1.115 1.115.499 1.115 1.115 1.115 1.115-.499 1.115-1.115zm3.345 0c0-.616-.499-1.115-1.115-1.115s-1.115.499-1.115 1.115.499 1.115 1.115 1.115 1.115-.499 1.115-1.115zm3.346 0c0-.616-.5-1.115-1.115-1.115s-1.115.499-1.115 1.115.499 1.115 1.115 1.115 1.115-.499 1.115-1.115zm3.345 0c0-.616-.499-1.115-1.115-1.115s-1.115.499-1.115 1.115.499 1.115 1.115 1.115 1.115-.499 1.115-1.115zm3.346 0c0-.616-.499-1.115-1.115-1.115s-1.115.499-1.115 1.115.499 1.115 1.115 1.115 1.115-.499 1.115-1.115zm-16.728 9.2c0-.616-.499-1.115-1.116-1.115s-1.115.499-1.115 1.115.499 1.115 1.115 1.115 1.116-.499 1.116-1.115zm3.346 0c0-.616-.499-1.115-1.115-1.115s-1.115.499-1.115 1.115.499 1.115 1.115 1.115 1.115-.499 1.115-1.115zm3.345 0c0-.616-.499-1.115-1.115-1.115s-1.115.499-1.115 1.115.499 1.115 1.115 1.115 1.115-.499 1.115-1.115zm3.346 0c0-.616-.5-1.115-1.115-1.115s-1.115.499-1.115 1.115.499 1.115 1.115 1.115 1.115-.499 1.115-1.115zm3.345 0c0-.616-.499-1.115-1.115-1.115s-1.115.499-1.115 1.115.499 1.115 1.115 1.115 1.115-.499 1.115-1.115zm3.346 0c0-.616-.499-1.115-1.115-1.115s-1.115.499-1.115 1.115.499 1.115 1.115 1.115 1.115-.499 1.115-1.115z"/><path d="M272.21 223.329h-3.903a.96.96 0 1 1 0-1.926h3.903a.96.96 0 0 1 .963.963c-.001.533-.431.963-.963.963zm.962 3.498a.96.96 0 0 0-.963-.963h-3.903a.96.96 0 1 0 0 1.926h3.903a.96.96 0 0 0 .963-.963zm0 4.461a.96.96 0 0 0-.963-.963h-3.903a.96.96 0 1 0 0 1.926h3.903a.96.96 0 0 0 .963-.963zm0 4.461a.96.96 0 0 0-.963-.963h-3.903a.96.96 0 1 0 0 1.925h3.903a.96.96 0 0 0 .963-.962zm0 4.46a.96.96 0 0 0-.963-.963h-3.903a.96.96 0 1 0 0 1.926h3.903a.96.96 0 0 0 .963-.963zm0 4.462a.96.96 0 0 0-.963-.962h-3.903a.96.96 0 1 0 0 1.925h3.903c.533-.001.963-.431.963-.963zm0 4.46a.96.96 0 0 0-.963-.963h-3.903a.96.96 0 0 0 0 1.925h3.903a.96.96 0 0 0 .963-.962zm0 4.461a.96.96 0 0 0-.963-.963h-3.903a.96.96 0 1 0 0 1.926h3.903a.96.96 0 0 0 .963-.963zm14.603-31.225c0-.532-.431-.963-.963-.963h-10.246a.96.96 0 0 0-.963.963c0 .532.431.963.963.963h10.246c.532-.001.963-.431.963-.963zm0 4.46c0-.532-.431-.963-.963-.963h-10.246c-.532 0-.963.431-.963.963s.431.963.963.963h10.246a.96.96 0 0 0 .963-.963zm0 4.461c0-.532-.431-.963-.963-.963h-10.246c-.532 0-.963.431-.963.963s.431.963.963.963h10.246c.532 0 .963-.431.963-.963zm0 4.461c0-.532-.431-.963-.963-.963h-10.246a.96.96 0 1 0 0 1.925h10.246c.532 0 .963-.431.963-.962zm0 4.46c0-.532-.431-.963-.963-.963h-10.246c-.532 0-.963.431-.963.963s.431.963.963.963h10.246c.532 0 .963-.431.963-.963zm12.266 4.462a.96.96 0 0 0-.962-.962h-10.246a.96.96 0 0 0-.963.962c0 .532.431.963.963.963h10.246c.532-.001.962-.431.962-.963zm0 4.46a.96.96 0 0 0-.962-.963h-10.246c-.532 0-.963.431-.963.963a.96.96 0 0 0 .963.962h10.246a.96.96 0 0 0 .962-.962zm0 4.461a.96.96 0 0 0-.962-.963h-10.246c-.532 0-.963.431-.963.963s.431.963.963.963h10.246a.96.96 0 0 0 .962-.963zm-7.757-31.225c0-.616-.499-1.115-1.115-1.115s-1.115.499-1.115 1.115.499 1.115 1.115 1.115 1.115-.499 1.115-1.115zm3.345 0c0-.616-.499-1.115-1.115-1.115s-1.115.499-1.115 1.115.499 1.115 1.115 1.115 1.115-.499 1.115-1.115zm3.346 0c0-.616-.499-1.115-1.115-1.115s-1.115.499-1.115 1.115.499 1.115 1.115 1.115 1.115-.499 1.115-1.115zm3.345 0c0-.616-.499-1.115-1.115-1.115s-1.115.499-1.115 1.115.499 1.115 1.115 1.115 1.115-.499 1.115-1.115zm3.346 0c0-.616-.499-1.115-1.115-1.115s-1.115.499-1.115 1.115.499 1.115 1.115 1.115 1.115-.499 1.115-1.115zm3.345 0c0-.616-.499-1.115-1.116-1.115s-1.115.499-1.115 1.115.499 1.115 1.115 1.115 1.116-.499 1.116-1.115zm-16.727 8.921c0-.616-.499-1.115-1.115-1.115s-1.115.499-1.115 1.115.499 1.115 1.115 1.115 1.115-.499 1.115-1.115zm3.345 0c0-.616-.499-1.115-1.115-1.115s-1.115.499-1.115 1.115.499 1.115 1.115 1.115 1.115-.499 1.115-1.115zm3.346 0c0-.616-.499-1.115-1.115-1.115s-1.115.499-1.115 1.115.499 1.115 1.115 1.115 1.115-.499 1.115-1.115zm3.345 0c0-.616-.499-1.115-1.115-1.115s-1.115.499-1.115 1.115.499 1.115 1.115 1.115 1.115-.499 1.115-1.115zm3.346 0c0-.616-.499-1.115-1.115-1.115s-1.115.499-1.115 1.115.499 1.115 1.115 1.115 1.115-.499 1.115-1.115zm3.345 0c0-.616-.499-1.115-1.116-1.115s-1.115.499-1.115 1.115.499 1.115 1.115 1.115 1.116-.499 1.116-1.115zm-5.297 12.825c0-.616-.499-1.115-1.116-1.115s-1.115.5-1.115 1.115.499 1.115 1.115 1.115 1.116-.499 1.116-1.115zm3.346 0c0-.616-.499-1.115-1.115-1.115s-1.115.5-1.115 1.115.499 1.115 1.115 1.115 1.115-.499 1.115-1.115zm3.345 0c0-.616-.499-1.115-1.115-1.115s-1.115.5-1.115 1.115.499 1.115 1.115 1.115 1.115-.499 1.115-1.115zm3.346 0c0-.616-.5-1.115-1.115-1.115s-1.115.5-1.115 1.115.499 1.115 1.115 1.115 1.115-.499 1.115-1.115zm3.345 0c0-.616-.499-1.115-1.115-1.115s-1.115.5-1.115 1.115.499 1.115 1.115 1.115 1.115-.499 1.115-1.115zm3.346 0c0-.616-.499-1.115-1.115-1.115s-1.115.5-1.115 1.115.499 1.115 1.115 1.115 1.115-.499 1.115-1.115zm-16.728 9.2c0-.616-.499-1.115-1.116-1.115s-1.115.499-1.115 1.115.499 1.115 1.115 1.115 1.116-.499 1.116-1.115zm3.346 0c0-.616-.499-1.115-1.115-1.115s-1.115.499-1.115 1.115.499 1.115 1.115 1.115 1.115-.499 1.115-1.115zm3.345 0c0-.616-.499-1.115-1.115-1.115s-1.115.499-1.115 1.115.499 1.115 1.115 1.115 1.115-.499 1.115-1.115zm3.346 0c0-.616-.5-1.115-1.115-1.115s-1.115.499-1.115 1.115.499 1.115 1.115 1.115 1.115-.499 1.115-1.115zm3.345 0c0-.616-.499-1.115-1.115-1.115s-1.115.499-1.115 1.115.499 1.115 1.115 1.115 1.115-.499 1.115-1.115zm3.346 0c0-.616-.499-1.115-1.115-1.115s-1.115.499-1.115 1.115.499 1.115 1.115 1.115 1.115-.499 1.115-1.115z"/></g><path d="M213.579 54.991v-7.905l-7.894-.878a18.79 18.79 0 0 0-1.936-4.704l4.986-6.234-5.59-5.589-6.207 4.964c-1.452-.854-3.025-1.521-4.691-1.965l-.882-7.93h-7.905l-.878 7.894a18.79 18.79 0 0 0-4.704 1.936l-6.234-4.986-5.589 5.59 4.964 6.207a18.78 18.78 0 0 0-1.965 4.691l-7.93.882v7.905l7.894.878a18.79 18.79 0 0 0 1.936 4.704l-4.986 6.234 5.59 5.59 6.207-4.964a18.78 18.78 0 0 0 4.691 1.965l.882 7.93h7.905l.878-7.894a18.79 18.79 0 0 0 4.704-1.936l6.234 4.986 5.59-5.59-4.965-6.207c.854-1.451 1.521-3.026 1.965-4.691l7.93-.883zm-26.227 5.419c-5.21 0-9.434-4.224-9.434-9.434s4.224-9.434 9.434-9.434 9.434 4.224 9.434 9.434-4.224 9.434-9.434 9.434zm57.29-21.286l-.876-5.233-5.323.294c-.472-1.057-1.083-2.029-1.803-2.9l2.61-4.68-4.32-3.081-3.559 3.974a12.63 12.63 0 0 0-3.324-.781l-1.463-5.152-5.233.876.294 5.323c-1.057.472-2.029 1.083-2.9 1.803l-4.68-2.61-3.081 4.32 3.974 3.559a12.67 12.67 0 0 0-.781 3.324l-5.152 1.463.876 5.233 5.323-.293c.472 1.057 1.083 2.029 1.803 2.9l-2.61 4.68 4.32 3.081 3.559-3.975a12.63 12.63 0 0 0 3.324.781l1.463 5.152 5.233-.876-.294-5.323c1.057-.472 2.029-1.083 2.9-1.803l4.68 2.61 3.081-4.32-3.974-3.559a12.63 12.63 0 0 0 .781-3.324l5.152-1.463zm-16.763 6.494c-3.449.577-6.714-1.751-7.291-5.2s1.751-6.714 5.2-7.291 6.714 1.751 7.291 5.2-1.751 6.714-5.2 7.291zM384.24 291.563v-7.905l-7.894-.878a18.79 18.79 0 0 0-1.936-4.704l4.986-6.234-5.589-5.589-6.207 4.964a18.81 18.81 0 0 0-4.691-1.965l-.882-7.93h-7.905l-.878 7.894c-1.67.433-3.247 1.092-4.704 1.935l-6.234-4.986-5.589 5.59 4.964 6.207a18.78 18.78 0 0 0-1.965 4.691l-7.93.882v7.905l7.894.878a18.84 18.84 0 0 0 1.935 4.704l-4.986 6.234 5.589 5.589 6.207-4.964c1.451.854 3.026 1.521 4.691 1.965l.882 7.93h7.905l.878-7.894c1.67-.433 3.247-1.092 4.704-1.935l6.234 4.986 5.59-5.589-4.965-6.207c.854-1.451 1.521-3.026 1.965-4.691l7.931-.883zm-26.227 5.419c-5.21 0-9.434-4.224-9.434-9.434s4.224-9.434 9.434-9.434 9.434 4.224 9.434 9.434-4.224 9.434-9.434 9.434zm57.29-21.286l-.876-5.233-5.323.293c-.472-1.057-1.083-2.029-1.803-2.9l2.61-4.68-4.32-3.081-3.559 3.975c-1.055-.405-2.171-.671-3.323-.781l-1.463-5.152-5.233.876.293 5.323c-1.057.472-2.029 1.083-2.9 1.803l-4.68-2.61-3.081 4.32 3.974 3.559a12.62 12.62 0 0 0-.781 3.324l-5.152 1.463.876 5.233 5.323-.294c.472 1.057 1.083 2.029 1.803 2.9l-2.61 4.68 4.32 3.081 3.559-3.974a12.66 12.66 0 0 0 3.323.781l1.463 5.152 5.233-.876-.294-5.323c1.057-.472 2.029-1.083 2.9-1.803l4.68 2.61 3.081-4.32-3.974-3.559a12.65 12.65 0 0 0 .781-3.323l5.153-1.464zm-16.763 6.494c-3.449.577-6.714-1.751-7.291-5.2s1.751-6.714 5.2-7.291 6.714 1.751 7.291 5.2-1.751 6.714-5.2 7.291z" class="D"/><g class="B"><path d="M405.606 141.427v-29.553l-29.512-3.282a70.35 70.35 0 0 0-7.236-17.588L387.5 67.697l-16.223-16.223 6.245-4.674h-10.92l-23.205 18.559c-5.427-3.193-11.311-5.685-17.539-7.347l-3.297-29.648h-29.554l-3.282 29.512a70.35 70.35 0 0 0-17.588 7.236l-17.24-13.789 4.853-4.853h-10.92l-20.897 20.897 18.56 23.206c-3.192 5.426-5.685 11.311-7.347 17.539l-29.648 3.297v29.553l29.512 3.282a70.35 70.35 0 0 0 7.236 17.588l-18.642 23.307 20.897 20.897h10.92l-4.853-4.853 17.139-13.708c5.426 3.193 11.311 5.685 17.539 7.347l3.297 29.648h29.553l3.282-29.512a70.35 70.35 0 0 0 17.588-7.236l23.307 18.642h10.92l-3.696-7.224 13.674-13.674-18.561-23.206c3.193-5.426 5.685-11.311 7.348-17.538l29.648-3.295z"/><path d="M322.096 224.972h-29.553a.5.5 0 0 1-.497-.445l-3.26-29.309c-5.95-1.62-11.678-4.019-17.035-7.137l-16.434 13.145 4.458 4.458a.5.5 0 0 1-.354.854h-10.92c-.133 0-.26-.053-.354-.146l-20.897-20.897a.5.5 0 0 1-.037-.666l18.429-23.041c-3.095-5.404-5.458-11.148-7.029-17.083l-29.17-3.245a.5.5 0 0 1-.445-.497v-29.554a.5.5 0 0 1 .445-.497l29.309-3.26a70.93 70.93 0 0 1 7.136-17.035L227.542 67.68a.5.5 0 0 1 .037-.666l20.897-20.897a.5.5 0 0 1 .353-.146h10.92a.5.5 0 0 1 .354.854l-4.457 4.458 16.538 13.227c5.405-3.095 11.149-5.459 17.083-7.029l3.244-29.171a.5.5 0 0 1 .497-.445h29.554a.5.5 0 0 1 .497.445l3.26 29.31c5.949 1.619 11.677 4.019 17.035 7.136l22.937-18.346a.5.5 0 0 1 .313-.109h10.92a.5.5 0 0 1 .3.9l-5.784 4.328 15.816 15.815a.5.5 0 0 1 .037.666l-18.429 23.041c3.095 5.405 5.458 11.148 7.029 17.083l29.171 3.244a.5.5 0 0 1 .444.497v29.553a.5.5 0 0 1-.444.497l-29.31 3.26c-1.62 5.95-4.02 11.678-7.137 17.035l18.346 22.937a.5.5 0 0 1-.037.666l-13.416 13.416 3.53 6.9a.5.5 0 0 1-.445.727h-10.919a.51.51 0 0 1-.313-.109l-23.04-18.429c-5.405 3.095-11.149 5.458-17.083 7.029l-3.244 29.171c-.031.253-.245.444-.5.444zm-29.106-1h28.659l3.232-29.067a.5.5 0 0 1 .372-.429c6.074-1.575 11.95-3.992 17.463-7.185.178-.105.401-.087.563.042l23.17 18.532h9.927l-3.324-6.496a.5.5 0 0 1 .092-.581l13.357-13.357-18.281-22.856a.5.5 0 0 1-.04-.566c3.215-5.463 5.669-11.322 7.295-17.414.054-.199.224-.345.428-.368l29.204-3.247v-28.659l-29.067-3.232a.5.5 0 0 1-.429-.372c-1.575-6.074-3.992-11.95-7.185-17.463a.5.5 0 0 1 .042-.563l18.362-22.958-15.907-15.907c-.103-.103-.155-.245-.146-.389s.083-.278.199-.365l5.043-3.773h-9.241L343.709 65.75c-.163.129-.388.144-.566.04-5.464-3.215-11.323-5.669-17.414-7.295a.5.5 0 0 1-.368-.428l-3.248-29.204h-28.659l-3.232 29.067a.5.5 0 0 1-.372.429c-6.074 1.575-11.95 3.992-17.463 7.185a.5.5 0 0 1-.563-.042l-17.24-13.789c-.111-.089-.179-.221-.186-.363a.5.5 0 0 1 .145-.381l3.999-3.999h-9.506l-20.434 20.435 18.281 22.856a.5.5 0 0 1 .04.566 69.93 69.93 0 0 0-7.295 17.414.5.5 0 0 1-.428.368l-29.203 3.248v28.659l29.067 3.233a.5.5 0 0 1 .429.372c1.576 6.074 3.993 11.95 7.185 17.463a.5.5 0 0 1-.042.563l-18.362 22.958 20.434 20.434h9.506l-3.999-3.999a.5.5 0 0 1-.146-.381c.008-.142.076-.274.186-.363l17.139-13.708a.5.5 0 0 1 .566-.04c5.463 3.215 11.322 5.669 17.414 7.296a.5.5 0 0 1 .368.428l3.248 29.2z"/></g><path d="M416.526 141.427v-29.553l-29.512-3.282a70.35 70.35 0 0 0-7.236-17.588l18.641-23.307-20.897-20.898-23.205 18.56c-5.427-3.193-11.311-5.685-17.539-7.347l-3.297-29.648h-29.554l-3.282 29.512a70.35 70.35 0 0 0-17.588 7.236L259.75 46.47l-20.897 20.897 18.56 23.206c-3.193 5.426-5.685 11.311-7.348 17.539l-29.648 3.297v29.553l29.512 3.282a70.35 70.35 0 0 0 7.236 17.588l-18.642 23.307 20.897 20.897 23.206-18.56c5.426 3.193 11.311 5.685 17.539 7.347l3.297 29.648h29.553l3.282-29.512a70.35 70.35 0 0 0 17.588-7.236l23.307 18.642 20.897-20.897-18.561-23.206c3.193-5.426 5.685-11.311 7.348-17.538l29.65-3.297z" class="D"/><g class="B"><path d="M333.016 224.972h-29.554a.5.5 0 0 1-.497-.445l-3.26-29.309c-5.951-1.62-11.678-4.02-17.035-7.137l-22.937 18.346a.5.5 0 0 1-.666-.037l-20.897-20.897a.5.5 0 0 1-.037-.666l18.429-23.041c-3.095-5.404-5.458-11.148-7.029-17.083l-29.171-3.245a.5.5 0 0 1-.445-.497v-29.552a.5.5 0 0 1 .445-.497l29.309-3.26c1.619-5.949 4.019-11.677 7.137-17.035L238.462 67.68a.5.5 0 0 1 .037-.666l20.897-20.897a.5.5 0 0 1 .666-.037l23.04 18.429c5.406-3.095 11.15-5.459 17.083-7.029l3.244-29.171a.5.5 0 0 1 .497-.445h29.554a.5.5 0 0 1 .497.445l3.26 29.31c5.95 1.619 11.677 4.019 17.035 7.136l22.938-18.346a.5.5 0 0 1 .666.037l20.897 20.897a.5.5 0 0 1 .037.666L380.381 91.05c3.095 5.405 5.458 11.148 7.029 17.083l29.171 3.244a.5.5 0 0 1 .444.497v29.553a.5.5 0 0 1-.444.497l-29.311 3.26c-1.62 5.95-4.02 11.678-7.136 17.035l18.346 22.937a.5.5 0 0 1-.037.666l-20.896 20.897a.5.5 0 0 1-.666.037l-23.04-18.429c-5.406 3.095-11.149 5.458-17.083 7.029l-3.244 29.171a.5.5 0 0 1-.498.445zm-29.107-1h28.659l3.232-29.067a.5.5 0 0 1 .372-.429c6.073-1.575 11.949-3.992 17.463-7.185.178-.105.401-.087.563.042l22.957 18.362 20.265-20.265-18.281-22.856a.5.5 0 0 1-.04-.566c3.214-5.463 5.668-11.322 7.295-17.414.054-.199.224-.345.428-.368l29.204-3.247V112.32l-29.067-3.232a.5.5 0 0 1-.429-.372c-1.575-6.074-3.992-11.95-7.185-17.463a.5.5 0 0 1 .042-.563l18.362-22.958-20.264-20.263-22.856 18.281c-.163.129-.388.144-.566.04a69.87 69.87 0 0 0-17.413-7.295.5.5 0 0 1-.368-.428l-3.248-29.204h-28.659l-3.233 29.067a.5.5 0 0 1-.371.429c-6.073 1.575-11.949 3.992-17.463 7.185a.5.5 0 0 1-.563-.042L259.788 47.14l-20.264 20.265 18.281 22.856a.5.5 0 0 1 .04.566c-3.215 5.465-5.67 11.324-7.296 17.414a.5.5 0 0 1-.428.368l-29.203 3.248v28.659l29.067 3.233a.5.5 0 0 1 .429.372c1.576 6.074 3.993 11.95 7.185 17.463a.5.5 0 0 1-.042.563l-18.363 22.958 20.265 20.264 22.856-18.281a.5.5 0 0 1 .566-.04 69.94 69.94 0 0 0 17.414 7.296.5.5 0 0 1 .368.428l3.246 29.2z"/><circle cx="319.172" cy="129.268" r="59.276"/><path d="M250.438 348.657c2.591 1.132 8.927.989 8.932.989.066-.001-1.362-4.148-1.482-4.399-1.39-2.908-5.786-7.71-9.364-7.227-2.577.348-4.01 2.927-3.429 5.354.595 2.478 3.137 4.318 5.343 5.283z"/><path d="M252.625 367.01c2.687.392 8.342-1.248 8.792-1.381.893 3.166 2.066 6.341 3.43 9.49a135.63 135.63 0 0 0 2.481 5.374l-1.058-1.514c-2.11-2.438-7.618-5.908-10.94-4.497-2.395 1.016-3.095 3.882-1.893 6.068 1.227 2.233 4.166 3.338 6.548 3.685 2.418.353 7.267-.949 8.546-1.31l1.011 2.044 4.804 9.741c.536 1.139 1.021 2.281 1.512 3.422l-.92-1.311c-2.109-2.437-7.617-5.908-10.94-4.497-2.394 1.017-3.095 3.883-1.893 6.069 1.228 2.233 4.166 3.338 6.549 3.685 2.307.337 6.793-.825 8.315-1.247.467 1.183.937 2.368 1.336 3.535.255.803.556 1.559.766 2.38l.67 2.402 1.085 4.645.642 3.07c-.52-1.141-1.586-3.352-1.696-3.526-1.714-2.729-6.634-6.993-10.132-6.102-2.52.643-3.647 3.369-2.79 5.712.875 2.393 3.612 3.93 5.914 4.634 2.535.775 8.147.067 8.848-.026l.917 4.858c.602 3.414 1.056 6.474 1.401 9.063h2.366c-.413-2.68-.952-5.872-1.665-9.456-.334-1.704-.726-3.519-1.146-5.378.422-.168 2.815-1.136 4.936-2.321 1.847 2.001 6.582 4.342 7.195 4.64l-1.915 4.557c-1.309 3.013-2.552 5.685-3.65 7.958h2.559a219.92 219.92 0 0 0 3.062-7.125 196.25 196.25 0 0 0 2.011-5.118c.679.142 6.235 1.27 8.824.686 2.348-.531 5.193-1.859 6.244-4.181 1.029-2.273.108-5.076-2.358-5.904-3.421-1.15-8.645 2.737-10.558 5.331-.113.153-1.153 1.95-1.79 3.094l.815-2.19c.547-1.488 1.048-2.99 1.592-4.604l.715-2.389c.255-.793.424-1.663.643-2.5.466-1.954.842-3.957 1.176-5.982 1.305.474 5.962 2.095 8.375 1.925 2.402-.169 5.414-1.051 6.805-3.187 1.362-2.09.876-5.001-1.435-6.193-3.209-1.654-8.96 1.396-11.245 3.67-.143.142-1.598 1.958-2.379 2.97l.542-3.675c.445-3.579.782-7.216 1.136-10.842l.345-3.324c.463.174 5.956 2.219 8.659 2.03 2.402-.168 5.414-1.051 6.805-3.187 1.362-2.09.876-5.001-1.436-6.193-3.208-1.655-8.96 1.395-11.244 3.669a96.92 96.92 0 0 0-2.763 3.479c.258-2.439.537-4.866.91-7.249.509-3.287 1.191-6.484 2.081-9.533.215.082 5.94 2.242 8.707 2.048 2.402-.169 5.415-1.051 6.805-3.187 1.361-2.091.876-5.001-1.436-6.193-3.209-1.655-8.959 1.396-11.245 3.669a93.61 93.61 0 0 0-2.799 3.534c.054-.181.089-.375.144-.555.991-3.243 2.358-6.259 3.776-9.021.821-1.607 1.696-3.096 2.579-4.526 1.025.512 5.735 2.799 8.245 2.899 2.406.096 5.497-.45 7.114-2.42 1.583-1.929 1.42-4.875-.746-6.313-3.008-1.997-9.059.403-11.58 2.412-.137.109-1.407 1.374-2.319 2.309l1.221-1.911c1.51-2.274 3.033-4.263 4.396-6.015a103.98 103.98 0 0 1 2.201-2.684c1.267-.022 6.375-.177 8.608-1.226 2.179-1.023 4.671-2.932 5.199-5.426.516-2.441-.987-4.981-3.572-5.259-3.589-.387-7.854 4.532-9.166 7.477-.113.255-1.428 4.438-1.362 4.438l.077-.001a103.09 103.09 0 0 0-2.166 2.534c-1.404 1.725-2.974 3.686-4.539 5.936s-3.213 4.728-4.707 7.499c-1.502 2.776-2.939 5.773-4.021 9.052-.013.037-.02.077-.033.114.019-1.057-.028-4.016-.057-4.242-.414-3.197-3.093-9.13-6.644-9.787-2.557-.472-4.723 1.531-4.927 4.018-.208 2.54 1.633 5.082 3.429 6.686 2.025 1.809 7.646 3.56 8.094 3.699-1.002 3.132-1.775 6.428-2.375 9.806-.345 1.932-.632 3.887-.895 5.852l-.047-1.847c-.414-3.197-3.094-9.13-6.644-9.786-2.557-.473-4.723 1.531-4.927 4.018-.208 2.54 1.633 5.081 3.429 6.685 1.823 1.627 6.584 3.218 7.85 3.621l-.284 2.263-1.366 10.775c-.181 1.246-.406 2.466-.626 3.688l-.044-1.6c-.414-3.197-3.093-9.13-6.643-9.787-2.558-.472-4.724 1.531-4.928 4.019-.208 2.539 1.634 5.082 3.43 6.685 1.738 1.553 6.121 3.06 7.623 3.547-.263 1.244-.525 2.491-.836 3.685-.231.81-.398 1.606-.675 2.408l-.766 2.373-1.658 4.473-1.158 2.914c.195-1.238.527-3.67.531-3.876.049-2.141-.711-5.622-2.225-8.069.009-.316-.009-.631-.059-.945-.396-2.463-2.711-4.293-5.224-3.624-3.488.928-5.701 7.052-5.865 10.27-.01.19.114 2.262.214 3.568l-.528-2.276c-.366-1.543-.777-3.071-1.212-4.719l-.722-2.387c-.224-.802-.563-1.62-.843-2.44-.69-1.886-1.481-3.765-2.319-5.639 1.351-.324 6.129-1.542 8.047-3.014 1.91-1.465 3.936-3.864 3.918-6.411-.018-2.496-2.028-4.655-4.614-4.374-3.589.39-6.704 6.107-7.355 9.264-.04.197-.253 2.515-.345 3.79l-1.575-3.365c-1.604-3.23-3.327-6.45-5.033-9.67l-1.546-2.962c.482-.11 6.193-1.436 8.342-3.084 1.91-1.465 3.936-3.863 3.918-6.412-.018-2.495-2.028-4.654-4.614-4.373-3.589.39-6.703 6.106-7.355 9.264-.049.238-.35 3.573-.385 4.425-1.13-2.175-2.237-4.355-3.24-6.547-1.388-3.023-2.584-6.065-3.523-9.099.225-.051 6.191-1.407 8.392-3.096 1.91-1.466 3.936-3.864 3.918-6.412-.017-2.495-2.028-4.654-4.614-4.373-3.589.39-6.703 6.107-7.354 9.264-.051.248-.373 3.837-.385 4.491-.056-.18-.133-.361-.186-.541-.962-3.252-1.486-6.522-1.826-9.608-.201-1.792-.293-3.517-.345-5.197 1.137-.139 6.327-.83 8.476-2.131 2.06-1.247 4.337-3.408 4.599-5.942.256-2.482-1.505-4.85-4.105-4.854-3.61-.007-7.334 5.334-8.328 8.4-.054.167-.416 1.923-.661 3.205l-.035-2.268c.005-2.73.177-5.229.348-7.442a102.34 102.34 0 0 1 .355-3.452c1.045-.719 5.219-3.665 6.504-5.772 1.253-2.056 2.278-5.022 1.342-7.393-.916-2.321-3.57-3.61-5.88-2.417-3.207 1.658-4.051 8.114-3.52 11.293.047.274 1.258 4.489 1.312 4.453l.063-.044-.408 3.309c-.22 2.213-.448 4.715-.512 7.456-.071 2.738-.072 5.716.211 8.852.279 3.143.733 6.436 1.64 9.768.01.037.026.076.036.113-.568-.892-2.24-3.333-2.389-3.507-2.109-2.438-7.617-5.908-10.94-4.498-2.393 1.017-3.095 3.883-1.893 6.07 1.225 2.233 4.163 3.337 6.544 3.684z"/><path d="M314.528 350.051c.056.035 1.152-4.211 1.191-4.487.444-3.192-.574-9.623-3.824-11.193-2.341-1.131-4.959.229-5.812 2.575-.872 2.394.233 5.332 1.542 7.353 1.535 2.373 6.898 5.749 6.903 5.752zm229.49-208.588h-3v-21.339H424.497v-3h119.521z"/><path d="M551.643 138.793l-9.125 15.803-9.125-15.803zM525.6 155.162h-3v-20.426h-85.107v-3H525.6z"/><path d="M440.163 124.111l-15.802 9.125 15.802 9.125zm-340.148 18.702h-3v-25.689h107.591v3H100.015z"/><path d="M107.64 140.143l-9.125 15.802-9.125-15.802zm10.793 17.368h-3v-25.775h74.474v3h-71.474z"/><path d="M187.237 142.361l15.803-9.125-15.803-9.125z"/></g><path d="M494.155 368.723l-30.114 48.517c-3.838 6.183.609 14.177 7.887 14.177h58.98 78.909-76.37c-7.257 0-11.708-7.954-7.91-14.139l29.151-47.474-60.533-1.081z" class="C"/><path d="M609.816 431.918H471.927a9.66 9.66 0 0 1-8.312-14.94l30.114-48.517c.092-.15.247-.239.434-.236l60.533 1.081a.5.5 0 0 1 .417.762l-29.151 47.475c-1.688 2.748-1.755 6.068-.181 8.883s4.44 4.494 7.665 4.494h76.369a.5.5 0 0 1 .5.5.5.5 0 0 1-.499.498zm-115.386-62.69l-29.965 48.276a8.67 8.67 0 0 0 7.462 13.413h57.17c-1.733-.854-3.192-2.227-4.188-4.007a9.66 9.66 0 0 1 .201-9.894l28.693-46.728-59.373-1.06z" class="B"/><path d="M498.102 368.723l-30.114 48.517c-3.838 6.183.609 12.709 7.887 12.709h58.98l75.103.002-72.563-.002c-7.258 0-11.708-6.486-7.91-12.671l29.151-47.474-60.534-1.081z" class="C"/><g class="B"><path d="M609.958 430.452l-134.083-.002c-3.868 0-7.156-1.758-8.794-4.703-1.49-2.679-1.314-5.875.482-8.77l30.114-48.518c.093-.15.255-.239.434-.236l60.533 1.081a.5.5 0 0 1 .417.762l-29.151 47.475c-1.582 2.576-1.738 5.396-.429 7.736 1.462 2.613 4.42 4.173 7.913 4.173l72.563.002a.5.5 0 0 1 .001 1zm-111.58-61.224l-29.965 48.276c-1.6 2.577-1.767 5.404-.458 7.756 1.459 2.623 4.42 4.189 7.92 4.189h56.781c-1.731-.803-3.141-2.064-4.047-3.685-1.492-2.666-1.328-5.854.449-8.748l28.693-46.728-59.373-1.06z"/><path d="M527.163 429.952h82.795v1.39h-82.795z"/><path d="M609.958 431.841h-82.795a.5.5 0 0 1-.5-.5v-1.39a.5.5 0 0 1 .5-.5h82.795a.5.5 0 0 1 .5.5v1.39a.5.5 0 0 1-.5.5zm-82.295-1h81.795v-.39h-81.795v.39zm-29.56-62.118l60.533 1.081-11.209 18.256h-61.326z"/><path d="M547.426 388.56h-61.325a.5.5 0 0 1-.424-.764l12.001-19.337c.093-.15.255-.239.434-.236l60.533 1.081a.5.5 0 0 1 .417.762l-11.21 18.256a.5.5 0 0 1-.426.238zm-60.426-1h60.147l10.606-17.271-59.374-1.061L487 387.56z"/></g><path d="M661.656 379.533H410.215a2.91 2.91 0 0 1-2.912-2.912V165.174c0-1.608 1.304-2.912 2.912-2.912h251.441c1.608 0 2.912 1.304 2.912 2.912v211.447c0 1.608-1.304 2.912-2.912 2.912z" class="C"/><path d="M661.656 380.033H410.215c-1.881 0-3.411-1.53-3.411-3.411V165.174c0-1.881 1.53-3.412 3.411-3.412h251.441c1.881 0 3.411 1.53 3.411 3.412V376.62c0 1.882-1.53 3.413-3.411 3.413zM410.215 162.762c-1.329 0-2.411 1.083-2.411 2.413v211.447c0 1.329 1.082 2.411 2.411 2.411h251.441c1.329 0 2.411-1.082 2.411-2.412V165.174c0-1.33-1.082-2.412-2.411-2.412H410.215h0z" class="B"/><path d="M671.384 379.533H419.943a2.91 2.91 0 0 1-2.912-2.912V165.174c0-1.608 1.304-2.912 2.912-2.912h251.441c1.608 0 2.912 1.304 2.912 2.912v211.447c0 1.608-1.304 2.912-2.912 2.912z" class="C"/><g class="B"><path d="M671.384 380.033H419.943c-1.881 0-3.411-1.53-3.411-3.411V165.174c0-1.881 1.53-3.412 3.411-3.412h251.441c1.881 0 3.411 1.53 3.411 3.412V376.62c0 1.882-1.53 3.413-3.411 3.413zM419.943 162.762c-1.329 0-2.411 1.083-2.411 2.413v211.447c0 1.329 1.082 2.411 2.411 2.411h251.441c1.329 0 2.411-1.082 2.411-2.412V165.174c0-1.33-1.082-2.412-2.411-2.412H419.943h0z"/><path d="M672.428 162.263H418.899a1.87 1.87 0 0 0-1.868 1.868v176.488h257.264V164.131c0-1.032-.835-1.868-1.867-1.868z"/><path d="M674.296 341.119H417.032a.5.5 0 0 1-.5-.5V164.131a2.37 2.37 0 0 1 2.367-2.368h253.528a2.37 2.37 0 0 1 2.368 2.368v176.488a.5.5 0 0 1-.499.5zm-256.764-1h256.264V164.131a1.37 1.37 0 0 0-1.368-1.368H418.899a1.37 1.37 0 0 0-1.367 1.368v175.988z"/></g><path fill="#a6a6a6" d="M427.841 170.91h235.646v157.818H427.841z"/><path d="M663.487 329.228H427.841a.5.5 0 0 1-.5-.5V170.911a.5.5 0 0 1 .5-.5h235.646a.5.5 0 0 1 .5.5v157.817a.5.5 0 0 1-.5.5zm-235.146-1h234.646V171.411H428.341v156.817z" class="B"/><path d="M427.841 170.91h235.646v16.875H427.841z" class="D"/><path d="M663.487 188.285H427.841a.5.5 0 0 1-.5-.5V170.91a.5.5 0 0 1 .5-.5h235.646a.5.5 0 0 1 .5.5v16.875a.5.5 0 0 1-.5.5zm-235.146-1h234.646V171.41H428.341v15.875z" class="B"/><use xlink:href="#C" class="C"/><use xlink:href="#D" class="B"/><use xlink:href="#C" x="-9.979" class="C"/><use xlink:href="#E" class="B"/><use xlink:href="#C" x="-19.959" class="C"/><use xlink:href="#D" x="-19.958" class="B"/><use xlink:href="#C" x="-29.937" class="C"/><use xlink:href="#F" class="B"/><use xlink:href="#C" x="-39.916" class="C"/><use xlink:href="#G" class="B"/><use xlink:href="#C" x="-49.894" class="C"/><use xlink:href="#F" x="-19.958" class="B"/><use xlink:href="#C" x="-59.873" class="C"/><use xlink:href="#D" x="-59.873" class="B"/><use xlink:href="#C" x="-69.853" class="C"/><use xlink:href="#E" x="-59.873" class="B"/><use xlink:href="#C" x="-79.831" class="C"/><use xlink:href="#G" x="-39.915" class="B"/><use xlink:href="#C" x="-89.81" class="C"/><use xlink:href="#F" x="-59.873" class="B"/><use xlink:href="#C" x="-99.788" class="C"/><use xlink:href="#D" x="-99.788" class="B"/><use xlink:href="#C" x="-109.768" class="C"/><use xlink:href="#E" x="-99.788" class="B"/><use xlink:href="#C" x="-119.747" class="C"/><use xlink:href="#D" x="-119.746" class="B"/><use xlink:href="#C" x="-129.725" class="C"/><use xlink:href="#F" x="-99.788" class="B"/><use xlink:href="#C" x="-139.704" class="C"/><use xlink:href="#D" x="-139.703" class="B"/><use xlink:href="#C" x="-149.682" class="C"/><use xlink:href="#E" x="-139.703" class="B"/><use xlink:href="#C" x="-159.661" class="C"/><use xlink:href="#D" x="-159.661" class="B"/><use xlink:href="#C" x="-169.64" class="C"/><use xlink:href="#F" x="-139.703" class="B"/><use xlink:href="#C" x="-179.619" class="C"/><use xlink:href="#G" x="-139.703" class="B"/><use xlink:href="#C" x="-189.598" class="C"/><use xlink:href="#F" x="-159.661" class="B"/><use xlink:href="#C" x="-199.576" class="C"/><use xlink:href="#D" x="-199.576" class="B"/><path d="M721.731 431.475H505.359v-8.066h216.372z" class="D"/><g class="B"><path d="M721.731 431.975H505.359a.5.5 0 0 1-.5-.5v-8.065a.5.5 0 0 1 .5-.5h216.372a.5.5 0 0 1 .5.5v8.065a.5.5 0 0 1-.5.5zm-215.872-1h215.372v-7.065H505.859v7.065z"/><path d="M558.139 431.475h-52.78v-8.066h52.78z"/><path d="M558.138 431.975h-52.779a.5.5 0 0 1-.5-.5v-8.065a.5.5 0 0 1 .5-.5h52.779a.5.5 0 0 1 .5.5v8.065a.5.5 0 0 1-.5.5zm-52.279-1h51.779v-7.065h-51.779v7.065z"/></g><path fill="#000" opacity=".3" d="M473.332 217.903h150.521v86.819H473.332z"/><path d="M471.014 215.585h150.521v86.819H471.014z" class="C"/><path d="M622.036 302.904H470.514v-87.819h151.522v87.819h0zm-150.522-1h149.521v-85.819H471.514v85.819zm76.573-37.134l-1.579-.11c-.008-.542-.06-1.073-.152-1.59l1.528-.409a.45.45 0 0 0 .319-.552l-.191-.712a.45.45 0 0 0-.552-.319l-1.525.409a9.74 9.74 0 0 0-.664-1.453l1.311-.884a.45.45 0 0 0 .122-.625l-.412-.611a.45.45 0 0 0-.625-.122l-1.312.885a9.87 9.87 0 0 0-1.099-1.159l.952-1.263a.45.45 0 0 0-.089-.631l-.589-.444a.45.45 0 0 0-.631.089l-.952 1.263c-.449-.283-.921-.533-1.416-.741l.488-1.501a.45.45 0 0 0-.289-.568l-.701-.228a.45.45 0 0 0-.568.289l-.489 1.504a9.75 9.75 0 0 0-1.41-.222v-1.583a.45.45 0 0 0-.451-.451h-.737a.45.45 0 0 0-.451.451v1.583c-.539.045-1.066.131-1.576.26l-.514-1.493a.45.45 0 0 0-.573-.279l-.697.24a.45.45 0 0 0-.279.573l.515 1.494a9.79 9.79 0 0 0-1.403.763l-.974-1.246a.45.45 0 0 0-.632-.078l-.581.454a.45.45 0 0 0-.078.632l.974 1.247c-.391.362-.751.756-1.078 1.178l-1.327-.862a.45.45 0 0 0-.623.133l-.401.618a.45.45 0 0 0 .133.623l1.325.86a9.66 9.66 0 0 0-.636 1.466l-1.534-.383a.45.45 0 0 0-.546.328l-.178.715a.45.45 0 0 0 .328.546l1.534.382c-.082.508-.126 1.029-.126 1.56l.001.032-1.575.138a.45.45 0 0 0-.41.488l.064.734a.45.45 0 0 0 .488.41l1.576-.138a9.62 9.62 0 0 0 .399 1.547l-1.444.643a.45.45 0 0 0-.228.595l.3.673a.45.45 0 0 0 .595.228l1.443-.643c.258.469.555.913.884 1.33l-1.158 1.079a.45.45 0 0 0-.022.637l.503.539a.45.45 0 0 0 .637.022l1.156-1.078a9.74 9.74 0 0 0 1.268.971l-.743 1.397a.45.45 0 0 0 .186.609l.651.346a.45.45 0 0 0 .609-.186l.741-1.394c.486.208.993.378 1.516.506l-.247 1.561a.45.45 0 0 0 .375.515l.728.115a.45.45 0 0 0 .515-.374l.248-1.564.713.029.883-.042.275 1.558a.45.45 0 0 0 .522.365l.726-.128a.45.45 0 0 0 .365-.522l-.274-1.555a9.67 9.67 0 0 0 1.505-.535l.766 1.383a.45.45 0 0 0 .612.176l.645-.357a.45.45 0 0 0 .176-.612l-.766-1.382a9.84 9.84 0 0 0 1.248-.996l1.176 1.059a.45.45 0 0 0 .636-.033l.493-.548a.45.45 0 0 0-.033-.636l-1.175-1.058a9.73 9.73 0 0 0 .859-1.347l1.455.617a.45.45 0 0 0 .591-.238l.288-.679a.45.45 0 0 0-.239-.591l-1.455-.617a9.66 9.66 0 0 0 .374-1.553l1.575.11a.45.45 0 0 0 .481-.418l.051-.735a.45.45 0 0 0-.418-.479zm-11.345 5.511c-3.028 0-5.483-2.455-5.483-5.483s2.455-5.483 5.483-5.483 5.483 2.455 5.483 5.483-2.455 5.483-5.483 5.483z" class="B"/><path d="M536.742 272.96c-4.501 0-8.162-3.661-8.162-8.162s3.661-8.162 8.162-8.162 8.162 3.661 8.162 8.162-3.661 8.162-8.162 8.162zm0-15.324c-3.949 0-7.162 3.213-7.162 7.162s3.213 7.162 7.162 7.162 7.162-3.213 7.162-7.162-3.213-7.162-7.162-7.162z" class="C"/><path d="M562.26 272.724l-1.035-.072a6.39 6.39 0 0 0-.1-1.042l1.001-.268c.157-.042.251-.204.209-.362l-.125-.467c-.042-.158-.204-.251-.362-.209l-1 .268c-.119-.331-.266-.649-.435-.952l.859-.579c.135-.091.171-.275.08-.41l-.27-.4c-.091-.135-.275-.171-.41-.08l-.86.58a6.46 6.46 0 0 0-.72-.759l.624-.828c.098-.13.072-.315-.058-.413l-.386-.291c-.13-.098-.315-.072-.414.058l-.624.828a6.29 6.29 0 0 0-.928-.485l.32-.984c.05-.155-.034-.322-.19-.372l-.46-.149c-.155-.05-.322.034-.372.189l-.32.986a6.4 6.4 0 0 0-.924-.145v-1.037c0-.163-.132-.295-.295-.295h-.483c-.163 0-.295.132-.295.295v1.037a6.4 6.4 0 0 0-1.033.17l-.337-.979c-.053-.154-.221-.236-.375-.183l-.457.157c-.154.053-.236.221-.183.375l.337.979a6.38 6.38 0 0 0-.92.5l-.638-.817c-.1-.128-.286-.151-.414-.051l-.381.298c-.129.1-.151.286-.051.414l.638.817c-.256.237-.492.496-.707.772l-.87-.565c-.137-.089-.32-.05-.408.087l-.263.405c-.089.137-.05.32.087.409l.868.564c-.164.306-.303.627-.417.961l-1.005-.251c-.158-.039-.318.057-.358.215l-.117.469c-.04.158.057.318.215.358l1.005.251a6.38 6.38 0 0 0-.082 1.023l.001.021-1.032.09c-.163.014-.283.157-.268.32l.042.481c.014.162.157.283.32.268l1.033-.09a6.47 6.47 0 0 0 .261 1.014l-.946.421c-.149.066-.216.241-.15.39l.197.441c.066.149.241.216.39.15l.946-.421c.169.307.364.598.579.872l-.759.707c-.119.111-.126.298-.015.417l.329.353c.111.119.298.126.417.014l.758-.706c.258.234.537.446.831.637l-.487.915c-.076.144-.022.323.122.399l.427.227c.144.077.323.022.399-.122l.486-.914a6.32 6.32 0 0 0 .993.331l-.162 1.023c-.026.161.084.312.245.338l.477.076c.161.026.312-.084.338-.245l.162-1.025.468.019.579-.027.18 1.021c.028.161.182.268.342.24l.476-.084c.161-.028.268-.181.24-.342l-.18-1.019a6.42 6.42 0 0 0 .987-.35l.502.906c.079.143.259.194.401.115l.422-.234c.143-.079.194-.259.115-.401l-.502-.906c.291-.195.564-.414.818-.653l.771.694c.121.109.308.099.417-.022l.323-.359c.109-.121.099-.308-.022-.417l-.77-.694c.211-.277.399-.572.563-.883l.954.405c.15.064.323-.006.387-.156l.189-.445c.064-.15-.006-.324-.156-.387l-.953-.405c.108-.329.191-.668.245-1.018l1.033.072c.163.011.304-.111.315-.274l.034-.482c.013-.164-.11-.305-.273-.316zm-7.435 3.611c-1.984 0-3.593-1.609-3.593-3.593s1.609-3.593 3.593-3.593 3.593 1.609 3.593 3.593-1.608 3.593-3.593 3.593z" class="B"/><path d="M554.826 278.263a5.53 5.53 0 0 1-5.521-5.522 5.53 5.53 0 0 1 5.521-5.521 5.53 5.53 0 0 1 5.522 5.521 5.53 5.53 0 0 1-5.522 5.522zm0-10.043a4.53 4.53 0 0 0-4.521 4.521 4.53 4.53 0 0 0 4.521 4.522 4.53 4.53 0 0 0 4.522-4.522 4.53 4.53 0 0 0-4.522-4.521z" class="C"/><g class="B"><path d="M471.014 215.585h150.521v6.3H471.014z"/><path d="M622.036 222.385H470.514v-7.3h151.522v7.3h0zm-150.522-1h149.521v-5.3H471.514v5.3z"/></g><g class="E"><circle cx="476.624" cy="218.26" r="1.448"/><circle cx="483.142" cy="218.26" r="1.448"/><path d="M491.107 218.26a1.45 1.45 0 0 1-1.448 1.448 1.45 1.45 0 0 1-1.448-1.448 1.45 1.45 0 0 1 1.448-1.448c.8-.001 1.448.648 1.448 1.448z"/></g><path d="M609.106 287.413H484.54c-.885 0-1.603-.718-1.603-1.603h0c0-.885.718-1.603 1.603-1.603h124.567c.885 0 1.603.718 1.603 1.603h0c0 .885-.718 1.603-1.604 1.603z" class="C"/><path d="M609.106 287.913H484.54c-1.159 0-2.103-.943-2.103-2.103s.943-2.104 2.103-2.104h124.566c1.16 0 2.104.943 2.104 2.104s-.944 2.103-2.104 2.103zm-124.566-3.206c-.608 0-1.103.495-1.103 1.104s.494 1.103 1.103 1.103h124.566c.608 0 1.104-.494 1.104-1.103s-.495-1.104-1.104-1.104H484.54z" class="B"/><path d="M572.24 284.207h-87.7c-.885 0-1.603.718-1.603 1.603s.718 1.603 1.603 1.603h87.7v-3.206z" class="E"/><path d="M572.74 287.913h-88.2c-1.159 0-2.103-.943-2.103-2.103s.943-2.104 2.103-2.104h88.2v4.207zm-88.2-3.206c-.608 0-1.103.495-1.103 1.104s.494 1.103 1.103 1.103h87.2v-2.206h-87.2v-.001zm-4.137-47.426c0-2.539 1.338-3.99 3.786-3.99s3.786 1.451 3.786 3.99v8.253c0 2.539-1.338 3.99-3.786 3.99s-3.786-1.451-3.786-3.99v-8.253zm2.495 8.411c0 1.134.499 1.564 1.292 1.564s1.292-.431 1.292-1.564v-8.57c0-1.134-.499-1.564-1.292-1.564s-1.292.431-1.292 1.564v8.57zm14.081-8.298v2.063c0 2.539-1.224 3.922-3.718 3.922h-1.179v5.963h-2.494v-15.871h3.673c2.494 0 3.718 1.384 3.718 3.923zm-4.897-1.655v5.373h1.179c.794 0 1.224-.363 1.224-1.496v-2.381c0-1.133-.431-1.496-1.224-1.496h-1.179 0zm8.662 4.421h3.424v2.267h-3.424v4.648h4.308v2.267h-6.802v-15.871h6.802v2.267h-4.308zm11.066 9.182c-.136-.408-.227-.658-.227-1.95v-2.494c0-1.474-.499-2.018-1.632-2.018h-.862v6.462h-2.494v-15.871h3.763c2.585 0 3.696 1.202 3.696 3.65v1.247c0 1.632-.522 2.698-1.633 3.219 1.247.522 1.655 1.723 1.655 3.378v2.449c0 .771.022 1.338.272 1.927h-2.538v.001zm-2.72-13.603v4.875h.975c.929 0 1.496-.408 1.496-1.678v-1.564c0-1.134-.385-1.633-1.27-1.633h-1.201zm14.693 13.603h-2.517l-.431-2.879h-3.061l-.43 2.879h-2.29l2.539-15.871h3.65l2.54 15.871zm-5.691-5.033h2.403l-1.202-8.026-1.201 8.026zm6.123-10.838h7.709v2.267h-2.608v13.604h-2.494v-13.603h-2.608v-2.268zm8.799 0h2.494v15.871h-2.494zm6.53 4.376v11.495H537.3v-15.871h3.129l2.562 9.5v-9.5h2.222v15.871h-2.562zm11.202 2.653h3.492v5.034c0 2.539-1.27 3.99-3.719 3.99s-3.718-1.451-3.718-3.99v-8.253c0-2.539 1.27-3.99 3.718-3.99s3.719 1.451 3.719 3.99v1.541h-2.358v-1.7c0-1.134-.499-1.564-1.293-1.564s-1.292.431-1.292 1.564v8.57c0 1.134.498 1.542 1.292 1.542s1.293-.408 1.293-1.542v-2.925h-1.134V240.5zm11.973-7.21c2.426 0 3.673 1.451 3.673 3.99v.499h-2.358v-.658c0-1.134-.453-1.564-1.247-1.564s-1.248.431-1.248 1.564c0 3.265 4.875 3.877 4.875 8.412 0 2.539-1.27 3.99-3.719 3.99s-3.719-1.451-3.719-3.99v-.975h2.359v1.133c0 1.134.499 1.542 1.292 1.542s1.292-.408 1.292-1.542c0-3.265-4.874-3.877-4.874-8.411.002-2.539 1.249-3.99 3.674-3.99zm7.303 10.792l-3.151-10.611h2.607l1.904 7.232 1.905-7.232h2.38l-3.151 10.611v5.26h-2.494zm9.842-10.792c2.427 0 3.673 1.451 3.673 3.99v.499h-2.358v-.658c0-1.134-.453-1.564-1.247-1.564s-1.248.431-1.248 1.564c0 3.265 4.875 3.877 4.875 8.412 0 2.539-1.27 3.99-3.719 3.99s-3.719-1.451-3.719-3.99v-.975h2.359v1.133c0 1.134.499 1.542 1.292 1.542s1.292-.408 1.292-1.542c0-3.265-4.874-3.877-4.874-8.411.002-2.539 1.248-3.99 3.674-3.99zm4.4.181h7.709v2.267h-2.607v13.604h-2.494v-13.603h-2.608zm11.292 6.689h3.423v2.267h-3.423v4.648h4.308v2.267h-6.802v-15.871h6.802v2.267h-4.308zm11.134 4.58l1.7-11.268h3.47v15.871h-2.359v-11.382l-1.723 11.382h-2.358l-1.859-11.223v11.223h-2.177v-15.871h3.469z" class="B"/><path d="M178.707 339.228h4.534v11.988h-4.534z" class="C"/><g class="B"><path d="M183.741 351.715h-5.535v-12.987h5.535v12.987zm-4.534-1h3.535v-10.987h-3.535v10.987z"/><path d="M57.012 161.229h129.691v270.247H57.012z"/><path d="M187.203 431.975H56.512V160.729h130.691v271.246zm-129.691-1h128.691V161.729H57.512v269.246z"/></g><path d="M57.395 409.963h4.534v11.988h-4.534z" class="C"/><use xlink:href="#H" class="B"/><path d="M56.733 269.853h4.534v11.988h-4.534z" class="C"/><use xlink:href="#I" class="B"/><path d="M56.733 375.049h4.534v11.988h-4.534z" class="C"/><use xlink:href="#J" class="B"/><path d="M56.733 339.155h4.534v11.988h-4.534z" class="C"/><use xlink:href="#I" y="69.303" class="B"/><path d="M56.733 304.442h4.534v11.988h-4.534z" class="C"/><use xlink:href="#I" y="34.59" class="B"/><path d="M178.707 409.963h4.534v11.988h-4.534z" class="C"/><path d="M183.741 422.452h-5.535v-12.988h5.535v12.988zm-4.534-1h3.535v-10.988h-3.535v10.988z" class="B"/><path d="M179.863 269.853h4.534v11.988h-4.534z" class="C"/><path d="M184.897 282.34h-5.534v-12.987h5.534v12.987zm-4.534-1h3.534v-10.987h-3.534v10.987z" class="B"/><path d="M179.863 375.049h4.534v11.988h-4.534z" class="C"/><use xlink:href="#H" x="122.468" y="-34.915" class="B"/><path d="M179.863 304.442h4.534v11.988h-4.534z" class="C"/><path d="M184.897 316.93h-5.534v-12.987h5.534v12.987zm-4.534-1h3.534v-10.987h-3.534v10.987z" class="B"/><use xlink:href="#K" class="C"/><use xlink:href="#L" class="B"/><use xlink:href="#M" class="E"/><use xlink:href="#N" class="B"/><use xlink:href="#M" x="-10.45" class="E"/><use xlink:href="#N" x="-10.45" class="B"/><path d="M66.578 269.816h5.429v12.662h-5.429z" class="E"/><use xlink:href="#O" class="B"/><use xlink:href="#M" x="10.45" class="E"/><use xlink:href="#N" x="10.45" class="B"/><path d="M106.992 269.816h41.846v12.662h-41.846z" class="E"/><use xlink:href="#P" class="B"/><use xlink:href="#Q" class="C"/><use xlink:href="#R" class="B"/><use xlink:href="#S" class="E"/><use xlink:href="#T" class="B"/><use xlink:href="#Q" x="-18.608" class="C"/><use xlink:href="#U" class="B"/><path d="M56.733 234.615h4.534v11.988h-4.534z" class="C"/><use xlink:href="#J" y="-140.434" class="B"/><path d="M179.863 234.615h4.534v11.988h-4.534z" class="C"/><use xlink:href="#H" x="122.468" y="-175.349" class="B"/><use xlink:href="#K" y="-35.237" class="C"/><use xlink:href="#L" y="-35.238" class="B"/><use xlink:href="#M" y="-35.237" class="E"/><use xlink:href="#N" y="-35.237" class="B"/><use xlink:href="#M" x="-10.45" y="-35.237" class="E"/><use xlink:href="#N" x="-10.45" y="-35.237" class="B"/><path d="M66.578 234.579h5.429v12.662h-5.429z" class="E"/><use xlink:href="#O" y="-35.237" class="B"/><use xlink:href="#M" x="10.45" y="-35.237" class="E"/><use xlink:href="#N" x="10.45" y="-35.237" class="B"/><path d="M106.992 234.579h41.846v12.662h-41.846z" class="E"/><use xlink:href="#P" y="-35.237" class="B"/><circle cx="159.98" cy="240.359" r="3.19" class="C"/><use xlink:href="#R" y="-35.238" class="B"/><use xlink:href="#Q" x="12.495" y="-35.237" class="E"/><use xlink:href="#T" y="-35.238" class="B"/><circle cx="141.371" cy="240.359" r="3.19" class="C"/><use xlink:href="#U" y="-35.238" class="B"/><path d="M56.733 199.378h4.534v11.988h-4.534z" class="C"/><use xlink:href="#J" y="-175.671" class="B"/><path d="M179.863 199.378h4.534v11.988h-4.534z" class="C"/><use xlink:href="#H" x="122.468" y="-210.586" class="B"/><use xlink:href="#K" y="-70.475" class="C"/><use xlink:href="#L" y="-70.475" class="B"/><use xlink:href="#V" class="D"/><use xlink:href="#N" y="-70.475" class="B"/><use xlink:href="#V" x="-10.45" class="D"/><use xlink:href="#N" x="-10.45" y="-70.475" class="B"/><use xlink:href="#W" class="D"/><use xlink:href="#O" y="-70.475" class="B"/><use xlink:href="#V" x="10.45" class="D"/><use xlink:href="#N" x="10.45" y="-70.475" class="B"/><use xlink:href="#X" class="D"/><use xlink:href="#P" y="-70.475" class="B"/><use xlink:href="#V" y="35" class="D"/><use xlink:href="#N" y="-35.475" class="B"/><use xlink:href="#V" x="-10.45" y="35" class="D"/><use xlink:href="#N" x="-10.45" y="-35.475" class="B"/><use xlink:href="#W" y="35" class="D"/><use xlink:href="#O" y="-35.475" class="B"/><use xlink:href="#V" x="10.45" y="35" class="D"/><use xlink:href="#N" x="10.45" y="-35.475" class="B"/><use xlink:href="#X" y="35" class="D"/><use xlink:href="#P" y="-35.475" class="B"/><use xlink:href="#V" y="70" class="D"/><use xlink:href="#N" y="-0.475" class="B"/><use xlink:href="#V" x="-10.45" y="70" class="D"/><use xlink:href="#N" x="-10.45" y="-0.475" class="B"/><use xlink:href="#W" y="70" class="D"/><use xlink:href="#O" y="-0.475" class="B"/><use xlink:href="#V" x="10.45" y="70" class="D"/><use xlink:href="#N" x="10.45" y="-0.475" class="B"/><use xlink:href="#X" y="70" class="D"/><use xlink:href="#P" y="-0.475" class="B"/><circle cx="159.98" cy="205.122" r="3.19" class="C"/><use xlink:href="#Y" class="B"/><use xlink:href="#S" y="-70.474" class="D"/><use xlink:href="#Z" class="B"/><circle cx="141.371" cy="205.122" r="3.19" class="C"/><g class="B"><use xlink:href="#a"/><path d="M65.368 289.074h110.297v8.853H65.368z"/><path d="M176.165 298.427H64.868v-9.854h111.297v9.854h0zm-110.297-1h109.297v-7.854H65.868v7.854z"/></g><use xlink:href="#K" y="34.706" class="C"/><use xlink:href="#L" y="34.706" class="B"/><use xlink:href="#M" x="-10.45" y="34.706" class="E"/><use xlink:href="#b" class="B"/><use xlink:href="#M" x="10.45" y="34.706" class="E"/><use xlink:href="#b" x="20.9" class="B"/><use xlink:href="#M" y="34.706" class="E"/><use xlink:href="#b" x="10.45" class="B"/><path d="M66.578 304.522h5.429v12.662h-5.429z" class="E"/><use xlink:href="#c" class="B"/><path d="M106.992 304.522h41.846v12.662h-41.846z" class="E"/><use xlink:href="#d" class="B"/><use xlink:href="#V" y="35" class="D"/><use xlink:href="#N" y="-35.475" class="B"/><use xlink:href="#V" x="-10.45" y="35" class="D"/><use xlink:href="#N" x="-10.45" y="-35.475" class="B"/><use xlink:href="#W" y="35" class="D"/><use xlink:href="#O" y="-35.475" class="B"/><use xlink:href="#V" x="10.45" y="35" class="D"/><use xlink:href="#N" x="10.45" y="-35.475" class="B"/><use xlink:href="#X" y="35" class="D"/><use xlink:href="#P" y="-35.475" class="B"/><circle cx="141.371" cy="345.008" r="3.19" class="C"/><use xlink:href="#a" y="139.886" class="B"/><use xlink:href="#V" y="105" class="D"/><use xlink:href="#N" y="34.525" class="B"/><use xlink:href="#V" x="-10.45" y="105" class="D"/><use xlink:href="#N" x="-10.45" y="34.525" class="B"/><use xlink:href="#W" y="105" class="D"/><use xlink:href="#O" y="34.525" class="B"/><use xlink:href="#V" x="10.45" y="105" class="D"/><use xlink:href="#N" x="10.45" y="34.525" class="B"/><use xlink:href="#X" y="105" class="D"/><use xlink:href="#P" y="34.525" class="B"/><circle cx="159.98" cy="310.302" r="3.19" class="E"/><path d="M159.981 313.992c-2.035 0-3.69-1.655-3.69-3.689s1.656-3.69 3.69-3.69 3.69 1.655 3.69 3.69-1.656 3.689-3.69 3.689zm0-6.38c-1.483 0-2.69 1.207-2.69 2.69s1.207 2.689 2.69 2.689 2.69-1.206 2.69-2.689-1.207-2.69-2.69-2.69z" class="B"/><use xlink:href="#S" y="34.706" class="C"/><path d="M172.475 313.992c-2.035 0-3.69-1.655-3.69-3.689s1.656-3.69 3.69-3.69 3.69 1.655 3.69 3.69-1.655 3.689-3.69 3.689zm0-6.38c-1.483 0-2.69 1.207-2.69 2.69s1.207 2.689 2.69 2.689 2.69-1.206 2.69-2.689-1.206-2.69-2.69-2.69z" class="B"/><circle cx="141.371" cy="310.302" r="3.19" class="C"/><g class="B"><path d="M141.371 313.992c-2.035 0-3.69-1.655-3.69-3.689s1.655-3.69 3.69-3.69 3.691 1.655 3.691 3.69-1.656 3.689-3.691 3.689zm0-6.38c-1.483 0-2.69 1.207-2.69 2.69s1.206 2.689 2.69 2.689 2.691-1.206 2.691-2.689-1.207-2.69-2.691-2.69zM65.368 323.78h110.297v8.853H65.368z"/><path d="M176.165 333.132H64.868v-9.852h111.297v9.852h0zm-110.297-1h109.297v-7.852H65.868v7.852z"/></g><use xlink:href="#K" y="69.412" class="C"/><path d="M180.695 358.986H60.339v-26.854h120.356v26.854h0zm-119.356-1h118.356v-24.854H61.339v24.854z" class="B"/><use xlink:href="#V" y="139.886" class="E"/><use xlink:href="#b" x="10.45" y="34.706" class="B"/><use xlink:href="#V" x="10.45" y="139.886" class="E"/><use xlink:href="#b" x="20.9" y="34.706" class="B"/><use xlink:href="#V" x="-10.45" y="139.886" class="E"/><use xlink:href="#b" y="34.706" class="B"/><use xlink:href="#X" y="139.886" class="E"/><use xlink:href="#d" y="34.706" class="B"/><use xlink:href="#W" y="139.886" class="E"/><use xlink:href="#c" y="34.706" class="B"/><circle cx="159.98" cy="345.008" r="3.19" class="C"/><use xlink:href="#Y" y="139.886" class="B"/><use xlink:href="#V" y="140" class="D"/><use xlink:href="#N" y="69.525" class="B"/><use xlink:href="#V" x="-10.45" y="140" class="D"/><use xlink:href="#N" x="-10.45" y="69.525" class="B"/><use xlink:href="#W" y="140" class="D"/><use xlink:href="#O" y="69.525" class="B"/><use xlink:href="#V" x="10.45" y="140" class="D"/><use xlink:href="#N" x="10.45" y="69.525" class="B"/><use xlink:href="#X" y="140" class="D"/><use xlink:href="#P" y="69.525" class="B"/><use xlink:href="#Q" x="12.495" y="69.412" class="E"/><use xlink:href="#Z" y="139.886" class="B"/><circle cx="141.371" cy="240.008" r="3.19" class="C"/><use xlink:href="#a" y="34.886" class="B"/><circle cx="141.371" cy="276.008" r="3.19" class="C"/><g class="B"><use xlink:href="#a" y="70.886"/><path d="M65.368 358.486h110.297v8.853H65.368z"/><path d="M176.165 367.838H64.868v-9.853h111.297v9.853h0zm-110.297-1h109.297v-7.853H65.868v7.853z"/></g><use xlink:href="#K" y="104.118" class="C"/><use xlink:href="#L" y="104.117" class="B"/><use xlink:href="#M" x="10.45" y="104.118" class="E"/><use xlink:href="#b" x="20.9" y="69.412" class="B"/><use xlink:href="#M" x="-10.45" y="104.118" class="E"/><use xlink:href="#b" y="69.412" class="B"/><use xlink:href="#M" y="104.118" class="E"/><use xlink:href="#b" x="10.45" y="69.412" class="B"/><path d="M66.578 373.934h5.429v12.662h-5.429z" class="E"/><use xlink:href="#c" y="69.412" class="B"/><path d="M106.992 373.934h41.846v12.662h-41.846z" class="E"/><use xlink:href="#d" y="69.412" class="B"/><use xlink:href="#V" x="-0.078" y="174.159" class="D"/><use xlink:href="#e" class="B"/><use xlink:href="#V" x="-10.528" y="174.159" class="D"/><use xlink:href="#e" x="-10.45" class="B"/><path d="M66.5 373.501h5.429v12.663H66.5z" class="D"/><path d="M71.929 386.663H66.5a.5.5 0 0 1-.5-.5V373.5a.5.5 0 0 1 .5-.5h5.429a.5.5 0 0 1 .5.5v12.663a.5.5 0 0 1-.5.5zm-4.929-1h4.429V374H67v11.663z" class="B"/><use xlink:href="#V" x="10.372" y="174.159" class="D"/><use xlink:href="#e" x="10.45" class="B"/><use xlink:href="#X" x="-0.078" y="174.159" class="D"/><path d="M148.76 386.663h-41.846a.5.5 0 0 1-.5-.5V373.5a.5.5 0 0 1 .5-.5h41.846a.5.5 0 0 1 .5.5v12.663a.5.5 0 0 1-.5.5zm-41.346-1h40.846V374h-40.846v11.663z" class="B"/><circle cx="159.98" cy="379.714" r="3.19" class="E"/><path d="M159.981 383.404c-2.035 0-3.69-1.655-3.69-3.69s1.656-3.69 3.69-3.69 3.69 1.655 3.69 3.69-1.656 3.69-3.69 3.69zm0-6.38c-1.483 0-2.69 1.206-2.69 2.69s1.207 2.69 2.69 2.69 2.69-1.207 2.69-2.69-1.207-2.69-2.69-2.69z" class="B"/><use xlink:href="#S" y="104.118" class="C"/><path d="M172.475 383.404c-2.035 0-3.69-1.655-3.69-3.69s1.656-3.69 3.69-3.69 3.69 1.655 3.69 3.69-1.655 3.69-3.69 3.69zm0-6.38c-1.483 0-2.69 1.206-2.69 2.69s1.207 2.69 2.69 2.69 2.69-1.207 2.69-2.69-1.206-2.69-2.69-2.69z" class="B"/><circle cx="141.371" cy="379.714" r="3.19" class="C"/><g class="B"><path d="M141.371 383.404c-2.035 0-3.69-1.655-3.69-3.69s1.655-3.69 3.69-3.69 3.691 1.655 3.691 3.69-1.656 3.69-3.691 3.69zm0-6.38c-1.483 0-2.69 1.206-2.69 2.69s1.206 2.69 2.69 2.69 2.691-1.207 2.691-2.69-1.207-2.69-2.691-2.69zm-76.003 16.167h110.297v8.853H65.368z"/><path d="M176.165 402.544H64.868v-9.853h111.297v9.853h0zm-110.297-1h109.297v-7.853H65.868v7.853z"/></g><use xlink:href="#K" y="138.823" class="C"/><use xlink:href="#L" y="138.823" class="B"/><use xlink:href="#M" x="-10.45" y="138.824" class="E"/><use xlink:href="#f" class="B"/><use xlink:href="#M" y="138.824" class="E"/><use xlink:href="#f" x="10.45" class="B"/><use xlink:href="#M" x="10.45" y="138.824" class="E"/><use xlink:href="#f" x="20.9" class="B"/><path d="M66.578 408.64h5.429v12.662h-5.429z" class="E"/><path d="M72.007 421.802h-5.429a.5.5 0 0 1-.5-.5V408.64a.5.5 0 0 1 .5-.5h5.429a.5.5 0 0 1 .5.5v12.662a.5.5 0 0 1-.5.5zm-4.929-1h4.429V409.14h-4.429v11.662z" class="B"/><path d="M106.992 408.64h41.846v12.662h-41.846z" class="E"/><path d="M148.838 421.802h-41.846a.5.5 0 0 1-.5-.5V408.64a.5.5 0 0 1 .5-.5h41.846a.5.5 0 0 1 .5.5v12.662a.5.5 0 0 1-.5.5zm-41.346-1h40.846V409.14h-40.846v11.662z" class="B"/><circle cx="159.98" cy="414.42" r="3.19" class="C"/><path d="M159.981 418.11c-2.035 0-3.69-1.655-3.69-3.69s1.656-3.689 3.69-3.689 3.69 1.655 3.69 3.689-1.656 3.69-3.69 3.69zm0-6.38c-1.483 0-2.69 1.206-2.69 2.689s1.207 2.69 2.69 2.69 2.69-1.207 2.69-2.69-1.207-2.689-2.69-2.689z" class="B"/><use xlink:href="#S" y="138.824" class="E"/><path d="M172.475 418.11c-2.035 0-3.69-1.655-3.69-3.69s1.656-3.689 3.69-3.689 3.69 1.655 3.69 3.689-1.655 3.69-3.69 3.69zm0-6.38c-1.483 0-2.69 1.206-2.69 2.689s1.207 2.69 2.69 2.69 2.69-1.207 2.69-2.69-1.206-2.689-2.69-2.689z" class="B"/><use xlink:href="#V" x="-0.078" y="209.159" class="D"/><use xlink:href="#g" class="B"/><use xlink:href="#V" x="-10.528" y="209.159" class="D"/><use xlink:href="#g" x="-10.45" class="B"/><path d="M66.5 408.501h5.429v12.663H66.5z" class="D"/><path d="M71.929 421.663H66.5a.5.5 0 0 1-.5-.5V408.5a.5.5 0 0 1 .5-.5h5.429a.5.5 0 0 1 .5.5v12.663a.5.5 0 0 1-.5.5zm-4.929-1h4.429V409H67v11.663z" class="B"/><use xlink:href="#V" x="10.372" y="209.159" class="D"/><use xlink:href="#g" x="10.45" class="B"/><use xlink:href="#X" x="-0.078" y="209.159" class="D"/><path d="M148.76 421.663h-41.846a.5.5 0 0 1-.5-.5V408.5a.5.5 0 0 1 .5-.5h41.846a.5.5 0 0 1 .5.5v12.663a.5.5 0 0 1-.5.5zm-41.346-1h40.846V409h-40.846v11.663z" class="B"/><circle cx="141.371" cy="414.42" r="3.19" class="C"/><g class="B"><path d="M141.371 418.11c-2.035 0-3.69-1.655-3.69-3.69s1.655-3.689 3.69-3.689 3.691 1.655 3.691 3.689-1.656 3.69-3.691 3.69zm0-6.38c-1.483 0-2.69 1.206-2.69 2.689s1.206 2.69 2.69 2.69 2.691-1.207 2.691-2.69-1.207-2.689-2.691-2.689zM27.128 161.229h31.251v270.175H27.128z"/><path d="M58.879 431.904H26.628V160.729h32.251v271.175zm-31.251-1h30.251V161.729H27.628v269.175z"/></g><g class="C"><path d="M53.739 417.115H31.761v-249.69h21.978v249.69zm-20.978-1h19.978v-247.69H32.761v247.69z"/><circle cx="72.021" cy="178.432" r="3.456"/></g><circle cx="84.462" cy="178.432" r="3.456" class="D"/><path d="M84.462 182.388a3.96 3.96 0 0 1-3.956-3.956 3.96 3.96 0 0 1 3.956-3.956 3.96 3.96 0 0 1 3.956 3.956 3.96 3.96 0 0 1-3.956 3.956zm0-6.912a2.96 2.96 0 0 0-2.956 2.956 2.96 2.96 0 0 0 2.956 2.956 2.96 2.96 0 0 0 2.956-2.956 2.96 2.96 0 0 0-2.956-2.956z" class="B"/><circle cx="141.371" cy="346.008" r="3.19" class="C"/><use xlink:href="#a" y="140.886" class="B"/><path d="M277.293 151.254l9.519-50.391h12.691l9.394 50.391h-10.264l-1.68-10.638h-7.403l-1.742 10.638h-10.515zm13.25-17.294h5.35l-2.675-19.659-2.675 19.659zm22.957 17.294v-50.391h16.922c3.027 0 5.515.57 7.466 1.711s3.399 2.799 4.354 4.977 1.431 4.821 1.431 7.932c0 3.899-.645 6.874-1.929 8.927s-3.028 3.474-5.227 4.262-4.665 1.182-7.402 1.182h-4.479v21.4H313.5zm11.136-29.177h3.732c1.37 0 2.405-.249 3.111-.746s1.171-1.244 1.4-2.24.342-2.26.342-3.795c0-1.285-.093-2.415-.28-3.39s-.633-1.752-1.338-2.333-1.804-.871-3.297-.871h-3.67v13.375h0zm23.952 29.177v-50.391h11.136v50.391z" class="D"/><defs ><path id="B" d="M689.738 250.45s10-178-141-227-227-13-275 33-64 76-119 82-106 16-132 83 7 120 57 153 108-2 154 19 75 56 169 60 97-23 145-65 133 2 142-138z"/><path id="C" d="M717.869 423.049h-7.484v-2.495h7.484z"/><path id="D" d="M717.869 423.548h-7.484a.5.5 0 0 1-.5-.5v-2.495a.5.5 0 0 1 .5-.5h7.484a.5.5 0 0 1 .5.5v2.495a.5.5 0 0 1-.5.5zm-6.985-1h6.484v-1.495h-6.484v1.495z"/><path id="E" d="M707.889 423.548h-7.483a.5.5 0 0 1-.5-.5v-2.495a.5.5 0 0 1 .5-.5h7.483a.5.5 0 0 1 .5.5v2.495a.5.5 0 0 1-.5.5zm-6.983-1h6.483v-1.495h-6.483v1.495z"/><path id="F" d="M687.932 423.548h-7.484a.5.5 0 0 1-.5-.5v-2.495a.5.5 0 0 1 .5-.5h7.484a.5.5 0 0 1 .5.5v2.495a.5.5 0 0 1-.5.5zm-6.984-1h6.484v-1.495h-6.484v1.495z"/><path id="G" d="M677.953 423.548h-7.483a.5.5 0 0 1-.5-.5v-2.495a.5.5 0 0 1 .5-.5h7.483a.5.5 0 0 1 .5.5v2.495a.5.5 0 0 1-.5.5zm-6.984-1h6.483v-1.495h-6.483v1.495z"/><path id="H" d="M62.429 422.452h-5.534v-12.988h5.534v12.988zm-4.534-1h3.534v-10.988h-3.534v10.988z"/><path id="I" d="M61.768 282.34h-5.534v-12.987h5.534v12.987zm-4.535-1h3.534v-10.987h-3.534v10.987z"/><path id="J" d="M61.768 387.537h-5.534v-12.988h5.534v12.988zm-4.535-1h3.534v-10.988h-3.534v10.988z"/><path id="K" d="M60.839 263.221h119.356v25.853H60.839z"/><path id="L" d="M180.695 289.574H60.339v-26.853h120.356v26.853h0zm-119.356-1h118.356v-24.853H61.339v24.853z"/><path id="M" d="M86.092 269.816h6.815v12.662h-6.815z"/><path id="N" d="M92.907 282.979h-6.815a.5.5 0 0 1-.5-.5v-12.663a.5.5 0 0 1 .5-.5h6.815a.5.5 0 0 1 .5.5v12.663a.5.5 0 0 1-.5.5zm-6.315-1h5.815v-11.663h-5.815v11.663z"/><path id="O" d="M72.007 282.979h-5.429a.5.5 0 0 1-.5-.5v-12.663a.5.5 0 0 1 .5-.5h5.429a.5.5 0 0 1 .5.5v12.663a.5.5 0 0 1-.5.5zm-4.929-1h4.429v-11.663h-4.429v11.663z"/><path id="P" d="M148.838 282.979h-41.846a.5.5 0 0 1-.5-.5v-12.663a.5.5 0 0 1 .5-.5h41.846a.5.5 0 0 1 .5.5v12.663a.5.5 0 0 1-.5.5zm-41.346-1h40.846v-11.663h-40.846v11.663z"/><path id="Q" d="M163.17 275.596a3.19 3.19 0 0 0-6.38 0 3.19 3.19 0 1 0 6.38 0z"/><path id="R" d="M159.981 279.287c-2.035 0-3.69-1.655-3.69-3.69s1.656-3.69 3.69-3.69 3.69 1.655 3.69 3.69-1.656 3.69-3.69 3.69zm0-6.381c-1.483 0-2.69 1.207-2.69 2.69s1.207 2.69 2.69 2.69 2.69-1.207 2.69-2.69-1.207-2.69-2.69-2.69z"/><path id="S" d="M175.665 275.596a3.19 3.19 0 0 0-6.38 0 3.19 3.19 0 0 0 6.38 0z"/><path id="T" d="M172.475 279.287c-2.035 0-3.69-1.655-3.69-3.69s1.656-3.69 3.69-3.69 3.69 1.655 3.69 3.69-1.655 3.69-3.69 3.69zm0-6.381c-1.483 0-2.69 1.207-2.69 2.69s1.207 2.69 2.69 2.69 2.69-1.207 2.69-2.69-1.206-2.69-2.69-2.69z"/><path id="U" d="M141.371 279.287c-2.035 0-3.69-1.655-3.69-3.69s1.655-3.69 3.69-3.69 3.691 1.655 3.691 3.69-1.656 3.69-3.691 3.69zm0-6.381c-1.483 0-2.69 1.207-2.69 2.69s1.206 2.69 2.69 2.69 2.691-1.207 2.691-2.69-1.207-2.69-2.691-2.69z"/><path id="V" d="M86.092 199.342h6.815v12.663h-6.815z"/><path id="W" d="M66.578 199.342h5.429v12.663h-5.429z"/><path id="X" d="M106.992 199.342h41.846v12.663h-41.846z"/><path id="Y" d="M159.981 208.812c-2.035 0-3.69-1.655-3.69-3.69s1.656-3.69 3.69-3.69 3.69 1.655 3.69 3.69-1.656 3.69-3.69 3.69zm0-6.38c-1.483 0-2.69 1.207-2.69 2.69s1.207 2.69 2.69 2.69 2.69-1.206 2.69-2.69-1.207-2.69-2.69-2.69z"/><path id="Z" d="M172.475 208.812c-2.035 0-3.69-1.655-3.69-3.69s1.656-3.69 3.69-3.69 3.69 1.655 3.69 3.69-1.655 3.69-3.69 3.69zm0-6.38c-1.483 0-2.69 1.207-2.69 2.69s1.207 2.69 2.69 2.69 2.69-1.206 2.69-2.69-1.206-2.69-2.69-2.69z"/><path id="a" d="M141.371 208.812c-2.035 0-3.69-1.655-3.69-3.69s1.655-3.69 3.69-3.69 3.691 1.655 3.691 3.69-1.656 3.69-3.691 3.69zm0-6.38c-1.483 0-2.69 1.207-2.69 2.69s1.206 2.69 2.69 2.69 2.691-1.206 2.691-2.69-1.207-2.69-2.691-2.69z"/><path id="b" d="M82.457 317.684h-6.815a.5.5 0 0 1-.5-.5v-12.662a.5.5 0 0 1 .5-.5h6.815a.5.5 0 0 1 .5.5v12.662a.5.5 0 0 1-.5.5zm-6.315-1h5.815v-11.662h-5.815v11.662z"/><path id="c" d="M72.007 317.684h-5.429a.5.5 0 0 1-.5-.5v-12.662a.5.5 0 0 1 .5-.5h5.429a.5.5 0 0 1 .5.5v12.662a.5.5 0 0 1-.5.5zm-4.929-1h4.429v-11.662h-4.429v11.662z"/><path id="d" d="M148.838 317.684h-41.846a.5.5 0 0 1-.5-.5v-12.662a.5.5 0 0 1 .5-.5h41.846a.5.5 0 0 1 .5.5v12.662a.5.5 0 0 1-.5.5zm-41.346-1h40.846v-11.662h-40.846v11.662z"/><path id="e" d="M92.829 386.663h-6.815a.5.5 0 0 1-.5-.5V373.5a.5.5 0 0 1 .5-.5h6.815a.5.5 0 0 1 .5.5v12.663a.5.5 0 0 1-.5.5zm-6.315-1h5.815V374h-5.815v11.663z"/><path id="f" d="M82.457 421.802h-6.815a.5.5 0 0 1-.5-.5V408.64a.5.5 0 0 1 .5-.5h6.815a.5.5 0 0 1 .5.5v12.662a.5.5 0 0 1-.5.5zm-6.315-1h5.815V409.14h-5.815v11.662z"/><path id="g" d="M92.829 421.663h-6.815a.5.5 0 0 1-.5-.5V408.5a.5.5 0 0 1 .5-.5h6.815a.5.5 0 0 1 .5.5v12.663a.5.5 0 0 1-.5.5zm-6.315-1h5.815V409h-5.815v11.663z"/></defs></svg>