<svg xmlns="http://www.w3.org/2000/svg" xmlns:xlink="http://www.w3.org/1999/xlink" width="730" height="408"
     xmlns:v="https://vecta.io/nano">
    <style>
        <![CDATA[.B{stroke:#263238}.C{fill:#fff}.D{fill:#263238}.E{fill-rule:nonzero}.F{stroke-linejoin:round}.G{stroke-linecap:round}]]></style>
    <g fill="none" fill-rule="evenodd">
        <g class="E">
            <use xlink:href="#B" fill="#000"/>
            <use xlink:href="#B" opacity=".7" class="C"/>
        </g>
        <g class="B">
            <path d="M366.354 53.375h-14.51"/>
            <path d="M359.099 60.63V46.119m156.553 256.708v8.946"/>
            <path d="M520.125 307.3h-8.945M11.926 229.393v13.418"/>
            <path d="M18.635 236.102H5.217M562.927 0v8.946"/>
            <path d="M567.4 4.473h-8.946M442.646 365.271v8.946"/>
            <path d="M447.119 369.744h-8.946m119.075-24.422v21.717"/>
            <path d="M568.106 356.18H546.39M225.361 32.897v21.716"/>
            <path d="M236.219 43.755h-21.716m-44.775 31.117a3.92 3.92 0 0 1-3.918 3.918 3.92 3.92 0 0 1-3.919-3.918 3.92 3.92 0 0 1 3.919-3.919 3.92 3.92 0 0 1 3.918 3.919zm407.667 257.496c0 1.498-1.214 2.713-2.713 2.713s-2.713-1.215-2.713-2.713 1.215-2.713 2.713-2.713 2.713 1.215 2.713 2.713zm-98.755 18.639c0 1.498-1.215 2.713-2.713 2.713s-2.713-1.215-2.713-2.713 1.215-2.713 2.713-2.713 2.713 1.215 2.713 2.713z"/>
            <circle transform="matrix(.774536 -.63253 .63253 .774536 60.032962 275.43896)" cx="413.774" cy="60.828"
                    r="8.683"/>
            <circle transform="matrix(.588385 -.808581 .808581 .588385 247.702809 539.281057)" cx="650.928" cy="31.47"
                    r="8.683"/>
            <circle transform="matrix(.226101 -.974104 .974104 .226101 232.161168 308.079251)" cx="307.361" cy="11.213"
                    r="8.683"/>
            <path d="M1 400.367h728.161" class="F G"/>
        </g>
        <g class="E">
            <g fill="#000" opacity=".3">
                <path d="M540.296 161.852h-5.486a1.35 1.35 0 0 1-1.353-1.353c0-.747.605-1.353 1.353-1.353h5.486a1.35 1.35 0 0 1 1.353 1.353c-.001.747-.606 1.353-1.353 1.353zm1.352 4.916a1.35 1.35 0 0 0-1.353-1.353h-5.486a1.353 1.353 0 1 0 0 2.706h5.486c.748 0 1.353-.606 1.353-1.353zm0 6.268a1.35 1.35 0 0 0-1.353-1.353h-5.486a1.353 1.353 0 1 0 0 2.706h5.486a1.35 1.35 0 0 0 1.353-1.353zm0 6.269a1.35 1.35 0 0 0-1.353-1.353h-5.486a1.353 1.353 0 1 0 0 2.706h5.486a1.35 1.35 0 0 0 1.353-1.353zm0 6.27a1.35 1.35 0 0 0-1.353-1.353h-5.486a1.353 1.353 0 1 0 0 2.706h5.486c.748-.001 1.353-.606 1.353-1.353zm0 6.27a1.35 1.35 0 0 0-1.353-1.353h-5.486a1.353 1.353 0 1 0 0 2.706h5.486a1.35 1.35 0 0 0 1.353-1.353zm0 6.269a1.35 1.35 0 0 0-1.353-1.353h-5.486a1.353 1.353 0 1 0 0 2.706h5.486a1.35 1.35 0 0 0 1.353-1.353zm0 6.269a1.35 1.35 0 0 0-1.353-1.353h-5.486a1.353 1.353 0 1 0 0 2.706h5.486c.748 0 1.353-.606 1.353-1.353zm20.522-43.885c0-.747-.605-1.353-1.353-1.353h-14.4c-.747 0-1.353.605-1.353 1.353a1.35 1.35 0 0 0 1.353 1.353h14.4a1.35 1.35 0 0 0 1.353-1.353zm0 6.27a1.35 1.35 0 0 0-1.353-1.353h-14.4c-.747 0-1.353.605-1.353 1.353a1.35 1.35 0 0 0 1.353 1.353h14.4c.748 0 1.353-.606 1.353-1.353zm0 6.268a1.35 1.35 0 0 0-1.353-1.353h-14.4c-.747 0-1.353.605-1.353 1.353a1.35 1.35 0 0 0 1.353 1.353h14.4a1.35 1.35 0 0 0 1.353-1.353zm0 6.269a1.35 1.35 0 0 0-1.353-1.353h-14.4c-.747 0-1.353.605-1.353 1.353a1.35 1.35 0 0 0 1.353 1.353h14.4a1.35 1.35 0 0 0 1.353-1.353zm0 6.27a1.35 1.35 0 0 0-1.353-1.353h-14.4c-.747 0-1.353.605-1.353 1.353a1.35 1.35 0 0 0 1.353 1.353h14.4c.748-.001 1.353-.606 1.353-1.353zm17.24 6.27a1.35 1.35 0 0 0-1.353-1.353h-14.4a1.353 1.353 0 1 0 0 2.706h14.4a1.35 1.35 0 0 0 1.353-1.353zm0 6.269a1.35 1.35 0 0 0-1.353-1.353h-14.4a1.353 1.353 0 1 0 0 2.706h14.4a1.35 1.35 0 0 0 1.353-1.353zm0 6.269a1.35 1.35 0 0 0-1.353-1.353h-14.4a1.353 1.353 0 1 0 0 2.706h14.4c.748 0 1.353-.606 1.353-1.353zm-10.903-43.885c0-.866-.702-1.567-1.567-1.567s-1.567.701-1.567 1.567a1.57 1.57 0 0 0 1.567 1.568 1.57 1.57 0 0 0 1.567-1.568zm4.702 0c0-.866-.701-1.567-1.567-1.567s-1.567.701-1.567 1.567a1.57 1.57 0 0 0 1.567 1.568 1.57 1.57 0 0 0 1.567-1.568zm4.702 0c0-.866-.701-1.567-1.567-1.567s-1.567.701-1.567 1.567.701 1.568 1.567 1.568a1.57 1.57 0 0 0 1.567-1.568zm4.702 0c0-.866-.702-1.567-1.567-1.567s-1.567.701-1.567 1.567a1.57 1.57 0 0 0 1.567 1.568 1.57 1.57 0 0 0 1.567-1.568zm4.702 0c0-.866-.702-1.567-1.568-1.567s-1.567.701-1.567 1.567a1.57 1.57 0 0 0 1.567 1.568 1.57 1.57 0 0 0 1.568-1.568zm4.702 0c0-.866-.702-1.567-1.568-1.567s-1.567.701-1.567 1.567a1.57 1.57 0 0 0 1.567 1.568 1.57 1.57 0 0 0 1.568-1.568zm-23.51 12.539c0-.866-.702-1.567-1.567-1.567a1.57 1.57 0 0 0-1.567 1.567 1.57 1.57 0 0 0 1.567 1.567 1.57 1.57 0 0 0 1.567-1.567zm4.702 0c0-.866-.701-1.567-1.567-1.567a1.57 1.57 0 0 0-1.567 1.567 1.57 1.57 0 0 0 1.567 1.567 1.57 1.57 0 0 0 1.567-1.567zm4.702 0c0-.866-.701-1.567-1.567-1.567s-1.567.702-1.567 1.567.701 1.567 1.567 1.567a1.57 1.57 0 0 0 1.567-1.567zm4.702 0c0-.866-.702-1.567-1.567-1.567a1.57 1.57 0 0 0-1.567 1.567 1.57 1.57 0 0 0 1.567 1.567 1.57 1.57 0 0 0 1.567-1.567zm4.702 0c0-.866-.702-1.567-1.568-1.567a1.57 1.57 0 0 0-1.567 1.567 1.57 1.57 0 0 0 1.567 1.567 1.57 1.57 0 0 0 1.568-1.567zm4.702 0c0-.866-.702-1.567-1.568-1.567a1.57 1.57 0 0 0-1.567 1.567 1.57 1.57 0 0 0 1.567 1.567 1.57 1.57 0 0 0 1.568-1.567zm-7.445 18.024a1.57 1.57 0 0 0-1.567-1.567c-.866 0-1.567.702-1.567 1.567s.701 1.567 1.567 1.567a1.57 1.57 0 0 0 1.567-1.567zm4.702 0a1.57 1.57 0 0 0-1.567-1.567 1.57 1.57 0 0 0-1.567 1.567c0 .866.702 1.567 1.567 1.567a1.57 1.57 0 0 0 1.567-1.567zm4.702 0a1.57 1.57 0 0 0-1.568-1.567c-.866 0-1.567.702-1.567 1.567a1.57 1.57 0 0 0 1.567 1.567 1.57 1.57 0 0 0 1.568-1.567zm4.702 0a1.57 1.57 0 0 0-1.567-1.567 1.57 1.57 0 0 0-1.568 1.567c0 .866.702 1.567 1.568 1.567a1.57 1.57 0 0 0 1.567-1.567zm4.701 0c0-.865-.701-1.567-1.567-1.567a1.57 1.57 0 0 0-1.568 1.567c0 .866.702 1.567 1.568 1.567s1.567-.702 1.567-1.567zm4.702 0a1.57 1.57 0 0 0-1.567-1.567 1.57 1.57 0 0 0-1.567 1.567c0 .866.702 1.567 1.567 1.567a1.57 1.57 0 0 0 1.567-1.567zm-23.509 12.93a1.57 1.57 0 0 0-1.567-1.567c-.866 0-1.567.702-1.567 1.567s.701 1.567 1.567 1.567a1.57 1.57 0 0 0 1.567-1.567zm4.702 0a1.57 1.57 0 0 0-1.567-1.567 1.57 1.57 0 0 0-1.567 1.567c0 .866.702 1.567 1.567 1.567a1.57 1.57 0 0 0 1.567-1.567zm4.702 0a1.57 1.57 0 0 0-1.568-1.567c-.866 0-1.567.702-1.567 1.567a1.57 1.57 0 0 0 1.567 1.567 1.57 1.57 0 0 0 1.568-1.567zm4.702 0a1.57 1.57 0 0 0-1.567-1.567 1.57 1.57 0 0 0-1.568 1.567c0 .866.702 1.567 1.568 1.567a1.57 1.57 0 0 0 1.567-1.567zm4.701 0c0-.865-.701-1.567-1.567-1.567a1.57 1.57 0 0 0-1.568 1.567c0 .866.702 1.567 1.568 1.567s1.567-.702 1.567-1.567zm4.702 0a1.57 1.57 0 0 0-1.567-1.567 1.57 1.57 0 0 0-1.567 1.567c0 .866.702 1.567 1.567 1.567a1.57 1.57 0 0 0 1.567-1.567zm-67.785 8.027h-5.486a1.353 1.353 0 1 1 0-2.706h5.486a1.35 1.35 0 0 1 1.353 1.353c-.001.748-.606 1.353-1.353 1.353zm1.352 4.916a1.35 1.35 0 0 0-1.353-1.353h-5.486a1.353 1.353 0 1 0 0 2.706h5.486a1.35 1.35 0 0 0 1.353-1.353zm0 6.269a1.35 1.35 0 0 0-1.353-1.353h-5.486a1.353 1.353 0 1 0 0 2.706h5.486a1.35 1.35 0 0 0 1.353-1.353zm0 6.269a1.35 1.35 0 0 0-1.353-1.353h-5.486a1.353 1.353 0 1 0 0 2.706h5.486a1.35 1.35 0 0 0 1.353-1.353zm0 6.269a1.35 1.35 0 0 0-1.353-1.353h-5.486a1.353 1.353 0 1 0 0 2.706h5.486a1.35 1.35 0 0 0 1.353-1.353zm0 6.27a1.35 1.35 0 0 0-1.353-1.353h-5.486a1.353 1.353 0 1 0 0 2.706h5.486a1.35 1.35 0 0 0 1.353-1.353zm0 6.269a1.35 1.35 0 0 0-1.353-1.353h-5.486a1.353 1.353 0 1 0 0 2.706h5.486a1.35 1.35 0 0 0 1.353-1.353zm0 6.269a1.35 1.35 0 0 0-1.353-1.353h-5.486a1.353 1.353 0 1 0 0 2.706h5.486a1.35 1.35 0 0 0 1.353-1.353zm20.522-43.884a1.35 1.35 0 0 0-1.353-1.353h-14.4c-.747 0-1.353.605-1.353 1.353a1.35 1.35 0 0 0 1.353 1.353h14.4a1.35 1.35 0 0 0 1.353-1.353zm0 6.269a1.35 1.35 0 0 0-1.353-1.353h-14.4c-.747 0-1.353.605-1.353 1.353a1.35 1.35 0 0 0 1.353 1.353h14.4a1.35 1.35 0 0 0 1.353-1.353zm0 6.269a1.35 1.35 0 0 0-1.353-1.353h-14.4c-.747 0-1.353.605-1.353 1.353a1.35 1.35 0 0 0 1.353 1.353h14.4a1.35 1.35 0 0 0 1.353-1.353zm0 6.269a1.35 1.35 0 0 0-1.353-1.353h-14.4c-.747 0-1.353.605-1.353 1.353a1.35 1.35 0 0 0 1.353 1.353h14.4a1.35 1.35 0 0 0 1.353-1.353zm0 6.269a1.35 1.35 0 0 0-1.353-1.353h-14.4c-.747 0-1.353.605-1.353 1.353a1.35 1.35 0 0 0 1.353 1.353h14.4a1.35 1.35 0 0 0 1.353-1.353zm17.24 6.27a1.35 1.35 0 0 0-1.353-1.353h-14.4a1.353 1.353 0 1 0 0 2.706h14.4a1.35 1.35 0 0 0 1.353-1.353zm0 6.269a1.35 1.35 0 0 0-1.353-1.353h-14.4a1.353 1.353 0 1 0 0 2.706h14.4a1.35 1.35 0 0 0 1.353-1.353zm0 6.269a1.35 1.35 0 0 0-1.353-1.353h-14.4a1.353 1.353 0 1 0 0 2.706h14.4a1.35 1.35 0 0 0 1.353-1.353zm-10.903-43.884c0-.866-.702-1.567-1.567-1.567a1.57 1.57 0 0 0-1.567 1.567 1.57 1.57 0 0 0 1.567 1.567 1.57 1.57 0 0 0 1.567-1.567zm4.702 0c0-.866-.701-1.567-1.567-1.567a1.57 1.57 0 0 0-1.567 1.567 1.57 1.57 0 0 0 1.567 1.567 1.57 1.57 0 0 0 1.567-1.567zm4.702 0c0-.866-.701-1.567-1.567-1.567s-1.567.702-1.567 1.567.701 1.567 1.567 1.567a1.57 1.57 0 0 0 1.567-1.567zm4.702 0c0-.866-.702-1.567-1.567-1.567a1.57 1.57 0 0 0-1.567 1.567 1.57 1.57 0 0 0 1.567 1.567 1.57 1.57 0 0 0 1.567-1.567zm4.702 0c0-.866-.702-1.567-1.568-1.567a1.57 1.57 0 0 0-1.567 1.567 1.57 1.57 0 0 0 1.567 1.567 1.57 1.57 0 0 0 1.568-1.567zm4.702 0c0-.866-.702-1.567-1.568-1.567a1.57 1.57 0 0 0-1.567 1.567 1.57 1.57 0 0 0 1.567 1.567 1.57 1.57 0 0 0 1.568-1.567zm-23.51 12.538c0-.866-.702-1.567-1.567-1.567s-1.567.701-1.567 1.567a1.57 1.57 0 0 0 1.567 1.567c.865 0 1.567-.701 1.567-1.567zm4.702 0c0-.866-.701-1.567-1.567-1.567s-1.567.701-1.567 1.567a1.57 1.57 0 0 0 1.567 1.567c.865 0 1.567-.701 1.567-1.567zm4.702 0c0-.866-.701-1.567-1.567-1.567s-1.567.701-1.567 1.567.701 1.567 1.567 1.567 1.567-.701 1.567-1.567zm4.702 0c0-.866-.702-1.567-1.567-1.567s-1.567.701-1.567 1.567a1.57 1.57 0 0 0 1.567 1.567c.865 0 1.567-.701 1.567-1.567zm4.702 0c0-.866-.702-1.567-1.568-1.567s-1.567.701-1.567 1.567a1.57 1.57 0 0 0 1.567 1.567c.866 0 1.568-.701 1.568-1.567zm4.702 0c0-.866-.702-1.567-1.568-1.567s-1.567.701-1.567 1.567a1.57 1.57 0 0 0 1.567 1.567c.866 0 1.568-.701 1.568-1.567zm-7.445 18.024a1.57 1.57 0 0 0-1.567-1.567c-.866 0-1.567.702-1.567 1.567s.701 1.567 1.567 1.567 1.567-.701 1.567-1.567zm4.702 0a1.57 1.57 0 0 0-1.567-1.567 1.57 1.57 0 0 0-1.567 1.567c0 .866.702 1.567 1.567 1.567s1.567-.701 1.567-1.567zm4.702 0a1.57 1.57 0 0 0-1.568-1.567c-.866 0-1.567.702-1.567 1.567a1.57 1.57 0 0 0 1.567 1.567 1.57 1.57 0 0 0 1.568-1.567zm4.702 0a1.57 1.57 0 0 0-1.567-1.567 1.57 1.57 0 0 0-1.568 1.567c0 .866.702 1.567 1.568 1.567s1.567-.701 1.567-1.567zm4.701 0c0-.865-.701-1.567-1.567-1.567a1.57 1.57 0 0 0-1.568 1.567c0 .866.702 1.567 1.568 1.567s1.567-.701 1.567-1.567zm4.702 0a1.57 1.57 0 0 0-1.567-1.567 1.57 1.57 0 0 0-1.567 1.567c0 .866.702 1.567 1.567 1.567s1.567-.701 1.567-1.567zm-23.509 12.93c0-.866-.702-1.567-1.567-1.567a1.57 1.57 0 0 0-1.567 1.567c0 .865.701 1.567 1.567 1.567s1.567-.701 1.567-1.567zm4.702 0c0-.866-.702-1.567-1.567-1.567a1.57 1.57 0 0 0-1.567 1.567c0 .866.702 1.567 1.567 1.567s1.567-.701 1.567-1.567zm4.702 0c0-.866-.702-1.567-1.568-1.567s-1.567.702-1.567 1.567a1.57 1.57 0 0 0 1.567 1.567 1.57 1.57 0 0 0 1.568-1.567zm4.702 0c0-.866-.702-1.567-1.567-1.567a1.57 1.57 0 0 0-1.568 1.567c0 .866.702 1.567 1.568 1.567s1.567-.701 1.567-1.567zm4.701 0c0-.866-.701-1.567-1.567-1.567a1.57 1.57 0 0 0-1.568 1.567c0 .866.702 1.567 1.568 1.567s1.567-.701 1.567-1.567zm4.702 0c0-.866-.702-1.567-1.567-1.567a1.57 1.57 0 0 0-1.567 1.567c0 .866.702 1.567 1.567 1.567s1.567-.701 1.567-1.567z"/>
                <path d="M540.296 263.396h-5.486a1.353 1.353 0 1 1 0-2.706h5.486a1.35 1.35 0 0 1 1.353 1.353c-.001.747-.606 1.353-1.353 1.353zm1.352 4.916a1.35 1.35 0 0 0-1.353-1.353h-5.486a1.353 1.353 0 1 0 0 2.706h5.486c.748-.001 1.353-.606 1.353-1.353zm0 6.269a1.35 1.35 0 0 0-1.353-1.353h-5.486a1.353 1.353 0 1 0 0 2.706h5.486c.748-.001 1.353-.606 1.353-1.353zm0 6.269a1.35 1.35 0 0 0-1.353-1.353h-5.486a1.353 1.353 0 1 0 0 2.706h5.486c.748-.001 1.353-.606 1.353-1.353zm0 6.268a1.35 1.35 0 0 0-1.353-1.353h-5.486a1.353 1.353 0 1 0 0 2.706h5.486a1.35 1.35 0 0 0 1.353-1.353zm0 6.271a1.35 1.35 0 0 0-1.353-1.353h-5.486a1.353 1.353 0 1 0 0 2.706h5.486a1.35 1.35 0 0 0 1.353-1.353zm0 6.269a1.35 1.35 0 0 0-1.353-1.353h-5.486a1.353 1.353 0 1 0 0 2.706h5.486a1.35 1.35 0 0 0 1.353-1.353zm0 6.269a1.35 1.35 0 0 0-1.353-1.353h-5.486a1.353 1.353 0 1 0 0 2.706h5.486a1.35 1.35 0 0 0 1.353-1.353zm20.522-43.884a1.35 1.35 0 0 0-1.353-1.353h-14.4c-.747 0-1.353.605-1.353 1.353a1.35 1.35 0 0 0 1.353 1.353h14.4c.748 0 1.353-.606 1.353-1.353zm0 6.269a1.35 1.35 0 0 0-1.353-1.353h-14.4c-.747 0-1.353.605-1.353 1.353a1.35 1.35 0 0 0 1.353 1.353h14.4c.748-.001 1.353-.606 1.353-1.353zm0 6.269a1.35 1.35 0 0 0-1.353-1.353h-14.4c-.747 0-1.353.605-1.353 1.353a1.35 1.35 0 0 0 1.353 1.353h14.4c.748-.001 1.353-.606 1.353-1.353zm0 6.269a1.35 1.35 0 0 0-1.353-1.353h-14.4c-.747 0-1.353.605-1.353 1.353a1.35 1.35 0 0 0 1.353 1.353h14.4c.748-.001 1.353-.606 1.353-1.353zm0 6.268a1.35 1.35 0 0 0-1.353-1.353h-14.4c-.747 0-1.353.605-1.353 1.353a1.35 1.35 0 0 0 1.353 1.353h14.4a1.35 1.35 0 0 0 1.353-1.353zm17.24 6.271a1.35 1.35 0 0 0-1.353-1.353h-14.4a1.353 1.353 0 1 0 0 2.706h14.4a1.35 1.35 0 0 0 1.353-1.353zm0 6.269a1.35 1.35 0 0 0-1.353-1.353h-14.4a1.353 1.353 0 1 0 0 2.706h14.4a1.35 1.35 0 0 0 1.353-1.353zm0 6.269a1.35 1.35 0 0 0-1.353-1.353h-14.4a1.353 1.353 0 1 0 0 2.706h14.4a1.35 1.35 0 0 0 1.353-1.353zm-10.903-43.885a1.57 1.57 0 0 0-1.567-1.567c-.866 0-1.567.702-1.567 1.567a1.57 1.57 0 0 0 1.567 1.567c.865 0 1.567-.701 1.567-1.567zm4.702 0c0-.865-.701-1.567-1.567-1.567a1.57 1.57 0 0 0-1.567 1.567c0 .866.702 1.567 1.567 1.567s1.567-.701 1.567-1.567zm4.702 0c0-.865-.701-1.567-1.567-1.567s-1.567.702-1.567 1.567.701 1.567 1.567 1.567 1.567-.701 1.567-1.567zm4.702 0a1.57 1.57 0 0 0-1.567-1.567 1.57 1.57 0 0 0-1.567 1.567c0 .866.702 1.567 1.567 1.567s1.567-.701 1.567-1.567zm4.702 0a1.57 1.57 0 0 0-1.568-1.567 1.57 1.57 0 0 0-1.567 1.567c0 .866.702 1.567 1.567 1.567a1.57 1.57 0 0 0 1.568-1.567zm4.702 0a1.57 1.57 0 0 0-1.568-1.567 1.57 1.57 0 0 0-1.567 1.567c0 .866.702 1.567 1.567 1.567a1.57 1.57 0 0 0 1.568-1.567zm-23.51 12.539a1.57 1.57 0 0 0-1.567-1.567c-.866 0-1.567.702-1.567 1.567a1.57 1.57 0 0 0 1.567 1.567 1.57 1.57 0 0 0 1.567-1.567zm4.702 0c0-.865-.701-1.567-1.567-1.567a1.57 1.57 0 0 0-1.567 1.567c0 .866.702 1.567 1.567 1.567a1.57 1.57 0 0 0 1.567-1.567zm4.702 0c0-.865-.701-1.567-1.567-1.567s-1.567.702-1.567 1.567.701 1.567 1.567 1.567a1.57 1.57 0 0 0 1.567-1.567zm4.702 0a1.57 1.57 0 0 0-1.567-1.567 1.57 1.57 0 0 0-1.567 1.567c0 .866.702 1.567 1.567 1.567a1.57 1.57 0 0 0 1.567-1.567zm4.702 0a1.57 1.57 0 0 0-1.568-1.567 1.57 1.57 0 0 0-1.567 1.567c0 .866.702 1.567 1.567 1.567a1.57 1.57 0 0 0 1.568-1.567zm4.702 0a1.57 1.57 0 0 0-1.568-1.567 1.57 1.57 0 0 0-1.567 1.567c0 .866.702 1.567 1.567 1.567a1.57 1.57 0 0 0 1.568-1.567zm-7.445 18.024a1.57 1.57 0 0 0-1.567-1.567c-.866 0-1.567.702-1.567 1.567a1.57 1.57 0 0 0 1.567 1.568 1.57 1.57 0 0 0 1.567-1.568zm4.702 0a1.57 1.57 0 0 0-1.567-1.567 1.57 1.57 0 0 0-1.567 1.567 1.57 1.57 0 0 0 1.567 1.568 1.57 1.57 0 0 0 1.567-1.568zm4.702 0a1.57 1.57 0 0 0-1.568-1.567c-.866 0-1.567.702-1.567 1.567a1.57 1.57 0 0 0 1.567 1.568 1.57 1.57 0 0 0 1.568-1.568zm4.702 0a1.57 1.57 0 0 0-1.567-1.567 1.57 1.57 0 0 0-1.568 1.567 1.57 1.57 0 0 0 1.568 1.568 1.57 1.57 0 0 0 1.567-1.568zm4.701 0c0-.865-.701-1.567-1.567-1.567a1.57 1.57 0 0 0-1.568 1.567 1.57 1.57 0 0 0 1.568 1.568 1.57 1.57 0 0 0 1.567-1.568zm4.702 0a1.57 1.57 0 0 0-1.567-1.567 1.57 1.57 0 0 0-1.567 1.567 1.57 1.57 0 0 0 1.567 1.568 1.57 1.57 0 0 0 1.567-1.568zm-23.509 12.93c0-.866-.702-1.567-1.567-1.567a1.57 1.57 0 0 0-1.567 1.567c0 .865.701 1.567 1.567 1.567a1.57 1.57 0 0 0 1.567-1.567zm4.702 0c0-.866-.702-1.567-1.567-1.567a1.57 1.57 0 0 0-1.567 1.567c0 .866.702 1.567 1.567 1.567a1.57 1.57 0 0 0 1.567-1.567zm4.702 0c0-.866-.702-1.567-1.568-1.567s-1.567.702-1.567 1.567a1.57 1.57 0 0 0 1.567 1.567 1.57 1.57 0 0 0 1.568-1.567zm4.702 0c0-.866-.702-1.567-1.567-1.567a1.57 1.57 0 0 0-1.568 1.567c0 .866.702 1.567 1.568 1.567a1.57 1.57 0 0 0 1.567-1.567zm4.701 0c0-.866-.701-1.567-1.567-1.567a1.57 1.57 0 0 0-1.568 1.567c0 .866.702 1.567 1.568 1.567s1.567-.702 1.567-1.567zm4.702 0c0-.866-.702-1.567-1.567-1.567a1.57 1.57 0 0 0-1.567 1.567c0 .866.702 1.567 1.567 1.567a1.57 1.57 0 0 0 1.567-1.567zm16.434-143.683h-5.485a1.35 1.35 0 0 1-1.353-1.353c0-.747.605-1.353 1.353-1.353h5.485a1.35 1.35 0 0 1 1.353 1.353c0 .747-.605 1.353-1.353 1.353zm1.353 4.916a1.35 1.35 0 0 0-1.353-1.353h-5.485a1.353 1.353 0 1 0 0 2.706h5.485c.748 0 1.353-.606 1.353-1.353zm0 6.268a1.35 1.35 0 0 0-1.353-1.353h-5.485a1.353 1.353 0 1 0 0 2.706h5.485a1.35 1.35 0 0 0 1.353-1.353zm0 6.269a1.35 1.35 0 0 0-1.353-1.353h-5.485a1.353 1.353 0 1 0 0 2.706h5.485a1.35 1.35 0 0 0 1.353-1.353zm0 6.27a1.35 1.35 0 0 0-1.353-1.353h-5.485a1.353 1.353 0 1 0 0 2.706h5.485c.748-.001 1.353-.606 1.353-1.353zm0 6.27a1.35 1.35 0 0 0-1.353-1.353h-5.485a1.353 1.353 0 1 0 0 2.706h5.485a1.35 1.35 0 0 0 1.353-1.353zm0 6.269a1.35 1.35 0 0 0-1.353-1.353h-5.485a1.353 1.353 0 1 0 0 2.706h5.485a1.35 1.35 0 0 0 1.353-1.353zm0 6.269a1.35 1.35 0 0 0-1.353-1.353h-5.485a1.353 1.353 0 1 0 0 2.706h5.485c.748 0 1.353-.606 1.353-1.353zm20.522-43.885c0-.747-.605-1.353-1.353-1.353h-14.399a1.353 1.353 0 1 0 0 2.706h14.399a1.35 1.35 0 0 0 1.353-1.353zm0 6.27a1.35 1.35 0 0 0-1.353-1.353h-14.399a1.353 1.353 0 1 0 0 2.706h14.399c.748 0 1.353-.606 1.353-1.353zm0 6.268a1.35 1.35 0 0 0-1.353-1.353h-14.399a1.353 1.353 0 1 0 0 2.706h14.399a1.35 1.35 0 0 0 1.353-1.353zm0 6.269a1.35 1.35 0 0 0-1.353-1.353h-14.399a1.353 1.353 0 1 0 0 2.706h14.399a1.35 1.35 0 0 0 1.353-1.353zm0 6.27a1.35 1.35 0 0 0-1.353-1.353h-14.399a1.353 1.353 0 1 0 0 2.706h14.399c.748-.001 1.353-.606 1.353-1.353zm17.24 6.27a1.35 1.35 0 0 0-1.353-1.353h-14.399a1.353 1.353 0 1 0 0 2.706h14.399a1.35 1.35 0 0 0 1.353-1.353zm0 6.269a1.35 1.35 0 0 0-1.353-1.353h-14.399a1.353 1.353 0 1 0 0 2.706h14.399a1.35 1.35 0 0 0 1.353-1.353zm0 6.269a1.35 1.35 0 0 0-1.353-1.353h-14.399a1.353 1.353 0 1 0 0 2.706h14.399c.748 0 1.353-.606 1.353-1.353zm-10.903-43.885c0-.866-.702-1.567-1.567-1.567s-1.567.701-1.567 1.567.701 1.568 1.567 1.568a1.57 1.57 0 0 0 1.567-1.568zm4.702 0c0-.866-.702-1.567-1.567-1.567s-1.567.701-1.567 1.567a1.57 1.57 0 0 0 1.567 1.568 1.57 1.57 0 0 0 1.567-1.568zm4.702 0c0-.866-.702-1.567-1.567-1.567s-1.567.701-1.567 1.567a1.57 1.57 0 0 0 1.567 1.568 1.57 1.57 0 0 0 1.567-1.568zm4.701 0c0-.866-.702-1.567-1.567-1.567s-1.567.701-1.567 1.567.701 1.568 1.567 1.568 1.567-.702 1.567-1.568zm4.702 0c0-.866-.702-1.567-1.568-1.567s-1.567.701-1.567 1.567a1.57 1.57 0 0 0 1.567 1.568 1.57 1.57 0 0 0 1.568-1.568zm4.702 0c0-.866-.702-1.567-1.568-1.567s-1.567.701-1.567 1.567a1.57 1.57 0 0 0 1.567 1.568 1.57 1.57 0 0 0 1.568-1.568zm-23.509 12.539c0-.866-.702-1.567-1.567-1.567a1.57 1.57 0 0 0-1.567 1.567c0 .865.701 1.567 1.567 1.567a1.57 1.57 0 0 0 1.567-1.567zm4.702 0c0-.866-.702-1.567-1.567-1.567a1.57 1.57 0 0 0-1.567 1.567 1.57 1.57 0 0 0 1.567 1.567 1.57 1.57 0 0 0 1.567-1.567zm4.702 0c0-.866-.702-1.567-1.567-1.567a1.57 1.57 0 0 0-1.567 1.567 1.57 1.57 0 0 0 1.567 1.567 1.57 1.57 0 0 0 1.567-1.567zm4.701 0c0-.866-.702-1.567-1.567-1.567a1.57 1.57 0 0 0-1.567 1.567c0 .865.701 1.567 1.567 1.567s1.567-.702 1.567-1.567zm4.702 0c0-.866-.702-1.567-1.568-1.567a1.57 1.57 0 0 0-1.567 1.567 1.57 1.57 0 0 0 1.567 1.567c.867 0 1.568-.702 1.568-1.567zm4.702 0c0-.866-.702-1.567-1.568-1.567a1.57 1.57 0 0 0-1.567 1.567 1.57 1.57 0 0 0 1.567 1.567 1.57 1.57 0 0 0 1.568-1.567zm-7.444 18.024a1.57 1.57 0 0 0-1.568-1.567 1.57 1.57 0 0 0-1.567 1.567c0 .866.702 1.567 1.567 1.567a1.57 1.57 0 0 0 1.568-1.567zm4.702 0a1.57 1.57 0 0 0-1.568-1.567c-.866 0-1.567.702-1.567 1.567s.701 1.567 1.567 1.567a1.57 1.57 0 0 0 1.568-1.567zm4.701 0a1.57 1.57 0 0 0-1.567-1.567c-.866 0-1.567.702-1.567 1.567a1.57 1.57 0 0 0 1.567 1.567 1.57 1.57 0 0 0 1.567-1.567zm4.702 0a1.57 1.57 0 0 0-1.567-1.567 1.57 1.57 0 0 0-1.568 1.567c0 .866.702 1.567 1.568 1.567a1.57 1.57 0 0 0 1.567-1.567zm4.702 0a1.57 1.57 0 0 0-1.567-1.567c-.866 0-1.567.702-1.567 1.567s.701 1.567 1.567 1.567a1.57 1.57 0 0 0 1.567-1.567zm4.702 0a1.57 1.57 0 0 0-1.567-1.567c-.866 0-1.567.702-1.567 1.567s.701 1.567 1.567 1.567a1.57 1.57 0 0 0 1.567-1.567zm-23.509 12.93a1.57 1.57 0 0 0-1.568-1.567 1.57 1.57 0 0 0-1.567 1.567c0 .866.702 1.567 1.567 1.567a1.57 1.57 0 0 0 1.568-1.567zm4.702 0a1.57 1.57 0 0 0-1.568-1.567c-.866 0-1.567.702-1.567 1.567s.701 1.567 1.567 1.567a1.57 1.57 0 0 0 1.568-1.567zm4.701 0a1.57 1.57 0 0 0-1.567-1.567c-.866 0-1.567.702-1.567 1.567a1.57 1.57 0 0 0 1.567 1.567 1.57 1.57 0 0 0 1.567-1.567zm4.702 0a1.57 1.57 0 0 0-1.567-1.567 1.57 1.57 0 0 0-1.568 1.567c0 .866.702 1.567 1.568 1.567a1.57 1.57 0 0 0 1.567-1.567zm4.702 0a1.57 1.57 0 0 0-1.567-1.567c-.866 0-1.567.702-1.567 1.567s.701 1.567 1.567 1.567a1.57 1.57 0 0 0 1.567-1.567zm4.702 0a1.57 1.57 0 0 0-1.567-1.567c-.866 0-1.567.702-1.567 1.567s.701 1.567 1.567 1.567a1.57 1.57 0 0 0 1.567-1.567z"/>
                <path d="M624.515 213.229h-5.485a1.353 1.353 0 1 1 0-2.706h5.485a1.353 1.353 0 1 1 0 2.706zm1.353 4.916a1.35 1.35 0 0 0-1.353-1.353h-5.485a1.353 1.353 0 1 0 0 2.706h5.485a1.35 1.35 0 0 0 1.353-1.353zm0 6.269a1.35 1.35 0 0 0-1.353-1.353h-5.485a1.353 1.353 0 1 0 0 2.706h5.485a1.35 1.35 0 0 0 1.353-1.353zm0 6.269a1.35 1.35 0 0 0-1.353-1.353h-5.485a1.35 1.35 0 0 0-1.353 1.353c0 .747.605 1.353 1.353 1.353h5.485a1.35 1.35 0 0 0 1.353-1.353zm0 6.269c0-.747-.605-1.353-1.353-1.353h-5.485a1.353 1.353 0 1 0 0 2.706h5.485a1.35 1.35 0 0 0 1.353-1.353zm0 6.27a1.35 1.35 0 0 0-1.353-1.353h-5.485a1.353 1.353 0 1 0 0 2.706h5.485a1.35 1.35 0 0 0 1.353-1.353zm0 6.269a1.35 1.35 0 0 0-1.353-1.353h-5.485a1.353 1.353 0 1 0 0 2.706h5.485a1.35 1.35 0 0 0 1.353-1.353zm0 6.269a1.35 1.35 0 0 0-1.353-1.353h-5.485a1.353 1.353 0 1 0 0 2.706h5.485a1.35 1.35 0 0 0 1.353-1.353zm20.522-43.884a1.35 1.35 0 0 0-1.353-1.353h-14.399a1.353 1.353 0 1 0 0 2.706h14.399a1.35 1.35 0 0 0 1.353-1.353zm0 6.269a1.35 1.35 0 0 0-1.353-1.353h-14.399a1.353 1.353 0 1 0 0 2.706h14.399a1.35 1.35 0 0 0 1.353-1.353zm0 6.269a1.35 1.35 0 0 0-1.353-1.353h-14.399a1.353 1.353 0 1 0 0 2.706h14.399a1.35 1.35 0 0 0 1.353-1.353zm0 6.269a1.35 1.35 0 0 0-1.353-1.353h-14.399a1.35 1.35 0 0 0-1.353 1.353c0 .747.605 1.353 1.353 1.353h14.399a1.35 1.35 0 0 0 1.353-1.353zm0 6.269c0-.747-.605-1.353-1.353-1.353h-14.399a1.353 1.353 0 1 0 0 2.706h14.399a1.35 1.35 0 0 0 1.353-1.353zm17.24 6.27a1.35 1.35 0 0 0-1.353-1.353h-14.399a1.353 1.353 0 1 0 0 2.706h14.399a1.35 1.35 0 0 0 1.353-1.353zm0 6.269a1.35 1.35 0 0 0-1.353-1.353h-14.399a1.353 1.353 0 1 0 0 2.706h14.399a1.35 1.35 0 0 0 1.353-1.353zm0 6.269a1.35 1.35 0 0 0-1.353-1.353h-14.399a1.353 1.353 0 1 0 0 2.706h14.399a1.35 1.35 0 0 0 1.353-1.353zm-10.903-43.884a1.57 1.57 0 0 0-1.567-1.567c-.866 0-1.567.702-1.567 1.567s.701 1.567 1.567 1.567 1.567-.701 1.567-1.567zm4.702 0a1.57 1.57 0 0 0-1.567-1.567 1.57 1.57 0 0 0-1.567 1.567c0 .866.702 1.567 1.567 1.567s1.567-.701 1.567-1.567zm4.702 0a1.57 1.57 0 0 0-1.567-1.567 1.57 1.57 0 0 0-1.567 1.567c0 .866.702 1.567 1.567 1.567s1.567-.701 1.567-1.567zm4.701 0a1.57 1.57 0 0 0-1.567-1.567c-.866 0-1.567.702-1.567 1.567s.701 1.567 1.567 1.567 1.567-.701 1.567-1.567zm4.702 0a1.57 1.57 0 0 0-1.568-1.567 1.57 1.57 0 0 0-1.567 1.567c0 .866.702 1.567 1.567 1.567a1.57 1.57 0 0 0 1.568-1.567zm4.702 0a1.57 1.57 0 0 0-1.568-1.567 1.57 1.57 0 0 0-1.567 1.567c0 .866.702 1.567 1.567 1.567a1.57 1.57 0 0 0 1.568-1.567zm-23.509 12.538a1.57 1.57 0 0 0-1.567-1.567c-.866 0-1.567.702-1.567 1.567s.701 1.567 1.567 1.567 1.567-.701 1.567-1.567zm4.702 0a1.57 1.57 0 0 0-1.567-1.567 1.57 1.57 0 0 0-1.567 1.567c0 .866.702 1.567 1.567 1.567s1.567-.701 1.567-1.567zm4.702 0a1.57 1.57 0 0 0-1.567-1.567 1.57 1.57 0 0 0-1.567 1.567c0 .866.702 1.567 1.567 1.567s1.567-.701 1.567-1.567zm4.701 0a1.57 1.57 0 0 0-1.567-1.567c-.866 0-1.567.702-1.567 1.567s.701 1.567 1.567 1.567 1.567-.701 1.567-1.567zm4.702 0a1.57 1.57 0 0 0-1.568-1.567 1.57 1.57 0 0 0-1.567 1.567c0 .866.702 1.567 1.567 1.567a1.57 1.57 0 0 0 1.568-1.567zm4.702 0a1.57 1.57 0 0 0-1.568-1.567 1.57 1.57 0 0 0-1.567 1.567c0 .866.702 1.567 1.567 1.567a1.57 1.57 0 0 0 1.568-1.567zm-7.444 18.024a1.57 1.57 0 0 0-1.568-1.567 1.57 1.57 0 0 0-1.567 1.567 1.57 1.57 0 0 0 1.567 1.568 1.57 1.57 0 0 0 1.568-1.568zm4.702 0a1.57 1.57 0 0 0-1.568-1.567c-.866 0-1.567.702-1.567 1.567a1.57 1.57 0 0 0 1.567 1.568 1.57 1.57 0 0 0 1.568-1.568zm4.701 0a1.57 1.57 0 0 0-1.567-1.567c-.866 0-1.567.702-1.567 1.567a1.57 1.57 0 0 0 1.567 1.568c.866 0 1.567-.702 1.567-1.568zm4.702 0a1.57 1.57 0 0 0-1.567-1.567 1.57 1.57 0 0 0-1.568 1.567 1.57 1.57 0 0 0 1.568 1.568 1.57 1.57 0 0 0 1.567-1.568zm4.702 0a1.57 1.57 0 0 0-1.567-1.567c-.866 0-1.567.702-1.567 1.567a1.57 1.57 0 0 0 1.567 1.568 1.57 1.57 0 0 0 1.567-1.568zm4.702 0a1.57 1.57 0 0 0-1.567-1.567c-.866 0-1.567.702-1.567 1.567a1.57 1.57 0 0 0 1.567 1.568 1.57 1.57 0 0 0 1.567-1.568zm-23.509 12.93c0-.866-.702-1.567-1.568-1.567s-1.567.701-1.567 1.567.702 1.567 1.567 1.567a1.57 1.57 0 0 0 1.568-1.567zm4.702 0c0-.866-.702-1.567-1.568-1.567s-1.567.701-1.567 1.567.701 1.567 1.567 1.567 1.568-.701 1.568-1.567zm4.701 0c0-.866-.702-1.567-1.567-1.567s-1.567.701-1.567 1.567.702 1.567 1.567 1.567 1.567-.701 1.567-1.567zm4.702 0c0-.866-.702-1.567-1.567-1.567a1.57 1.57 0 0 0-1.568 1.567c0 .866.702 1.567 1.568 1.567s1.567-.701 1.567-1.567zm4.702 0c0-.866-.702-1.567-1.567-1.567s-1.567.701-1.567 1.567.701 1.567 1.567 1.567 1.567-.701 1.567-1.567zm4.702 0c0-.866-.702-1.567-1.567-1.567s-1.567.701-1.567 1.567.701 1.567 1.567 1.567 1.567-.701 1.567-1.567zM454.151 47.646h-5.486a1.353 1.353 0 1 1 0-2.706h5.486a1.353 1.353 0 1 1 0 2.706zm1.353 4.916a1.35 1.35 0 0 0-1.353-1.353h-5.486a1.353 1.353 0 1 0 0 2.706h5.486a1.35 1.35 0 0 0 1.353-1.353zm0 6.269a1.35 1.35 0 0 0-1.353-1.353h-5.486a1.353 1.353 0 1 0 0 2.706h5.486a1.35 1.35 0 0 0 1.353-1.353zm0 6.269a1.35 1.35 0 0 0-1.353-1.353h-5.486a1.353 1.353 0 1 0 0 2.706h5.486a1.35 1.35 0 0 0 1.353-1.353zm0 6.269a1.35 1.35 0 0 0-1.353-1.353h-5.486a1.353 1.353 0 1 0 0 2.706h5.486a1.35 1.35 0 0 0 1.353-1.353zm0 6.27a1.35 1.35 0 0 0-1.353-1.353h-5.486a1.353 1.353 0 1 0 0 2.706h5.486a1.35 1.35 0 0 0 1.353-1.353zm0 6.269a1.35 1.35 0 0 0-1.353-1.353h-5.486a1.353 1.353 0 1 0 0 2.706h5.486a1.35 1.35 0 0 0 1.353-1.353zm0 6.269a1.35 1.35 0 0 0-1.353-1.353h-5.486a1.353 1.353 0 1 0 0 2.706h5.486a1.35 1.35 0 0 0 1.353-1.353zm20.521-43.884a1.35 1.35 0 0 0-1.353-1.353h-14.4c-.747 0-1.353.605-1.353 1.353a1.35 1.35 0 0 0 1.353 1.353h14.4a1.35 1.35 0 0 0 1.353-1.353zm0 6.269a1.35 1.35 0 0 0-1.353-1.353h-14.4c-.747 0-1.353.605-1.353 1.353a1.35 1.35 0 0 0 1.353 1.353h14.4a1.35 1.35 0 0 0 1.353-1.353zm0 6.269a1.35 1.35 0 0 0-1.353-1.353h-14.4c-.747 0-1.353.605-1.353 1.353a1.35 1.35 0 0 0 1.353 1.353h14.4a1.35 1.35 0 0 0 1.353-1.353zm0 6.269a1.35 1.35 0 0 0-1.353-1.353h-14.4c-.747 0-1.353.605-1.353 1.353a1.35 1.35 0 0 0 1.353 1.353h14.4a1.35 1.35 0 0 0 1.353-1.353zm0 6.269a1.35 1.35 0 0 0-1.353-1.353h-14.4c-.747 0-1.353.605-1.353 1.353a1.35 1.35 0 0 0 1.353 1.353h14.4a1.35 1.35 0 0 0 1.353-1.353zm17.241 6.27a1.35 1.35 0 0 0-1.353-1.353h-14.399a1.353 1.353 0 1 0 0 2.706h14.399a1.35 1.35 0 0 0 1.353-1.353zm0 6.269a1.35 1.35 0 0 0-1.353-1.353h-14.399a1.353 1.353 0 1 0 0 2.706h14.399a1.35 1.35 0 0 0 1.353-1.353zm0 6.269a1.35 1.35 0 0 0-1.353-1.353h-14.399a1.353 1.353 0 1 0 0 2.706h14.399a1.35 1.35 0 0 0 1.353-1.353zm-10.904-43.884c0-.866-.702-1.567-1.567-1.567a1.57 1.57 0 0 0-1.568 1.567c0 .866.702 1.567 1.568 1.567s1.567-.702 1.567-1.567zm4.702 0c0-.866-.701-1.567-1.567-1.567s-1.567.701-1.567 1.567.702 1.567 1.567 1.567a1.57 1.57 0 0 0 1.567-1.567zm4.702 0c0-.866-.701-1.567-1.567-1.567s-1.567.701-1.567 1.567.701 1.567 1.567 1.567 1.567-.702 1.567-1.567zm4.702 0c0-.866-.702-1.567-1.568-1.567s-1.567.701-1.567 1.567.702 1.567 1.567 1.567a1.57 1.57 0 0 0 1.568-1.567zm4.702 0c0-.866-.702-1.567-1.568-1.567s-1.567.701-1.567 1.567.702 1.567 1.567 1.567a1.57 1.57 0 0 0 1.568-1.567zm4.702 0c0-.866-.702-1.567-1.567-1.567s-1.567.701-1.567 1.567.702 1.567 1.567 1.567a1.57 1.57 0 0 0 1.567-1.567zm-23.51 12.538c0-.866-.702-1.567-1.567-1.567a1.57 1.57 0 0 0-1.568 1.567 1.57 1.57 0 0 0 1.568 1.567c.866.001 1.567-.701 1.567-1.567zm4.702 0c0-.866-.701-1.567-1.567-1.567s-1.567.701-1.567 1.567a1.57 1.57 0 0 0 1.567 1.567c.866.001 1.567-.701 1.567-1.567zm4.702 0c0-.866-.701-1.567-1.567-1.567s-1.567.701-1.567 1.567.701 1.567 1.567 1.567 1.567-.701 1.567-1.567zm4.702 0c0-.866-.702-1.567-1.568-1.567s-1.567.701-1.567 1.567a1.57 1.57 0 0 0 1.567 1.567c.866.001 1.568-.701 1.568-1.567zm4.702 0c0-.866-.702-1.567-1.568-1.567s-1.567.701-1.567 1.567a1.57 1.57 0 0 0 1.567 1.567c.866.001 1.568-.701 1.568-1.567zm4.702 0c0-.866-.702-1.567-1.567-1.567s-1.567.701-1.567 1.567a1.57 1.57 0 0 0 1.567 1.567c.865.001 1.567-.701 1.567-1.567zm-7.445 18.024a1.57 1.57 0 0 0-1.567-1.567 1.57 1.57 0 0 0-1.567 1.567 1.57 1.57 0 0 0 1.567 1.568 1.57 1.57 0 0 0 1.567-1.568zm4.702 0a1.57 1.57 0 0 0-1.567-1.567 1.57 1.57 0 0 0-1.567 1.567 1.57 1.57 0 0 0 1.567 1.568 1.57 1.57 0 0 0 1.567-1.568zm4.702 0a1.57 1.57 0 0 0-1.567-1.567 1.57 1.57 0 0 0-1.568 1.567 1.57 1.57 0 0 0 1.568 1.568 1.57 1.57 0 0 0 1.567-1.568zm4.702 0a1.57 1.57 0 0 0-1.567-1.567c-.866 0-1.567.702-1.567 1.567a1.57 1.57 0 0 0 1.567 1.568 1.57 1.57 0 0 0 1.567-1.568zm4.702 0c0-.865-.701-1.567-1.567-1.567s-1.567.702-1.567 1.567a1.57 1.57 0 0 0 1.567 1.568 1.57 1.57 0 0 0 1.567-1.568zm4.702 0a1.57 1.57 0 0 0-1.567-1.567 1.57 1.57 0 0 0-1.567 1.567 1.57 1.57 0 0 0 1.567 1.568 1.57 1.57 0 0 0 1.567-1.568zm-23.51 12.93a1.57 1.57 0 0 0-1.567-1.567 1.57 1.57 0 0 0-1.567 1.567c0 .866.702 1.567 1.567 1.567s1.567-.701 1.567-1.567zm4.702 0a1.57 1.57 0 0 0-1.567-1.567 1.57 1.57 0 0 0-1.567 1.567c0 .866.702 1.567 1.567 1.567s1.567-.701 1.567-1.567zm4.702 0a1.57 1.57 0 0 0-1.567-1.567 1.57 1.57 0 0 0-1.568 1.567c0 .866.702 1.567 1.568 1.567s1.567-.701 1.567-1.567zm4.702 0a1.57 1.57 0 0 0-1.567-1.567c-.866 0-1.567.702-1.567 1.567a1.57 1.57 0 0 0 1.567 1.567c.865 0 1.567-.701 1.567-1.567zm4.702 0c0-.865-.701-1.567-1.567-1.567s-1.567.702-1.567 1.567a1.57 1.57 0 0 0 1.567 1.567c.865 0 1.567-.701 1.567-1.567zm4.702 0a1.57 1.57 0 0 0-1.567-1.567 1.57 1.57 0 0 0-1.567 1.567c0 .866.702 1.567 1.567 1.567s1.567-.701 1.567-1.567z"/>
                <path d="M454.151 97.812h-5.486a1.353 1.353 0 1 1 0-2.706h5.486a1.353 1.353 0 1 1 0 2.706zm1.353 4.916a1.35 1.35 0 0 0-1.353-1.353h-5.486a1.353 1.353 0 1 0 0 2.706h5.486a1.35 1.35 0 0 0 1.353-1.353zm0 6.269a1.35 1.35 0 0 0-1.353-1.353h-5.486a1.353 1.353 0 1 0 0 2.706h5.486a1.35 1.35 0 0 0 1.353-1.353zm0 6.269a1.35 1.35 0 0 0-1.353-1.353h-5.486a1.353 1.353 0 1 0 0 2.706h5.486a1.35 1.35 0 0 0 1.353-1.353zm0 6.269a1.35 1.35 0 0 0-1.353-1.353h-5.486a1.353 1.353 0 1 0 0 2.706h5.486a1.35 1.35 0 0 0 1.353-1.353zm0 6.27a1.35 1.35 0 0 0-1.353-1.353h-5.486a1.353 1.353 0 1 0 0 2.706h5.486a1.35 1.35 0 0 0 1.353-1.353zm0 6.27a1.35 1.35 0 0 0-1.353-1.353h-5.486a1.353 1.353 0 1 0 0 2.706h5.486c.748-.001 1.353-.606 1.353-1.353zm0 6.269a1.35 1.35 0 0 0-1.353-1.353h-5.486a1.353 1.353 0 1 0 0 2.706h5.486c.748-.001 1.353-.606 1.353-1.353zm20.521-43.885a1.35 1.35 0 0 0-1.353-1.353h-14.4c-.747 0-1.353.605-1.353 1.353a1.35 1.35 0 0 0 1.353 1.353h14.4a1.35 1.35 0 0 0 1.353-1.353zm0 6.269a1.35 1.35 0 0 0-1.353-1.353h-14.4c-.747 0-1.353.605-1.353 1.353a1.35 1.35 0 0 0 1.353 1.353h14.4a1.35 1.35 0 0 0 1.353-1.353zm0 6.269a1.35 1.35 0 0 0-1.353-1.353h-14.4c-.747 0-1.353.605-1.353 1.353a1.35 1.35 0 0 0 1.353 1.353h14.4a1.35 1.35 0 0 0 1.353-1.353zm0 6.269a1.35 1.35 0 0 0-1.353-1.353h-14.4c-.747 0-1.353.605-1.353 1.353a1.35 1.35 0 0 0 1.353 1.353h14.4a1.35 1.35 0 0 0 1.353-1.353zm0 6.269a1.35 1.35 0 0 0-1.353-1.353h-14.4c-.747 0-1.353.605-1.353 1.353a1.35 1.35 0 0 0 1.353 1.353h14.4a1.35 1.35 0 0 0 1.353-1.353zm17.241 6.27a1.35 1.35 0 0 0-1.353-1.353h-14.399a1.353 1.353 0 1 0 0 2.706h14.399a1.35 1.35 0 0 0 1.353-1.353zm0 6.27a1.35 1.35 0 0 0-1.353-1.353h-14.399a1.353 1.353 0 1 0 0 2.706h14.399c.748-.001 1.353-.606 1.353-1.353zm0 6.269a1.35 1.35 0 0 0-1.353-1.353h-14.399a1.353 1.353 0 1 0 0 2.706h14.399c.748-.001 1.353-.606 1.353-1.353zm-10.904-43.885c0-.866-.702-1.567-1.567-1.567a1.57 1.57 0 0 0-1.568 1.567 1.57 1.57 0 0 0 1.568 1.567c.866.001 1.567-.701 1.567-1.567zm4.702 0c0-.866-.701-1.567-1.567-1.567a1.57 1.57 0 0 0-1.567 1.567 1.57 1.57 0 0 0 1.567 1.567c.866.001 1.567-.701 1.567-1.567zm4.702 0c0-.866-.701-1.567-1.567-1.567s-1.567.702-1.567 1.567.701 1.567 1.567 1.567 1.567-.701 1.567-1.567zm4.702 0c0-.866-.702-1.567-1.568-1.567a1.57 1.57 0 0 0-1.567 1.567 1.57 1.57 0 0 0 1.567 1.567c.866.001 1.568-.701 1.568-1.567zm4.702 0c0-.866-.702-1.567-1.568-1.567a1.57 1.57 0 0 0-1.567 1.567 1.57 1.57 0 0 0 1.567 1.567c.866.001 1.568-.701 1.568-1.567zm4.702 0c0-.866-.702-1.567-1.567-1.567a1.57 1.57 0 0 0-1.567 1.567 1.57 1.57 0 0 0 1.567 1.567c.865.001 1.567-.701 1.567-1.567zm-23.51 12.539c0-.866-.702-1.567-1.567-1.567a1.57 1.57 0 0 0-1.568 1.567 1.57 1.57 0 0 0 1.568 1.567c.866 0 1.567-.702 1.567-1.567zm4.702 0c0-.866-.701-1.567-1.567-1.567s-1.567.701-1.567 1.567a1.57 1.57 0 0 0 1.567 1.567c.866 0 1.567-.702 1.567-1.567zm4.702 0c0-.866-.701-1.567-1.567-1.567s-1.567.701-1.567 1.567.701 1.567 1.567 1.567 1.567-.702 1.567-1.567zm4.702 0c0-.866-.702-1.567-1.568-1.567s-1.567.701-1.567 1.567a1.57 1.57 0 0 0 1.567 1.567 1.57 1.57 0 0 0 1.568-1.567zm4.702 0c0-.866-.702-1.567-1.568-1.567s-1.567.701-1.567 1.567a1.57 1.57 0 0 0 1.567 1.567 1.57 1.57 0 0 0 1.568-1.567zm4.702 0c0-.866-.702-1.567-1.567-1.567s-1.567.701-1.567 1.567a1.57 1.57 0 0 0 1.567 1.567 1.57 1.57 0 0 0 1.567-1.567zm-7.445 18.023a1.57 1.57 0 0 0-1.567-1.567 1.57 1.57 0 0 0-1.567 1.567c0 .866.702 1.567 1.567 1.567s1.567-.701 1.567-1.567zm4.702 0a1.57 1.57 0 0 0-1.567-1.567 1.57 1.57 0 0 0-1.567 1.567c0 .866.702 1.567 1.567 1.567s1.567-.701 1.567-1.567zm4.702 0a1.57 1.57 0 0 0-1.567-1.567 1.57 1.57 0 0 0-1.568 1.567c0 .866.702 1.567 1.568 1.567s1.567-.701 1.567-1.567zm4.702 0a1.57 1.57 0 0 0-1.567-1.567c-.866 0-1.567.702-1.567 1.567a1.57 1.57 0 0 0 1.567 1.567c.865 0 1.567-.701 1.567-1.567zm4.702 0c0-.865-.701-1.567-1.567-1.567s-1.567.702-1.567 1.567a1.57 1.57 0 0 0 1.567 1.567c.865 0 1.567-.701 1.567-1.567zm4.702 0a1.57 1.57 0 0 0-1.567-1.567 1.57 1.57 0 0 0-1.567 1.567c0 .866.702 1.567 1.567 1.567s1.567-.701 1.567-1.567zm-23.51 12.931a1.57 1.57 0 0 0-1.567-1.567 1.57 1.57 0 0 0-1.567 1.567c0 .866.702 1.567 1.567 1.567a1.57 1.57 0 0 0 1.567-1.567zm4.702 0a1.57 1.57 0 0 0-1.567-1.567 1.57 1.57 0 0 0-1.567 1.567c0 .866.702 1.567 1.567 1.567a1.57 1.57 0 0 0 1.567-1.567zm4.702 0a1.57 1.57 0 0 0-1.567-1.567 1.57 1.57 0 0 0-1.568 1.567c0 .866.702 1.567 1.568 1.567a1.57 1.57 0 0 0 1.567-1.567zm4.702 0a1.57 1.57 0 0 0-1.567-1.567c-.866 0-1.567.702-1.567 1.567a1.57 1.57 0 0 0 1.567 1.567 1.57 1.57 0 0 0 1.567-1.567zm4.702 0c0-.865-.701-1.567-1.567-1.567s-1.567.702-1.567 1.567a1.57 1.57 0 0 0 1.567 1.567 1.57 1.57 0 0 0 1.567-1.567zm4.702 0a1.57 1.57 0 0 0-1.567-1.567 1.57 1.57 0 0 0-1.567 1.567c0 .866.702 1.567 1.567 1.567a1.57 1.57 0 0 0 1.567-1.567zm-67.786 9.238h-5.486a1.353 1.353 0 1 1 0-2.706h5.486a1.353 1.353 0 1 1 0 2.706zm1.353 4.916a1.35 1.35 0 0 0-1.353-1.353h-5.486a1.353 1.353 0 1 0 0 2.706h5.486a1.35 1.35 0 0 0 1.353-1.353zm0 6.269a1.35 1.35 0 0 0-1.353-1.353h-5.486a1.353 1.353 0 1 0 0 2.706h5.486a1.35 1.35 0 0 0 1.353-1.353zm0 6.269a1.35 1.35 0 0 0-1.353-1.353h-5.486a1.353 1.353 0 1 0 0 2.706h5.486a1.35 1.35 0 0 0 1.353-1.353zm0 6.269a1.35 1.35 0 0 0-1.353-1.353h-5.486a1.353 1.353 0 1 0 0 2.706h5.486a1.35 1.35 0 0 0 1.353-1.353zm0 6.27a1.35 1.35 0 0 0-1.353-1.353h-5.486a1.353 1.353 0 1 0 0 2.706h5.486a1.35 1.35 0 0 0 1.353-1.353zm0 6.269a1.35 1.35 0 0 0-1.353-1.353h-5.486a1.353 1.353 0 1 0 0 2.706h5.486a1.35 1.35 0 0 0 1.353-1.353zm0 6.269a1.35 1.35 0 0 0-1.353-1.353h-5.486a1.353 1.353 0 1 0 0 2.706h5.486a1.35 1.35 0 0 0 1.353-1.353zm20.521-43.884a1.35 1.35 0 0 0-1.353-1.353h-14.4c-.747 0-1.353.605-1.353 1.353a1.35 1.35 0 0 0 1.353 1.353h14.4a1.35 1.35 0 0 0 1.353-1.353zm0 6.269a1.35 1.35 0 0 0-1.353-1.353h-14.4c-.747 0-1.353.605-1.353 1.353a1.35 1.35 0 0 0 1.353 1.353h14.4a1.35 1.35 0 0 0 1.353-1.353zm0 6.269a1.35 1.35 0 0 0-1.353-1.353h-14.4c-.747 0-1.353.605-1.353 1.353a1.35 1.35 0 0 0 1.353 1.353h14.4a1.35 1.35 0 0 0 1.353-1.353zm0 6.269a1.35 1.35 0 0 0-1.353-1.353h-14.4c-.747 0-1.353.605-1.353 1.353a1.35 1.35 0 0 0 1.353 1.353h14.4a1.35 1.35 0 0 0 1.353-1.353zm0 6.269a1.35 1.35 0 0 0-1.353-1.353h-14.4c-.747 0-1.353.605-1.353 1.353a1.35 1.35 0 0 0 1.353 1.353h14.4a1.35 1.35 0 0 0 1.353-1.353zm17.241 6.27a1.35 1.35 0 0 0-1.353-1.353h-14.399a1.353 1.353 0 1 0 0 2.706h14.399a1.35 1.35 0 0 0 1.353-1.353zm0 6.269a1.35 1.35 0 0 0-1.353-1.353h-14.399a1.353 1.353 0 1 0 0 2.706h14.399a1.35 1.35 0 0 0 1.353-1.353zm0 6.269a1.35 1.35 0 0 0-1.353-1.353h-14.399a1.353 1.353 0 1 0 0 2.706h14.399a1.35 1.35 0 0 0 1.353-1.353zm-10.904-43.884a1.57 1.57 0 0 0-1.567-1.567 1.57 1.57 0 0 0-1.568 1.567c0 .866.702 1.567 1.568 1.567s1.567-.701 1.567-1.567zm4.702 0c0-.865-.701-1.567-1.567-1.567a1.57 1.57 0 0 0-1.567 1.567c0 .866.702 1.567 1.567 1.567s1.567-.701 1.567-1.567zm4.702 0c0-.865-.701-1.567-1.567-1.567s-1.567.702-1.567 1.567.701 1.567 1.567 1.567 1.567-.701 1.567-1.567zm4.702 0a1.57 1.57 0 0 0-1.568-1.567 1.57 1.57 0 0 0-1.567 1.567c0 .866.702 1.567 1.567 1.567a1.57 1.57 0 0 0 1.568-1.567zm4.702 0a1.57 1.57 0 0 0-1.568-1.567 1.57 1.57 0 0 0-1.567 1.567c0 .866.702 1.567 1.567 1.567a1.57 1.57 0 0 0 1.568-1.567zm4.702 0a1.57 1.57 0 0 0-1.567-1.567c-.866 0-1.567.702-1.567 1.567a1.57 1.57 0 0 0 1.567 1.567c.865 0 1.567-.701 1.567-1.567zm-23.51 12.538a1.57 1.57 0 0 0-1.567-1.567 1.57 1.57 0 0 0-1.568 1.567 1.57 1.57 0 0 0 1.568 1.568c.866 0 1.567-.702 1.567-1.568zm4.702 0c0-.865-.701-1.567-1.567-1.567a1.57 1.57 0 0 0-1.567 1.567 1.57 1.57 0 0 0 1.567 1.568c.866 0 1.567-.702 1.567-1.568zm4.702 0c0-.865-.701-1.567-1.567-1.567s-1.567.702-1.567 1.567a1.57 1.57 0 0 0 1.567 1.568c.866 0 1.567-.702 1.567-1.568zm4.702 0a1.57 1.57 0 0 0-1.568-1.567 1.57 1.57 0 0 0-1.567 1.567 1.57 1.57 0 0 0 1.567 1.568 1.57 1.57 0 0 0 1.568-1.568zm4.702 0a1.57 1.57 0 0 0-1.568-1.567 1.57 1.57 0 0 0-1.567 1.567 1.57 1.57 0 0 0 1.567 1.568 1.57 1.57 0 0 0 1.568-1.568zm4.702 0a1.57 1.57 0 0 0-1.567-1.567c-.866 0-1.567.702-1.567 1.567a1.57 1.57 0 0 0 1.567 1.568 1.57 1.57 0 0 0 1.567-1.568zm-7.445 18.024a1.57 1.57 0 0 0-1.567-1.567 1.57 1.57 0 0 0-1.567 1.567 1.57 1.57 0 0 0 1.567 1.568 1.57 1.57 0 0 0 1.567-1.568zm4.702 0a1.57 1.57 0 0 0-1.567-1.567 1.57 1.57 0 0 0-1.567 1.567 1.57 1.57 0 0 0 1.567 1.568 1.57 1.57 0 0 0 1.567-1.568zm4.702 0a1.57 1.57 0 0 0-1.567-1.567 1.57 1.57 0 0 0-1.568 1.567 1.57 1.57 0 0 0 1.568 1.568 1.57 1.57 0 0 0 1.567-1.568zm4.702 0a1.57 1.57 0 0 0-1.567-1.567c-.866 0-1.567.702-1.567 1.567a1.57 1.57 0 0 0 1.567 1.568 1.57 1.57 0 0 0 1.567-1.568zm4.702 0c0-.865-.701-1.567-1.567-1.567s-1.567.702-1.567 1.567a1.57 1.57 0 0 0 1.567 1.568 1.57 1.57 0 0 0 1.567-1.568zm4.702 0a1.57 1.57 0 0 0-1.567-1.567 1.57 1.57 0 0 0-1.567 1.567 1.57 1.57 0 0 0 1.567 1.568 1.57 1.57 0 0 0 1.567-1.568zm-23.51 12.93c0-.866-.702-1.567-1.567-1.567a1.57 1.57 0 0 0-1.567 1.567 1.57 1.57 0 0 0 1.567 1.567c.865 0 1.567-.701 1.567-1.567zm4.702 0c0-.866-.702-1.567-1.567-1.567a1.57 1.57 0 0 0-1.567 1.567 1.57 1.57 0 0 0 1.567 1.567c.865.001 1.567-.701 1.567-1.567zm4.702 0c0-.866-.702-1.567-1.567-1.567a1.57 1.57 0 0 0-1.568 1.567 1.57 1.57 0 0 0 1.568 1.567c.865.001 1.567-.701 1.567-1.567zm4.702 0c0-.866-.702-1.567-1.567-1.567a1.57 1.57 0 0 0-1.567 1.567 1.57 1.57 0 0 0 1.567 1.567c.865.001 1.567-.701 1.567-1.567zm4.702 0c0-.866-.701-1.567-1.567-1.567s-1.567.702-1.567 1.567a1.57 1.57 0 0 0 1.567 1.567c.865.001 1.567-.701 1.567-1.567zm4.702 0c0-.866-.702-1.567-1.567-1.567a1.57 1.57 0 0 0-1.567 1.567 1.57 1.57 0 0 0 1.567 1.567c.865.001 1.567-.701 1.567-1.567z"/>
                <path d="M538.37 47.646h-5.486a1.353 1.353 0 1 1 0-2.706h5.486a1.353 1.353 0 1 1 0 2.706zm1.353 4.916a1.35 1.35 0 0 0-1.353-1.353h-5.486a1.353 1.353 0 1 0 0 2.706h5.486a1.35 1.35 0 0 0 1.353-1.353zm0 6.269a1.35 1.35 0 0 0-1.353-1.353h-5.486a1.353 1.353 0 1 0 0 2.706h5.486a1.35 1.35 0 0 0 1.353-1.353zm0 6.269a1.35 1.35 0 0 0-1.353-1.353h-5.486a1.353 1.353 0 1 0 0 2.706h5.486a1.35 1.35 0 0 0 1.353-1.353zm0 6.269a1.35 1.35 0 0 0-1.353-1.353h-5.486a1.353 1.353 0 1 0 0 2.706h5.486a1.35 1.35 0 0 0 1.353-1.353zm0 6.27a1.35 1.35 0 0 0-1.353-1.353h-5.486a1.353 1.353 0 1 0 0 2.706h5.486a1.35 1.35 0 0 0 1.353-1.353zm0 6.269a1.35 1.35 0 0 0-1.353-1.353h-5.486a1.353 1.353 0 1 0 0 2.706h5.486a1.35 1.35 0 0 0 1.353-1.353zm0 6.269a1.35 1.35 0 0 0-1.353-1.353h-5.486a1.353 1.353 0 1 0 0 2.706h5.486a1.35 1.35 0 0 0 1.353-1.353zm20.522-43.884a1.35 1.35 0 0 0-1.353-1.353h-14.4a1.353 1.353 0 1 0 0 2.706h14.4a1.35 1.35 0 0 0 1.353-1.353zm0 6.269a1.35 1.35 0 0 0-1.353-1.353h-14.4a1.353 1.353 0 1 0 0 2.706h14.4a1.35 1.35 0 0 0 1.353-1.353zm0 6.269a1.35 1.35 0 0 0-1.353-1.353h-14.4a1.353 1.353 0 1 0 0 2.706h14.4a1.35 1.35 0 0 0 1.353-1.353zm0 6.269a1.35 1.35 0 0 0-1.353-1.353h-14.4a1.353 1.353 0 1 0 0 2.706h14.4a1.35 1.35 0 0 0 1.353-1.353zm0 6.269a1.35 1.35 0 0 0-1.353-1.353h-14.4a1.353 1.353 0 1 0 0 2.706h14.4a1.35 1.35 0 0 0 1.353-1.353zm17.24 6.27a1.35 1.35 0 0 0-1.353-1.353h-14.399a1.353 1.353 0 1 0 0 2.706h14.399a1.35 1.35 0 0 0 1.353-1.353zm0 6.269a1.35 1.35 0 0 0-1.353-1.353h-14.399a1.353 1.353 0 1 0 0 2.706h14.399a1.35 1.35 0 0 0 1.353-1.353zm0 6.269a1.35 1.35 0 0 0-1.353-1.353h-14.399a1.353 1.353 0 1 0 0 2.706h14.399a1.35 1.35 0 0 0 1.353-1.353zm-10.903-43.884c0-.866-.702-1.567-1.567-1.567s-1.567.701-1.567 1.567.701 1.567 1.567 1.567a1.57 1.57 0 0 0 1.567-1.567zm4.702 0c0-.866-.702-1.567-1.567-1.567s-1.567.701-1.567 1.567.702 1.567 1.567 1.567a1.57 1.57 0 0 0 1.567-1.567zm4.702 0c0-.866-.702-1.567-1.568-1.567s-1.567.701-1.567 1.567.702 1.567 1.567 1.567a1.57 1.57 0 0 0 1.568-1.567zm4.702 0c0-.866-.702-1.567-1.567-1.567s-1.567.701-1.567 1.567.701 1.567 1.567 1.567a1.57 1.57 0 0 0 1.567-1.567zm4.702 0c0-.866-.702-1.567-1.567-1.567s-1.567.701-1.567 1.567.702 1.567 1.567 1.567a1.57 1.57 0 0 0 1.567-1.567zm4.702 0c0-.866-.702-1.567-1.568-1.567s-1.567.701-1.567 1.567.702 1.567 1.567 1.567a1.57 1.57 0 0 0 1.568-1.567zm-23.51 12.538c0-.866-.702-1.567-1.567-1.567s-1.567.701-1.567 1.567.701 1.567 1.567 1.567 1.567-.701 1.567-1.567zm4.702 0c0-.866-.702-1.567-1.567-1.567s-1.567.701-1.567 1.567a1.57 1.57 0 0 0 1.567 1.567c.865.001 1.567-.701 1.567-1.567zm4.702 0c0-.866-.702-1.567-1.568-1.567s-1.567.701-1.567 1.567a1.57 1.57 0 0 0 1.567 1.567c.866.001 1.568-.701 1.568-1.567zm4.702 0c0-.866-.702-1.567-1.567-1.567s-1.567.701-1.567 1.567.701 1.567 1.567 1.567 1.567-.701 1.567-1.567zm4.702 0c0-.866-.702-1.567-1.567-1.567s-1.567.701-1.567 1.567a1.57 1.57 0 0 0 1.567 1.567c.865.001 1.567-.701 1.567-1.567zm4.702 0c0-.866-.702-1.567-1.568-1.567s-1.567.701-1.567 1.567a1.57 1.57 0 0 0 1.567 1.567c.866.001 1.568-.701 1.568-1.567zm-7.445 18.024a1.57 1.57 0 0 0-1.568-1.567 1.57 1.57 0 0 0-1.567 1.567 1.57 1.57 0 0 0 1.567 1.568 1.57 1.57 0 0 0 1.568-1.568zm4.702 0a1.57 1.57 0 0 0-1.567-1.567c-.866 0-1.567.702-1.567 1.567a1.57 1.57 0 0 0 1.567 1.568 1.57 1.57 0 0 0 1.567-1.568zm4.701 0a1.57 1.57 0 0 0-1.567-1.567 1.57 1.57 0 0 0-1.568 1.567 1.57 1.57 0 0 0 1.568 1.568 1.57 1.57 0 0 0 1.567-1.568zm4.703 0a1.57 1.57 0 0 0-1.567-1.567c-.866 0-1.567.702-1.567 1.567a1.57 1.57 0 0 0 1.567 1.568 1.57 1.57 0 0 0 1.567-1.568zm4.701 0a1.57 1.57 0 0 0-1.567-1.567c-.866 0-1.567.702-1.567 1.567a1.57 1.57 0 0 0 1.567 1.568 1.57 1.57 0 0 0 1.567-1.568zm4.702 0a1.57 1.57 0 0 0-1.567-1.567c-.866 0-1.567.702-1.567 1.567a1.57 1.57 0 0 0 1.567 1.568 1.57 1.57 0 0 0 1.567-1.568zm-23.509 12.93a1.57 1.57 0 0 0-1.568-1.567 1.57 1.57 0 0 0-1.567 1.567c0 .866.702 1.567 1.567 1.567a1.57 1.57 0 0 0 1.568-1.567zm4.702 0a1.57 1.57 0 0 0-1.567-1.567c-.866 0-1.567.702-1.567 1.567a1.57 1.57 0 0 0 1.567 1.567c.865 0 1.567-.701 1.567-1.567zm4.701 0a1.57 1.57 0 0 0-1.567-1.567 1.57 1.57 0 0 0-1.568 1.567c0 .866.702 1.567 1.568 1.567s1.567-.701 1.567-1.567zm4.703 0a1.57 1.57 0 0 0-1.567-1.567c-.866 0-1.567.702-1.567 1.567a1.57 1.57 0 0 0 1.567 1.567c.865 0 1.567-.701 1.567-1.567zm4.701 0a1.57 1.57 0 0 0-1.567-1.567c-.866 0-1.567.702-1.567 1.567s.701 1.567 1.567 1.567 1.567-.701 1.567-1.567zm4.702 0a1.57 1.57 0 0 0-1.567-1.567c-.866 0-1.567.702-1.567 1.567a1.57 1.57 0 0 0 1.567 1.567c.865 0 1.567-.701 1.567-1.567zm-67.786 9.239h-5.486a1.353 1.353 0 1 1 0-2.706h5.486a1.35 1.35 0 0 1 1.353 1.353c0 .747-.605 1.353-1.353 1.353zm1.353 4.915a1.35 1.35 0 0 0-1.353-1.353h-5.486a1.353 1.353 0 1 0 0 2.706h5.486a1.35 1.35 0 0 0 1.353-1.353zm0 6.27a1.35 1.35 0 0 0-1.353-1.353h-5.486a1.353 1.353 0 1 0 0 2.706h5.486c.748-.001 1.353-.606 1.353-1.353zm0 6.269a1.35 1.35 0 0 0-1.353-1.353h-5.486a1.35 1.35 0 0 0-1.353 1.353c0 .747.605 1.353 1.353 1.353h5.486c.748-.001 1.353-.606 1.353-1.353zm0 6.268c0-.747-.605-1.353-1.353-1.353h-5.486a1.353 1.353 0 1 0 0 2.706h5.486a1.35 1.35 0 0 0 1.353-1.353zm0 6.271a1.35 1.35 0 0 0-1.353-1.353h-5.486a1.353 1.353 0 1 0 0 2.706h5.486a1.35 1.35 0 0 0 1.353-1.353zm0 6.269a1.35 1.35 0 0 0-1.353-1.353h-5.486a1.353 1.353 0 1 0 0 2.706h5.486c.748 0 1.353-.606 1.353-1.353zm0 6.269a1.35 1.35 0 0 0-1.353-1.353h-5.486a1.353 1.353 0 1 0 0 2.706h5.486a1.35 1.35 0 0 0 1.353-1.353zm20.522-43.884a1.35 1.35 0 0 0-1.353-1.353h-14.4a1.353 1.353 0 1 0 0 2.706h14.4c.748 0 1.353-.606 1.353-1.353zm0 6.268a1.35 1.35 0 0 0-1.353-1.353h-14.4a1.353 1.353 0 1 0 0 2.706h14.4a1.35 1.35 0 0 0 1.353-1.353zm0 6.27a1.35 1.35 0 0 0-1.353-1.353h-14.4a1.353 1.353 0 1 0 0 2.706h14.4c.748-.001 1.353-.606 1.353-1.353zm0 6.269a1.35 1.35 0 0 0-1.353-1.353h-14.4a1.35 1.35 0 0 0-1.353 1.353c0 .747.605 1.353 1.353 1.353h14.4c.748-.001 1.353-.606 1.353-1.353zm0 6.268c0-.747-.605-1.353-1.353-1.353h-14.4a1.353 1.353 0 1 0 0 2.706h14.4a1.35 1.35 0 0 0 1.353-1.353zm17.24 6.271a1.35 1.35 0 0 0-1.353-1.353h-14.399a1.353 1.353 0 1 0 0 2.706h14.399a1.35 1.35 0 0 0 1.353-1.353zm0 6.269a1.35 1.35 0 0 0-1.353-1.353h-14.399a1.353 1.353 0 1 0 0 2.706h14.399c.748 0 1.353-.606 1.353-1.353zm0 6.269a1.35 1.35 0 0 0-1.353-1.353h-14.399a1.353 1.353 0 1 0 0 2.706h14.399a1.35 1.35 0 0 0 1.353-1.353zM566.582 97.67a1.57 1.57 0 0 0-1.567-1.567c-.866 0-1.567.702-1.567 1.567s.701 1.567 1.567 1.567 1.567-.701 1.567-1.567zm4.702 0a1.57 1.57 0 0 0-1.567-1.567c-.866 0-1.567.702-1.567 1.567a1.57 1.57 0 0 0 1.567 1.567c.865 0 1.567-.701 1.567-1.567zm4.702 0a1.57 1.57 0 0 0-1.568-1.567 1.57 1.57 0 0 0-1.567 1.567c0 .866.702 1.567 1.567 1.567a1.57 1.57 0 0 0 1.568-1.567zm4.702 0a1.57 1.57 0 0 0-1.567-1.567c-.866 0-1.567.702-1.567 1.567s.701 1.567 1.567 1.567 1.567-.701 1.567-1.567zm4.702 0a1.57 1.57 0 0 0-1.567-1.567 1.57 1.57 0 0 0-1.567 1.567c0 .866.702 1.567 1.567 1.567s1.567-.701 1.567-1.567zm4.702 0a1.57 1.57 0 0 0-1.568-1.567 1.57 1.57 0 0 0-1.567 1.567c0 .866.702 1.567 1.567 1.567a1.57 1.57 0 0 0 1.568-1.567zm-23.51 12.539a1.57 1.57 0 0 0-1.567-1.567c-.866 0-1.567.702-1.567 1.567s.701 1.567 1.567 1.567a1.57 1.57 0 0 0 1.567-1.567zm4.702 0a1.57 1.57 0 0 0-1.567-1.567c-.866 0-1.567.702-1.567 1.567a1.57 1.57 0 0 0 1.567 1.567 1.57 1.57 0 0 0 1.567-1.567zm4.702 0a1.57 1.57 0 0 0-1.568-1.567 1.57 1.57 0 0 0-1.567 1.567c0 .866.702 1.567 1.567 1.567a1.57 1.57 0 0 0 1.568-1.567zm4.702 0a1.57 1.57 0 0 0-1.567-1.567c-.866 0-1.567.702-1.567 1.567s.701 1.567 1.567 1.567a1.57 1.57 0 0 0 1.567-1.567zm4.702 0a1.57 1.57 0 0 0-1.567-1.567 1.57 1.57 0 0 0-1.567 1.567c0 .866.702 1.567 1.567 1.567a1.57 1.57 0 0 0 1.567-1.567zm4.702 0a1.57 1.57 0 0 0-1.568-1.567 1.57 1.57 0 0 0-1.567 1.567c0 .866.702 1.567 1.567 1.567a1.57 1.57 0 0 0 1.568-1.567zm-7.445 18.023a1.57 1.57 0 0 0-1.568-1.567 1.57 1.57 0 0 0-1.567 1.567 1.57 1.57 0 0 0 1.567 1.568 1.57 1.57 0 0 0 1.568-1.568zm4.702 0a1.57 1.57 0 0 0-1.567-1.567c-.866 0-1.567.702-1.567 1.567a1.57 1.57 0 0 0 1.567 1.568 1.57 1.57 0 0 0 1.567-1.568zm4.701 0a1.57 1.57 0 0 0-1.567-1.567 1.57 1.57 0 0 0-1.568 1.567 1.57 1.57 0 0 0 1.568 1.568c.866 0 1.567-.702 1.567-1.568zm4.703 0a1.57 1.57 0 0 0-1.567-1.567c-.866 0-1.567.702-1.567 1.567a1.57 1.57 0 0 0 1.567 1.568 1.57 1.57 0 0 0 1.567-1.568zm4.701 0a1.57 1.57 0 0 0-1.567-1.567c-.866 0-1.567.702-1.567 1.567a1.57 1.57 0 0 0 1.567 1.568c.866 0 1.567-.702 1.567-1.568zm4.702 0a1.57 1.57 0 0 0-1.567-1.567c-.866 0-1.567.702-1.567 1.567a1.57 1.57 0 0 0 1.567 1.568 1.57 1.57 0 0 0 1.567-1.568zm-23.509 12.931c0-.866-.702-1.567-1.568-1.567s-1.567.701-1.567 1.567.702 1.567 1.567 1.567a1.57 1.57 0 0 0 1.568-1.567zm4.702 0c0-.866-.702-1.567-1.567-1.567s-1.567.701-1.567 1.567.702 1.567 1.567 1.567a1.57 1.57 0 0 0 1.567-1.567zm4.701 0c0-.866-.702-1.567-1.567-1.567a1.57 1.57 0 0 0-1.568 1.567c0 .866.702 1.567 1.568 1.567s1.567-.702 1.567-1.567zm4.703 0c0-.866-.702-1.567-1.567-1.567s-1.567.701-1.567 1.567.702 1.567 1.567 1.567a1.57 1.57 0 0 0 1.567-1.567zm4.701 0c0-.866-.702-1.567-1.567-1.567s-1.567.701-1.567 1.567.701 1.567 1.567 1.567 1.567-.702 1.567-1.567zm4.702 0c0-.866-.702-1.567-1.567-1.567s-1.567.701-1.567 1.567.702 1.567 1.567 1.567a1.57 1.57 0 0 0 1.567-1.567z"/>
            </g>
            <g class="D">
                <path d="M31.402 94.442c3.07 1.34 10.578 1.171 10.584 1.171.078-.002-1.614-4.915-1.756-5.213-1.647-3.447-6.857-9.137-11.096-8.564-3.054.413-4.752 3.469-4.063 6.344.704 2.937 3.716 5.119 6.331 6.262z"/>
                <path d="M33.993 116.19c3.184.464 9.885-1.479 10.418-1.636 1.058 3.751 2.448 7.515 4.064 11.245.921 2.134 1.916 4.255 2.94 6.369l-1.253-1.795c-2.5-2.889-9.027-7.001-12.964-5.329-2.838 1.204-3.667 4.6-2.244 7.192 1.454 2.646 4.937 3.955 7.76 4.366 2.865.418 8.611-1.124 10.126-1.553l1.198 2.422 5.693 11.543c.635 1.35 1.21 2.703 1.792 4.055l-1.09-1.554c-2.499-2.888-9.026-7.001-12.964-5.329-2.837 1.204-3.668 4.601-2.243 7.192 1.455 2.646 4.937 3.955 7.76 4.366 2.734.399 8.05-.977 9.853-1.477.553 1.402 1.11 2.805 1.583 4.189.302.952.659 1.848.907 2.821l.794 2.847 1.285 5.504.761 3.638c-.617-1.351-1.879-3.972-2.01-4.179-2.032-3.234-7.861-8.287-12.007-7.231-2.986.761-4.322 3.992-3.306 6.769 1.037 2.836 4.28 4.657 7.008 5.492 3.004.918 9.655.079 10.485-.031l1.086 5.757.657 3.914h2.664l-.83-4.38c-.396-2.019-.86-4.169-1.358-6.373.5-.198 3.337-1.346 5.85-2.75 2.189 2.371 7.799 5.146 8.526 5.499l-2.27 5.401-1.154 2.603h2.816l.673-1.617c.784-1.903 1.583-3.953 2.383-6.064.805.168 7.388 1.505 10.457.813 2.782-.629 6.153-2.204 7.399-4.955 1.22-2.693.128-6.015-2.794-6.996-4.054-1.362-10.244 3.243-12.512 6.317-.134.181-1.366 2.311-2.121 3.667l.966-2.595c.648-1.764 1.241-3.543 1.887-5.455l.847-2.831c.302-.939.503-1.97.762-2.963.552-2.316.997-4.689 1.394-7.089 1.546.562 7.065 2.483 9.924 2.281 2.846-.2 6.415-1.245 8.063-3.776 1.614-2.478 1.038-5.927-1.701-7.34-3.802-1.96-10.618 1.654-13.325 4.349-.169.167-1.894 2.32-2.819 3.52l.643-4.355c.527-4.241.927-8.551 1.346-12.848l.409-3.939c.548.207 7.058 2.63 10.261 2.405 2.846-.199 6.416-1.245 8.064-3.776 1.614-2.477 1.038-5.926-1.701-7.338-3.801-1.961-10.617 1.654-13.324 4.348-.204.203-2.682 3.303-3.274 4.122.305-2.89.636-5.766 1.078-8.589.603-3.895 1.412-7.684 2.465-11.297.255.097 7.039 2.657 10.318 2.427 2.846-.2 6.417-1.246 8.064-3.776 1.613-2.477 1.038-5.926-1.701-7.339-3.802-1.961-10.617 1.654-13.325 4.348-.212.212-2.877 3.548-3.317 4.188.064-.214.105-.444.171-.657 1.174-3.842 2.794-7.417 4.475-10.69.973-1.904 2.01-3.669 3.056-5.364 1.215.607 6.796 3.316 9.77 3.436 2.851.114 6.514-.534 8.43-2.868 1.876-2.285 1.683-5.776-.884-7.481-3.564-2.366-10.735.478-13.722 2.859-.162.129-1.667 1.628-2.748 2.736l1.448-2.265c1.789-2.695 3.594-5.052 5.209-7.128.928-1.172 1.79-2.214 2.607-3.18 1.502-.026 7.555-.21 10.201-1.452 2.582-1.213 5.536-3.475 6.16-6.43.611-2.893-1.169-5.903-4.233-6.232-4.253-.459-9.307 5.37-10.861 8.86-.134.302-1.692 5.259-1.614 5.259l.091-.001c-.806.914-1.657 1.903-2.567 3.003-1.664 2.044-3.525 4.368-5.379 7.035-1.861 2.66-3.807 5.602-5.578 8.886-1.779 3.29-3.483 6.841-4.765 10.727-.015.044-.024.091-.039.136.022-1.253-.033-4.759-.068-5.027-.491-3.788-3.666-10.82-7.873-11.597-3.03-.559-5.597 1.814-5.838 4.762-.246 3.01 1.936 6.022 4.064 7.923 2.4 2.144 9.061 4.219 9.591 4.383-1.188 3.712-2.104 7.617-2.814 11.62-.408 2.289-.748 4.607-1.06 6.935l-.056-2.189c-.491-3.789-3.666-10.819-7.873-11.596-3.031-.561-5.597 1.814-5.838 4.761-.247 3.01 1.935 6.022 4.063 7.923 2.159 1.928 7.802 3.813 9.302 4.291l-.337 2.681-1.619 12.768c-.215 1.477-.481 2.922-.742 4.37l-.052-1.896c-.491-3.789-3.666-10.819-7.872-11.597-3.031-.56-5.598 1.814-5.84 4.762-.247 3.008 1.936 6.022 4.064 7.922 2.06 1.84 7.254 3.626 9.033 4.203-.312 1.475-.622 2.952-.991 4.367-.274.96-.471 1.904-.799 2.853l-.907 2.812-1.965 5.3-1.372 3.453c.231-1.467.624-4.349.629-4.593.058-2.537-.843-6.662-2.636-9.562.011-.375-.01-.748-.07-1.119-.469-2.919-3.212-5.088-6.19-4.294-4.133 1.1-6.755 8.357-6.95 12.171-.012.225.136 2.681.254 4.229l-.626-2.697c-.433-1.828-.92-3.64-1.436-5.592l-.856-2.829c-.265-.95-.667-1.92-.999-2.891-.818-2.235-1.755-4.461-2.749-6.682 1.601-.384 7.263-1.827 9.536-3.572 2.264-1.736 4.664-4.579 4.643-7.597-.021-2.957-2.403-5.516-5.467-5.183-4.253.462-7.944 7.237-8.716 10.978-.048.234-.3 2.98-.409 4.491l-1.867-3.987c-1.9-3.828-3.943-7.644-5.965-11.459l-1.832-3.51c.571-.131 7.338-1.701 9.885-3.655 2.263-1.737 4.664-4.578 4.643-7.598-.021-2.956-2.403-5.516-5.467-5.182-4.253.462-7.944 7.236-8.716 10.977-.058.282-.415 4.234-.456 5.244-1.339-2.578-2.65-5.16-3.84-7.758-1.645-3.582-3.061-7.188-4.175-10.782.266-.061 7.336-1.668 9.945-3.669 2.264-1.737 4.664-4.578 4.642-7.598-.021-2.957-2.403-5.515-5.467-5.183-4.252.462-7.943 7.237-8.715 10.978-.061.294-.442 4.547-.456 5.322-.066-.213-.158-.428-.221-.641-1.14-3.854-1.761-7.729-2.164-11.386-.239-2.124-.347-4.168-.409-6.159 1.347-.164 7.498-.983 10.044-2.525 2.441-1.478 5.14-4.039 5.449-7.042.303-2.941-1.783-5.747-4.865-5.752-4.278-.008-8.69 6.321-9.868 9.954-.064.198-.493 2.279-.784 3.799l-.042-2.688c.006-3.234.21-6.197.413-8.818.127-1.49.272-2.835.421-4.091 1.238-.852 6.185-4.344 7.706-6.84 1.485-2.436 2.7-5.952 1.591-8.76-1.086-2.751-4.231-4.278-6.968-2.864-3.801 1.964-4.8 9.614-4.172 13.382.055.325 1.49 5.32 1.555 5.277l.074-.051c-.168 1.206-.332 2.502-.484 3.921-.261 2.622-.53 5.588-.606 8.835-.084 3.245-.085 6.773.25 10.489.331 3.725.868 7.627 1.943 11.575.012.045.031.09.043.134-.673-1.058-2.654-3.95-2.831-4.155-2.499-2.889-9.026-7.001-12.964-5.33-2.836 1.205-3.668 4.601-2.243 7.192 1.46 2.636 4.942 3.944 7.764 4.356z"/>
                <path d="M107.347 96.093c.066.041 1.366-4.991 1.411-5.317.526-3.783-.68-11.403-4.532-13.264-2.775-1.34-5.877.272-6.887 3.051-1.033 2.837.276 6.319 1.827 8.714 1.821 2.812 8.177 6.812 8.181 6.816zm508.846 217.893c2.904 1.268 10.007 1.108 10.012 1.108.074-.002-1.527-4.65-1.661-4.931-1.558-3.26-6.487-8.643-10.497-8.102-2.889.391-4.495 3.282-3.843 6.002.666 2.778 3.516 4.842 5.989 5.923z"/>
                <path d="M618.644 334.56c3.012.439 9.351-1.399 9.855-1.548 1.001 3.549 2.315 7.109 3.845 10.638.872 2.019 1.813 4.025 2.782 6.025l-1.186-1.698c-2.365-2.733-8.54-6.623-12.263-5.041-2.684 1.139-3.469 4.352-2.122 6.803 1.375 2.503 4.671 3.742 7.341 4.13 2.71.396 8.146-1.064 9.579-1.469l1.133 2.291 5.386 10.92c.601 1.277 1.145 2.557 1.695 3.836l-1.031-1.47c-2.364-2.732-8.539-6.623-12.264-5.041-2.684 1.139-3.47 4.352-2.122 6.803 1.377 2.503 4.67 3.742 7.341 4.13 2.586.377 7.616-.924 9.321-1.398.523 1.327 1.05 2.654 1.497 3.963.285.901.623 1.748.858 2.668l.751 2.693 1.216 5.207.72 3.441c-.583-1.278-1.778-3.757-1.901-3.953-1.922-3.059-7.437-7.839-11.358-6.841-2.825.72-4.089 3.776-3.127 6.403.981 2.683 4.049 4.406 6.63 5.195 2.842.868 9.133.075 9.919-.03l1.027 5.446.622 3.702h2.52l-.785-4.142a220.52 220.52 0 0 0-1.285-6.029c.473-.188 3.156-1.273 5.534-2.602 2.071 2.243 7.378 4.868 8.065 5.202l-2.147 5.109-1.091 2.462h2.664l.636-1.529a220.1 220.1 0 0 0 2.254-5.737c.761.159 6.989 1.424 9.892.769 2.632-.595 5.821-2.085 7-4.687 1.154-2.547.121-5.69-2.643-6.618-3.835-1.289-9.691 3.068-11.836 5.976-.127.171-1.292 2.186-2.006 3.469l.914-2.455c.613-1.668 1.174-3.352 1.785-5.161l.802-2.678c.286-.889.476-1.864.721-2.803.522-2.191.943-4.436 1.319-6.706 1.462.532 6.683 2.348 9.388 2.158 2.692-.189 6.069-1.178 7.628-3.572 1.527-2.344.982-5.607-1.609-6.943-3.596-1.855-10.044 1.565-12.605 4.114-.16.158-1.792 2.194-2.667 3.33l.608-4.12c.498-4.012.877-8.089 1.274-12.154l.387-3.726c.519.195 6.677 2.488 9.707 2.275 2.692-.188 6.069-1.178 7.628-3.572 1.526-2.343.982-5.606-1.609-6.942-3.596-1.855-10.044 1.564-12.605 4.113-.193.192-2.537 3.125-3.097 3.9.289-2.734.602-5.455 1.02-8.125.571-3.685 1.336-7.269 2.332-10.687.241.092 6.658 2.513 9.761 2.296 2.693-.189 6.07-1.178 7.628-3.572 1.526-2.344.982-5.606-1.609-6.943-3.597-1.855-10.044 1.565-12.606 4.113-.201.2-2.721 3.356-3.138 3.961.06-.203.1-.42.162-.622 1.111-3.635 2.643-7.017 4.233-10.112.92-1.801 1.901-3.471 2.891-5.074 1.149.574 6.429 3.137 9.243 3.25 2.697.108 6.163-.505 7.974-2.713 1.775-2.162 1.592-5.465-.836-7.077-3.372-2.239-10.155.452-12.981 2.704-.153.122-1.577 1.54-2.6 2.588l1.369-2.142c1.693-2.549 3.4-4.779 4.928-6.743a116.6 116.6 0 0 1 2.467-3.009c1.42-.025 7.147-.199 9.65-1.374 2.442-1.148 5.237-3.287 5.827-6.082.578-2.737-1.106-5.584-4.004-5.895-4.023-.434-8.805 5.08-10.274 8.381-.127.286-1.601 4.975-1.527 4.975l.086-.001a118.85 118.85 0 0 0-2.429 2.841c-1.574 1.934-3.334 4.132-5.089 6.655-1.76 2.516-3.602 5.299-5.277 8.406-1.683 3.112-3.294 6.471-4.508 10.147-.014.041-.023.087-.036.128.021-1.186-.031-4.502-.064-4.756-.465-3.583-3.468-10.235-7.448-10.971-2.866-.529-5.294 1.716-5.523 4.504-.233 2.847 1.831 5.697 3.844 7.495 2.27 2.028 8.571 3.991 9.073 4.146-1.123 3.511-1.99 7.206-2.662 10.992-.386 2.165-.708 4.358-1.003 6.56l-.053-2.07c-.465-3.584-3.468-10.234-7.448-10.97-2.867-.53-5.295 1.716-5.523 4.504-.234 2.847 1.831 5.697 3.844 7.495 2.043 1.824 7.381 3.607 8.8 4.059l-.318 2.536-1.532 12.079c-.203 1.397-.455 2.764-.702 4.134l-.049-1.794c-.465-3.584-3.468-10.235-7.447-10.971-2.868-.53-5.296 1.716-5.524 4.504-.234 2.846 1.832 5.697 3.845 7.494 1.948 1.741 6.862 3.43 8.545 3.976-.295 1.395-.589 2.793-.938 4.132-.259.909-.445 1.801-.756 2.699l-.858 2.66-1.859 5.014-1.298 3.267c.218-1.388.59-4.114.596-4.345.055-2.4-.797-6.302-2.494-9.046.01-.354-.01-.708-.066-1.059-.444-2.762-3.038-4.813-5.856-4.063-3.91 1.041-6.39 7.905-6.575 11.513-.011.213.128 2.536.24 4l-.592-2.552c-.41-1.729-.871-3.443-1.358-5.29l-.81-2.676c-.251-.898-.631-1.816-.945-2.735-.773-2.114-1.66-4.22-2.6-6.321 1.514-.363 6.87-1.728 9.021-3.379 2.141-1.643 4.412-4.331 4.392-7.187-.02-2.797-2.273-5.218-5.172-4.903-4.023.437-7.515 6.846-8.245 10.385-.045.221-.284 2.819-.387 4.249l-1.766-3.772c-1.797-3.622-3.73-7.231-5.643-10.84l-1.733-3.321c.54-.124 6.942-1.609 9.351-3.457 2.141-1.643 4.412-4.331 4.392-7.188-.02-2.797-2.274-5.218-5.172-4.902-4.023.437-7.515 6.845-8.245 10.384-.055.267-.392 4.006-.432 4.96-1.267-2.439-2.507-4.881-3.632-7.339-1.556-3.389-2.896-6.799-3.95-10.2.252-.057 6.94-1.578 9.408-3.471 2.141-1.643 4.412-4.331 4.392-7.188-.02-2.797-2.273-5.217-5.172-4.903-4.023.437-7.514 6.846-8.244 10.385a103.65 103.65 0 0 0-.432 5.034c-.062-.202-.15-.404-.209-.607-1.078-3.646-1.666-7.311-2.047-10.771-.226-2.009-.329-3.943-.387-5.826 1.275-.156 7.093-.93 9.501-2.389 2.309-1.398 4.862-3.821 5.155-6.662.287-2.782-1.687-5.436-4.602-5.441-4.047-.008-8.221 5.979-9.335 9.416-.061.187-.467 2.155-.741 3.593l-.04-2.543c.006-3.06.199-5.862.391-8.342.12-1.41.257-2.682.398-3.87 1.171-.806 5.851-4.109 7.29-6.47 1.405-2.305 2.554-5.63 1.505-8.287-1.027-2.602-4.003-4.047-6.592-2.709-3.595 1.858-4.541 9.095-3.947 12.659.052.308 1.41 5.032 1.471 4.992l.07-.049c-.159 1.141-.314 2.367-.458 3.709-.247 2.481-.502 5.286-.573 8.358-.08 3.07-.081 6.407.236 9.923.313 3.523.822 7.215 1.838 10.95.012.042.029.085.041.127a112.91 112.91 0 0 0-2.678-3.931c-2.364-2.733-8.539-6.623-12.263-5.042-2.683 1.14-3.47 4.353-2.122 6.804 1.376 2.51 4.669 3.747 7.339 4.137z"/>
                <path d="M688.037 315.548c.063.039 1.292-4.721 1.335-5.03.498-3.579-.643-10.788-4.287-12.548-2.625-1.268-5.56.257-6.516 2.886-.977 2.684.261 5.978 1.728 8.243 1.722 2.661 7.735 6.446 7.74 6.449zM7.516 313.986c2.904 1.268 10.007 1.108 10.012 1.108.074-.002-1.527-4.65-1.661-4.931-1.558-3.26-6.487-8.643-10.497-8.102-2.889.391-4.496 3.282-3.844 6.002.667 2.778 3.517 4.842 5.99 5.923zm2.452 20.574c3.012.439 9.351-1.399 9.855-1.548 1.001 3.549 2.315 7.109 3.845 10.638.871 2.019 1.813 4.025 2.781 6.025l-1.186-1.698c-2.365-2.733-8.54-6.623-12.263-5.041-2.684 1.139-3.469 4.352-2.122 6.803 1.375 2.503 4.67 3.742 7.34 4.13 2.71.396 8.146-1.064 9.58-1.469l1.133 2.291 5.386 10.92c.601 1.277 1.145 2.557 1.695 3.836l-1.031-1.47c-2.364-2.732-8.539-6.623-12.263-5.041-2.684 1.139-3.47 4.352-2.122 6.803 1.377 2.503 4.67 3.742 7.341 4.13 2.586.377 7.616-.924 9.321-1.398.523 1.327 1.05 2.654 1.497 3.963.285.901.623 1.748.858 2.668l.751 2.693 1.216 5.207.72 3.441c-.583-1.278-1.778-3.757-1.901-3.953-1.922-3.059-7.437-7.839-11.358-6.841-2.825.72-4.089 3.776-3.127 6.403.981 2.683 4.049 4.406 6.63 5.195 2.842.868 9.133.075 9.919-.03l1.027 5.446.622 3.702h2.52l-.785-4.142a220.52 220.52 0 0 0-1.285-6.029c.473-.188 3.156-1.273 5.534-2.602 2.071 2.243 7.378 4.868 8.065 5.202l-2.147 5.109-1.091 2.462h2.664l.636-1.529c.741-1.8 1.497-3.739 2.255-5.737.761.159 6.989 1.424 9.892.769 2.632-.595 5.821-2.085 7-4.687 1.154-2.547.121-5.69-2.643-6.618-3.835-1.289-9.691 3.068-11.836 5.976-.127.171-1.292 2.186-2.006 3.469l.914-2.455c.613-1.668 1.174-3.352 1.785-5.161l.802-2.678c.286-.889.476-1.864.721-2.803.522-2.191.944-4.436 1.319-6.706 1.462.532 6.683 2.348 9.388 2.158 2.692-.189 6.069-1.178 7.628-3.572 1.527-2.344.982-5.607-1.609-6.943-3.597-1.855-10.044 1.565-12.605 4.114-.16.158-1.792 2.194-2.667 3.33l.608-4.12c.498-4.012.877-8.089 1.274-12.154l.387-3.726c.519.195 6.677 2.488 9.706 2.275 2.692-.188 6.07-1.178 7.628-3.572 1.527-2.343.982-5.606-1.609-6.942-3.596-1.855-10.044 1.564-12.605 4.113-.193.192-2.537 3.125-3.097 3.9.289-2.734.602-5.455 1.02-8.125.571-3.685 1.336-7.269 2.332-10.687.241.092 6.658 2.513 9.761 2.296 2.692-.189 6.07-1.178 7.629-3.572 1.526-2.344.982-5.606-1.609-6.943-3.597-1.855-10.044 1.565-12.605 4.113-.201.2-2.721 3.356-3.138 3.961.06-.203.1-.42.162-.622 1.111-3.635 2.643-7.017 4.233-10.112.92-1.801 1.901-3.471 2.891-5.074 1.149.574 6.429 3.137 9.243 3.25 2.697.108 6.162-.505 7.974-2.713 1.775-2.162 1.592-5.465-.836-7.077-3.372-2.239-10.155.452-12.981 2.704-.153.122-1.577 1.54-2.6 2.588l1.369-2.142c1.693-2.549 3.4-4.779 4.928-6.743a116.6 116.6 0 0 1 2.467-3.009c1.421-.025 7.147-.199 9.65-1.374 2.442-1.148 5.237-3.287 5.827-6.082.578-2.737-1.106-5.584-4.004-5.895-4.023-.434-8.805 5.08-10.274 8.381-.127.286-1.601 4.975-1.527 4.975l.086-.001a118.85 118.85 0 0 0-2.429 2.841c-1.574 1.934-3.334 4.132-5.089 6.655-1.76 2.516-3.602 5.299-5.277 8.406-1.683 3.112-3.294 6.471-4.508 10.147-.014.041-.022.087-.036.128.021-1.186-.031-4.502-.064-4.756-.465-3.583-3.468-10.235-7.448-10.971-2.866-.529-5.294 1.716-5.523 4.504-.233 2.847 1.831 5.697 3.844 7.495 2.27 2.028 8.571 3.991 9.073 4.146-1.123 3.511-1.99 7.206-2.662 10.992-.386 2.165-.708 4.358-1.003 6.56l-.053-2.07c-.465-3.584-3.468-10.234-7.447-10.97-2.867-.53-5.295 1.716-5.523 4.504-.234 2.847 1.831 5.697 3.844 7.495 2.043 1.824 7.381 3.607 8.8 4.059l-.318 2.536-1.532 12.079c-.203 1.397-.455 2.764-.702 4.134l-.049-1.794c-.465-3.584-3.468-10.235-7.447-10.971-2.868-.53-5.296 1.716-5.524 4.504-.233 2.846 1.832 5.697 3.845 7.494 1.949 1.741 6.862 3.43 8.546 3.976-.295 1.395-.589 2.793-.938 4.132-.259.909-.445 1.801-.756 2.699l-.858 2.66-1.859 5.014-1.298 3.267c.218-1.388.59-4.114.595-4.345.055-2.4-.797-6.302-2.494-9.046.01-.354-.01-.708-.066-1.059-.444-2.762-3.038-4.813-5.856-4.063-3.91 1.041-6.39 7.905-6.575 11.513-.011.213.128 2.536.24 4l-.592-2.552c-.41-1.729-.871-3.443-1.358-5.29l-.81-2.676c-.251-.898-.631-1.816-.945-2.735-.774-2.114-1.66-4.22-2.6-6.321 1.514-.363 6.87-1.728 9.021-3.379 2.141-1.643 4.412-4.331 4.392-7.187-.02-2.797-2.273-5.218-5.172-4.903-4.023.437-7.515 6.846-8.245 10.385-.045.221-.284 2.819-.387 4.249l-1.766-3.772c-1.798-3.622-3.73-7.231-5.642-10.84l-1.733-3.321c.54-.124 6.942-1.609 9.351-3.457 2.141-1.643 4.412-4.331 4.392-7.188-.02-2.797-2.274-5.218-5.172-4.902-4.023.437-7.515 6.845-8.245 10.384-.055.267-.392 4.006-.432 4.96-1.267-2.439-2.507-4.881-3.632-7.339-1.556-3.389-2.896-6.799-3.95-10.2.252-.057 6.94-1.578 9.408-3.471 2.141-1.643 4.412-4.331 4.392-7.188-.02-2.797-2.273-5.217-5.172-4.903-4.023.437-7.514 6.846-8.244 10.385-.057.278-.418 4.301-.431 5.034-.063-.202-.15-.404-.209-.607-1.078-3.646-1.666-7.311-2.047-10.771-.226-2.009-.329-3.943-.387-5.826 1.275-.156 7.093-.93 9.501-2.389 2.309-1.398 4.862-3.821 5.155-6.662.287-2.782-1.687-5.436-4.602-5.441-4.047-.008-8.221 5.979-9.335 9.416-.061.187-.467 2.155-.741 3.593l-.04-2.543c.006-3.06.199-5.862.391-8.342.12-1.41.257-2.682.398-3.87 1.171-.806 5.851-4.109 7.29-6.47 1.405-2.305 2.554-5.63 1.505-8.287-1.027-2.602-4.003-4.047-6.591-2.709-3.595 1.858-4.541 9.095-3.947 12.659.052.308 1.41 5.032 1.471 4.992l.07-.049c-.159 1.141-.314 2.367-.458 3.709-.247 2.481-.502 5.286-.573 8.358-.08 3.07-.081 6.407.236 9.923.313 3.523.822 7.215 1.838 10.95.011.042.029.085.041.127a112.91 112.91 0 0 0-2.678-3.931c-2.364-2.733-8.539-6.623-12.263-5.042-2.683 1.14-3.47 4.353-2.122 6.804 1.369 2.51 4.663 3.747 7.333 4.137z"/>
                <path d="M79.36 315.548c.063.039 1.292-4.721 1.335-5.03.498-3.579-.643-10.788-4.287-12.548-2.625-1.268-5.559.257-6.515 2.886-.977 2.684.261 5.978 1.728 8.243 1.722 2.661 7.735 6.446 7.739 6.449z"/>
            </g>
            <g class="B">
                <path d="M493.465 400.367H68.059L8.496 112.609c-.791-3.821 1.665-6.918 5.486-6.918h411.57c3.82 0 7.559 3.097 8.35 6.918l59.563 287.758z"
                      class="C F"/>
                <path d="M497.946 400.367H72.541L12.978 112.609c-.791-3.821 1.665-6.918 5.486-6.918h411.57c3.821 0 7.559 3.097 8.35 6.918l59.562 287.758z"
                      fill="#8a8a8a"/>
                <path d="M487.992 390.871H85.462l-38.01-183.65-18.47-89.23h402.53z" class="D"/>
            </g>
        </g>
        <path stroke="#979797" fill="#d8d8d8" d="M201.348 202.691h222v172h-222z"/>
        <g class="E">
            <g class="B">
                <g class="C">
                    <path d="M449.672 207.221H47.452l-18.47-89.23h402.22z"/>
                    <path d="M25.344 116.594l56.482 272.871h171.375L196.72 116.594zm257.869 0l56.481 272.871h148.892l-56.482-272.871z"/>
                    <path d="M282.724 116.594l58.27 272.871h147.73l-58.27-272.871z"/>
                </g>
                <g class="F">
                    <path d="M431.872 136.415l-4.102-19.821H25.241l4.103 19.821zM78.622 374.483l3.101 14.982h402.528l-3.101-14.982z"
                          fill="#66a310"/>
                    <path d="M68.11 388.354h619.106v12.013H68.11z" class="D"/>
                </g>
                <path fill="#8a8a8a" d="M356.58 388.354h330.636v12.013H356.58z"/>
            </g>
            <g class="D">
                <path d="M62.708 141.041l-13.894 11.861h32.608zm19.3 13.145H48.749l.474 2.334h33.26zm4.15 20.422h-1.216l-3.398-16.727h-3.89l3.398 16.727h-5.057l-3.398-16.727h-3.89l3.398 16.727h-5.057l-3.398-16.727h-3.89l3.398 16.727h-5.057l-3.399-16.727h-3.89l3.399 16.727h-1.313l.474 2.334h33.26zm-34.497 3.602l.667 3.284h37.198l-.668-3.284z"/>
                <g class="B">
                    <path d="M344.732 189.134s1.627 2.476 2.81 8.048-.148 12.381-1.479 17.829-3.549 20.058-5.62 25.505-7.363 12.163-11.799 12.287-4.47-8.326-3.731-8.945 1.627-16.22 1.627-16.22 13.755-19.686 16.122-25.629 2.071-12.876 2.071-12.876zm-72.896 140.092s-10.33-1.585-10.503.865.516 8.071 1.205 8.936 1.378 1.153 1.549 3.026-1.033 6.197 0 10.521 2.755 11.242 4.821 11.674 5.682-1.008 5.682-2.594-1.205-7.639-.516-9.368 3.96-4.9 3.96-4.9l-6.197-18.16z"/>
                    <path d="M311.436 249.526s11.363 14.844 18.251 29.978 9.642 25.078 7.748 27.383-26.858 23.636-26.858 23.636l-28.064 17.007c-.861.576-5.166.865-5.166.865s-4.132-6.774-5.166-11.674-.345-7.494-.345-7.494 2.927-.576 3.788-.576 2.066.576 2.41.144 1.722-2.45 2.755-3.026 3.615-1.442 3.96-2.162 1.722-3.892 2.582-4.468 9.297-5.189 9.297-5.189l8.092-4.468-25.997-51.596m26.342 105.209l8.264 3.603c2.066.576 6.026.432 6.887 1.585s.516 4.036.516 4.036-3.272 1.297-7.92 1.585-18.251-.144-21.349-.432-13.773 1.442-13.946-2.594.861-5.621.861-5.621 10.503-2.594 13.946-3.026 12.74.864 12.74.864z"/>
                    <path d="M305.926 264.083l14.979 39.633c.689 3.459-3.099 12.827-4.476 16.142s-10.33 30.842-10.846 31.563-.861 1.441-.861 1.873.172 1.585 0 2.882-1.205 1.153-1.205 1.153a24.73 24.73 0 0 0 .861 1.874c.516 1.009.688 3.459.688 3.892s-3.443 0-3.443 0-7.576 2.739-11.191 3.747-12.052-1.585-12.052-1.585l1.722-8.792c.345-1.441 1.378-.865 1.378-.865l12.396-41.219s-.861-.576-1.549-1.442-.172-3.891-.172-3.891-1.894-4.324-6.026-9.368-21.521-38.914-21.521-38.914l36.672-7.926m13.365-73.351s-8.665-1.126-14.137-.012-10.502 4.829-12.129 7.429-16.713 49.525-18.044 53.487.296 6.81 4.437 8.048 28.102 2.6 30.912 2.6 5.768-.743 7.248-1.981 2.218-3.343 2.81-4.581 24.405-36.648 25.736-40.116 5.473-9.781 4.289-13.248-6.213-5.447-6.213-5.447l-24.91-6.18z"/>
                </g>
            </g>
            <g fill="#92e3a9" class="B">
                <path d="M316.082 212.505h24.88v11.603h-24.88z"/>
                <path d="M318.266 214.149h20.514v8.315h-20.514z"/>
                <path d="M332.005 218.307c0 1.609-1.559 2.914-3.481 2.914s-3.481-1.305-3.481-2.914 1.559-2.914 3.481-2.914 3.481 1.305 3.481 2.914z"/>
                <path d="M318.161 228.638l23.676-6.402 4.261 11.042-23.676 6.402z"/>
                <path d="M320.842 229.641l19.522-5.279 3.053 7.912-19.522 5.279z"/>
                <path d="M335.432 230.053c.592 1.532-.413 3.174-2.242 3.669s-3.792-.345-4.383-1.877.413-3.174 2.242-3.669 3.792.345 4.383 1.877z"/>
                <path d="M298.096 211.959l10.129-19.023 12.661 4.724-10.129 19.023z"/>
                <path d="M300.777 210.958l8.351-15.685 9.074 3.385-8.351 15.685z"/>
                <path d="M310.904 202.157c1.756.655 2.545 2.378 1.763 3.848s-2.841 2.131-4.597 1.476-2.545-2.378-1.763-3.848 2.841-2.132 4.597-1.476z"/>
                <path d="M281.921 219.866l10.129-19.023 12.661 4.724-10.129 19.023z"/>
                <path d="M284.606 218.868l8.351-15.685 9.073 3.385-8.351 15.685z"/>
                <path d="M294.733 210.066c1.756.655 2.545 2.378 1.763 3.848s-2.841 2.131-4.597 1.476-2.545-2.378-1.763-3.848 2.84-2.131 4.597-1.476z"/>
                <path d="M313.226 208.585l23.24-7.435 4.949 10.839-23.24 7.435z"/>
                <path d="M315.966 209.467l19.163-6.131 3.546 7.767-19.163 6.131z"/>
                <path d="M330.576 209.239c.687 1.504-.213 3.188-2.009 3.763s-3.808-.179-4.495-1.681.213-3.188 2.01-3.763 3.808.179 4.494 1.681z"/>
                <path d="M247.316 205.969l20.877 11.33-7.541 9.736-20.877-11.33z"/>
                <path d="M248.08 208.343l17.214 9.342-5.403 6.977-17.214-9.342z"/>
                <path d="M256.893 218.086c-1.046 1.351-3.201 1.735-4.815.86s-2.073-2.68-1.027-4.031 3.201-1.735 4.815-.86 2.073 2.68 1.027 4.031z"/>
                <path d="M237.364 220.591l24.402 4.057-2.7 11.381-24.402-4.057z"/>
                <path d="M239.123 222.559l20.121 3.345-1.935 8.155-20.121-3.345z"/>
                <path d="M251.633 228.907c-.375 1.578-2.207 2.604-4.093 2.29s-3.111-1.848-2.736-3.427 2.208-2.604 4.093-2.29 3.111 1.848 2.736 3.427z"/>
                <path d="M245.754 231.627l24.402 4.057-2.7 11.381-24.402-4.057z"/>
                <path d="M247.513 233.595l20.121 3.345-1.935 8.155-20.121-3.345z"/>
                <path d="M260.022 239.944c-.375 1.578-2.208 2.604-4.093 2.29s-3.111-1.848-2.736-3.427 2.208-2.604 4.093-2.29 3.111 1.848 2.736 3.427z"/>
                <path d="M242.639 244.345l23.651-6.467 4.304 11.03-23.651 6.467z"/>
                <path d="M245.324 245.341l19.501-5.332 3.084 7.904-19.501 5.332z"/>
                <path d="M259.918 245.695c.598 1.53-.401 3.175-2.228 3.675s-3.793-.335-4.39-1.865.401-3.175 2.228-3.675 3.793.335 4.39 1.865z"/>
                <path d="M248.215 262.525L260.7 244.51l11.99 5.823-12.485 18.015z"/>
                <path d="M251.01 261.77l10.294-14.854 8.592 4.172-10.294 14.854z"/>
                <path d="M262.191 253.911c1.664.808 2.229 2.591 1.264 3.984s-3.095 1.866-4.758 1.058-2.229-2.591-1.264-3.984 3.094-1.866 4.758-1.058z"/>
                <path d="M213.923 247.944l23.994 5.504-3.664 11.19-23.994-5.504z"/>
                <path d="M215.506 250.014l19.784 4.539-2.625 8.019-19.784-4.539z"/>
                <path d="M227.458 257.079c-.508 1.553-2.424 2.466-4.278 2.041s-2.946-2.029-2.438-3.581 2.424-2.466 4.278-2.041 2.946 2.03 2.438 3.581z"/>
                <path d="M233.066 328.142l23.994 5.504-3.664 11.19-23.994-5.504z"/>
                <path d="M234.648 330.211l19.784 4.539-2.625 8.019-19.784-4.539z"/>
                <path d="M246.599 337.28c-.508 1.553-2.424 2.466-4.278 2.041s-2.946-2.029-2.438-3.581 2.424-2.466 4.278-2.041 2.946 2.029 2.438 3.581z"/>
                <path d="M188 340.448l24.788-1.795 1.195 11.56-24.788 1.795z"/>
                <path d="M190.345 341.928l20.439-1.48.856 8.284-20.439 1.48z"/>
                <path d="M204.47 345.051c.166 1.603-1.252 3.016-3.168 3.155s-3.603-1.048-3.769-2.652 1.252-3.016 3.168-3.155 3.603 1.048 3.769 2.652z"/>
                <path d="M222.37 302.404l12.485-18.015 11.99 5.823-12.485 18.015z"/>
                <path d="M225.165 301.647l10.294-14.854 8.592 4.172-10.294 14.854z"/>
                <path d="M236.345 293.788c1.663.808 2.229 2.591 1.264 3.983s-3.095 1.866-4.759 1.058-2.229-2.591-1.264-3.984 3.096-1.865 4.759-1.057z"/>
            </g>
            <g class="B">
                <path d="M331.275 246.824l-63.26 16.572c-1.943.509-4.011-.397-4.619-2.024l-13.524-36.175c-.608-1.626.474-3.358 2.418-3.867l63.26-16.572c1.943-.509 4.011.396 4.619 2.024l13.524 36.175c.607 1.626-.475 3.358-2.418 3.867z"
                      class="C"/>
                <path d="M323.917 243.944l-51.819 13.575c-1.943.509-4.011-.397-4.619-2.024l-10.25-27.418c-.608-1.626.475-3.358 2.418-3.867l51.819-13.575c1.943-.509 4.011.397 4.619 2.024l10.25 27.418c.608 1.626-.474 3.358-2.418 3.867z"
                      fill="#969696"/>
                <path d="M253.046 230.435l6.084-1.61c1.596-.422 2.481-1.848 1.976-3.184l-1.924-5.093a2.44 2.44 0 0 0-.575-.872l-6.857 1.796c-1.646.431-2.563 1.898-2.048 3.276l2.166 5.794a3.56 3.56 0 0 0 1.177-.107zm20.999 31.034l-1.924-5.093c-.505-1.336-2.208-2.077-3.804-1.654l-6.084 1.61c-.228.06-.437.146-.633.244l1.962 5.247c.515 1.378 2.267 2.146 3.913 1.714l6.649-1.742c-.021-.108-.039-.217-.08-.325zm59.815-18.061l-1.889-5.055-5.812 1.539c-1.596.422-2.481 1.848-1.976 3.184l1.924 5.093 5.707-1.485c1.646-.431 2.562-1.898 2.047-3.276zm-23.666-35.968l1.924 5.093c.505 1.336 2.208 2.077 3.804 1.654l6.084-1.61c.103-.027.193-.069.29-.104l-2.295-6.14c-.515-1.378-2.267-2.146-3.913-1.714l-5.96 1.561c-.099.406-.093.836.067 1.26z"
                      class="C"/>
                <g class="D">
                    <path d="M317.865 176.792s-2.266-.1-2.624.799-.596 1.897-.596 1.897 2.266 5.092 5.606 7.988 12.644 6.99 15.149 6.09 3.22-2.895 2.624-3.794 1.908-1.398 2.385-2.796 0-1.997.119-2.796.954-2.995.954-2.995l-23.617-4.394z"/>
                    <path d="M331.94 150.033s-5.367.1-9.066 3.195-5.248 6.89-5.367 10.983-.716 12.581.239 15.476 1.789 6.291 6.203 7.589 8.589.399 12.286-1.597 6.8-5.591 7.634-7.389 2.266-7.988 2.505-11.483 1.073-8.288-.716-11.083-7.515-6.09-13.718-5.691z"/>
                </g>
                <path d="M322.518 167.307s-.596-.1-3.22-1.597c-1.974-1.126-1.908 3.195-.239 3.994s4.413-1.098 3.459-2.396zm9.303-1.099s-1.312.699-3.101 1.298-2.385.998-1.193 1.997 4.532 3.594 7.157 2.396 2.862-4.692 1.073-5.391-3.937-.3-3.937-.3z"
                      class="C"/>
            </g>
            <g class="D">
                <path d="M331.225 168.505c0 .717-.427 1.298-.954 1.298s-.954-.581-.954-1.298.427-1.298.954-1.298.954.581.954 1.298z"/>
                <ellipse cx="319.087" cy="167.793" rx="1" ry="1.012"/>
            </g>
            <path d="M327.601 175.295l-6.723-.3c-2.266 0-2.214 1.997-1.456 3.095s4.617 1.398 6.884 1.398 3.598-1.498 3.616-2.196-.532-1.997-2.321-1.997z"
                  class="B C"/>
        </g>
        <path d="M321.205 176.493s3.101 1.298 6.56 0" class="B"/>
        <g class="D E B">
            <path d="M281.575 244.85l3.254 2.476c1.775 1.238 3.993 3.962 4.733 4.458s4.289 3.393 4.289 4.457c0 1.981-1.923 3.59-3.106 3.219s-2.514-.99-2.514-.99-1.627 3.714-4.733 3.714h-6.065s-1.775.619-2.662.371-3.106-.99-3.993-3.219-1.331-8.296-1.331-8.296l12.129-6.19z"/>
            <path d="M305.832 180.467s-4.881-2.847-11.389-.248-29.286 20.182-33.427 23.153-5.768 5.943-5.62 6.686 2.071 11.886 4.881 19.934 8.579 18.696 8.579 18.696-.148 1.609.592 2.352 5.028-.124 7.988-1.238 4.437-3.838 4.141-4.953-1.627-3.219-1.923-3.59-5.176-20.553-5.176-20.553l-.296-6.81 31.948-17.334"/>
            <path d="M331.124 249.307s1.627-2.724.148-4.704-3.697-3.714-5.176-2.724-.739 3.343-.739 3.838-1.479.248-2.958-.99-2.366-6.315-4.437-6.439-3.549.619-3.549 1.609-1.923 1.609-2.958 3.343-2.366 3.343-2.366 4.828 1.775 4.333 2.81 4.953 6.656 2.105 9.614 2.105 7.988-1.486 9.023-3.343.589-2.476.589-2.476z"/>
        </g>
        <g stroke="red">
            <circle stroke-width="4" cx="302.457" cy="227.473" r="38.132"/>
            <circle stroke-width="5" cx="302.457" cy="227.47" r="22.879"/>
        </g>
        <circle fill-opacity=".24" fill="#f50606" cx="302.458" cy="227.471" r="11.132" class="E"/>
        <g stroke="red" stroke-width="5" class="G">
            <path d="M302.462 183v88.95"/>
            <path d="M346.95 227.478H258"/>
        </g>
        <path d="M51.749 193.832l-.685-3.303-2.669-5.031h1.595l1.503 2.932.225-2.932h1.543l-.562 5.031.685 3.303zm6.166.114c-.611 0-1.117-.11-1.519-.329a2.47 2.47 0 0 1-.962-.941c-.239-.408-.417-.897-.535-1.466l-.644-3.107c-.118-.569-.142-1.056-.072-1.461s.262-.713.575-.926.774-.319 1.385-.319c.617 0 1.128.108 1.533.324s.726.525.964.926.415.887.533 1.456l.644 3.107c.118.57.142 1.058.073 1.466s-.262.722-.576.941-.782.329-1.399.329zm-.254-1.225c.219 0 .37-.05.452-.149a.61.61 0 0 0 .123-.401 2.66 2.66 0 0 0-.061-.54l-.817-3.941c-.04-.192-.094-.37-.162-.535s-.164-.297-.288-.396-.295-.149-.514-.149c-.206 0-.35.05-.432.149s-.123.231-.123.396a2.7 2.7 0 0 0 .059.535l.817 3.941c.04.192.092.372.158.54s.16.302.284.401.291.149.504.149zm6.201 1.225c-.631 0-1.144-.108-1.539-.324s-.705-.528-.93-.936-.398-.904-.519-1.487l-1.182-5.7h1.677l1.231 5.937c.043.206.1.408.172.607a1.22 1.22 0 0 0 .306.484c.132.123.307.185.527.185.227 0 .38-.062.461-.185s.114-.285.1-.484-.042-.401-.085-.607l-1.231-5.937h1.677l1.182 5.7c.121.583.153 1.079.098 1.487s-.237.72-.542.936-.772.324-1.403.324zm3.578-.114l-1.728-8.334h2.161c.562 0 1.057.063 1.485.19s.783.352 1.066.674.484.768.602 1.338c.071.343.105.646.101.911s-.059.494-.166.689-.282.352-.525.468l1.995 4.064h-1.739l-1.74-3.776h-.596l.783 3.776H67.44h0zm.705-4.784h.494c.274 0 .481-.045.621-.134s.222-.225.25-.407.014-.406-.042-.674c-.08-.384-.211-.677-.393-.88s-.466-.304-.85-.304h-.576l.496 2.399zm7.835 4.784l-1.728-8.334h2.109c.364 0 .706.031 1.027.092a2.79 2.79 0 0 1 .886.329 2.07 2.07 0 0 1 .681.654c.185.278.323.64.416 1.085.07.336.081.623.034.859s-.146.424-.295.561-.35.23-.601.278a2.1 2.1 0 0 1 1.515 1.008c.168.281.294.621.376 1.019.087.418.109.782.067 1.09s-.146.562-.31.761-.387.348-.668.448-.621.149-1.019.149h-2.49v.001zm.667-4.969h.422c.295 0 .509-.042.642-.129s.211-.216.233-.391.007-.389-.046-.643-.138-.458-.256-.612a.99.99 0 0 0-.46-.334c-.189-.069-.418-.103-.685-.103h-.309l.459 2.212zm.783 3.776h.473c.425 0 .696-.106.813-.319s.132-.531.043-.957c-.068-.329-.16-.592-.276-.787s-.268-.34-.455-.432-.422-.139-.703-.139h-.442l.547 2.634zm4.024 1.193l-.113-8.334h1.883l3.333 8.334h-1.574l-.678-1.831h-1.317l.061 1.831h-1.595zm1.473-2.87h.998l-1.202-3.365.204 3.365zm4.412 2.87l-1.728-8.334h1.183l2.752 4.342-.9-4.342h1.399l1.728 8.334h-1.132l-2.808-4.61.956 4.61zm5.7 0l-1.728-8.334h1.698l.73 3.519.773-3.519h1.646l-.788 3.745 2.629 4.589h-1.708l-2.061-3.735-.169.473.676 3.262z"
              class="D E"/>
        <path d="M47.348 140.691h62v64h-62z" class="C"/>
    </g>
    <defs>
        <path id="B"
              d="M691.833 253.769c-2.582-93.364-84.564-166.03-166.564-205.05-44.988-21.408-96.879-36.637-147.564-30.012-26.616 3.479-50.235 16.182-73.419 28.353-24.765 13.002-50.185 22.209-76.547 31.485-37.542 13.211-75.433 25.881-111.542 42.456-28.879 13.256-58.174 29.07-78.668 53.202C2.152 215.859-.024 284.477 26.313 330.875c14.504 25.551 40.51 41.668 68.235 51.959 51.352 19.06 107.344 24.988 162.105 24.834 49.468-.145 96.076-10.934 144.828-16.35 24.215-2.69 48.424-1.799 72.34 2.774 70.079 13.4 159.27-6.032 198.578-67.829 14.355-22.566 20.126-47.461 19.434-72.494z"/>
    </defs>
</svg>