<?xml version="1.0" encoding="UTF-8"?>
<!DOCTYPE svg PUBLIC "-//W3C//DTD SVG 1.1//EN" "http://www.w3.org/Graphics/SVG/1.1/DTD/svg11.dtd">
<svg xmlns="http://www.w3.org/2000/svg" version="1.1" width="158px" height="120px" style="shape-rendering:geometricPrecision; text-rendering:geometricPrecision; image-rendering:optimizeQuality; fill-rule:evenodd; clip-rule:evenodd" xmlns:xlink="http://www.w3.org/1999/xlink">
<g><path style="opacity:0.969" fill="#5e960f" d="M 3.5,2.5 C 7.02967,1.98895 10.1963,2.65561 13,4.5C 25.3333,38.1667 37.6667,71.8333 50,105.5C 62.1081,71.1743 74.6081,37.0076 87.5,3C 101.2,2.16267 114.867,2.496 128.5,4C 146.548,7.04668 155.548,17.7133 155.5,36C 154.602,54.1153 145.269,65.1153 127.5,69C 116.549,70.3501 105.549,70.8501 94.5,70.5C 94.5,68.1667 94.5,65.8333 94.5,63.5C 104.196,63.591 113.863,63.091 123.5,62C 143.241,58.0451 150.407,46.2118 145,26.5C 140.49,16.4835 132.657,11.3168 121.5,11C 112.256,10.8192 103.089,10.3192 94,9.5C 80.4701,45.0892 67.1368,80.7559 54,116.5C 51.2053,117.783 48.3719,117.783 45.5,116.5C 31.2927,78.5415 17.2927,40.5415 3.5,2.5 Z"/></g>
</svg>
