<?xml version="1.0" standalone="no"?>
<!DOCTYPE svg PUBLIC "-//W3C//DTD SVG 1.0//EN" "http://www.w3.org/TR/2001/REC-SVG-20010904/DTD/svg10.dtd">
<svg xmlns="http://www.w3.org/2000/svg" xmlns:xlink="http://www.w3.org/1999/xlink" id="body_1" width="373" height="365">

<g transform="matrix(0.8004292 0 0 0.8004386 0 0)">
	<g>
		<g>
            <path d="M16.509 227.254C 21.493 269.463 40.765 318.538 79.256004 341.083C 137.412 375.153 132.544 427.556 246.05801 450.337C 263.756 453.891 280.552 455.38602 296.39 455.091C 304.65887 454.946 312.90985 454.27332 321.09302 453.077C 393.238 442.538 441.78802 392.38998 459.601 331.856C 483.04102 252.24298 436.237 200.12099 405.21402 168.71799C 374.19003 137.314 351.46802 39.46599 240.05202 16.192993C 223.06401 12.651993 205.69101 10.844994 188.32402 11.278994C 148.68301 12.251993 105.44402 25.268993 75.526024 52.436996C 73.27637 54.484505 71.08874 56.598114 68.96503 58.775997C 27.381 101.459 9.711 169.71 16.509 227.254z" stroke="none" fill="#000000" fill-rule="nonzero" />
            <path d="M16.509 227.254C 21.493 269.463 40.765 318.538 79.256004 341.083C 137.412 375.153 132.544 427.556 246.05801 450.337C 263.756 453.891 280.552 455.38602 296.39 455.091C 304.65887 454.946 312.90985 454.27332 321.09302 453.077C 393.238 442.538 441.78802 392.38998 459.601 331.856C 483.04102 252.24298 436.237 200.12099 405.21402 168.71799C 374.19003 137.314 351.46802 39.46599 240.05202 16.192993C 223.06401 12.651993 205.69101 10.844994 188.32402 11.278994C 148.68301 12.251993 105.44402 25.268993 75.526024 52.436996C 73.27637 54.484505 71.08874 56.598114 68.96503 58.775997C 27.381 101.459 9.711 169.71 16.509 227.254z" stroke="none" fill="#FFFFFF" fill-rule="nonzero" fill-opacity="0.69803923" />
		</g>
		<g transform="matrix(1 0 0 1 24.822 57.833)">
            <path d="M7.255 173.286L7.255 187.79599L7.255 173.286zM14.511 180.541L0 180.541zM337.285 302.827L337.285 311.773zM341.758 307.3L332.81198 307.3zM384.559 0L384.559 8.946zM389.032 4.473L380.086 4.473zM264.278 365.271L264.278 374.217zM268.751 369.744L259.805 369.744zM378.881 345.323L378.881 367.039zM389.739 356.181L368.023 356.181zM46.993 32.897L46.993 54.613zM57.851 43.755L36.135 43.755zM12.134 104.7C 12.134 106.09976 11.387233 107.3932 10.174999 108.09309C 8.962766 108.79297 7.4692326 108.79297 6.256999 108.09309C 5.0447655 107.3932 4.2979994 106.09976 4.298 104.7C 4.2979994 102.53615 6.052148 100.782 8.216 100.782C 10.379851 100.782 12.134 102.53615 12.134 104.7zM399.027 332.369C 399.027 333.33844 398.50983 334.23422 397.67026 334.71896C 396.8307 335.20367 395.79633 335.20367 394.95676 334.71896C 394.1172 334.23422 393.6 333.33844 393.6 332.369C 393.6 330.87036 394.81488 329.6555 396.3135 329.6555C 397.81213 329.6555 399.027 330.87036 399.027 332.369zM300.272 351.008C 300.272 351.97745 299.75482 352.87323 298.91525 353.35797C 298.07568 353.84268 297.04132 353.84268 296.20175 353.35797C 295.36218 352.87323 294.845 351.97745 294.845 351.008C 294.845 349.50937 296.05988 348.2945 297.5585 348.2945C 299.05713 348.2945 300.272 349.50937 300.272 351.008z" stroke="#263238" stroke-width="1" fill="none" />
            <path transform="matrix(0.4068003 -0.9135171 0.9135171 0.4068003 -101.46841 84.980446)"  d="M23.383999 120.62C 23.383999 123.017746 22.53627 125.064354 20.840809 126.75981C 19.145348 128.45529 17.098745 129.30301 14.701 129.30301C 12.303256 129.30301 10.256654 128.45529 8.5611925 126.75981C 6.8657312 125.064354 6.0180006 123.017746 6.0180006 120.62C 6.0180006 118.22226 6.8657312 116.17566 8.5611925 114.480194C 10.256654 112.78474 12.303256 111.93701 14.701 111.937004C 17.098745 111.93701 19.145348 112.78474 20.840809 114.480194C 22.53627 116.17566 23.383999 118.22226 23.383999 120.62C 23.383999 120.721054 23.382236 120.82206 23.378712 120.923035" stroke="#263238" stroke-width="1" fill="none" />
            <path d="M420.273 188.512C 420.273 190.90976 419.4253 192.95636 417.7298 194.6518C 416.03436 196.34726 413.98773 197.195 411.59 197.19499C 409.19226 197.195 407.1457 196.34726 405.4502 194.6518C 403.75476 192.95636 402.907 190.90976 402.90698 188.512C 402.907 186.11426 403.75476 184.06766 405.4502 182.3722C 407.1457 180.67673 409.19226 179.82901 411.59 179.829C 413.98773 179.82901 416.03436 180.67673 417.7298 182.3722C 419.4253 184.06766 420.273 186.11426 420.273 188.512C 420.273 188.61304 420.27124 188.71405 420.2677 188.81503" stroke="#263238" stroke-width="1" fill="none" />
            <path transform="matrix(0.22891152 -0.97344726 0.97344726 0.22891152 92.55958 139.28221)"  d="M142.879 11.216C 142.879 13.613745 142.03128 15.660348 140.3358 17.355808C 138.64035 19.05127 136.59375 19.898998 134.196 19.898998C 131.79825 19.898998 129.75165 19.05127 128.0562 17.355808C 126.36074 15.660348 125.51301 13.613745 125.513 11.216C 125.51301 8.818255 126.36074 6.771653 128.0562 5.076192C 129.75165 3.3807306 131.79825 2.533 134.196 2.533C 136.59375 2.533 138.64035 3.3807306 140.3358 5.076192C 142.03128 6.771653 142.879 8.818255 142.879 11.216C 142.879 11.317041 142.87724 11.418053 142.8737 11.519032" stroke="#263238" stroke-width="1" fill="none" />
		</g>
		<g>
            <path d="M150.118 116.666C 96.423996 116.666 52.745995 159.435 52.745995 211.996L52.745995 211.996L52.745995 265.467L80.49799 265.467L80.49799 211.996C 80.49799 174.417 111.728 143.83801 150.11899 143.83801C 188.50099 143.83801 219.73099 174.417 219.73099 211.996L219.73099 211.996L219.73099 265.467L247.48299 265.467L247.48299 211.996C 247.48099 159.435 203.80298 116.666 150.11798 116.666L150.11798 116.666L150.118 116.666zM255.035 410.985L255.035 265.467L119.024 265.467zM245.815 410.985L42.437 410.985L42.437 586.85095L255.035 586.85095L255.035 567.04zM149.468 347.90598L153.356 387.84796L123.59801 387.84796L127.48601 347.90594C 120.24501 344.07996 115.33101 336.57996 115.33101 327.96594C 115.33101 315.44595 125.69301 305.30594 138.47202 305.30594C 151.26001 305.30594 161.62201 315.44495 161.62201 327.96594C 161.62302 336.57996 156.70001 344.07996 149.468 347.90594z" stroke="#263238" stroke-width="1" fill="none" />
            <path d="M158.688 358.443L162.576 398.385L132.81801 398.385L136.70601 358.443C 129.46501 354.617 124.55101 347.117 124.55101 338.503C 124.55101 325.983 134.91301 315.843 147.69202 315.843C 160.48001 315.843 170.84201 325.982 170.84201 338.503C 170.84302 347.117 165.92001 354.617 158.688 358.443z" stroke="#263238" stroke-width="1" fill="none" />
            <path d="M158.688 358.443L162.576 398.385L132.81801 398.385L136.70601 358.443C 129.46501 354.617 124.55101 347.117 124.55101 338.503C 124.55101 325.983 134.91301 315.843 147.69202 315.843C 160.48001 315.843 170.84201 325.982 170.84201 338.503C 170.84302 347.117 165.92001 354.617 158.688 358.443z" stroke="#263238" stroke-width="1" fill="none" />
		</g>
		<g>
            <path d="M382.651 23.018C 378.402 22.216 372.843 27.685 370.999 31.076C 370.84 31.369 368.873 36.239 368.951 36.245C 368.957 36.245 376.52698 36.813 379.69598 35.621998C 382.395 34.606 385.551 32.564 386.417 29.635998C 387.26498 26.769999 385.712 23.595997 382.651 23.017998L382.651 23.017998L382.651 23.018z" stroke="none" fill="#263238" fill-rule="nonzero" />
            <path d="M313.593 94.456C 313.866 96.9 314.19098 99.318 314.625 101.685C 314.834 102.701 314.982 103.752 315.237 104.715996L315.237 104.715996L315.943 107.618996C 316.494 109.58299 316.999 111.409996 317.559 113.225C 317.836 114.145 318.117 115.006 318.397 115.895C 317.707 114.486 316.576 112.271996 316.45 112.08199C 314.324 108.85999 308.319 103.883995 304.15402 105.04499C 301.153 105.88099 299.87503 109.17699 300.96402 111.95899C 302.07602 114.801994 305.39603 116.56899 308.17102 117.35099C 311.23203 118.21199 317.94803 117.20999 318.769 117.08299C 319.24402 118.563995 319.71902 120.01199 320.19302 121.40799L320.19302 121.40799L322.87802 121.40799C 322.3228 119.906136 321.78278 118.39874 321.25803 116.88599C 322.01004 116.567986 327.81903 114.06399 330.15402 111.78599C 332.61703 113.33599 335.41904 114.64399 335.91302 114.87099C 335.31384 116.98325 334.74484 119.103516 334.20602 121.23199L334.20602 121.23199L334.16202 121.40799L336.79602 121.40799C 337.191 119.69899 337.627 117.91499 338.09503 116.07999C 338.92703 116.234985 345.59604 117.43298 348.67703 116.664986C 351.47504 115.96699 354.84503 114.29999 356.04105 111.49199C 357.21304 108.74299 356.03604 105.41099 353.06104 104.484985C 348.93204 103.19998 342.78104 107.99299 340.56003 111.14999C 340.41702 111.35199 339.00403 113.930984 338.31104 115.261986C 338.62204 114.06399 338.92703 112.872986 339.27103 111.62999C 339.752 109.83999 340.31903 107.96299 340.85904 106.14199L340.85904 106.14199L341.81104 103.30999C 342.11304 102.34099 342.52103 101.45599 342.87604 100.51099C 343.42603 99.138985 344.06204 97.75198 344.69504 96.36599C 346.48804 96.96599 351.78204 98.63599 354.56305 98.37799C 357.43506 98.11199 361.01804 96.97499 362.62704 94.37999C 364.20105 91.83999 363.54205 88.36799 360.74203 87.00199C 356.85605 85.10599 350.05005 88.912994 347.37503 91.69599C 347.28802 91.786995 346.78403 92.43299 346.19302 93.20699C 346.851 91.87299 347.50302 90.537994 348.21603 89.20899C 350.23602 85.43599 352.41003 81.65599 354.57202 77.857994C 355.023 77.06699 355.46103 76.27 355.90903 75.477C 357.41602 75.989 363.13403 77.85 366.04803 77.578995C 368.91904 77.312996 372.50403 76.175995 374.11102 73.58099C 375.68503 71.04099 375.027 67.56899 372.226 66.203995C 368.341 64.30799 361.535 68.114 358.859 70.897995C 358.764 70.99799 358.163 71.771996 357.49902 72.643C 358.64594 70.576675 359.7478 68.48466 360.803 66.369995C 362.63202 62.689995 364.233 58.963997 365.49902 55.233994C 366.028 55.420994 372.68903 57.735992 375.928 57.434994C 378.799 57.168995 382.38202 56.031994 383.991 53.437992C 385.566 50.89799 384.906 47.42599 382.107 46.059994C 378.221 44.164993 371.415 47.970993 368.74 50.754993C 368.55 50.952995 366.39798 53.768993 365.663 54.799995C 365.678 54.755997 365.699 54.710995 365.714 54.666996C 367.007 50.737995 367.75598 46.827995 368.287 43.085995C 368.82098 39.352993 369.007 35.791996 369.093 32.511993C 369.188 29.229994 369.072 26.222994 368.948 23.561993C 368.87 22.121992 368.772 20.804993 368.666 19.578993L368.666 19.578993L368.73798 19.634993C 368.80096 19.681993 370.51398 14.715992 370.58698 14.390993C 371.41998 10.620993 370.81497 2.845993 367.08298 0.66299343C 364.395 -0.9090066 361.13998 0.46699345 359.89798 3.1859934C 358.63098 5.961993 359.671 9.574993 361.041 12.111993C 362.44498 14.711992 367.25497 18.497993 368.45898 19.422993C 368.543 20.698994 368.61798 22.063993 368.668 23.574993C 368.734 26.231993 368.784 29.232994 368.619 32.497993C 368.577 33.367992 368.496 34.301994 368.435 35.208992C 368.222 33.658993 367.899 31.536991 367.844 31.332993C 366.847 27.603992 362.727 20.981993 358.409 20.764992C 355.298 20.607992 353.044 23.32899 353.195 26.313992C 353.349 29.361992 355.937 32.088993 358.324 33.70999C 360.81302 35.400993 366.978 36.55199 368.329 36.78899C 368.16202 38.79499 367.944 40.85199 367.591 42.98399C 366.991 46.65399 366.159 50.53299 364.805 54.36299C 364.72998 54.575993 364.626 54.78699 364.548 54.998993C 364.575 54.215992 364.414 49.902992 364.36902 49.602993C 363.78802 45.78599 360.42 38.75299 356.152 38.061993C 353.07602 37.56399 350.53702 40.020992 350.36002 43.003994C 350.17902 46.050995 352.45203 49.045994 354.64502 50.918995C 357.17303 53.076996 364.22403 55.071995 364.49002 55.146996C 363.17603 58.715996 361.55603 62.280994 359.70602 65.81C 358.368 68.369995 356.90903 70.907 355.42102 73.437996C 355.432 72.41699 355.281 68.409 355.23703 68.120995C 354.65503 64.30399 351.28802 57.270996 347.01904 56.579994C 343.94403 56.081993 341.40405 58.538994 341.22705 61.521996C 341.04605 64.56899 343.31906 67.563995 345.51205 69.436C 347.97906 71.543 354.72705 73.485 355.29706 73.646996C 354.62106 74.796 353.95007 75.947 353.26306 77.092995C 351.02005 80.837 348.75705 84.58099 346.63705 88.34499C 345.90207 89.647995 345.22604 90.96099 344.54205 92.270996C 344.51105 90.739 344.40204 87.953995 344.36606 87.715996C 343.78406 83.898994 340.41605 76.865 336.14807 76.174995C 333.07306 75.676994 330.53406 78.134995 330.35608 81.118C 330.17508 84.163994 332.4481 87.159996 334.64108 89.032C 336.8441 90.914 342.4821 92.669 344.0781 93.141C 342.9581 95.33 341.8941 97.528 340.95108 99.74C 340.5641 100.702995 340.1081 101.660995 339.79007 102.605995C 339.44907 103.551994 339.11008 104.48799 338.77707 105.41599C 338.15408 107.35899 337.56708 109.161995 337.03308 110.98399C 336.75708 111.90399 336.51807 112.77699 336.2591 113.673996C 336.46008 112.118 336.7391 109.646996 336.7391 109.419C 336.7431 105.559 334.4801 98.096 330.36612 96.767C 327.40112 95.809 324.51813 97.853 323.8911 100.775C 323.81113 101.147 323.7701 101.523 323.7611 101.901C 321.79712 104.734 320.6701 108.85 320.59512 111.414C 320.58813 111.661 320.83212 114.590004 320.98813 116.083C 320.58713 114.912 320.18314 113.751 319.78513 112.525C 319.19913 110.767 318.63812 108.888 318.08212 107.072L318.08212 107.072L317.31512 104.186C 317.03412 103.21 316.88513 102.24799 316.65912 101.263C 316.3611 99.815 316.12613 98.308 315.88913 96.802C 317.71613 96.314 323.05313 94.785 325.22913 93.036C 327.4771 91.23 329.84012 88.304 329.75012 85.254005C 329.6621 82.26601 327.19614 79.73401 324.10712 80.13901C 319.8211 80.70201 316.24512 87.631004 315.5491 91.42901C 315.5271 91.55201 315.4631 92.37001 315.3971 93.34001C 315.21008 91.86501 315.0171 90.39201 314.87808 88.890015C 314.48007 84.62901 314.20908 80.277016 313.9181 75.916016C 313.8581 75.00702 313.7841 74.10001 313.7201 73.19202C 315.2591 72.78802 321.05508 71.18401 323.3361 69.35202C 325.58408 67.54602 327.94608 64.62102 327.85608 61.56902C 327.76807 58.58202 325.30307 56.04902 322.21408 56.45502C 317.9261 57.01802 314.35107 63.946022 313.6551 67.74502C 313.6301 67.88002 313.5561 68.85702 313.4831 69.95102C 313.29968 67.59398 313.065 65.24183 312.77908 62.89502C 312.27307 58.81702 311.55508 54.82602 310.5521 51.01702C 311.0961 50.87902 317.9291 49.13602 320.46408 47.099022C 322.71307 45.293022 325.07407 42.368023 324.98508 39.31702C 324.89706 36.32902 322.4311 33.79802 319.34308 34.20202C 315.05508 34.76502 311.47906 41.69502 310.7841 45.49202C 310.7341 45.76102 310.4931 49.29702 310.45007 50.56302C 310.43707 50.51802 310.43106 50.469017 310.41806 50.42402C 309.32907 46.434017 307.79706 42.759018 306.17505 39.345016C 304.56104 35.937016 302.75104 32.864017 301.01306 30.081017C 299.28207 27.291016 297.52606 24.847015 295.95505 22.696016C 295.16113 21.627876 294.3495 20.571396 293.52203 19.529016L293.52203 19.529016L293.61404 19.535017C 293.69305 19.540016 292.38205 14.453017 292.26303 14.142017C 290.87903 10.538017 286.08502 4.3870173 281.76804 4.625017C 278.65805 4.796017 276.70203 7.7390175 277.16605 10.692017C 277.64005 13.707017 280.50305 16.147017 283.04504 17.507017C 285.65005 18.900017 291.75104 19.406017 293.26505 19.511017C 294.10437 20.613487 294.92596 21.729897 295.72903 22.859016C 297.25003 25.039017 298.94702 27.514017 300.61102 30.329016C 301.05603 31.077015 301.50403 31.901016 301.95303 32.691017C 300.92004 31.516018 299.48004 29.923018 299.32303 29.785017C 296.433 27.224016 289.34503 23.974018 285.62302 26.175016C 282.94202 27.760017 282.562 31.274017 284.33502 33.680016C 286.14502 36.137016 289.80902 36.984016 292.69202 37.020016C 295.70102 37.057014 301.47702 34.616016 302.73602 34.068016C 303.70303 35.834015 304.65604 37.670017 305.53802 39.643017C 307.062 43.035015 308.50803 46.729015 309.49103 50.670017C 309.54602 50.88902 309.57602 51.123016 309.62903 51.343018C 309.21802 50.67402 306.70502 47.166016 306.502 46.941017C 303.911 44.07802 297.22302 40.07002 293.281 41.84802C 290.441 43.13002 289.678 46.580017 291.176 49.16602C 292.706 51.80702 296.254 53.051018 299.116 53.40302C 302.414 53.808018 309.397 51.58202 309.659 51.49802C 310.53198 55.20002 311.148 59.06702 311.551 63.03102C 311.848 65.90402 312.03 68.82402 312.186 71.75802C 311.63202 70.90002 309.294 67.640015 309.099 67.42402C 306.509 64.56102 299.82 60.55302 295.879 62.33202C 293.039 63.613018 292.276 67.06402 293.774 69.64902C 295.30298 72.291016 298.852 73.53502 301.714 73.88602C 304.935 74.28202 311.634 72.180016 312.198 72.000015C 312.268 73.332016 312.344 74.66202 312.40298 75.99702C 312.59998 80.35702 312.77597 84.72802 313.08298 89.03702C 313.18896 90.530014 313.34897 91.99702 313.50198 93.46702C 312.632 92.207016 311.00497 89.943016 310.843 89.76602C 308.25198 86.90302 301.564 82.89402 297.62198 84.67302C 294.783 85.95502 294.01898 89.40502 295.51797 91.99102C 297.04797 94.63302 300.59497 95.87602 303.45798 96.22802C 306.33 96.58902 312.00198 94.94202 313.593 94.45602L313.593 94.45602L313.593 94.456z" stroke="none" fill="#263238" fill-rule="nonzero" />
            <path d="M302.95 33.278C 302.95502 33.275 309.582 29.572 311.56802 26.83C 313.26 24.494999 314.765 21.049 313.872 18.131C 312.99902 15.273001 309.952 13.481001 307.08102 14.688001C 303.09503 16.363 301.47504 23.991001 301.80603 27.838001C 301.83502 28.169 302.88104 33.317 302.95004 33.278L302.95004 33.278L302.95 33.278zM119.259 338.801C 114.831 337.965 109.038 343.664 107.116005 347.199C 106.950005 347.504 104.9 352.579 104.982 352.586C 104.988 352.587 112.877 353.178 116.18 351.936C 118.993004 350.878 122.282 348.749 123.184 345.698C 124.066 342.712 122.448 339.40298 119.258995 338.801z" stroke="none" fill="#263238" fill-rule="nonzero" />
            <path d="M47.293 413.247C 47.578 415.794 47.916 418.314 48.369 420.781C 48.586 421.84 48.741 422.935 49.007 423.939L49.007 423.939L49.743 426.964C 50.317 429.011 50.843 430.91498 51.428 432.806C 51.717003 433.764 52.010002 434.662 52.302002 435.589C 51.583 434.121 50.404003 431.813 50.273003 431.615C 48.057003 428.257 41.800003 423.072 37.460003 424.28198C 34.332005 425.154 33.001003 428.58798 34.136 431.48697C 35.295002 434.44998 38.754 436.29095 41.647003 437.10596C 44.836002 438.00296 51.835003 436.95895 52.691 436.82596C 53.186 438.36996 53.681004 439.87897 54.175003 441.33395L54.175003 441.33395L56.973003 441.33395C 56.394226 439.7688 55.831726 438.1986 55.285004 436.62195C 56.068005 436.29095 62.122 433.68094 64.556 431.30695C 67.122 432.92294 70.043 434.28595 70.558 434.52194C 69.93396 436.7232 69.34094 438.93295 68.779 441.15094L68.779 441.15094L68.733 441.33395L71.478004 441.33395C 71.88901 439.55295 72.343 437.69394 72.832 435.78195C 73.699 435.94394 80.649 437.19196 83.859 436.39194C 86.774 435.66495 90.286 433.92694 91.533005 431.00095C 92.754005 428.13596 91.52701 424.66394 88.428 423.69894C 84.126 422.35995 77.716 427.35495 75.4 430.64496C 75.251 430.85596 73.779 433.54297 73.057 434.92996C 73.381 433.68097 73.699 432.43997 74.057 431.14496C 74.558 429.27997 75.15 427.32394 75.712 425.42596L75.712 425.42596L76.703995 422.47498C 77.019 421.46497 77.44399 420.54297 77.813995 419.55798C 78.38699 418.129 79.049995 416.68298 79.70899 415.23898C 81.577995 415.865 87.093994 417.60397 89.99199 417.335C 92.983986 417.05798 96.71899 415.873 98.39499 413.169C 100.03599 410.522 99.34899 406.904 96.43099 405.48102C 92.38099 403.505 85.288994 407.47202 82.50199 410.37302C 82.41099 410.46802 81.885994 411.14102 81.26999 411.94803C 81.955986 410.558 82.63599 409.16602 83.37799 407.78104C 85.481995 403.84903 87.74799 399.91003 90.00199 395.95203C 90.47199 395.12802 90.92899 394.29703 91.39499 393.47104C 92.96599 394.00504 98.92499 395.94403 101.96099 395.66205C 104.95299 395.38504 108.68899 394.20004 110.36399 391.49606C 112.00499 388.84906 111.31799 385.23105 108.399994 383.80807C 104.351 381.83206 97.258995 385.79807 94.46999 388.70007C 94.370995 388.80408 93.744995 389.61108 93.05299 390.51907C 94.24811 388.36508 95.39578 386.1861 96.495995 383.9821C 98.40199 380.1471 100.07099 376.26508 101.38999 372.37708C 101.94199 372.57208 108.882996 374.98407 112.257996 374.67108C 115.24999 374.39307 118.98399 373.20908 120.659996 370.5051C 122.300995 367.8581 121.613 364.24008 118.696 362.8161C 114.645996 360.8411 107.554 364.8071 104.766 367.7081C 104.568 367.9141 102.325 370.8481 101.559 371.9241C 101.575 371.8781 101.597 371.8321 101.612 371.7851C 102.96 367.6911 103.74 363.6161 104.293 359.7161C 104.85 355.82608 105.043 352.1141 105.132996 348.6961C 105.231995 345.2761 105.11199 342.14212 104.981995 339.3691C 104.90564 337.9842 104.80794 336.60004 104.688995 335.2181L104.688995 335.2181L104.76499 335.27612C 104.83099 335.32513 106.61599 330.15012 106.69199 329.81113C 107.55999 325.88214 106.92999 317.78012 103.03999 315.50513C 100.23899 313.86713 96.84599 315.30014 95.55299 318.13412C 94.231995 321.02713 95.315994 324.7921 96.743996 327.43613C 98.20699 330.14514 103.218994 334.09113 104.474 335.0551C 104.561 336.38412 104.64 337.80713 104.692 339.3811C 104.761 342.15012 104.812004 345.2771 104.641 348.6791C 104.598 349.5851 104.513 350.5591 104.449 351.50412C 104.227 349.88913 103.89 347.67712 103.834 347.46512C 102.795 343.57812 98.502 336.6791 94.001 336.45212C 90.759 336.28812 88.409996 339.1241 88.567 342.2351C 88.728004 345.4111 91.425 348.2531 93.912 349.9421C 96.505005 351.7041 102.93 352.9031 104.338005 353.15112C 104.164 355.24213 103.937004 357.38513 103.56901 359.60712C 102.94301 363.43213 102.07701 367.47412 100.66601 371.46512C 100.588005 371.68613 100.47901 371.90613 100.39801 372.1281C 100.42601 371.3121 100.25901 366.8171 100.21101 366.50513C 99.60501 362.52814 96.096016 355.19812 91.64801 354.47812C 88.44301 353.9591 85.79601 356.5201 85.61201 359.6281C 85.423004 362.8041 87.79201 365.9241 90.07701 367.8761C 92.71101 370.12408 100.05901 372.2041 100.33601 372.2821C 98.96701 376.0021 97.278015 379.7161 95.35101 383.3941C 93.957016 386.0611 92.43601 388.7051 90.88602 391.3431C 90.89802 390.2791 90.74001 386.1021 90.694016 385.80212C 90.08801 381.82413 86.57802 374.49512 82.13001 373.77612C 78.92601 373.2571 76.279015 375.8181 76.09401 378.92612C 75.90501 382.1021 78.27401 385.2231 80.559006 387.1741C 83.130005 389.3691 90.162 391.3931 90.756004 391.5621C 90.051 392.7601 89.352005 393.9591 88.636 395.1541C 86.299 399.05612 83.94 402.95712 81.731 406.87912C 80.965004 408.23712 80.261 409.60513 79.548004 410.97012C 79.51601 409.3741 79.402 406.47214 79.364006 406.2231C 78.758 402.24512 75.24801 394.9161 70.8 394.1961C 67.595 393.6771 64.949005 396.2381 64.764 399.3471C 64.576 402.52112 66.944 405.6431 69.23 407.59412C 71.526 409.5551 77.401 411.38412 79.064 411.87613C 77.896 414.15714 76.788 416.44714 75.805 418.75314C 75.402 419.75613 74.927 420.75415 74.595 421.73914L74.595 421.73914L73.539 424.66714C 72.89 426.69214 72.278 428.57114 71.721 430.47015C 71.433 431.42816 71.184 432.33817 70.915 433.27316C 71.125 431.65115 71.415 429.07715 71.415 428.83917C 71.419 424.81616 69.061005 417.03918 64.774 415.65417C 61.685 414.6562 58.68 416.78616 58.026 419.83118C 57.944126 420.21738 57.898926 420.61044 57.891003 421.0052C 55.845 423.95718 54.670002 428.2462 54.592003 430.91818C 54.585003 431.17517 54.839005 434.22818 55.001003 435.78418C 54.583004 434.56418 54.163002 433.3542 53.748005 432.07617C 53.137005 430.24417 52.552006 428.28616 51.973003 426.39316L51.973003 426.39316L51.173004 423.38516C 50.880005 422.36816 50.725002 421.36517 50.489006 420.33917C 50.179005 418.83017 49.934006 417.2592 49.687008 415.69116C 51.591007 415.18216 57.153008 413.58917 59.420006 411.76715C 61.763004 409.88516 64.225006 406.83615 64.131004 403.65814C 64.039 400.54413 61.470005 397.90613 58.251003 398.32816C 53.784004 398.91516 50.058002 406.13617 49.332005 410.09415C 49.309006 410.22214 49.242004 411.07416 49.173004 412.08514C 48.978004 410.54816 48.777004 409.01315 48.633003 407.44815C 48.219 403.00714 47.936005 398.47214 47.632004 393.92816C 47.569004 392.98117 47.492004 392.03616 47.425003 391.08917C 49.029003 390.66818 55.069004 388.99716 57.446003 387.08716C 59.789 385.20517 62.250004 382.15717 62.156002 378.97717C 62.065002 375.86417 59.496002 373.22516 56.277 373.64816C 51.809002 374.23517 48.083 381.45517 47.358 385.41318C 47.331 385.55417 47.255 386.57217 47.179 387.7122C 46.979 385.2462 46.749 382.78918 46.446 380.3592C 45.919 376.1092 45.17 371.9512 44.125 367.9812C 44.692 367.8382 51.813 366.0212 54.455 363.8982C 56.798 362.0162 59.259003 358.9672 59.166 355.7882C 59.074 352.6742 56.505 350.0362 53.287 350.45822C 48.819 351.04523 45.092 358.26624 44.368 362.2242C 44.316 362.5042 44.065 366.1892 44.02 367.5082C 44.007 367.4612 44 367.41022 43.987 367.36322C 42.852 363.20523 41.256 359.37622 39.565 355.8182C 37.883 352.2662 35.996998 349.0642 34.185997 346.1642C 32.381996 343.2572 30.552998 340.7102 28.914997 338.4682C 28.087364 337.35468 27.242538 336.25488 26.379997 335.1682L26.379997 335.1682L26.474997 335.17422C 26.556997 335.17923 25.190996 329.87823 25.066998 329.55322C 23.624998 325.7972 18.628998 319.3882 14.129997 319.63623C 10.888997 319.81424 8.850998 322.88123 9.334997 325.95822C 9.829997 329.10022 12.811997 331.6422 15.460997 333.0602C 18.175997 334.5122 24.532997 335.0392 26.110996 335.1492C 26.986237 336.2981 27.842194 337.46103 28.678997 338.6382C 30.263996 340.91022 32.031998 343.48822 33.766 346.4222C 34.23 347.2022 34.697 348.0602 35.163998 348.88422C 34.087997 347.66022 32.586998 346.0002 32.422997 345.85522C 29.411997 343.18622 22.024998 339.80023 18.145996 342.09323C 15.351996 343.74524 14.956996 347.40723 16.803997 349.91425C 18.689997 352.47525 22.507998 353.35724 25.512997 353.39426C 28.647997 353.43225 34.667995 350.88925 35.978996 350.31827C 36.986996 352.15826 37.979996 354.07227 38.897995 356.12827C 40.485996 359.66327 41.993996 363.51227 43.016994 367.61926C 43.073994 367.84726 43.105995 368.09125 43.160995 368.32025C 42.732994 367.62326 40.113995 363.96725 39.902996 363.73325C 37.202995 360.75024 30.232996 356.57324 26.125996 358.42624C 23.166996 359.76224 22.371996 363.35724 23.932995 366.05225C 25.526995 368.80426 29.224995 370.10126 32.207993 370.46823C 35.644993 370.89023 42.921993 368.57123 43.194992 368.48325C 44.104992 372.34125 44.746994 376.37125 45.166992 380.50125C 45.47599 383.49426 45.665993 386.53824 45.82799 389.59525C 45.25099 388.70026 42.81399 385.30325 42.610992 385.07925C 39.91199 382.09625 32.940994 377.91925 28.833992 379.77225C 25.874992 381.10724 25.079992 384.70325 26.640991 387.39825C 28.234991 390.15125 31.932991 391.44824 34.914993 391.81424C 38.27199 392.22723 45.25199 390.03622 45.839993 389.84924C 45.912994 391.23724 45.991993 392.62323 46.052994 394.01523C 46.257996 398.55923 46.441994 403.11423 46.761993 407.60422C 46.872993 409.16022 47.038994 410.68823 47.197994 412.2202C 46.290993 410.90723 44.594994 408.54822 44.426994 408.36322C 41.726994 405.38022 34.756996 401.2022 30.649994 403.0552C 27.690994 404.3902 26.895994 407.9872 28.456993 410.6812C 30.050993 413.4342 33.747993 414.73022 36.730995 415.0972C 39.724995 415.4692 45.635994 413.7532 47.292995 413.2472L47.292995 413.2472L47.293 413.247z" stroke="none" fill="#263238" fill-rule="nonzero" />
            <path d="M36.202 349.494C 36.207 349.491 43.113 345.632 45.182 342.774C 46.945 340.34 48.514 336.749 47.583 333.70798C 46.673 330.72897 43.498 328.86197 40.506 330.11996C 36.352 331.86597 34.664 339.81497 35.009 343.82297C 35.039997 344.16898 36.129997 349.53397 36.202 349.49396L36.202 349.49396L36.202 349.494z" stroke="none" fill="#263238" fill-rule="nonzero" />
		</g>
		<g>
			<g>
                <path d="M426.576 372.844L208.717 372.844C 206.22795 372.844 203.84084 371.8552 202.08081 370.09518C 200.32079 368.33514 199.332 365.94803 199.332 363.45898L199.332 363.45898L199.332 83.239L435.961 83.239L435.961 363.46C 435.961 368.643 431.759 372.844 426.576 372.844z" stroke="#263238" stroke-width="1" stroke-linecap="square" fill="#263238" fill-rule="nonzero" />
                <path d="M421.624 368.512L203.765 368.512C 201.27596 368.512 198.88884 367.5232 197.12881 365.76318C 195.36879 364.00314 194.38 361.61603 194.38 359.12698L194.38 359.12698L194.38 78.906L431.009 78.906L431.009 359.126C 431.00925 361.61523 430.0206 364.0026 428.26053 365.76285C 426.5005 367.52307 424.11322 368.512 421.624 368.512z" stroke="#263238" stroke-width="1" fill="#FFFFFF" fill-rule="nonzero" />
                <path d="M421.799 78.906L421.799 368.51102L422.297 368.51102C 427.108 368.51102 431.008 364.61102 431.008 359.799L431.008 359.799L431.008 78.906L421.799 78.906z" stroke="#263238" stroke-width="1" fill="#FFFFFF" fill-rule="nonzero" />
                <path d="M421.799 156.013L431.009 156.013L431.009 215.823L421.799 215.823L421.799 156.013z" stroke="#263238" stroke-width="1" fill="#FFFFFF" fill-rule="nonzero" />
				<g transform="matrix(1 0 0 1 194.38 78.906)">
                    <path d="M0 0L236.629 0L236.629 20.484L0 20.484L0 0z" stroke="#263238" stroke-width="1" fill="#263238" fill-rule="nonzero" />
                    <path d="M210.704 10.449C 210.72353 9.388444 210.1689 8.3999815 209.25356 7.863984C 208.3382 7.3279867 207.20477 7.3279867 206.28941 7.863984C 205.37407 8.399982 204.81944 9.388444 204.83899 10.449C 204.86842 12.047525 206.17268 13.327986 207.77148 13.327986C 209.37029 13.327986 210.67455 12.047525 210.704 10.449z" stroke="#263238" stroke-width="1" fill="#FFFFFF" fill-rule="nonzero" />
                    <path d="M219.92001 10.449C 219.92001 11.25865 219.63376 11.94973 219.06125 12.522238C 218.48874 13.094748 217.79767 13.381001 216.988 13.3810005C 216.17838 13.381001 215.48729 13.094748 214.91476 12.522238C 214.34227 11.94973 214.05602 11.25865 214.056 10.449C 214.05602 9.639351 214.34227 8.948272 214.91476 8.375763C 215.48729 7.8032546 216.17838 7.517 216.988 7.517C 217.79767 7.517 218.48874 7.8032546 219.06125 8.375763C 219.63376 8.948272 219.92001 9.639351 219.92001 10.449C 219.92001 10.48312 219.91942 10.517228 219.91821 10.551326" stroke="#263238" stroke-width="1" fill="#FFFFFF" fill-rule="nonzero" />
                    <path d="M229.13701 10.449C 229.13702 11.25865 228.85077 11.94973 228.27824 12.522238C 227.70575 13.094748 227.01466 13.381001 226.205 13.3810005C 225.39536 13.381001 224.70427 13.094748 224.13176 12.522238C 223.55925 11.94973 223.273 11.25865 223.273 10.449C 223.273 9.639351 223.55925 8.948272 224.13176 8.375763C 224.70427 7.8032546 225.39536 7.517 226.205 7.517C 227.01466 7.517 227.70575 7.8032546 228.27824 8.375763C 228.85077 8.948272 229.13702 9.639351 229.13701 10.449C 229.13702 10.48312 229.13641 10.517228 229.13522 10.551326" stroke="#263238" stroke-width="1" fill="#FFFFFF" fill-rule="nonzero" />
				</g>
			</g>
            <path d="M301.265 307.786C 279.61502 294.784 262.562 279.053 250.58102 261.032C 241.39803 247.21901 238.56302 236.97401 238.08803 235.06001L238.08803 235.06001L237.48802 232.64001L237.48802 140.56502L311.765 108.79501L386.04303 140.56502L386.04303 232.64102L385.44202 235.06003C 384.96802 236.97203 382.135 247.21503 372.949 261.03204C 360.96802 279.05304 343.915 294.78406 322.264 307.78604L322.264 307.78604L311.764 314.09204L301.265 307.78604L301.265 307.786z" stroke="#FFFFFF" stroke-width="1" stroke-linecap="square" fill="#CFCFCF" fill-rule="nonzero" />
            <path d="M306.516 299.045C 257.66998 269.71002 248.35799 234.10501 247.98499 232.604L247.98499 232.604L247.68498 231.395L247.68498 147.294L311.76498 119.88501L375.84598 147.294L375.84598 231.395L375.546 232.604C 375.17398 234.10501 365.861 269.709 317.01498 299.045L317.01498 299.045L311.76498 302.19803L306.516 299.045z" stroke="none" fill="#FFFFFF" fill-rule="nonzero" />
            <path d="M311.766 131.319L257.882 153.555L257.882 230.148C 257.882 230.148 265.986 262.809 311.766 290.30298C 357.546 262.809 365.65 230.14798 365.65 230.14798L365.65 230.14798L365.65 153.55498L311.766 131.31897L311.766 131.319z" stroke="none" fill="#66A310" fill-rule="nonzero" />
			<g transform="matrix(1 0 0 1 257.262 142.663)">
                <path transform="matrix(0.7071067 -0.7071068 0.7071068 0.7071067 -22.349724 53.957005)"  d="M92.111 53.957C 92.111 64.492935 88.38599 73.48592 80.93595 80.93595C 73.48592 88.38599 64.492935 92.111 53.957 92.111C 43.421066 92.111 34.42808 88.38599 26.97805 80.93595C 19.528019 73.48592 15.803001 64.492935 15.803001 53.957C 15.803001 43.421066 19.528019 34.42808 26.97805 26.97805C 34.42808 19.528019 43.421066 15.803001 53.957 15.803001C 64.492935 15.803001 73.48592 19.528019 80.93595 26.97805C 88.38599 34.42808 92.111 43.421066 92.111 53.957C 92.111 54.40099 92.10326 54.84484 92.08775 55.288555" stroke="none" fill="#FFFFFF" fill-rule="nonzero" />
                <path transform="matrix(0.24239598 -0.9701774 0.9701774 0.24239598 1.6907768 82.969185)"  d="M68.639 40.402C 68.639 44.452736 67.20685 47.91025 64.34255 50.77455C 61.478252 53.63885 58.020737 55.071 53.97 55.071C 49.91927 55.071 46.461754 53.63885 43.59745 50.77455C 40.733154 47.91025 39.301003 44.452736 39.301003 40.402C 39.301003 36.35127 40.733154 32.893753 43.59745 30.029451C 46.461754 27.165152 49.91927 25.733002 53.97 25.733002C 58.020737 25.733002 61.478252 27.165152 64.34255 30.029451C 67.20685 32.893753 68.639 36.35127 68.639 40.402C 68.639 40.5727 68.636024 40.743347 68.630066 40.91394" stroke="none" fill="#263238" fill-rule="nonzero" />
                <path d="M53.96 92.11C 64.15 92.11 73.4 88.106 80.244 81.598C 78.69601 68.451996 67.523 58.252 53.961002 58.252C 40.399002 58.252 29.226002 68.451996 27.678001 81.598C 34.522 88.106 43.77 92.11 53.96 92.11z" stroke="none" fill="#263238" fill-rule="nonzero" />
			</g>
            <path d="M322.265 307.786C 343.91602 294.784 360.96902 279.053 372.95 261.032C 382.13602 247.21501 384.96802 236.97202 385.44302 235.06001L385.44302 235.06001L386.04404 232.641L386.04404 140.565L311.76605 108.795L311.76605 314.09302L322.26505 307.786L322.265 307.786z" stroke="none" fill="#000000" fill-rule="nonzero" fill-opacity="0.1882353" />
		</g>
		<g>
            <path d="M221.576 351.069L221.576 326.252L227.73401 326.252C 229.225 326.252 230.41501 326.523 231.30301 327.06403C 232.19202 327.605 232.84001 328.38702 233.24901 329.40802C 233.65701 330.42902 233.86201 331.66403 233.86201 333.11502C 233.86201 334.42203 233.63202 335.55603 233.17302 336.515C 232.73875 337.4476 232.02742 338.22354 231.13602 338.737C 230.23701 339.257 229.11401 339.518 227.76602 339.518L227.76602 339.518L225.04002 339.518L225.04002 351.068L221.57602 351.068L221.57602 351.069L221.576 351.069zM225.039 337.037L226.632 337.037C 227.63301 337.037 228.419 336.925 228.991 336.69998C 229.563 336.47598 229.971 336.08298 230.217 335.521C 230.46199 334.96 230.58499 334.169 230.58499 333.147C 230.58499 331.962 230.49799 331.053 230.32399 330.42C 230.15 329.78702 229.788 329.34802 229.23698 329.10303C 228.68498 328.85703 227.82799 328.73502 226.66298 328.73502L226.66298 328.73502L225.03899 328.73502L225.03899 337.03702zM236.282 351.069L236.282 326.252L241.276 326.252C 242.93001 326.252 244.299 326.47202 245.382 326.911C 246.464 327.351 247.266 328.05502 247.787 329.02502C 248.308 329.99603 248.56801 331.26703 248.56801 332.83902C 248.56801 333.799 248.466 334.67203 248.26201 335.458C 248.05801 336.245 247.73001 336.909 247.28201 337.45C 246.83202 337.992 246.24 338.385 245.50502 338.629L245.50502 338.629L249.02802 351.068L245.68901 351.068L242.44202 339.426L239.74602 339.426L239.74602 351.068L236.28201 351.068L236.28201 351.069zM239.745 336.945L241.062 336.945C 242.04199 336.945 242.83899 336.82202 243.452 336.577C 244.04726 336.3485 244.53055 335.89783 244.8 335.32C 245.086 334.728 245.229 333.901 245.229 332.83902C 245.229 331.389 244.963 330.342 244.432 329.699C 243.901 329.055 242.84901 328.734 241.276 328.734L241.276 328.734L239.744 328.734L239.744 336.945L239.74501 336.945zM252.367 351.069L252.367 326.252L255.768 326.252L255.768 351.069zM264.1 351.069L258.555 326.252L261.802 326.252L265.724 344.54303L269.461 326.252L272.617 326.252L267.133 351.069zM273.046 351.069L278.31598 326.252L281.65598 326.252L286.95596 351.069L283.67795 351.069L282.54395 344.819L277.48895 344.819L276.29395 351.069L273.04596 351.069zM277.948 342.337L282.08398 342.337L280.00098 331.154L277.94797 342.337zM295.564 351.344C 293.807 351.344 292.444 350.977 291.474 350.241C 290.504 349.506 289.83 348.516 289.452 347.27C 289.074 346.024 288.886 344.636 288.886 343.104L288.886 343.104L288.886 334.342C 288.886 332.668 289.07498 331.20602 289.452 329.961C 289.83 328.715 290.504 327.75 291.474 327.066C 292.444 326.38202 293.807 326.04 295.564 326.04C 297.116 326.04 298.347 326.32602 299.25598 326.898C 300.16498 327.47 300.818 328.28802 301.21698 329.349C 301.61597 330.411 301.81497 331.688 301.81497 333.179L301.81497 333.179L301.81497 335.13998L298.53598 335.13998L298.53598 333.39297C 298.53598 332.47397 298.49 331.66296 298.39798 330.95697C 298.30597 330.25296 298.05597 329.70596 297.64697 329.31796C 297.23798 328.92996 296.554 328.73596 295.59497 328.73596C 294.61496 328.73596 293.89896 328.94498 293.44998 329.36395C 292.99997 329.78296 292.70898 330.37494 292.577 331.14096C 292.444 331.90695 292.378 332.80096 292.378 333.82196L292.378 333.82196L292.378 343.65695C 292.378 344.90295 292.47998 345.88895 292.684 346.61395C 292.888 347.33896 293.22498 347.85394 293.69498 348.16095C 294.16498 348.46695 294.79797 348.62094 295.59497 348.62094C 296.53397 348.62094 297.20798 348.41193 297.61697 347.99295C 298.02496 347.57495 298.28098 346.99796 298.38297 346.26294C 298.48495 345.52795 298.53598 344.66895 298.53598 343.68893L298.53598 343.68893L298.53598 341.85092L301.81497 341.85092L301.81497 343.68893C 301.81497 345.20093 301.62997 346.53394 301.26196 347.68692C 300.89597 348.84192 300.26096 349.73993 299.36298 350.3839C 298.464 351.02292 297.19797 351.3439 295.56396 351.3439zM308.922 351.069L308.922 342.307L303.561 326.253L306.777 326.253L310.57602 338.232L314.31302 326.253L317.561 326.253L312.23 342.307L312.23 351.069zM326.875 351.069L326.875 326.252L333.033 326.252C 334.524 326.252 335.714 326.523 336.603 327.06403C 337.492 327.605 338.139 328.38702 338.548 329.40802C 338.956 330.42902 339.161 331.66403 339.161 333.11502C 339.161 334.42203 338.931 335.55603 338.471 336.515C 338.03677 337.44757 337.32544 338.2235 336.43402 338.737C 335.53503 339.257 334.41202 339.518 333.06403 339.518L333.06403 339.518L330.33704 339.518L330.33704 351.068L326.87503 351.068L326.87503 351.069zM330.336 337.037L331.93 337.037C 332.93 337.037 333.71698 336.925 334.289 336.69998C 334.84308 336.49335 335.2869 336.06656 335.515 335.521C 335.76 334.96 335.88303 334.169 335.88303 333.147C 335.88303 331.962 335.795 331.053 335.62204 330.42C 335.44904 329.78702 335.08603 329.34802 334.53403 329.10303C 333.98303 328.85703 333.12503 328.73502 331.96103 328.73502L331.96103 328.73502L330.33603 328.73502L330.33603 337.03702zM347.922 351.344C 346.247 351.344 344.909 351.018 343.909 350.36398C 342.908 349.71 342.193 348.77597 341.764 347.56C 341.33502 346.345 341.12 344.91998 341.12 343.287L341.12 343.287L341.12 333.88098C 341.12 332.248 341.339 330.843 341.779 329.66898C 342.218 328.494 342.93298 327.59598 343.92398 326.97296C 344.91397 326.34998 346.24597 326.03796 347.92197 326.03796C 349.59598 326.03796 350.92398 326.35397 351.90497 326.98798C 352.88498 327.62097 353.59497 328.51898 354.03397 329.684C 354.47296 330.848 354.69196 332.248 354.69196 333.88098L354.69196 333.88098L354.69196 343.317C 354.69196 344.93198 354.47296 346.34 354.03397 347.54498C 353.59396 348.75098 352.88498 349.685 351.90497 350.34897C 350.92398 351.01297 349.59598 351.34396 347.92197 351.34396zM347.922 348.61798C 348.841 348.61798 349.535 348.429 350.005 348.051C 350.475 347.673 350.79102 347.143 350.95502 346.458C 351.118 345.77402 351.2 344.971 351.2 344.052L351.2 344.052L351.2 333.177C 351.2 332.258 351.118 331.466 350.95502 330.802C 350.79102 330.138 350.475 329.628 350.005 329.27C 349.535 328.914 348.841 328.73398 347.922 328.73398C 347.003 328.73398 346.303 328.91397 345.823 329.27C 345.343 329.628 345.022 330.138 344.858 330.802C 344.695 331.466 344.613 332.258 344.613 333.177L344.613 333.177L344.613 344.052C 344.613 344.971 344.695 345.773 344.858 346.458C 345.022 347.142 345.343 347.673 345.823 348.051C 346.303 348.429 347.003 348.61798 347.922 348.61798zM358.093 351.069L358.093 326.252L361.555 326.252L361.555 348.587L367.897 348.587L367.897 351.069zM370.44 351.069L370.44 326.252L373.84 326.252L373.84 351.069zM384.073 351.344C 382.316 351.344 380.953 350.977 379.983 350.241C 379.013 349.506 378.339 348.516 377.961 347.27C 377.583 346.024 377.394 344.636 377.394 343.104L377.394 343.104L377.394 334.342C 377.394 332.668 377.583 331.20602 377.961 329.961C 378.339 328.715 379.013 327.75 379.983 327.066C 380.953 326.38202 382.316 326.04 384.073 326.04C 385.625 326.04 386.856 326.32602 387.76498 326.898C 388.67297 327.47 389.327 328.28802 389.72598 329.349C 390.124 330.411 390.32297 331.688 390.32297 333.179L390.32297 333.179L390.32297 335.13998L387.04398 335.13998L387.04398 333.39297C 387.04398 332.47397 386.99896 331.66296 386.90598 330.95697C 386.81396 330.25296 386.56396 329.70596 386.15497 329.31796C 385.74597 328.92996 385.06296 328.73596 384.10297 328.73596C 383.12198 328.73596 382.40695 328.94498 381.95798 329.36395C 381.50797 329.78296 381.21698 330.37494 381.085 331.14096C 380.952 331.90695 380.886 332.80096 380.886 333.82196L380.886 333.82196L380.886 343.65695C 380.886 344.90295 380.98798 345.88895 381.192 346.61395C 381.396 347.33896 381.73297 347.85394 382.20297 348.16095C 382.67297 348.46695 383.30597 348.62094 384.10297 348.62094C 385.04196 348.62094 385.71597 348.41193 386.12497 347.99295C 386.53397 347.57495 386.78897 346.99796 386.89096 346.26294C 386.99295 345.52795 387.04398 344.66895 387.04398 343.68893L387.04398 343.68893L387.04398 341.85092L390.32297 341.85092L390.32297 343.68893C 390.32297 345.20093 390.13898 346.53394 389.77097 347.68692C 389.40396 348.84192 388.76996 349.73993 387.87198 350.3839C 386.973 351.02292 385.70697 351.3439 384.07297 351.3439zM397.431 351.069L397.431 342.307L392.07 326.253L395.286 326.253L399.08502 338.232L402.82303 326.253L406.071 326.253L400.74002 342.307L400.74002 351.069z" stroke="none" fill="#263238" fill-rule="nonzero" />
		</g>
		<g>
            <path d="M169.815 336.282C 169.815 336.282 168.574 354.89203 171.26201 364.195C 173.95001 373.499 190.904 417.747 190.904 417.747C 190.904 417.747 191.317 425.604 190.697 426.431C 190.07701 427.258 187.182 431.807 183.25401 433.668C 179.32602 435.529 171.05501 440.284 172.91602 440.905C 174.77701 441.525 191.31802 439.665 193.17902 440.492C 195.04001 441.319 203.31001 438.012 205.37802 437.184C 207.44601 436.357 205.37802 431.188 205.37802 431.188C 205.37802 431.188 201.03603 416.508 199.17502 405.136C 197.31403 393.76398 194.42001 378.05 192.76501 370.193C 191.11101 362.336 188.01001 356.133 188.01001 356.133L188.01001 356.133L190.078 336.697L169.815 336.28198L169.815 336.282z" stroke="#263238" stroke-width="1" fill="#FFFFFF" fill-rule="nonzero" />
            <path d="M185.942 436.355L183.813 433.375C 183.62993 433.47842 183.44348 433.57584 183.254 433.667C 179.326 435.52798 171.055 440.283 172.916 440.904C 174.777 441.524 191.318 439.664 193.179 440.491C 195.04 441.318 203.31 438.011 205.378 437.18298C 207.446 436.356 205.378 431.18698 205.378 431.18698C 205.378 431.18698 205.17201 430.49 204.83101 429.28397C 202.287 430.47897 199.132 432.16898 196.90102 434.08197C 192.55801 437.80197 185.94202 436.35498 185.94202 436.35498L185.94202 436.35498L185.942 436.355z" stroke="#263238" stroke-width="1" fill="#263238" fill-rule="nonzero" />
		</g>
		<g>
            <path d="M182.946 337.73C 182.946 337.73 184.6 356.751 187.081 363.368C 189.56099 369.984 189.56099 415.05902 189.56099 418.78C 189.56099 422.50198 183.566 428.498 183.566 428.498C 183.566 428.498 173.228 436.14798 170.333 436.97498C 167.43799 437.80197 165.163 438.83597 166.611 440.076C 168.058 441.317 182.325 441.317 187.28699 441.317C 192.249 441.317 198.65898 441.524 199.27899 440.49C 199.89899 439.456 200.31299 436.35498 200.31299 436.35498C 200.31299 436.35498 199.07199 424.77597 199.486 419.607C 199.89899 414.438 207.34299 383.01 206.72299 372.465C 206.103 361.91998 203.208 352.616 203.00099 351.789C 202.79399 350.962 204.448 336.695 204.448 336.695L204.448 336.695L182.946 337.729L182.946 337.73z" stroke="#263238" stroke-width="1" fill="#FFFFFF" fill-rule="nonzero" />
            <path d="M200.314 436.355C 200.314 436.355 200.261 435.855 200.18 435.026C 190.88599 435.746 178.81 436.356 178.81 436.356L178.81 436.356L177.409 432.852C 174.632 434.732 171.679 436.59198 170.333 436.97498C 167.43799 437.80197 165.163 438.83597 166.611 440.076C 168.058 441.317 182.325 441.317 187.28699 441.317C 192.249 441.317 198.65898 441.524 199.27899 440.49C 199.89899 439.456 200.314 436.35498 200.314 436.35498L200.314 436.35498L200.314 436.355z" stroke="#263238" stroke-width="1" fill="#263238" fill-rule="nonzero" />
		</g>
        <path d="M162.506 286.73C 162.506 286.73 161.056 301.638 161.678 308.265C 162.299 314.89203 164.032 347.74002 164.032 347.74002C 164.032 347.74002 175.759 354.95602 186.31999 355.57703C 196.881 356.19803 212.82599 350.60703 212.82599 350.60703C 212.82599 350.60703 216.346 311.57803 214.275 301.22403C 212.204 290.87003 211.16899 285.90002 211.16899 285.90002C 211.16899 285.90002 183.21399 284.45102 175.96599 282.58704C 168.71799 280.72302 167.01 279.66803 167.01 279.66803L167.01 279.66803L164.624 279.39404L162.506 286.72903L162.506 286.73z" stroke="#263238" stroke-width="1" stroke-linecap="square" fill="#263238" fill-rule="nonzero" />
        <path d="M166.855 282.866C 166.855 282.866 177.623 288.043 193.568 285.972L193.568 285.972L192.53299 255.73898L199.57399 209.97498L188.185 209.56097L175.346 214.11697L167.68399 272.09897L166.855 282.86597L166.855 282.866z" stroke="#263238" stroke-width="1" stroke-linecap="square" fill="#FFFFFF" fill-rule="nonzero" />
        <path d="M177.108 205.067C 177.108 205.067 174.342 217.597 174.83 219.223C 175.31801 220.85 180.362 229.47401 183.779 228.82301C 187.19601 228.17302 194.518 216.294 195.494 214.016C 196.47 211.738 194.518 207.83301 194.355 207.01901C 194.192 206.20601 192.23999 197.74501 192.23999 197.74501C 192.23999 197.74501 184.43 204.41602 177.10799 205.06702L177.10799 205.06702L177.108 205.067z" stroke="#263238" stroke-width="1" stroke-linecap="square" fill="#FFFFFF" fill-rule="nonzero" />
		<g>
            <path d="M178.072 212.65C 178.072 212.65 175.086 237.096 174.90001 246.61299C 174.71301 256.13 169.302 299.798 169.302 299.798C 169.302 299.798 168.55501 301.104 163.703 299.611C 158.851 298.11798 156.425 294.759 156.425 294.759C 156.425 294.759 164.823 263.409 165.009 261.915C 165.196 260.422 163.516 245.86601 163.516 245.86601L163.516 245.86601L146.72101 260.422C 146.72101 260.422 147.09401 252.584 148.587 250.905C 150.08 249.225 161.27701 228.325 162.21 226.272C 163.143 224.21901 162.02301 218.062 165.382 216.195C 168.741 214.328 178.072 212.649 178.072 212.649L178.072 212.649L178.072 212.65z" stroke="#263238" stroke-width="1" fill="#66A310" fill-rule="nonzero" />
            <path d="M161.777 280.235L168.879 282.602L168.616 284.443L162.303 282.865" stroke="#263238" stroke-width="1" fill="none" />
            <path d="M173.966 257.25C 173.966 257.25 170.98001 228.325 171.353 221.793" stroke="#263238" stroke-width="1" fill="#FFFFFF" fill-rule="nonzero" />
		</g>
		<g>
            <path d="M195.241 211.156C 195.241 211.156 184.97699 246.24 184.97699 254.264C 184.97699 262.289 187.02899 301.54102 187.02899 301.54102C 187.02899 301.54102 196.323 304.315 203.601 303.38202C 210.879 302.449 220.621 298.30502 220.621 298.30502L220.621 298.30502L210.73 268.82C 210.73 268.82 226.40599 231.12401 226.40599 228.51102C 226.40599 225.89801 228.45898 221.04602 226.40599 219.74101C 224.353 218.434 206.62498 212.462 204.19899 211.34201C 201.77199 210.223 198.22598 208.54301 195.241 211.156z" stroke="#263238" stroke-width="1" fill="#66A310" fill-rule="nonzero" />
            <path d="M210.702 283.654L193.568 285.972L194.657 288.38898L204.38899 287.33698" stroke="#263238" stroke-width="1" fill="none" />
            <path d="M205.012 211.68C 204.73796 211.57399 204.46652 211.46127 204.198 211.342C 201.772 210.222 198.226 208.543 195.241 211.155C 195.241 211.155 184.97699 246.239 184.97699 254.263C 184.97699 255.601 185.092 257.798 185.28198 260.525C 186.12299 257.721 188.01797 253.333 191.50899 244.372C 196.04498 232.72899 202.66399 217.165 205.012 211.68z" stroke="#263238" stroke-width="1" fill="#66A310" fill-rule="nonzero" />
		</g>
        <path d="M168.934 163.816C 168.934 163.816 158.723 170.623 158.10501 175.57399C 157.48601 180.525 157.95001 183.46399 157.95001 188.26C 157.95001 193.056 155.32 208.062 157.79501 213.63199C 160.27002 219.20198 163.82901 224.152 168.779 225.54399C 173.73001 226.93599 176.824 225.69899 178.061 224.461C 179.29901 223.22299 180.227 220.903 180.227 220.903C 180.227 220.903 177.597 221.213 177.597 218.118C 177.597 215.024 180.536 205.588 180.536 205.588C 180.536 205.588 173.884 202.183 172.646 198.935C 171.40799 195.686 167.69499 178.515 168.00499 177.121C 168.314 175.729 173.88399 172.634 174.038 168.767C 174.194 164.899 171.719 162.578 168.93399 163.817L168.93399 163.817L168.934 163.816z" stroke="#263238" stroke-width="1" stroke-linecap="square" fill="#263238" fill-rule="nonzero" />
        <path d="M168.006 170.623C 168.006 170.623 165.37599 176.347 166.149 180.988C 166.922 185.62901 168.47 193.67401 169.243 196.923C 170.01599 200.172 174.039 203.73001 176.05 205.587C 178.061 207.44301 181.619 210.074 184.24901 209.455C 186.87901 208.836 190.74701 202.493 190.74701 202.493C 190.74701 202.493 193.841 198.935 194.615 195.841C 195.388 192.74701 192.75801 187.332 191.057 181.608C 189.35501 175.884 185.17801 170.779 178.216 169.077C 171.255 167.374 169.089 169.54 168.006 170.623z" stroke="#263238" stroke-width="1" stroke-linecap="square" fill="#FFFFFF" fill-rule="nonzero" />
        <path d="M173.885 187.022C 173.885 187.022 176.051 190.58 175.896 191.66301C 175.741 192.746 174.65799 197.38701 175.277 197.697C 175.896 198.00601 178.062 197.542 178.062 197.542M178.062 200.79C 178.062 200.79 181.31099 201.099 184.096 197.541M172.802 186.867C 172.802 186.867 170.172 185.78401 168.934 187.95M177.134 186.248C 177.134 186.248 177.598 184.082 181.466 185.16501" stroke="#263238" stroke-width="1" stroke-linecap="square" fill="none" />
        <path d="M181.415 189.194C 181.693 190.002 181.52599 190.792 181.041 190.959C 180.556 191.126 179.938 190.607 179.659 189.799C 179.381 188.991 179.548 188.20099 180.03299 188.034C 180.51799 187.86699 181.137 188.387 181.415 189.194zM173.112 190.735C 173.39 191.543 173.22299 192.33301 172.738 192.5C 172.253 192.667 171.63501 192.147 171.356 191.34C 171.078 190.532 171.24501 189.74199 171.73 189.575C 172.215 189.407 172.833 189.927 173.112 190.735z" stroke="none" fill="#263238" fill-rule="nonzero" />
        <path d="M166.304 169.694C 166.304 169.694 172.492 178.66699 178.68001 182.689C 184.86801 186.711 190.90201 187.64 191.05602 191.353C 191.21101 195.066 188.27101 203.42 190.59201 209.454C 192.91301 215.48799 197.244 217.65399 203.27802 216.416C 209.31201 215.178 212.09601 209.609 212.09601 209.609C 212.09601 209.609 208.692 211.93 207.61002 209.29999C 206.52702 206.66998 204.05202 202.80199 207.14601 196.45999C 210.24 190.116 212.09702 187.17699 206.37201 176.657C 200.64801 166.137 193.841 160.103 188.42601 157.78299C 183.01302 155.46098 166.15001 159.174 166.30402 169.69398L166.30402 169.69398L166.304 169.694z" stroke="#263238" stroke-width="1" stroke-linecap="square" fill="#263238" fill-rule="nonzero" />
        <path d="M164.04 256.12L163.31699 248.89L160.56999 251.637L164.04 256.12z" stroke="#263238" stroke-width="1" stroke-linecap="square" fill="#FFFFFF" fill-rule="nonzero" />
        <path d="M156.193 238.258L159.155 242.278L156.828 245.875C 156.828 245.875 156.511 246.298 158.097 248.837C 159.684 251.377 161.905 253.597 161.905 253.597C 161.905 253.597 166.967 242.947 167.345 241.025C 167.723 239.105 158.884 227.846 158.884 227.846C 158.884 227.846 155.875 233.709 156.19301 238.258L156.19301 238.258L156.193 238.258z" stroke="#263238" stroke-width="1" stroke-linecap="square" fill="#FFFFFF" fill-rule="nonzero" />
        <path d="M147.712 217.907L162.666 235.681L172.586 236.323L158.403 217.523L147.712 217.907z" stroke="#263238" stroke-width="1" stroke-linecap="square" fill="#FFFFFF" fill-rule="nonzero" />
		<g>
            <path d="M155.383 228.01C 155.383 228.01 153.513 229.15999 153.94499 230.166C 154.377 231.173 157.54099 233.474 159.842 233.762C 162.14299 234.04999 161.008 232.655 161.00099 231.91399C 160.99199 231.17398 155.383 228.00899 155.383 228.00899L155.383 228.00899L155.383 228.01z" stroke="#263238" stroke-width="1" fill="#FFFFFF" fill-rule="nonzero" />
            <path d="M154.663 231.317C 154.663 231.317 153.22499 232.899 153.65599 234.05C 154.08699 235.201 159.553 236.783 160.56 236.927C 161.567 237.071 162.718 235.77701 161.27899 234.769C 159.842 233.762 154.663 231.317 154.663 231.317z" stroke="#263238" stroke-width="1" fill="#FFFFFF" fill-rule="nonzero" />
            <path d="M154.807 235.488C 154.807 235.488 154.375 237.50201 155.382 238.22101C 156.389 238.94101 161.052 238.404 161.813 238.09702C 162.574 237.79001 160.56 236.92702 160.56 236.92702L160.56 236.92702L154.80699 235.48802L154.807 235.488z" stroke="#263238" stroke-width="1" fill="#FFFFFF" fill-rule="nonzero" />
		</g>
		<g>
            <path d="M185.244 244.768L179.712 239.561C 179.712 239.561 177.92201 233.541 177.10901 231.751C 176.29501 229.96101 175.645 229.473 173.692 227.68301C 171.74 225.89302 170.438 226.70702 170.112 227.84601L170.112 227.84601L169.786 228.98601C 169.786 228.98601 160.349 228.49701 158.884 227.84601C 157.42 227.19601 155.792 225.731 154.979 226.707C 154.16501 227.683 155.304 228.985 156.606 229.799C 157.908 230.61299 159.698 231.58899 160.99901 231.914C 161.97078 232.1506 162.94748 232.36769 163.92801 232.565L163.92801 232.565L157.09401 231.589C 157.09401 231.589 156.76901 232.403 157.58202 233.216L157.58202 233.216L159.69702 235.33101C 159.69702 235.33101 160.34702 236.63301 161.81203 238.09702C 162.46103 238.74701 163.62103 239.39502 164.71202 239.91702C 166.08202 240.57202 167.34402 241.02702 167.34402 241.02702C 167.34402 241.02702 165.22902 241.02702 163.60202 240.70102C 161.97502 240.37602 160.51003 239.56201 160.67203 240.70102C 160.83603 241.84102 161.97502 242.32802 163.76503 242.65302C 165.55502 242.97902 173.20203 243.95502 173.85303 244.11702C 174.50302 244.28001 182.96503 252.09003 182.96503 252.09003L182.96503 252.09003L185.24403 244.76802L185.244 244.768z" stroke="#263238" stroke-width="1" fill="#FFFFFF" fill-rule="nonzero" />
            <path d="M169.786 228.985C 169.786 228.985 173.04 229.961 174.179 230.938" stroke="#263238" stroke-width="1" fill="#FFFFFF" fill-rule="nonzero" />
            <path d="M163.93 232.565L168.15999 233.541zM159.698 235.331C 159.698 235.331 165.067 237.12099 167.833 237.77199" stroke="#263238" stroke-width="1" fill="none" />
		</g>
        <path d="M227.298 221.938C 227.17 222.838 225.757 235.552 222.032 248.395C 218.30699 261.238 216.381 272.797 215.61 273.696C 214.839 274.596 206.491 271.384 199.684 267.27402C 192.877 263.16403 179.13501 253.27502 179.13501 253.27502L179.13501 253.27502L184.91402 242.23003L205.33502 254.43103C 205.33502 254.43103 205.97702 253.01804 206.87602 252.76103C 207.77502 252.50403 208.41702 252.11903 208.41702 252.11903L208.41702 252.11903L210.34302 227.46004L227.298 221.938zM156.828 245.875L164.04001 256.119C 164.04001 256.119 161.871 262.76898 159.703 265.37198C 157.534 267.97397 150.45 269.132 148.13701 266.38397C 145.824 263.63696 146.40201 259.44397 147.703 257.13098C 149.005 254.81798 156.828 245.87498 156.828 245.87498z" stroke="#263238" stroke-width="1" stroke-linecap="square" fill="#66A310" fill-rule="nonzero" />
        <path d="M0 441.334L446.935 441.334" stroke="#263238" stroke-width="1" fill="none" />
	</g>
</g>
</svg>