<svg xmlns="http://www.w3.org/2000/svg" xmlns:xlink="http://www.w3.org/1999/xlink" width="466" height="456" xmlns:v="https://vecta.io/nano"><style><![CDATA[.B{stroke:#263238}.C{stroke-linejoin:round}.D{fill:#fff}.E{fill-rule:nonzero}.F{fill:#263238}.G{stroke-linecap:round}.H{fill:#66a310}]]></style><g fill="none" fill-rule="evenodd"><g class="E"><use xlink:href="#B" fill="#000"/><use xlink:href="#B" opacity=".7" class="D"/></g><g class="B"><path d="M32.077 231.119v14.51"/><path d="M39.333 238.374H24.822M362.107 360.66v8.946"/><path d="M366.58 365.133h-8.946m51.747-307.3v8.946"/><path d="M413.854 62.306h-8.946M289.1 423.104v8.946"/><path d="M293.573 427.577h-8.946m119.076-24.421v21.716"/><path d="M414.561 414.014h-21.716M71.815 90.73v21.716"/><path d="M82.673 101.588H60.957m-24.001 60.945a3.92 3.92 0 0 1-3.918 3.918 3.92 3.92 0 0 1-3.919-3.918 3.92 3.92 0 0 1 3.919-3.919 3.92 3.92 0 0 1 3.918 3.919z"/><use xlink:href="#C"/><use xlink:href="#C" x="-98.755" y="18.639"/><circle transform="matrix(.406807 -.913514 .913514 .406807 -76.645789 142.813171)" cx="14.701" cy="120.62" r="8.683"/><circle cx="436.412" cy="246.345" r="8.683"/><circle transform="matrix(.228912 -.973447 .973447 .228912 117.381281 197.114661)" cx="134.196" cy="11.216" r="8.683"/><path d="M150.118 116.666c-53.694 0-97.372 42.769-97.372 95.33v53.471h27.752v-53.471c0-37.579 31.23-68.158 69.621-68.158 38.382 0 69.612 30.579 69.612 68.158v53.471h27.752v-53.471c-.002-52.561-43.68-95.33-97.365-95.33z"/><path d="M255.035 410.985V265.467H119.024m-9.22 0H42.437v175.866h212.598v-19.811m-96.347-63.079l3.888 39.942h-29.758l3.888-39.942c-7.241-3.826-12.155-11.326-12.155-19.94 0-12.52 10.362-22.66 23.141-22.66 12.788 0 23.15 10.139 23.15 22.66.001 8.614-4.922 16.114-12.154 19.94z"/><use xlink:href="#D"/><use xlink:href="#D"/></g><g class="E"><g class="F"><path d="M382.651 23.018c-4.249-.802-9.808 4.667-11.652 8.058-.159.293-2.126 5.163-2.048 5.169.006 0 7.576.568 10.745-.623 2.699-1.016 5.855-3.058 6.721-5.986.848-2.866-.705-6.04-3.766-6.618z"/><path d="M313.593 94.456l1.032 7.229.612 3.031.706 2.903 1.616 5.606.838 2.67-1.947-3.813c-2.126-3.222-8.131-8.198-12.296-7.037-3.001.836-4.279 4.132-3.19 6.914 1.112 2.843 4.432 4.61 7.207 5.392 3.061.861 9.777-.141 10.598-.268l1.424 4.325h2.685l-1.62-4.522c.752-.318 6.561-2.822 8.896-5.1 2.463 1.55 5.265 2.858 5.759 3.085l-1.707 6.361-.044.176h2.634l1.299-5.328c.832.155 7.501 1.353 10.582.585 2.798-.698 6.168-2.365 7.364-5.173 1.172-2.749-.005-6.081-2.98-7.007-4.129-1.285-10.28 3.508-12.501 6.665-.143.202-1.556 2.781-2.249 4.112l.96-3.632c.481-1.79 1.048-3.667 1.588-5.488l.952-2.832c.302-.969.71-1.854 1.065-2.799.55-1.372 1.186-2.759 1.819-4.145 1.793.6 7.087 2.27 9.868 2.012 2.872-.266 6.455-1.403 8.064-3.998 1.574-2.54.915-6.012-1.885-7.378-3.886-1.896-10.692 1.911-13.367 4.694-.087.091-.591.737-1.182 1.511l2.023-3.998c2.02-3.773 4.194-7.553 6.356-11.351l1.337-2.381c1.507.512 7.225 2.373 10.139 2.102 2.871-.266 6.456-1.403 8.063-3.998 1.574-2.54.916-6.012-1.885-7.377-3.885-1.896-10.691 1.91-13.367 4.694-.095.1-.696.874-1.36 1.745 1.145-2.079 2.262-4.167 3.304-6.273 1.829-3.68 3.43-7.406 4.696-11.136.529.187 7.19 2.502 10.429 2.201 2.871-.266 6.454-1.403 8.063-3.997 1.575-2.54.915-6.012-1.884-7.378-3.886-1.895-10.692 1.911-13.367 4.695-.19.198-2.342 3.014-3.077 4.045.015-.044.036-.089.051-.133 1.293-3.929 2.042-7.839 2.573-11.581.534-3.733.72-7.294.806-10.574.095-3.282-.021-6.289-.145-8.95-.078-1.44-.176-2.757-.282-3.983l.072.056c.063.047 1.776-4.919 1.849-5.244.833-3.77.228-11.545-3.504-13.728-2.688-1.572-5.943-.196-7.185 2.523-1.267 2.776-.227 6.389 1.143 8.926 1.404 2.6 6.214 6.386 7.418 7.311a125.65 125.65 0 0 1 .209 4.152c.066 2.657.116 5.658-.049 8.923-.042.87-.123 1.804-.184 2.711l-.591-3.876c-.997-3.729-5.117-10.351-9.435-10.568-3.111-.157-5.365 2.564-5.214 5.549.154 3.048 2.742 5.775 5.129 7.396 2.489 1.691 8.654 2.842 10.005 3.079-.167 2.006-.385 4.063-.738 6.195-.6 3.67-1.432 7.549-2.786 11.379-.075.213-.179.424-.257.636.027-.783-.134-5.096-.179-5.396-.581-3.817-3.949-10.85-8.217-11.541-3.076-.498-5.615 1.959-5.792 4.942-.181 3.047 2.092 6.042 4.285 7.915 2.528 2.158 9.579 4.153 9.845 4.228-1.314 3.569-2.934 7.134-4.784 10.663-1.338 2.56-2.797 5.097-4.285 7.628a116.24 116.24 0 0 0-.184-5.317c-.582-3.817-3.949-10.85-8.218-11.541-3.075-.498-5.615 1.959-5.792 4.942-.181 3.047 2.092 6.042 4.285 7.914 2.467 2.107 9.215 4.049 9.785 4.211l-2.034 3.446-6.626 11.252c-.735 1.303-1.411 2.616-2.095 3.926-.031-1.532-.14-4.317-.176-4.555-.582-3.817-3.95-10.851-8.218-11.541-3.075-.498-5.614 1.96-5.792 4.943-.181 3.046 2.092 6.042 4.285 7.914 2.203 1.882 7.841 3.637 9.437 4.109-1.12 2.189-2.184 4.387-3.127 6.599-.387.963-.843 1.921-1.161 2.866l-1.013 2.81-1.744 5.568-.774 2.69c.201-1.556.48-4.027.48-4.255.004-3.86-2.259-11.323-6.373-12.652-2.965-.958-5.848 1.086-6.475 4.008-.08.372-.121.748-.13 1.126-1.964 2.833-3.091 6.949-3.166 9.513-.007.247.237 3.176.393 4.669l-1.203-3.558c-.586-1.758-1.147-3.637-1.703-5.453l-.767-2.886c-.281-.976-.43-1.938-.656-2.923-.298-1.448-.533-2.955-.77-4.461 1.827-.488 7.164-2.017 9.34-3.766 2.248-1.806 4.611-4.732 4.521-7.782-.088-2.988-2.554-5.52-5.643-5.115-4.286.563-7.862 7.492-8.558 11.29-.022.123-.086.941-.152 1.911l-.519-4.45c-.398-4.261-.669-8.613-.96-12.974l-.198-2.724c1.539-.404 7.335-2.008 9.616-3.84 2.248-1.806 4.61-4.731 4.52-7.783-.088-2.987-2.553-5.52-5.642-5.114-4.288.563-7.863 7.491-8.559 11.29-.025.135-.099 1.112-.172 2.206-.192-2.367-.412-4.724-.704-7.056-.506-4.078-1.224-8.069-2.227-11.878.544-.138 7.377-1.881 9.912-3.918 2.249-1.806 4.61-4.731 4.521-7.782-.088-2.988-2.554-5.519-5.642-5.115-4.288.563-7.864 7.493-8.559 11.29-.05.269-.291 3.805-.334 5.071-.013-.045-.019-.094-.032-.139-1.089-3.99-2.621-7.665-4.243-11.079-1.614-3.408-3.424-6.481-5.162-9.264-1.731-2.79-3.487-5.234-5.058-7.385-.86-1.158-1.668-2.202-2.433-3.167l.092.006c.079.005-1.232-5.082-1.351-5.393-1.384-3.604-6.178-9.755-10.495-9.517-3.11.171-5.066 3.114-4.602 6.067.474 3.015 3.337 5.455 5.879 6.815 2.605 1.393 8.706 1.899 10.22 2.004a128.05 128.05 0 0 1 2.464 3.348c1.521 2.18 3.218 4.655 4.882 7.47.445.748.893 1.572 1.342 2.362l-2.63-2.906c-2.89-2.561-9.978-5.811-13.7-3.61-2.681 1.585-3.061 5.099-1.288 7.505 1.81 2.457 5.474 3.304 8.357 3.34 3.009.037 8.785-2.404 10.044-2.952.967 1.766 1.92 3.602 2.802 5.575 1.524 3.392 2.97 7.086 3.953 11.027.055.219.085.453.138.673a110.52 110.52 0 0 0-3.127-4.402c-2.591-2.863-9.279-6.871-13.221-5.093-2.84 1.282-3.603 4.732-2.105 7.318 1.53 2.641 5.078 3.885 7.94 4.237 3.298.405 10.281-1.821 10.543-1.905.873 3.702 1.489 7.569 1.892 11.533.297 2.873.479 5.793.635 8.727-.554-.858-2.892-4.118-3.087-4.334-2.59-2.863-9.279-6.871-13.22-5.092-2.84 1.281-3.603 4.732-2.105 7.317 1.529 2.642 5.078 3.886 7.94 4.237 3.221.396 9.92-1.706 10.484-1.886l.205 3.997.68 13.04c.106 1.493.266 2.96.419 4.43-.87-1.26-2.497-3.524-2.659-3.701-2.591-2.863-9.279-6.872-13.221-5.093-2.839 1.282-3.603 4.732-2.104 7.318 1.53 2.642 5.077 3.885 7.94 4.237 2.872.361 8.544-1.286 10.135-1.772z"/><path d="M302.95 33.278c.005-.003 6.632-3.706 8.618-6.448 1.692-2.335 3.197-5.781 2.304-8.699-.873-2.858-3.92-4.65-6.791-3.443-3.986 1.675-5.606 9.303-5.275 13.15.029.331 1.075 5.479 1.144 5.44zM119.259 338.801c-4.428-.836-10.221 4.863-12.143 8.398-.166.305-2.216 5.38-2.134 5.387.006.001 7.895.592 11.198-.65 2.813-1.058 6.102-3.187 7.004-6.238.882-2.986-.736-6.295-3.925-6.897z"/><path d="M47.293 413.247l1.076 7.534.638 3.158.736 3.025 1.685 5.842.874 2.783-2.029-3.974c-2.216-3.358-8.473-8.543-12.813-7.333-3.128.872-4.459 4.306-3.324 7.205 1.159 2.963 4.618 4.804 7.511 5.619 3.189.897 10.188-.147 11.044-.28l1.484 4.508h2.798l-1.688-4.712c.783-.331 6.837-2.941 9.271-5.315 2.566 1.616 5.487 2.979 6.002 3.215l-1.779 6.629-.046.183h2.745l1.354-5.552c.867.162 7.817 1.41 11.027.61 2.915-.727 6.427-2.465 7.674-5.391 1.221-2.865-.006-6.337-3.105-7.302-4.302-1.339-10.712 3.656-13.028 6.946-.149.211-1.621 2.898-2.343 4.285l1-3.785c.501-1.865 1.093-3.821 1.655-5.719l.992-2.951c.315-1.01.74-1.932 1.11-2.917.573-1.429 1.236-2.875 1.895-4.319 1.869.626 7.385 2.365 10.283 2.096 2.992-.277 6.727-1.462 8.403-4.166 1.641-2.647.954-6.265-1.964-7.688-4.05-1.976-11.142 1.991-13.929 4.892-.091.095-.616.768-1.232 1.575l2.108-4.167c2.104-3.932 4.37-7.871 6.624-11.829l1.393-2.481c1.571.534 7.53 2.473 10.566 2.191 2.992-.277 6.728-1.462 8.403-4.166 1.641-2.647.954-6.265-1.964-7.688-4.049-1.976-11.141 1.99-13.93 4.892-.099.104-.725.911-1.417 1.819 1.193-2.167 2.357-4.343 3.443-6.537 1.906-3.835 3.575-7.717 4.894-11.605.552.195 7.493 2.607 10.868 2.294 2.992-.278 6.726-1.462 8.402-4.166 1.641-2.647.953-6.265-1.964-7.689-4.05-1.975-11.142 1.991-13.93 4.892-.198.206-2.441 3.14-3.207 4.216.016-.046.038-.092.053-.139 1.348-4.094 2.128-8.169 2.681-12.069.557-3.89.75-7.602.84-11.02.099-3.42-.021-6.554-.151-9.327-.082-1.501-.184-2.873-.293-4.151l.076.058c.066.049 1.851-5.126 1.927-5.465.868-3.929.238-12.031-3.652-14.306-2.801-1.638-6.194-.205-7.487 2.629-1.321 2.893-.237 6.658 1.191 9.302 1.463 2.709 6.475 6.655 7.73 7.619a132.03 132.03 0 0 1 .218 4.326c.069 2.769.12 5.896-.051 9.298-.043.906-.128 1.88-.192 2.825l-.615-4.039c-1.039-3.887-5.332-10.786-9.833-11.013-3.242-.164-5.591 2.672-5.434 5.783.161 3.176 2.858 6.018 5.345 7.707 2.593 1.762 9.018 2.961 10.426 3.209-.174 2.091-.401 4.234-.769 6.456-.626 3.825-1.492 7.867-2.903 11.858-.078.221-.187.441-.268.663a113.32 113.32 0 0 0-.187-5.623c-.606-3.977-4.115-11.307-8.563-12.027-3.205-.519-5.852 2.042-6.036 5.15-.189 3.176 2.18 6.296 4.465 8.248 2.634 2.248 9.982 4.328 10.259 4.406-1.369 3.72-3.058 7.434-4.985 11.112-1.394 2.667-2.915 5.311-4.465 7.949.012-1.064-.146-5.241-.192-5.541-.606-3.978-4.116-11.307-8.564-12.026-3.204-.519-5.851 2.042-6.036 5.15-.189 3.176 2.18 6.297 4.465 8.248 2.571 2.195 9.603 4.219 10.197 4.388l-2.12 3.592-6.905 11.725c-.766 1.358-1.47 2.726-2.183 4.091-.032-1.596-.146-4.498-.184-4.747-.606-3.978-4.116-11.307-8.564-12.027-3.205-.519-5.851 2.042-6.036 5.151-.188 3.174 2.18 6.296 4.466 8.247 2.296 1.961 8.171 3.79 9.834 4.282-1.168 2.281-2.276 4.571-3.259 6.877-.403 1.003-.878 2.001-1.21 2.986l-1.056 2.928-1.818 5.803-.806 2.803c.21-1.622.5-4.196.5-4.434.004-4.023-2.354-11.8-6.641-13.185-3.089-.998-6.094 1.132-6.748 4.177a6.27 6.27 0 0 0-.135 1.174c-2.046 2.952-3.221 7.241-3.299 9.913-.007.257.247 3.31.409 4.866l-1.253-3.708c-.611-1.832-1.196-3.79-1.775-5.683l-.8-3.008c-.293-1.017-.448-2.02-.684-3.046-.31-1.509-.555-3.08-.802-4.648 1.904-.509 7.466-2.102 9.733-3.924 2.343-1.882 4.805-4.931 4.711-8.109-.092-3.114-2.661-5.752-5.88-5.33-4.467.587-8.193 7.808-8.919 11.766-.023.128-.09.98-.159 1.991l-.54-4.637c-.414-4.441-.697-8.976-1.001-13.52l-.207-2.839c1.604-.421 7.644-2.092 10.021-4.002 2.343-1.882 4.804-4.93 4.71-8.11-.091-3.113-2.66-5.752-5.879-5.329-4.468.587-8.194 7.807-8.919 11.765-.027.141-.103 1.159-.179 2.299-.2-2.466-.43-4.923-.733-7.353-.527-4.25-1.276-8.408-2.321-12.378.567-.143 7.688-1.96 10.33-4.083 2.343-1.882 4.804-4.931 4.711-8.11-.092-3.114-2.661-5.752-5.879-5.33-4.468.587-8.195 7.808-8.919 11.766-.052.28-.303 3.965-.348 5.284-.013-.047-.02-.098-.033-.145-1.135-4.158-2.731-7.987-4.422-11.545-1.682-3.552-3.568-6.754-5.379-9.654-1.804-2.907-3.633-5.454-5.271-7.696-.896-1.207-1.738-2.294-2.535-3.3l.095.006c.082.005-1.284-5.296-1.408-5.621-1.442-3.756-6.438-10.165-10.937-9.917-3.241.178-5.279 3.245-4.795 6.322.495 3.142 3.477 5.684 6.126 7.102 2.715 1.452 9.072 1.979 10.65 2.089.807 1.061 1.656 2.205 2.568 3.489 1.585 2.272 3.353 4.85 5.087 7.784.464.78.931 1.638 1.398 2.462l-2.741-3.029c-3.011-2.669-10.398-6.055-14.277-3.762-2.794 1.652-3.189 5.314-1.342 7.821 1.886 2.561 5.704 3.443 8.709 3.48 3.135.038 9.155-2.505 10.466-3.076 1.008 1.84 2.001 3.754 2.919 5.81 1.588 3.535 3.096 7.384 4.119 11.491.057.228.089.472.144.701-.428-.697-3.047-4.353-3.258-4.587-2.7-2.983-9.67-7.16-13.777-5.307-2.959 1.336-3.754 4.931-2.193 7.626 1.594 2.752 5.292 4.049 8.275 4.416 3.437.422 10.714-1.897 10.987-1.985.91 3.858 1.552 7.888 1.972 12.018.309 2.993.499 6.037.661 9.094-.577-.895-3.014-4.292-3.217-4.516-2.699-2.983-9.67-7.16-13.777-5.307-2.959 1.335-3.754 4.931-2.193 7.626 1.594 2.753 5.292 4.05 8.274 4.416 3.357.413 10.337-1.778 10.925-1.965l.213 4.166.709 13.589c.111 1.556.277 3.084.436 4.616-.907-1.313-2.603-3.672-2.771-3.857-2.7-2.983-9.67-7.161-13.777-5.308-2.959 1.335-3.754 4.932-2.193 7.626 1.594 2.753 5.291 4.049 8.274 4.416 2.994.372 8.905-1.344 10.562-1.85z"/><path d="M36.202 349.494c.005-.003 6.911-3.862 8.98-6.72 1.763-2.434 3.332-6.025 2.401-9.066-.91-2.979-4.085-4.846-7.077-3.588-4.154 1.746-5.842 9.695-5.497 13.703.031.346 1.121 5.711 1.193 5.671z"/></g><g class="B"><path d="M426.576 372.844H208.717a9.39 9.39 0 0 1-9.385-9.385V83.239h236.629V363.46c0 5.183-4.202 9.384-9.385 9.384z" class="C F"/><g class="D"><path d="M421.624 368.512H203.765a9.39 9.39 0 0 1-9.385-9.385V78.906h236.629v280.22a9.39 9.39 0 0 1-9.385 9.386z"/><path d="M421.799 78.906v289.605h.498c4.811 0 8.711-3.9 8.711-8.712V78.906h-9.209z"/><path d="M421.799 156.013h9.21v59.81h-9.21z"/></g><path d="M194.38 78.906h236.629V99.39H194.38z" class="F"/><g class="D"><path d="M405.084 89.355c0-1.62-1.313-2.933-2.932-2.933s-2.933 1.313-2.933 2.933 1.313 2.933 2.933 2.933 2.932-1.313 2.932-2.933z"/><circle cx="411.368" cy="89.355" r="2.932"/><circle cx="420.585" cy="89.355" r="2.932"/></g></g><path d="M301.265 307.786c-21.65-13.002-38.703-28.733-50.684-46.754-9.183-13.813-12.018-24.058-12.493-25.972l-.6-2.42v-92.075l74.277-31.77 74.278 31.77v92.076l-.601 2.419c-.474 1.912-3.307 12.155-12.493 25.972-11.981 18.021-29.034 33.752-50.685 46.754l-10.5 6.306-10.499-6.306z" stroke="#fff" fill="#cfcfcf" class="C"/><path d="M306.516 299.045c-48.846-29.335-58.158-64.94-58.531-66.441l-.3-1.209v-84.101l64.08-27.409 64.081 27.409v84.101l-.3 1.209c-.372 1.501-9.685 37.105-58.531 66.441l-5.25 3.153-5.249-3.153z" class="D"/><path d="M311.766 131.319l-53.884 22.236v76.593s8.104 32.661 53.884 60.155c45.78-27.494 53.884-60.155 53.884-60.155v-76.593l-53.884-22.236z" class="H"/><circle transform="matrix(.707107 -.707107 .707107 .707107 234.912113 196.6204)" cx="53.957" cy="53.957" r="38.154" class="D"/><g class="F"><circle transform="matrix(.242394 -.970178 .970178 .242394 258.952777 225.632183)" cx="53.97" cy="40.402" r="14.669"/><path d="M311.223 234.772c10.19 0 19.439-4.003 26.283-10.511-1.548-13.146-12.721-23.346-26.283-23.346s-24.735 10.2-26.283 23.346c6.844 6.508 16.093 10.511 26.283 10.511z"/></g><path d="M322.265 307.786c21.651-13.002 38.704-28.733 50.685-46.754 9.186-13.817 12.018-24.06 12.493-25.972l.601-2.419v-92.076l-74.278-31.77v205.298l10.499-6.307z" fill="#000" opacity=".19"/><path d="M221.576 351.069v-24.817h6.158c1.491 0 2.681.271 3.569.812s1.537 1.323 1.946 2.344.613 2.256.613 3.707c0 1.307-.23 2.441-.689 3.4a5 5 0 0 1-2.037 2.222c-.899.52-2.022.781-3.37.781h-2.726v11.55h-3.464v.001zm3.463-14.032h1.593c1.001 0 1.787-.112 2.359-.337a2.14 2.14 0 0 0 1.226-1.179c.245-.561.368-1.352.368-2.374 0-1.185-.087-2.094-.261-2.727s-.536-1.072-1.087-1.317-1.409-.368-2.574-.368h-1.624v8.302zm11.243 14.032v-24.817h4.994c1.654 0 3.023.22 4.106.659s1.884 1.144 2.405 2.114.781 2.242.781 3.814c0 .96-.102 1.833-.306 2.619s-.532 1.451-.98 1.992-1.042.935-1.777 1.179l3.523 12.439h-3.339l-3.247-11.642h-2.696v11.642h-3.464v.001zm3.463-14.124h1.317c.98 0 1.777-.123 2.39-.368a2.46 2.46 0 0 0 1.348-1.257c.286-.592.429-1.419.429-2.481 0-1.45-.266-2.497-.797-3.14s-1.583-.965-3.156-.965h-1.532v8.211h.001zm12.622 14.124v-24.817h3.401v24.817zm11.733 0l-5.545-24.817h3.247l3.922 18.291 3.737-18.291h3.156l-5.484 24.817zm8.946 0l5.27-24.817h3.34l5.3 24.817h-3.278l-1.134-6.25h-5.055l-1.195 6.25h-3.248zm4.902-8.732h4.136l-2.083-11.183-2.053 11.183zm17.616 9.007c-1.757 0-3.12-.367-4.09-1.103s-1.644-1.725-2.022-2.971-.566-2.634-.566-4.166v-8.762c0-1.674.189-3.136.566-4.381s1.052-2.211 2.022-2.895 2.333-1.026 4.09-1.026c1.552 0 2.783.286 3.692.858s1.562 1.39 1.961 2.451.598 2.339.598 3.83v1.961h-3.279v-1.747c0-.919-.046-1.73-.138-2.436s-.342-1.251-.751-1.639-1.093-.582-2.052-.582c-.98 0-1.696.209-2.145.628s-.741 1.011-.873 1.777-.199 1.66-.199 2.681v9.835c0 1.246.102 2.232.306 2.957s.541 1.24 1.011 1.547 1.103.46 1.9.46c.939 0 1.613-.209 2.022-.628s.664-.995.766-1.73.153-1.594.153-2.574v-1.838h3.279v1.838c0 1.512-.185 2.845-.553 3.998s-1.001 2.053-1.899 2.697-2.165.96-3.799.96zm13.358-.275v-8.762l-5.361-16.054h3.216l3.799 11.979 3.737-11.979h3.248l-5.331 16.054v8.762zm17.953 0v-24.817h6.158c1.491 0 2.681.271 3.57.812s1.536 1.323 1.945 2.344.613 2.256.613 3.707c0 1.307-.23 2.441-.69 3.4a5 5 0 0 1-2.037 2.222c-.899.52-2.022.781-3.37.781h-2.727v11.55h-3.462v.001zm3.461-14.032h1.594c1 0 1.787-.112 2.359-.337a2.14 2.14 0 0 0 1.226-1.179c.245-.562.368-1.352.368-2.374 0-1.185-.088-2.094-.261-2.727s-.536-1.072-1.088-1.317-1.409-.368-2.573-.368h-1.625v8.302h0zm17.586 14.307c-1.675 0-3.013-.326-4.013-.98s-1.716-1.588-2.145-2.804-.644-2.64-.644-4.273v-9.406c0-1.633.219-3.038.659-4.212s1.154-2.073 2.145-2.696 2.322-.935 3.998-.935 3.002.316 3.983.95 1.69 1.531 2.129 2.696.658 2.564.658 4.197v9.436c0 1.615-.219 3.023-.658 4.228s-1.149 2.14-2.129 2.804-2.309.995-3.983.995zm0-2.726c.919 0 1.613-.189 2.083-.567s.786-.908.95-1.593.245-1.487.245-2.406v-10.875c0-.919-.082-1.711-.245-2.375s-.48-1.174-.95-1.532-1.164-.536-2.083-.536-1.619.18-2.099.536-.801.868-.965 1.532-.245 1.456-.245 2.375v10.875c0 .919.082 1.721.245 2.406s.485 1.215.965 1.593 1.18.567 2.099.567zm10.171 2.451v-24.817h3.462v22.335h6.342v2.482zm12.347 0v-24.817h3.4v24.817zm13.633.275c-1.757 0-3.12-.367-4.09-1.103s-1.644-1.725-2.022-2.971-.567-2.634-.567-4.166v-8.762c0-1.674.189-3.136.567-4.381s1.052-2.211 2.022-2.895 2.333-1.026 4.09-1.026c1.552 0 2.783.286 3.692.858s1.562 1.39 1.961 2.451.597 2.339.597 3.83v1.961h-3.279v-1.747a18.86 18.86 0 0 0-.138-2.436c-.092-.704-.342-1.251-.751-1.639s-1.092-.582-2.052-.582c-.981 0-1.696.209-2.145.628s-.741 1.011-.873 1.777-.199 1.66-.199 2.681v9.835c0 1.246.102 2.232.306 2.957s.541 1.24 1.011 1.547 1.103.46 1.9.46c.939 0 1.613-.209 2.022-.628s.664-.995.766-1.73.153-1.594.153-2.574v-1.838h3.279v1.838c0 1.512-.184 2.845-.552 3.998s-1.001 2.053-1.899 2.697-2.165.96-3.799.96zm13.358-.275v-8.762l-5.361-16.054h3.216l3.799 11.979 3.738-11.979h3.248l-5.331 16.054v8.762z" class="F"/><g class="B"><path d="M169.815 336.282s-1.241 18.609 1.447 27.913 19.642 53.552 19.642 53.552.413 7.857-.207 8.684-3.515 5.376-7.443 7.237-12.199 6.616-10.338 7.237 18.402-1.241 20.263-.413 10.131-2.481 12.199-3.308 0-5.996 0-5.996-4.342-14.68-6.203-26.052-4.755-27.086-6.41-34.943-4.755-14.06-4.755-14.06l2.068-19.436-20.263-.415z" class="D"/><path d="M185.942 436.355l-2.129-2.98-.559.292c-3.928 1.861-12.199 6.616-10.338 7.237s18.402-1.241 20.263-.413 10.131-2.481 12.199-3.308 0-5.996 0-5.996l-.547-1.903c-2.544 1.195-5.699 2.885-7.93 4.798-4.343 3.72-10.959 2.273-10.959 2.273z" class="F"/><path d="M182.946 337.729s1.654 19.022 4.135 25.639 2.481 51.691 2.481 55.412-5.996 9.718-5.996 9.718-10.338 7.65-13.233 8.477-5.169 1.861-3.722 3.101 15.714 1.241 20.676 1.241 11.372.207 11.992-.827 1.034-4.135 1.034-4.135-1.241-11.579-.827-16.748 7.857-36.597 7.237-47.142-3.515-19.849-3.722-20.676 1.447-15.094 1.447-15.094l-21.502 1.034z" class="D"/><path d="M200.314 436.355l-.134-1.329c-9.294.72-21.37 1.329-21.37 1.329l-1.401-3.503c-2.777 1.879-5.73 3.739-7.076 4.123-2.895.827-5.169 1.861-3.722 3.101s15.714 1.241 20.676 1.241 11.372.207 11.992-.827 1.035-4.135 1.035-4.135z" class="F"/><g class="C"><path d="M162.506 286.729s-1.45 14.909-.828 21.536 2.354 39.475 2.354 39.475 11.727 7.216 22.288 7.837 26.506-4.97 26.506-4.97 3.52-39.029 1.449-49.383l-3.106-15.324s-27.955-1.449-35.203-3.313-8.956-2.919-8.956-2.919l-2.386-.274-2.118 7.335z" class="F"/><g class="D"><path d="M166.855 282.866s10.768 5.177 26.713 3.106l-1.035-30.233 7.041-45.764-11.389-.414-12.839 4.556-7.662 57.982-.829 10.767z"/><path d="M177.108 205.067s-2.766 12.529-2.278 14.156 5.532 10.251 8.949 9.6 10.739-12.529 11.715-14.807-.976-6.183-1.139-6.997-2.115-9.274-2.115-9.274-7.81 6.671-15.132 7.322z"/></g></g></g></g><g class="B C"><path d="M178.072 212.649s-2.986 24.447-3.172 33.964-5.598 53.185-5.598 53.185-.747 1.306-5.599-.187-7.278-4.852-7.278-4.852l8.584-32.844c.187-1.493-1.493-16.049-1.493-16.049l-16.795 14.556s.373-7.838 1.866-9.517 12.69-22.58 13.623-24.633-.187-8.211 3.172-10.077 12.69-3.546 12.69-3.546z" class="E H"/><g class="G"><path d="M161.777 280.235l7.102 2.367-.263 1.841-6.313-1.578"/><path d="M173.966 257.25s-2.986-28.925-2.613-35.457" class="D E"/></g></g><g class="B C"><path d="M195.241 211.156s-10.264 35.084-10.264 43.108 2.052 47.277 2.052 47.277 9.294 2.774 16.572 1.841 17.02-5.077 17.02-5.077l-9.891-29.485s15.676-37.696 15.676-40.309 2.053-7.465 0-8.771-19.781-7.278-22.207-8.398-5.973-2.799-8.958-.186z" class="E H"/><path d="M210.702 283.654l-17.134 2.318 1.089 2.417 9.732-1.052" class="G"/><path d="M205.012 211.68l-.814-.338c-2.426-1.12-5.972-2.799-8.957-.187 0 0-10.264 35.084-10.264 43.108 0 1.338.115 3.535.305 6.262.841-2.804 2.736-7.192 6.227-16.153 4.536-11.643 11.155-27.207 13.503-32.692z" class="E H"/></g><g class="C E B"><path d="M168.934 163.816s-10.211 6.807-10.829 11.758-.155 7.89-.155 12.686-2.63 19.802-.155 25.372 6.034 10.52 10.984 11.912 8.045.155 9.282-1.083 2.166-3.558 2.166-3.558-2.63.309-2.63-2.785 2.939-12.531 2.939-12.531-6.652-3.404-7.89-6.652-4.951-20.421-4.641-21.814 5.879-4.487 6.033-8.354-2.319-6.189-5.104-4.951z" class="F"/><path d="M168.006 170.623s-2.63 5.724-1.857 10.365 2.321 12.686 3.094 15.935 4.796 6.807 6.807 8.664 5.569 4.487 8.199 3.868 6.498-6.962 6.498-6.962 3.094-3.558 3.868-6.652-1.857-8.509-3.558-14.233-5.879-10.829-12.841-12.531-9.127.463-10.21 1.546z" class="D"/></g><path d="M173.885 187.022s2.166 3.558 2.011 4.641-1.238 5.724-.619 6.034 2.785-.155 2.785-.155m0 3.248s3.249.309 6.034-3.249m-11.294-10.674s-2.63-1.083-3.868 1.083m8.2-1.702s.464-2.166 4.332-1.083" class="G B C"/><g class="E"><g class="F"><path d="M181.415 189.194c.278.808.111 1.598-.374 1.765s-1.103-.352-1.382-1.16-.111-1.598.374-1.765 1.104.353 1.382 1.16zm-8.303 1.541c.278.808.111 1.598-.374 1.765s-1.103-.353-1.382-1.16-.111-1.598.374-1.765 1.103.352 1.382 1.16z"/><path d="M166.304 169.694s6.188 8.973 12.376 12.995 12.222 4.951 12.376 8.664-2.785 12.067-.464 18.101 6.652 8.2 12.686 6.962 8.818-6.807 8.818-6.807-3.404 2.321-4.486-.309-3.558-6.498-.464-12.841 4.951-9.282-.774-19.802-12.531-16.554-17.946-18.874-22.276 1.391-22.122 11.911z" class="B C"/></g><g class="D B C"><path d="M164.04 256.119l-.723-7.229-2.747 2.747z"/><path d="M156.193 238.258l2.962 4.02-2.327 3.597s-.317.423 1.269 2.962 3.808 4.76 3.808 4.76 5.062-10.65 5.44-12.572-8.461-13.179-8.461-13.179-3.009 5.863-2.691 10.412z"/><path d="M147.712 217.907l14.954 17.774 9.92.642-14.183-18.801z"/><path d="M155.383 228.009s-1.87 1.151-1.438 2.157 3.596 3.308 5.897 3.596 1.166-1.107 1.159-1.848-5.618-3.905-5.618-3.905z"/><path d="M154.663 231.317s-1.438 1.582-1.007 2.733 5.897 2.733 6.904 2.877 2.158-1.151.719-2.158-6.616-3.452-6.616-3.452z"/><path d="M154.807 235.488s-.432 2.014.575 2.733 5.67.183 6.431-.124-1.253-1.17-1.253-1.17l-5.753-1.439z"/></g></g><g class="B C"><g class="D E"><path d="M185.244 244.768l-5.532-5.207-2.603-7.81c-.814-1.79-1.464-2.278-3.417-4.068s-3.254-.976-3.58.163l-.326 1.139s-9.437-.488-10.902-1.139-3.092-2.115-3.905-1.139.325 2.278 1.627 3.092 3.092 1.79 4.393 2.115a74.52 74.52 0 0 0 2.929.651l-6.834-.976s-.325.814.488 1.627l2.115 2.115s.651 1.302 2.115 2.766c.649.649 1.809 1.298 2.9 1.82l2.632 1.109s-2.115 0-3.742-.325-3.092-1.139-2.929 0 1.302 1.627 3.092 1.952 9.437 1.302 10.088 1.464 9.112 7.973 9.112 7.973l2.279-7.322z"/><path d="M169.786 228.985s3.254.976 4.393 1.953" class="G"/></g><path d="M163.929 232.565l4.23.976m-8.461 1.79l8.135 2.441" class="G"/></g><g class="C E H B"><path d="M227.298 221.938c-.128.899-1.541 13.614-5.266 26.457s-5.651 24.402-6.422 25.301-9.119-2.312-15.926-6.422-20.549-13.999-20.549-13.999l5.779-11.045 20.421 12.201s.642-1.413 1.541-1.67 1.541-.642 1.541-.642l1.926-24.659" class="G"/><path d="M156.828 245.875l7.212 10.244s-2.169 6.65-4.337 9.253-9.253 3.759-11.566 1.012-1.735-6.94-.434-9.253 9.125-11.256 9.125-11.256z"/></g><path d="M0 441.334h446.935" class="B"/></g><defs ><path id="B" d="M16.509 227.255c4.984 42.209 24.256 91.284 62.747 113.829 58.156 34.07 53.288 86.473 166.802 109.254 17.698 3.554 34.494 5.049 50.332 4.754 8.514-.158 16.755-.844 24.703-2.014 72.145-10.539 120.695-60.687 138.508-121.221 23.44-79.613-23.364-131.735-54.387-163.138S351.468 39.467 240.052 16.194c-16.988-3.541-34.361-5.348-51.728-4.914-39.641.973-82.88 13.99-112.798 41.158a153.07 153.07 0 0 0-6.561 6.339C27.381 101.46 9.711 169.711 16.509 227.255z"/><path id="C" d="M423.849 390.202c0 1.498-1.215 2.713-2.713 2.713s-2.713-1.215-2.713-2.713 1.215-2.713 2.713-2.713 2.713 1.214 2.713 2.713z"/><path id="D" d="M158.688 358.443l3.888 39.942h-29.758l3.888-39.942c-7.241-3.826-12.155-11.326-12.155-19.94 0-12.52 10.362-22.66 23.141-22.66 12.788 0 23.15 10.139 23.15 22.66.001 8.614-4.922 16.114-12.154 19.94z"/></defs></svg>