<?xml version="1.0" encoding="UTF-8"?>
<svg xmlns="http://www.w3.org/2000/svg" xmlns:xlink="http://www.w3.org/1999/xlink" width="px" height="px" viewBox="0 0 330 340" version="1.1">
<defs>
<filter id="alpha" filterUnits="objectBoundingBox" x="0%" y="0%" width="100%" height="100%">
  <feColorMatrix type="matrix" in="SourceGraphic" values="0 0 0 0 1 0 0 0 0 1 0 0 0 0 1 0 0 0 1 0"/>
</filter>
<mask id="mask0">
  <g filter="url(#alpha)">
<rect x="0" y="0" width="330" height="340" style="fill:rgb(0%,0%,0%);fill-opacity:0.701961;stroke:none;"/>
  </g>
</mask>
<clipPath id="clip1">
  <rect x="0" y="0" width="330" height="340"/>
</clipPath>
<g id="surface5" clip-path="url(#clip1)">
<path style=" stroke:none;fill-rule:nonzero;fill:rgb(100%,100%,100%);fill-opacity:1;" d="M 21.558594 225.164062 C 24.679688 248.832031 39.714844 269.191406 61.242188 278.921875 C 106.929688 299.574219 187.179688 332.570312 215.863281 323.699219 C 256.890625 311.011719 341.011719 77.132812 327.28125 35.082031 C 313.546875 -6.96875 31.132812 21.464844 18.5 56.148438 C 8.851562 82.632812 14.367188 170.597656 21.558594 225.164062 Z M 21.558594 225.164062 "/>
</g>
<mask id="mask1">
  <g filter="url(#alpha)">
<rect x="0" y="0" width="330" height="340" style="fill:rgb(0%,0%,0%);fill-opacity:0.301961;stroke:none;"/>
  </g>
</mask>
<clipPath id="clip2">
  <rect x="0" y="0" width="330" height="340"/>
</clipPath>
<g id="surface8" clip-path="url(#clip2)">
<path style="fill:none;stroke-width:1;stroke-linecap:butt;stroke-linejoin:miter;stroke:rgb(0%,0%,0%);stroke-opacity:1;stroke-miterlimit:4;" d="M 302.083333 394.756756 L 317.489583 396.524977 L 320.953125 381.362086 L 306.765625 376.427757 C 306.630208 372.760915 305.885417 369.146232 304.5625 365.72454 L 315.119792 355.203883 L 305.421875 343.045404 L 293.104167 350.822449 C 290.03125 348.584789 286.59375 346.889591 282.942708 345.815097 L 281.338542 331.298989 L 265.786458 331.298989 L 264.177083 345.815097 C 260.583333 346.873943 257.1875 348.537845 254.151042 350.733778 L 241.583333 342.800253 L 231.885417 354.958732 L 242.598958 365.630653 C 241.302083 368.937592 240.552083 372.437523 240.369792 375.984398 L 225.791667 381.059559 L 229.25 396.217233 L 244.848958 394.428148 C 246.541667 397.333456 248.666667 399.962316 251.140625 402.231273 L 245.854167 417.258548 L 259.864583 424.002826 L 268.302083 410.514269 C 270.041667 410.790717 271.802083 410.931549 273.5625 410.931549 C 275.135417 410.931549 276.677083 410.816797 278.192708 410.602941 L 286.661458 424.138442 L 300.671875 417.388948 L 295.489583 402.658984 C 298.083333 400.384812 300.307292 397.719439 302.083333 394.756756 Z M 252.5 377.70046 C 252.5 366.06358 261.932292 356.638281 273.5625 356.638281 C 285.197917 356.638281 294.625 366.06358 294.625 377.70046 C 294.625 389.332123 285.197917 398.762638 273.5625 398.762638 C 261.932292 398.762638 252.5 389.332123 252.5 377.70046 Z M 212.046875 369.871255 L 222.78125 371.102229 L 225.192708 360.534628 L 215.307292 357.102505 C 215.213542 354.546668 214.697917 352.022128 213.776042 349.638419 L 221.130208 342.309949 L 214.375 333.839177 L 205.791667 339.258594 C 203.651042 337.699012 201.255208 336.520198 198.713542 335.774311 L 197.59375 325.655285 L 186.760417 325.655285 L 185.635417 335.774311 C 183.130208 336.509766 180.770833 337.667716 178.651042 339.196002 L 169.895833 333.672266 L 163.135417 342.143038 L 170.598958 349.575827 C 169.697917 351.881296 169.177083 354.317165 169.052083 356.789545 L 158.890625 360.325988 L 161.302083 370.888373 L 172.171875 369.641751 C 173.348958 371.665556 174.828125 373.496369 176.557292 375.076815 L 172.869792 385.545312 L 182.630208 390.244922 L 188.510417 380.850919 C 189.703125 381.038695 190.927083 381.137799 192.177083 381.137799 C 193.270833 381.137799 194.348958 381.059559 195.401042 380.913511 L 201.302083 390.344026 L 211.0625 385.6392 L 207.453125 375.379343 C 209.260417 373.793681 210.8125 371.931572 212.046875 369.871255 Z M 177.5 357.984007 C 177.5 349.878355 184.072917 343.306204 192.177083 343.306204 C 200.28125 343.306204 206.854167 349.878355 206.854167 357.984007 C 206.854167 366.08966 200.28125 372.661811 192.177083 372.661811 C 184.072917 372.661811 177.5 366.08966 177.5 357.984007 Z M 177.5 357.984007 " transform="matrix(0.75,0,0,0.748899,0,0)"/>
</g>
<mask id="mask2">
  <g filter="url(#alpha)">
<rect x="0" y="0" width="330" height="340" style="fill:rgb(0%,0%,0%);fill-opacity:0.301961;stroke:none;"/>
  </g>
</mask>
<clipPath id="clip3">
  <rect x="0" y="0" width="330" height="340"/>
</clipPath>
<g id="surface11" clip-path="url(#clip3)">
<path style="fill:none;stroke-width:1;stroke-linecap:round;stroke-linejoin:round;stroke:rgb(0%,0%,0%);stroke-opacity:1;stroke-miterlimit:4;" d="M 69.530686 40.727479 C 69.526369 56.634332 56.632199 69.528502 40.729034 69.529131 C 24.825869 69.529759 11.928536 56.632426 11.929164 40.729261 C 11.926109 24.822413 24.82028 11.928242 40.730816 11.927609 C 56.633981 11.926981 69.531314 24.824314 69.530686 40.727479 Z M 69.530686 40.727479 " transform="matrix(0.53033,-0.529551,0.53033,0.529551,135.679122,210.229339)"/>
<path style="fill:none;stroke-width:1;stroke-linecap:round;stroke-linejoin:round;stroke:rgb(0%,0%,0%);stroke-opacity:1;stroke-miterlimit:4;" d="M 41.06775 61.291951 L 41.06775 57.442549 C 38.224 57.333013 36.099 56.420214 34.69275 54.714585 C 33.2865 53.003739 32.526083 50.447903 32.416708 47.057507 L 38.25525 46.061253 C 38.307333 47.443491 38.453167 48.596225 38.687542 49.519456 C 38.921917 50.442687 39.270875 51.131198 39.744833 51.584989 C 40.213583 52.043996 40.81775 52.268284 41.562542 52.268284 C 42.416708 52.268284 43.00525 51.991836 43.322958 51.438941 C 43.635458 50.891262 43.796917 50.254911 43.796917 49.54032 C 43.796917 48.132002 43.474 46.953188 42.822958 45.998661 C 42.177125 45.04935 41.2865 44.089608 40.156292 43.124649 L 36.640667 40.104589 C 35.869833 39.395214 35.151083 38.633679 34.484417 37.8252 C 33.838583 37.032369 33.328167 36.140435 32.979208 35.180692 C 32.604208 34.184438 32.416708 33.016055 32.416708 31.659897 C 32.416708 29.067549 33.156292 27.04896 34.63025 25.598914 C 36.109417 24.154084 38.088583 23.329957 40.56775 23.136965 L 40.56775 19.454474 L 42.557333 19.454474 L 42.557333 23.136965 C 44.046917 23.220421 45.265667 23.55946 46.218792 24.154084 C 47.171917 24.743491 47.895875 25.489378 48.390667 26.386528 C 48.885458 27.283679 49.244833 28.264286 49.468792 29.323132 C 49.687542 30.387195 49.822958 31.414745 49.88025 32.405784 L 43.963583 33.276855 C 43.947958 32.369272 43.864625 31.461689 43.713583 30.564539 C 43.572958 29.776924 43.328167 29.166653 42.968792 28.723293 C 42.609417 28.28515 42.057333 28.07651 41.312542 28.10259 C 40.541708 28.12867 39.953167 28.431198 39.557333 29.015389 C 39.156292 29.594364 38.953167 30.241147 38.953167 30.960954 C 38.953167 32.22844 39.260458 33.250775 39.864625 34.017526 C 40.494833 34.815573 41.187542 35.566676 41.937542 36.255187 L 45.369833 39.233518 C 46.281292 40.062861 47.125042 40.960012 47.895875 41.924971 C 48.666708 42.895145 49.296917 43.974856 49.75525 45.12759 C 50.224 46.301188 50.458375 47.646915 50.458375 49.164768 C 50.458375 50.625246 50.1615 51.955324 49.56775 53.155003 C 48.989625 54.339033 48.104208 55.34572 47.00525 56.075959 C 45.885458 56.821846 44.56775 57.259989 43.052125 57.400821 L 43.052125 61.286735 L 41.06775 61.286735 Z M 41.06775 61.291951 " transform="matrix(0.75,0,0,0.748899,148.332,179.727445)"/>
<path style="fill:none;stroke-width:1;stroke-linecap:round;stroke-linejoin:round;stroke:rgb(0%,0%,0%);stroke-opacity:1;stroke-miterlimit:4;" d="M 41.075827 22.443589 C 41.073174 32.732188 32.73236 41.073274 22.442048 41.073811 C 12.151737 41.074349 3.809492 32.734637 3.808286 22.439757 C 3.810939 12.151158 12.151753 3.810073 22.442064 3.809535 C 32.732376 3.808998 41.074621 12.14871 41.075827 22.443589 Z M 41.075827 22.443589 " transform="matrix(0.729609,-0.173441,0.173696,0.728538,252.437017,154.824021)"/>
<path style="fill:none;stroke-width:1;stroke-linecap:round;stroke-linejoin:round;stroke:rgb(0%,0%,0%);stroke-opacity:1;stroke-miterlimit:4;" d="M 22.663333 35.747666 L 22.663333 33.254422 C 20.824792 33.186614 19.449792 32.597207 18.538333 31.491416 C 17.632083 30.385626 17.137292 28.732156 17.069583 26.536223 L 20.840417 25.894656 C 20.876875 26.786591 20.970625 27.532478 21.121667 28.132317 C 21.272708 28.72694 21.501875 29.175516 21.803958 29.467611 C 22.11125 29.764923 22.501875 29.910971 22.98625 29.910971 C 23.538333 29.910971 23.918542 29.733627 24.121667 29.373723 C 24.324792 29.019036 24.428958 28.606972 24.428958 28.142749 C 24.428958 27.235166 24.220625 26.468415 23.79875 25.852928 C 23.376875 25.237441 22.803958 24.616738 22.074792 23.996035 L 19.79875 22.040038 C 19.29875 21.58103 18.835208 21.090727 18.402917 20.569128 C 17.98625 20.052744 17.658125 19.473769 17.428958 18.853066 C 17.189375 18.211499 17.064375 17.45518 17.064375 16.578893 C 17.064375 14.899344 17.543542 13.595346 18.496667 12.656467 C 19.449792 11.717588 20.731042 11.185557 22.340417 11.065589 L 22.340417 8.681881 L 23.621667 8.681881 L 23.621667 11.065589 C 24.590417 11.117749 25.376875 11.336821 25.991458 11.717588 C 26.61125 12.103572 27.074792 12.583443 27.397708 13.162418 C 27.715417 13.746609 27.949792 14.377744 28.095625 15.066256 C 28.23625 15.754767 28.324792 16.417198 28.36125 17.058765 L 24.533125 17.622092 C 24.522708 17.032685 24.465417 16.448494 24.371667 15.869518 C 24.283125 15.358351 24.121667 14.961936 23.8925 14.680272 C 23.658125 14.393392 23.29875 14.257777 22.819583 14.278641 C 22.319583 14.294289 21.939375 14.492496 21.684167 14.868048 C 21.42375 15.233167 21.288333 15.676527 21.293542 16.125102 C 21.293542 16.944013 21.491458 17.606444 21.882083 18.101963 C 22.272708 18.602699 22.720625 19.087786 23.220625 19.552009 L 25.444583 21.47671 C 26.033125 22.013958 26.58 22.598149 27.074792 23.218852 C 27.58 23.849987 27.981042 24.54893 28.283125 25.294817 C 28.585208 26.051136 28.73625 26.922207 28.73625 27.902813 C 28.73625 28.852124 28.543542 29.712763 28.158125 30.48473 C 27.783125 31.251481 27.210208 31.90348 26.501875 32.372919 C 25.777917 32.858006 24.92375 33.13967 23.944583 33.233558 L 23.944583 35.747666 Z M 22.663333 35.747666 " transform="matrix(0.75,0,0,0.748899,255.8775,150.474714)"/>
</g>
<mask id="mask3">
  <g filter="url(#alpha)">
<rect x="0" y="0" width="330" height="340" style="fill:rgb(0%,0%,0%);fill-opacity:0.301961;stroke:none;"/>
  </g>
</mask>
<clipPath id="clip4">
  <rect x="0" y="0" width="330" height="340"/>
</clipPath>
<g id="surface14" clip-path="url(#clip4)">
<path style="fill:none;stroke-width:1;stroke-linecap:butt;stroke-linejoin:miter;stroke:rgb(0%,0%,0%);stroke-opacity:1;stroke-miterlimit:4;" d="M 417.390625 59.806572 L 394.838542 59.806572 L 394.838542 37.977642 C 382.375 37.977642 372.265625 48.08102 372.265625 60.547243 C 372.265625 73.008249 382.369792 83.111627 394.838542 83.111627 C 407.296875 83.111627 417.40625 73.008249 417.40625 60.547243 C 417.40625 60.302091 417.395833 60.046507 417.390625 59.806572 Z M 417.390625 59.806572 " transform="matrix(0.75,0,0,0.748899,0,0)"/>
<path style="fill:none;stroke-width:1;stroke-linecap:butt;stroke-linejoin:miter;stroke:rgb(0%,0%,0%);stroke-opacity:1;stroke-miterlimit:4;" d="M 419.609375 57.584559 L 397.057292 57.584559 L 397.057292 35.75563 C 409.276042 35.75563 419.223958 45.467808 419.609375 57.584559 Z M 419.609375 57.584559 " transform="matrix(0.75,0,0,0.748899,0,0)"/>
</g>
<mask id="mask4">
  <g filter="url(#alpha)">
<rect x="0" y="0" width="330" height="340" style="fill:rgb(0%,0%,0%);fill-opacity:0.301961;stroke:none;"/>
  </g>
</mask>
<clipPath id="clip5">
  <rect x="0" y="0" width="330" height="340"/>
</clipPath>
<g id="surface17" clip-path="url(#clip5)">
<path style="fill:none;stroke-width:1;stroke-linecap:round;stroke-linejoin:round;stroke:rgb(0%,0%,0%);stroke-opacity:1;stroke-miterlimit:4;" d="M 22.6875 49.81273 L 39.317708 49.81273 L 39.317708 101.148529 L 22.6875 101.148529 Z M 45.104167 67.89136 L 61.729167 67.89136 L 61.729167 101.148529 L 45.104167 101.148529 Z M 67.515625 79.820335 L 84.140625 79.820335 L 84.140625 101.148529 L 67.515625 101.148529 Z M 67.515625 79.820335 " transform="matrix(0.75,0,0,0.748899,0,0)"/>
<path style="fill:none;stroke-width:1;stroke-linecap:butt;stroke-linejoin:miter;stroke:rgb(0%,0%,0%);stroke-opacity:1;stroke-miterlimit:4;" d="M 81.244792 76.445588 L 78.208333 61.392233 L 75.072917 64.151494 L 58.359375 45.196576 C 57.90625 44.685409 57.3125 44.315074 56.651042 44.132514 L 25.65625 35.739982 L 23.822917 42.494692 L 53.807292 50.615993 L 69.822917 68.783295 L 66.6875 71.547771 Z M 81.244792 76.445588 " transform="matrix(0.75,0,0,0.748899,0,0)"/>
</g>
<mask id="mask5">
  <g filter="url(#alpha)">
<rect x="0" y="0" width="330" height="340" style="fill:rgb(0%,0%,0%);fill-opacity:0.278431;stroke:none;"/>
  </g>
</mask>
<clipPath id="clip6">
  <rect x="0" y="0" width="330" height="340"/>
</clipPath>
<g id="surface20" clip-path="url(#clip6)">
<path style=" stroke:none;fill-rule:nonzero;fill:rgb(0%,0%,0%);fill-opacity:1;" d="M 127.550781 121.035156 L 127.550781 107.066406 L 130.105469 107.066406 L 130.105469 119.277344 L 133.492188 119.277344 L 133.492188 121.035156 Z M 138.449219 121.226562 C 137.457031 121.226562 136.667969 121.039062 136.082031 120.671875 C 135.496094 120.304688 135.074219 119.777344 134.820312 119.085938 C 134.566406 118.394531 134.441406 117.582031 134.441406 116.636719 L 134.441406 111.410156 C 134.441406 110.46875 134.566406 109.660156 134.820312 108.988281 C 135.074219 108.316406 135.496094 107.800781 136.082031 107.445312 C 136.667969 107.089844 137.457031 106.910156 138.449219 106.910156 C 139.460938 106.910156 140.257812 107.089844 140.839844 107.445312 C 141.421875 107.800781 141.84375 108.316406 142.101562 108.988281 C 142.359375 109.660156 142.492188 110.46875 142.492188 111.410156 L 142.492188 116.65625 C 142.492188 117.585938 142.359375 118.394531 142.101562 119.078125 C 141.84375 119.761719 141.421875 120.292969 140.839844 120.664062 C 140.257812 121.039062 139.460938 121.226562 138.449219 121.226562 Z M 138.449219 119.34375 C 138.875 119.34375 139.1875 119.253906 139.390625 119.070312 C 139.589844 118.886719 139.726562 118.632812 139.796875 118.308594 C 139.863281 117.988281 139.898438 117.636719 139.898438 117.257812 L 139.898438 110.824219 C 139.898438 110.433594 139.863281 110.082031 139.796875 109.773438 C 139.726562 109.460938 139.589844 109.21875 139.390625 109.039062 C 139.1875 108.863281 138.875 108.773438 138.449219 108.773438 C 138.046875 108.773438 137.742188 108.863281 137.535156 109.039062 C 137.328125 109.21875 137.1875 109.460938 137.117188 109.773438 C 137.046875 110.117188 137.011719 110.472656 137.015625 110.824219 L 137.015625 117.257812 C 137.015625 117.636719 137.046875 117.988281 137.109375 118.308594 C 137.171875 118.632812 137.308594 118.886719 137.515625 119.070312 C 137.722656 119.253906 138.035156 119.34375 138.449219 119.34375 Z M 145.839844 121.035156 L 143.855469 107.066406 L 145.996094 107.066406 L 147.152344 116.121094 L 148.605469 107.101562 L 150.347656 107.101562 L 151.835938 116.121094 L 152.972656 107.066406 L 155.082031 107.066406 L 153.128906 121.035156 L 151.058594 121.035156 L 149.503906 111.671875 L 147.964844 121.035156 Z M 145.839844 121.035156 "/>
</g>
<mask id="mask6">
  <g filter="url(#alpha)">
<rect x="0" y="0" width="330" height="340" style="fill:rgb(0%,0%,0%);fill-opacity:0.278431;stroke:none;"/>
  </g>
</mask>
<clipPath id="clip7">
  <rect x="0" y="0" width="330" height="340"/>
</clipPath>
<g id="surface23" clip-path="url(#clip7)">
<path style=" stroke:none;fill-rule:nonzero;fill:rgb(0%,0%,0%);fill-opacity:1;" d="M 252.023438 121.035156 L 252.023438 107.066406 L 254.5625 107.066406 L 254.5625 112.914062 L 257.414062 112.914062 L 257.414062 107.066406 L 259.96875 107.066406 L 259.96875 121.035156 L 257.414062 121.035156 L 257.414062 114.722656 L 254.5625 114.722656 L 254.5625 121.035156 Z M 262.179688 121.035156 L 262.179688 107.066406 L 264.703125 107.066406 L 264.703125 121.035156 Z M 270.367188 121.226562 C 269.445312 121.226562 268.714844 121.03125 268.175781 120.636719 C 267.632812 120.25 267.246094 119.691406 267.007812 118.972656 C 266.773438 118.253906 266.652344 117.40625 266.652344 116.429688 L 266.652344 111.738281 C 266.652344 110.738281 266.769531 109.875 267 109.152344 C 267.230469 108.429688 267.636719 107.875 268.21875 107.488281 C 268.796875 107.101562 269.601562 106.910156 270.628906 106.910156 C 271.582031 106.910156 272.34375 107.070312 272.90625 107.394531 C 273.460938 107.703125 273.890625 108.195312 274.125 108.78125 C 274.371094 109.386719 274.496094 110.117188 274.496094 110.980469 L 274.496094 111.707031 L 272.058594 111.707031 L 272.058594 110.914062 C 272.058594 110.464844 272.027344 110.078125 271.964844 109.757812 C 271.902344 109.433594 271.773438 109.191406 271.585938 109.023438 C 271.394531 108.855469 271.085938 108.773438 270.660156 108.773438 C 270.210938 108.773438 269.886719 108.882812 269.6875 109.101562 C 269.484375 109.320312 269.355469 109.609375 269.304688 109.964844 C 269.25 110.351562 269.226562 110.746094 269.226562 111.136719 L 269.226562 116.984375 C 269.226562 117.464844 269.265625 117.886719 269.347656 118.242188 C 269.429688 118.597656 269.578125 118.871094 269.796875 119.0625 C 270.015625 119.25 270.328125 119.347656 270.730469 119.347656 C 271.144531 119.347656 271.460938 119.242188 271.679688 119.035156 C 271.898438 118.828125 272.050781 118.539062 272.136719 118.171875 C 272.222656 117.804688 272.265625 117.367188 272.265625 116.863281 L 272.265625 115.550781 L 270.765625 115.550781 L 270.765625 113.945312 L 274.566406 113.945312 L 274.566406 121.035156 L 272.921875 121.035156 L 272.734375 119.65625 C 272.558594 120.101562 272.269531 120.488281 271.894531 120.785156 C 271.523438 121.078125 271.011719 121.226562 270.367188 121.226562 Z M 276.550781 121.035156 L 276.550781 107.066406 L 279.089844 107.066406 L 279.089844 112.914062 L 281.941406 112.914062 L 281.941406 107.066406 L 284.496094 107.066406 L 284.496094 121.035156 L 281.941406 121.035156 L 281.941406 114.722656 L 279.089844 114.722656 L 279.089844 121.035156 Z M 276.550781 121.035156 "/>
</g>
<mask id="mask7">
  <g filter="url(#alpha)">
<rect x="0" y="0" width="330" height="340" style="fill:rgb(0%,0%,0%);fill-opacity:0.278431;stroke:none;"/>
  </g>
</mask>
<clipPath id="clip8">
  <rect x="0" y="0" width="330" height="340"/>
</clipPath>
<g id="surface26" clip-path="url(#clip8)">
<path style=" stroke:none;fill-rule:nonzero;fill:rgb(0%,0%,0%);fill-opacity:1;" d="M 179.183594 75.699219 L 179.425781 61.730469 L 182.066406 61.730469 L 184.054688 71.40625 L 186.125 61.730469 L 188.683594 61.730469 L 188.941406 75.699219 L 187.042969 75.699219 L 186.835938 65.988281 L 184.847656 75.699219 L 183.3125 75.699219 L 181.289062 65.953125 L 181.101562 75.699219 Z M 190.910156 75.699219 L 190.910156 61.730469 L 196.785156 61.730469 L 196.785156 63.523438 L 193.46875 63.523438 L 193.46875 67.542969 L 196.074219 67.542969 L 196.074219 69.316406 L 193.46875 69.316406 L 193.46875 73.941406 L 196.820312 73.941406 L 196.820312 75.699219 Z M 198.304688 75.699219 L 198.304688 61.730469 L 201.601562 61.730469 C 202.742188 61.730469 203.632812 61.882812 204.269531 62.195312 C 204.890625 62.484375 205.375 62.996094 205.636719 63.625 C 205.90625 64.269531 206.039062 65.085938 206.039062 66.074219 L 206.039062 71.179688 C 206.039062 72.191406 205.90625 73.035156 205.636719 73.707031 C 205.363281 74.378906 204.914062 74.882812 204.289062 75.207031 C 203.660156 75.535156 202.800781 75.699219 201.707031 75.699219 Z M 200.859375 73.921875 L 201.636719 73.921875 C 202.222656 73.921875 202.644531 73.820312 202.898438 73.613281 C 203.152344 73.40625 203.304688 73.105469 203.363281 72.707031 C 203.421875 72.3125 203.449219 71.824219 203.449219 71.25 L 203.449219 65.902344 C 203.449219 65.339844 203.410156 64.886719 203.328125 64.542969 C 203.25 64.195312 203.082031 63.945312 202.828125 63.78125 C 202.574219 63.621094 202.167969 63.542969 201.601562 63.542969 L 200.859375 63.542969 Z M 207.992188 75.699219 L 207.992188 61.730469 L 210.515625 61.730469 L 210.515625 75.699219 Z M 216.507812 75.890625 C 215.472656 75.890625 214.664062 75.699219 214.089844 75.320312 C 213.511719 74.941406 213.117188 74.402344 212.898438 73.699219 C 212.679688 72.996094 212.570312 72.160156 212.570312 71.179688 L 212.570312 61.730469 L 215.054688 61.730469 L 215.054688 71.472656 C 215.054688 71.910156 215.085938 72.320312 215.140625 72.707031 C 215.199219 73.09375 215.335938 73.402344 215.546875 73.636719 C 215.761719 73.875 216.082031 73.992188 216.507812 73.992188 C 216.957031 73.992188 217.28125 73.875 217.484375 73.636719 C 217.683594 73.402344 217.816406 73.09375 217.878906 72.707031 C 217.945312 72.300781 217.976562 71.886719 217.976562 71.472656 L 217.976562 61.730469 L 220.445312 61.730469 L 220.445312 71.179688 C 220.445312 72.160156 220.335938 73 220.117188 73.699219 C 219.898438 74.402344 219.503906 74.941406 218.933594 75.320312 C 218.363281 75.699219 217.554688 75.890625 216.507812 75.890625 Z M 222.414062 75.699219 L 222.65625 61.730469 L 225.296875 61.730469 L 227.285156 71.40625 L 229.359375 61.730469 L 231.914062 61.730469 L 232.171875 75.699219 L 230.273438 75.699219 L 230.066406 65.988281 L 228.082031 75.699219 L 226.542969 75.699219 L 224.523438 65.953125 L 224.332031 75.699219 Z M 222.414062 75.699219 "/>
</g>
</defs>
<g id="surface1">
<path style=" stroke:none;fill-rule:nonzero;fill:rgb(0%,0%,0%);fill-opacity:1;" d="M 21.558594 225.164062 C 24.679688 248.832031 39.714844 269.191406 61.242188 278.921875 C 106.929688 299.574219 187.179688 332.570312 215.863281 323.699219 C 256.890625 311.011719 341.011719 77.132812 327.28125 35.082031 C 313.546875 -6.96875 31.132812 21.464844 18.5 56.148438 C 8.851562 82.632812 14.367188 170.597656 21.558594 225.164062 Z M 21.558594 225.164062 "/>
<use xlink:href="#surface5" mask="url(#mask0)"/>
<path style=" stroke:none;fill-rule:nonzero;fill:rgb(14.901961%,19.607843%,21.960784%);fill-opacity:1;" d="M 291.273438 222.582031 L 291.273438 222.578125 C 291.285156 222.550781 291.269531 222.523438 291.246094 222.511719 C 291.230469 222.503906 291.21875 222.503906 291.203125 222.507812 C 291.191406 222.515625 291.179688 222.523438 291.175781 222.539062 C 289.566406 226.25 288.433594 230.144531 287.488281 234.074219 C 286.578125 238.011719 285.917969 242.007812 285.457031 246.03125 L 285.167969 249.054688 C 285.125 249.558594 285.070312 250.0625 285.03125 250.566406 L 284.949219 252.082031 C 284.90625 253.09375 284.84375 254.105469 284.816406 255.117188 L 284.84375 258.15625 L 284.878906 259.671875 C 284.898438 260.179688 284.9375 260.683594 284.972656 261.1875 C 285.046875 262.199219 285.109375 263.207031 285.203125 264.214844 C 285.394531 266.230469 285.699219 268.230469 286.011719 270.226562 C 286.015625 270.253906 286.039062 270.273438 286.066406 270.269531 C 286.09375 270.269531 286.117188 270.246094 286.117188 270.21875 L 286.117188 270.214844 C 286.113281 269.203125 286.070312 268.195312 286.046875 267.1875 C 286.015625 266.179688 285.929688 265.179688 285.941406 264.171875 C 285.945312 263.164062 285.921875 262.160156 285.910156 261.15625 L 285.882812 259.652344 L 285.910156 258.144531 L 285.921875 255.136719 L 286.003906 252.128906 L 286.035156 250.621094 C 286.054688 250.121094 286.09375 249.621094 286.121094 249.121094 L 286.304688 246.113281 C 286.660156 242.113281 287.207031 238.125 288.011719 234.1875 C 288.8125 230.25 289.800781 226.328125 291.273438 222.582031 Z M 291.703125 238.320312 C 291.710938 238.292969 291.699219 238.261719 291.671875 238.253906 C 291.65625 238.246094 291.640625 238.25 291.628906 238.253906 C 291.617188 238.261719 291.605469 238.273438 291.601562 238.285156 C 290.734375 240.785156 290.042969 243.34375 289.457031 245.929688 C 288.898438 248.519531 288.457031 251.140625 288.191406 253.785156 C 287.921875 256.417969 287.628906 259.058594 287.59375 261.703125 C 287.550781 264.351562 287.59375 267 287.875 269.644531 C 287.878906 269.671875 287.898438 269.691406 287.921875 269.695312 C 287.949219 269.695312 287.976562 269.675781 287.980469 269.644531 C 288.285156 267.007812 288.472656 264.378906 288.65625 261.75 C 288.84375 259.121094 288.867188 256.484375 289.039062 253.855469 C 289.199219 251.234375 289.527344 248.625 289.980469 246.03125 C 290.421875 243.4375 290.972656 240.855469 291.703125 238.320312 Z M 300.441406 243.855469 C 300.425781 243.832031 300.394531 243.824219 300.367188 243.839844 C 298.179688 245.222656 296.230469 246.964844 294.527344 248.925781 C 293.6875 249.921875 292.910156 250.964844 292.242188 252.097656 L 291.773438 252.984375 L 291.402344 253.902344 C 291.273438 254.207031 291.179688 254.519531 291.085938 254.832031 C 290.988281 255.148438 290.882812 255.460938 290.800781 255.773438 C 290.144531 258.304688 289.707031 260.882812 289.589844 263.472656 C 289.484375 266.058594 289.535156 268.652344 289.878906 271.222656 C 289.882812 271.246094 289.902344 271.265625 289.929688 271.269531 C 289.957031 271.273438 289.984375 271.25 289.984375 271.21875 L 290.652344 263.546875 C 290.917969 261.011719 291.082031 258.460938 291.625 255.980469 C 291.695312 255.671875 291.785156 255.371094 291.863281 255.0625 C 291.941406 254.757812 292.019531 254.453125 292.132812 254.160156 L 292.441406 253.273438 L 292.84375 252.4375 C 293.4375 251.328125 294.160156 250.269531 294.9375 249.261719 C 296.5 247.25 298.335938 245.417969 300.421875 243.929688 L 300.425781 243.929688 C 300.449219 243.914062 300.457031 243.878906 300.441406 243.855469 Z M 300.441406 243.855469 "/>
<path style=" stroke:none;fill-rule:nonzero;fill:rgb(14.901961%,19.607843%,21.960784%);fill-opacity:1;" d="M 296.210938 253.714844 C 295.023438 254.480469 294.226562 255.6875 293.554688 256.902344 C 292.914062 258.148438 292.417969 259.457031 292.066406 260.8125 C 291.960938 261.144531 291.878906 261.484375 291.804688 261.824219 L 291.566406 262.84375 C 291.441406 263.527344 291.347656 264.222656 291.308594 264.917969 C 291.296875 265.613281 291.277344 266.308594 291.324219 267 C 291.382812 267.695312 291.460938 268.386719 291.597656 269.074219 C 291.605469 269.09375 291.621094 269.113281 291.640625 269.117188 C 291.671875 269.121094 291.699219 269.101562 291.707031 269.074219 C 291.875 268.390625 291.984375 267.710938 292.074219 267.035156 C 292.183594 266.359375 292.285156 265.6875 292.367188 265.015625 C 292.472656 264.347656 292.550781 263.679688 292.609375 263.003906 C 292.703125 262.339844 292.75 261.660156 292.898438 261.003906 C 293.128906 259.671875 293.515625 258.375 294.035156 257.132812 C 294.554688 255.902344 295.230469 254.671875 296.265625 253.804688 L 296.273438 253.796875 C 296.292969 253.78125 296.300781 253.753906 296.285156 253.730469 C 296.277344 253.71875 296.265625 253.710938 296.253906 253.707031 C 296.238281 253.703125 296.222656 253.707031 296.210938 253.714844 Z M 283.957031 261.402344 C 283.671875 257.992188 283.109375 254.621094 282.578125 251.25 C 282.039062 247.882812 281.460938 244.519531 280.835938 241.164062 C 280.203125 237.8125 279.523438 234.46875 278.804688 231.136719 C 278.800781 231.105469 278.769531 231.089844 278.742188 231.09375 C 278.714844 231.101562 278.695312 231.128906 278.703125 231.15625 C 279.285156 234.515625 279.8125 237.882812 280.3125 241.253906 C 280.824219 244.621094 281.304688 247.992188 281.734375 251.371094 C 282.148438 254.75 282.476562 258.136719 282.898438 261.511719 L 284.148438 271.652344 C 284.148438 271.679688 284.171875 271.699219 284.199219 271.699219 C 284.210938 271.699219 284.226562 271.695312 284.238281 271.6875 C 284.246094 271.675781 284.253906 271.664062 284.253906 271.648438 C 284.292969 270.792969 284.292969 269.941406 284.316406 269.082031 C 284.320312 268.226562 284.28125 267.375 284.265625 266.519531 C 284.234375 264.808594 284.085938 263.105469 283.957031 261.402344 Z M 281.914062 261.351562 C 281.730469 260 281.480469 258.660156 281.222656 257.324219 L 280.746094 255.335938 C 280.585938 254.671875 280.4375 254.007812 280.246094 253.351562 C 279.5625 250.710938 278.691406 248.121094 277.636719 245.605469 L 277.226562 244.667969 L 276.773438 243.75 C 276.484375 243.132812 276.132812 242.546875 275.804688 241.949219 C 275.089844 240.789062 274.347656 239.628906 273.339844 238.691406 C 273.320312 238.667969 273.285156 238.667969 273.265625 238.691406 C 273.246094 238.710938 273.246094 238.746094 273.265625 238.765625 L 273.269531 238.769531 C 274.203125 239.734375 274.882812 240.925781 275.523438 242.105469 C 275.820312 242.710938 276.132812 243.304688 276.386719 243.929688 L 276.789062 244.859375 L 277.144531 245.804688 C 278.085938 248.328125 278.847656 250.917969 279.417969 253.554688 C 279.726562 254.863281 279.933594 256.199219 280.1875 257.523438 L 280.507812 259.519531 C 280.621094 260.179688 280.765625 260.839844 280.859375 261.507812 C 281.070312 262.839844 281.316406 264.167969 281.550781 265.503906 C 281.757812 266.839844 282 268.171875 282.28125 269.507812 C 282.289062 269.53125 282.308594 269.550781 282.335938 269.550781 C 282.363281 269.550781 282.390625 269.527344 282.390625 269.5 C 282.394531 268.136719 282.363281 266.777344 282.292969 265.417969 C 282.214844 264.058594 282.054688 262.707031 281.914062 261.351562 Z M 279.089844 261.523438 C 278.453125 259.742188 277.730469 257.988281 276.929688 256.273438 C 276.113281 254.566406 275.226562 252.894531 274.210938 251.300781 C 274.195312 251.277344 274.164062 251.269531 274.140625 251.28125 C 274.128906 251.289062 274.117188 251.300781 274.117188 251.316406 C 274.113281 251.328125 274.113281 251.34375 274.121094 251.355469 C 275.007812 253.011719 275.761719 254.738281 276.441406 256.484375 C 277.136719 258.222656 277.75 259.992188 278.28125 261.789062 C 278.8125 263.585938 279.195312 265.414062 279.671875 267.214844 C 280.175781 269.015625 280.582031 270.835938 281.136719 272.660156 C 281.144531 272.683594 281.164062 272.699219 281.1875 272.699219 C 281.21875 272.699219 281.242188 272.675781 281.242188 272.644531 C 281.265625 270.742188 281.085938 268.84375 280.710938 266.980469 C 280.378906 265.105469 279.71875 263.3125 279.089844 261.523438 Z M 278.972656 267.480469 C 278.648438 266.359375 278.097656 265.316406 277.472656 264.332031 C 276.855469 263.347656 276.140625 262.414062 275.285156 261.621094 C 274.84375 261.242188 274.394531 260.875 273.894531 260.574219 C 273.402344 260.269531 272.882812 260.011719 272.316406 259.863281 C 272.292969 259.855469 272.265625 259.871094 272.257812 259.894531 C 272.25 259.90625 272.25 259.921875 272.253906 259.933594 C 272.261719 259.945312 272.269531 259.957031 272.28125 259.964844 L 272.289062 259.964844 C 273.3125 260.417969 274.175781 261.171875 274.90625 261.996094 C 275.644531 262.820312 276.234375 263.765625 276.726562 264.75 C 277.246094 265.730469 277.511719 266.808594 277.960938 267.816406 C 278.160156 268.335938 278.359375 268.855469 278.589844 269.371094 C 278.785156 269.898438 279 270.421875 279.273438 270.945312 L 279.273438 270.949219 C 279.285156 270.964844 279.300781 270.976562 279.320312 270.976562 C 279.351562 270.980469 279.375 270.957031 279.378906 270.925781 C 279.394531 270.34375 279.375 269.761719 279.3125 269.183594 C 279.226562 268.609375 279.113281 268.042969 278.972656 267.480469 Z M 278.972656 267.480469 "/>
<path style=" stroke:none;fill-rule:nonzero;fill:rgb(40%,63.921569%,6.27451%);fill-opacity:1;" d="M 279.183594 236.011719 C 279.183594 236.011719 273.59375 234.726562 272.304688 228.714844 C 271.011719 222.703125 275.167969 225.277344 271.441406 215.832031 C 267.714844 206.386719 268.578125 204.238281 269.867188 201.519531 C 271.15625 198.800781 271.875 199.660156 273.019531 203.238281 C 274.167969 206.816406 278.324219 212.398438 279.898438 222.84375 C 281.476562 233.292969 279.183594 236.011719 279.183594 236.011719 Z M 290.21875 225.851562 C 290.21875 225.851562 286.492188 224.5625 286.351562 217.550781 C 286.207031 210.539062 289.074219 211.96875 289.503906 203.238281 C 289.933594 194.507812 290.507812 188.351562 292.082031 188.210938 C 293.660156 188.066406 297.816406 192.503906 299.25 202.234375 C 300.683594 211.96875 297.386719 218.40625 294.519531 221.269531 C 291.652344 224.132812 290.21875 225.851562 290.21875 225.851562 Z M 277.175781 244.457031 C 277.175781 244.457031 276.316406 239.304688 274.597656 236.871094 C 272.878906 234.4375 269.148438 232.292969 266.714844 227.570312 C 264.277344 222.84375 261.554688 220.554688 261.695312 227.28125 C 261.839844 234.007812 264.851562 237.445312 268.578125 239.734375 C 272.304688 242.023438 277.175781 244.457031 277.175781 244.457031 Z M 275.601562 253.332031 C 275.601562 253.332031 272.160156 246.746094 267.144531 241.878906 C 262.128906 237.015625 258.113281 234.582031 259.546875 237.015625 C 260.980469 239.449219 262.699219 239.304688 265.136719 243.597656 C 267.574219 247.890625 266.855469 251.039062 270.296875 253.472656 C 273.738281 255.90625 275.601562 253.332031 275.601562 253.332031 Z M 275.167969 261.773438 C 275.027344 261.347656 274.882812 258.195312 270.007812 255.621094 C 265.136719 253.042969 260.550781 254.046875 261.121094 255.335938 C 261.695312 256.621094 264.707031 258.769531 267.714844 260.058594 C 270.726562 261.34375 275.167969 261.773438 275.167969 261.773438 Z M 289.933594 244.742188 C 289.933594 244.742188 287.785156 242.023438 288.929688 236.300781 C 290.078125 230.574219 292.65625 232.007812 295.523438 229 C 298.390625 225.996094 297.816406 225.566406 300.683594 222.417969 C 303.550781 219.269531 306.128906 217.550781 307.277344 218.839844 C 308.421875 220.125 306.703125 224.132812 304.984375 226.425781 C 303.261719 228.714844 300.539062 229.859375 299.25 232.722656 C 297.960938 235.585938 298.53125 240.164062 295.238281 242.3125 C 291.941406 244.457031 289.933594 244.742188 289.933594 244.742188 Z M 297.101562 246.316406 C 297.101562 246.316406 302.257812 240.449219 305.988281 236.15625 C 309.714844 231.863281 311.148438 228.570312 311.289062 231.433594 C 311.433594 234.296875 312.578125 236.585938 309.570312 240.304688 C 306.558594 244.027344 297.101562 246.316406 297.101562 246.316406 Z M 294.375 255.765625 C 294.375 255.765625 294.234375 253.472656 302.402344 248.179688 C 310.574219 242.882812 314.011719 241.878906 313.152344 244.027344 C 312.292969 246.175781 308.710938 248.320312 304.839844 252.1875 C 300.96875 256.050781 294.375 255.765625 294.375 255.765625 Z M 294.375 255.765625 "/>
<path style="fill:none;stroke-width:1;stroke-linecap:round;stroke-linejoin:round;stroke:rgb(14.901961%,19.607843%,21.960784%);stroke-opacity:1;stroke-miterlimit:4;" d="M 372.697917 314.331365 C 372.697917 314.331365 370.140625 300.623736 367.46875 290.875046 C 364.791667 281.131572 363.072917 275.206204 363.072917 275.206204 M 386.520833 301.724311 C 386.520833 301.724311 391.166667 286.863948 392.692708 277.882008 C 394.223958 268.900069 392.505208 262.20795 391.739583 258.196852 M 368.963542 326.135156 C 368.963542 326.135156 366.130208 321.070427 361.921875 316.099586 C 357.71875 311.133961 354.46875 308.458157 352.5625 303.680308 M 386.578125 326.802803 C 386.578125 326.802803 388.109375 317.633088 391.739583 312.855239 C 395.369792 308.07739 402.630208 300.623736 405.5 295.845887 M 366.442708 349.335892 C 366.442708 349.335892 360.010417 345.152665 355.427083 342.857629 " transform="matrix(0.75,0,0,0.748899,0,0)"/>
<path style="fill-rule:nonzero;fill:rgb(14.901961%,19.607843%,21.960784%);fill-opacity:1;stroke-width:1;stroke-linecap:round;stroke-linejoin:round;stroke:rgb(14.901961%,19.607843%,21.960784%);stroke-opacity:1;stroke-miterlimit:4;" d="M 403.265625 387.861213 C 402.838542 376.260846 389.953125 368.530744 389.953125 368.530744 L 370.203125 368.530744 C 370.203125 368.530744 357.317708 376.260846 356.885417 387.861213 C 356.458333 399.456365 371.489583 441.977137 371.489583 441.977137 L 388.661458 441.977137 C 388.661458 441.977137 403.697917 399.456365 403.265625 387.861213 Z M 392.494792 357.128585 L 367.296875 357.128585 L 370.203125 368.530744 L 389.588542 368.530744 Z M 392.494792 357.128585 " transform="matrix(0.75,0,0,0.748899,0,0)"/>
<use xlink:href="#surface8" mask="url(#mask1)"/>
<use xlink:href="#surface11" mask="url(#mask2)"/>
<use xlink:href="#surface14" mask="url(#mask3)"/>
<use xlink:href="#surface17" mask="url(#mask4)"/>
<path style=" stroke:none;fill-rule:nonzero;fill:rgb(14.901961%,19.607843%,21.960784%);fill-opacity:1;" d="M 233.132812 70.386719 L 176.53125 70.386719 C 172.394531 70.386719 169.042969 67.039062 169.042969 62.910156 L 169.042969 7.476562 C 169.042969 3.347656 172.394531 0 176.53125 0 L 233.132812 0 C 237.265625 0 240.617188 3.347656 240.617188 7.476562 L 240.617188 62.910156 C 240.617188 67.039062 237.265625 70.386719 233.132812 70.386719 Z M 233.132812 70.386719 "/>
<path style="fill-rule:nonzero;fill:rgb(40%,63.921569%,6.27451%);fill-opacity:1;stroke-width:1;stroke-linecap:butt;stroke-linejoin:round;stroke:rgb(14.901961%,19.607843%,21.960784%);stroke-opacity:1;stroke-miterlimit:4;" d="M 409.885417 190.613235 L 136.333333 190.613235 C 136.713542 115.393405 197.802083 54.533203 273.114583 54.533203 C 348.411458 54.533203 409.505208 115.393405 409.885417 190.613235 Z M 409.885417 190.613235 " transform="matrix(0.75,0,0,0.748899,0,0)"/>
<path style="fill-rule:nonzero;fill:rgb(100%,100%,100%);fill-opacity:1;stroke-width:1;stroke-linecap:butt;stroke-linejoin:round;stroke:rgb(14.901961%,19.607843%,21.960784%);stroke-opacity:1;stroke-miterlimit:4;" d="M 403.072917 190.613235 L 143.140625 190.613235 C 143.375 147.122289 164.963542 108.690855 197.953125 85.271048 C 219.171875 70.202045 245.114583 61.340074 273.114583 61.340074 C 301.114583 61.340074 327.052083 70.202045 348.270833 85.260616 C 381.255208 108.690855 402.84375 147.122289 403.072917 190.613235 Z M 403.072917 190.613235 " transform="matrix(0.75,0,0,0.748899,0,0)"/>
<path style="fill-rule:nonzero;fill:rgb(100%,100%,100%);fill-opacity:1;stroke-width:1;stroke-linecap:butt;stroke-linejoin:round;stroke:rgb(14.901961%,19.607843%,21.960784%);stroke-opacity:1;stroke-miterlimit:4;" d="M 348.270833 85.260616 L 273.614583 190.613235 L 273.114583 191.312178 L 272.614583 190.613235 L 197.953125 85.271048 C 219.171875 70.202045 245.114583 61.340074 273.114583 61.340074 C 301.114583 61.340074 327.052083 70.202045 348.270833 85.260616 Z M 348.270833 85.260616 " transform="matrix(0.75,0,0,0.748899,0,0)"/>
<path style="fill-rule:nonzero;fill:rgb(100%,100%,100%);fill-opacity:1;stroke-width:1;stroke-linecap:butt;stroke-linejoin:round;stroke:rgb(14.901961%,19.607843%,21.960784%);stroke-opacity:1;stroke-miterlimit:4;" d="M 324.333333 190.613235 L 221.885417 190.613235 C 222.255208 162.629435 245.041667 140.070267 273.114583 140.070267 C 301.171875 140.070267 323.963542 162.629435 324.333333 190.613235 Z M 324.333333 190.613235 " transform="matrix(0.75,0,0,0.748899,0,0)"/>
<path style=" stroke:none;fill-rule:nonzero;fill:rgb(14.901961%,19.607843%,21.960784%);fill-opacity:1;" d="M 233.976562 167.988281 C 233.195312 168.894531 232.078125 169.453125 230.882812 169.539062 C 229.683594 169.625 228.503906 169.226562 227.597656 168.4375 L 149.476562 99.273438 L 153.390625 94.730469 L 233.480469 161.621094 C 234.394531 162.398438 234.960938 163.507812 235.054688 164.703125 C 235.148438 165.894531 234.761719 167.078125 233.976562 167.988281 Z M 233.976562 167.988281 "/>
<path style="fill-rule:nonzero;fill:rgb(100%,100%,100%);fill-opacity:1;stroke-width:1;stroke-linecap:butt;stroke-linejoin:round;stroke:rgb(14.901961%,19.607843%,21.960784%);stroke-opacity:1;stroke-miterlimit:4;" d="M 58.137083 29.069178 C 58.137083 45.124004 45.121458 58.137905 29.069375 58.137905 C 13.012083 58.137905 0.00166667 45.124004 0.00166667 29.069178 C 0.00166667 13.014353 13.012083 0.000451287 29.069375 0.000451287 C 45.121458 0.000451287 58.137083 13.014353 58.137083 29.069178 Z M 58.137083 29.069178 " transform="matrix(0.75,0,0,0.748899,183.03,121.503568)"/>
<path style="fill-rule:nonzero;fill:rgb(14.901961%,19.607843%,21.960784%);fill-opacity:1;stroke-width:1;stroke-linecap:butt;stroke-linejoin:round;stroke:rgb(14.901961%,19.607843%,21.960784%);stroke-opacity:1;stroke-miterlimit:4;" d="M 44.918333 29.069178 C 44.918333 37.821614 37.824583 44.92058 29.069375 44.92058 C 20.314167 44.92058 13.215208 37.821614 13.215208 29.069178 C 13.215208 20.311527 20.314167 13.217777 29.069375 13.217777 C 37.824583 13.217777 44.918333 20.311527 44.918333 29.069178 Z M 44.918333 29.069178 " transform="matrix(0.75,0,0,0.748899,183.03,121.503568)"/>
<use xlink:href="#surface20" mask="url(#mask5)"/>
<use xlink:href="#surface23" mask="url(#mask6)"/>
<path style=" stroke:none;fill-rule:nonzero;fill:rgb(40%,63.921569%,6.27451%);fill-opacity:1;" d="M 181.878906 30.5 L 181.878906 8.570312 L 187.140625 8.570312 C 188.621094 8.570312 189.875 8.746094 190.894531 9.097656 C 191.914062 9.449219 192.691406 10.050781 193.226562 10.898438 C 193.757812 11.746094 194.027344 12.902344 194.027344 14.363281 C 194.027344 15.25 193.945312 16.042969 193.78125 16.746094 C 193.621094 17.449219 193.34375 18.050781 192.953125 18.546875 C 192.566406 19.042969 192.027344 19.425781 191.34375 19.699219 L 194.40625 30.5 L 190.394531 30.5 L 187.738281 20.457031 L 185.894531 20.457031 L 185.894531 30.5 Z M 185.894531 17.9375 L 187.140625 17.9375 C 187.917969 17.9375 188.535156 17.824219 188.996094 17.597656 C 189.457031 17.375 189.789062 17.011719 189.988281 16.515625 C 190.183594 16.019531 190.285156 15.382812 190.285156 14.605469 C 190.285156 13.507812 190.082031 12.679688 189.675781 12.128906 C 189.265625 11.578125 188.496094 11.304688 187.355469 11.304688 L 185.890625 11.304688 L 185.890625 17.9375 Z M 197.144531 30.5 L 197.144531 8.570312 L 201.101562 8.570312 L 201.101562 30.5 Z M 210.023438 30.796875 C 208.703125 30.796875 207.597656 30.539062 206.714844 30.027344 C 205.828125 29.511719 205.160156 28.757812 204.707031 27.765625 C 204.253906 26.773438 204.003906 25.554688 203.949219 24.109375 L 207.390625 23.433594 C 207.429688 24.28125 207.53125 25.03125 207.703125 25.679688 C 207.875 26.328125 208.136719 26.832031 208.492188 27.183594 C 208.84375 27.535156 209.308594 27.710938 209.886719 27.710938 C 210.535156 27.710938 210.996094 27.515625 211.269531 27.128906 C 211.539062 26.742188 211.675781 26.25 211.675781 25.652344 C 211.675781 24.695312 211.457031 23.914062 211.023438 23.296875 C 210.589844 22.683594 210.011719 22.070312 209.289062 21.457031 L 206.523438 19.019531 C 205.746094 18.351562 205.128906 17.609375 204.667969 16.789062 C 204.207031 15.96875 203.976562 14.953125 203.976562 13.742188 C 203.976562 12.011719 204.480469 10.675781 205.492188 9.734375 C 206.503906 8.796875 207.886719 8.328125 209.640625 8.328125 C 210.671875 8.328125 211.53125 8.488281 212.21875 8.800781 C 212.902344 9.117188 213.453125 9.554688 213.855469 10.113281 C 214.273438 10.691406 214.578125 11.335938 214.765625 12.023438 C 214.964844 12.734375 215.089844 13.488281 215.144531 14.285156 L 211.730469 14.878906 C 211.703125 14.261719 211.625 13.644531 211.5 13.039062 C 211.378906 12.496094 211.171875 12.074219 210.875 11.765625 C 210.578125 11.457031 210.140625 11.304688 209.558594 11.304688 C 208.964844 11.304688 208.507812 11.5 208.191406 11.886719 C 207.875 12.277344 207.714844 12.757812 207.714844 13.335938 C 207.714844 14.074219 207.871094 14.683594 208.175781 15.164062 C 208.484375 15.640625 208.925781 16.132812 209.503906 16.636719 L 212.242188 19.046875 C 213.152344 19.808594 213.933594 20.710938 214.5625 21.714844 C 215.203125 22.734375 215.523438 23.964844 215.523438 25.410156 C 215.523438 26.457031 215.292969 27.386719 214.832031 28.199219 C 214.382812 29 213.714844 29.664062 212.910156 30.105469 C 212.085938 30.566406 211.125 30.796875 210.023438 30.796875 Z M 217.667969 30.5 L 217.667969 8.570312 L 221.679688 8.570312 L 221.679688 18.207031 L 226.019531 8.570312 L 229.839844 8.570312 L 225.636719 18.371094 L 230.273438 30.5 L 226.289062 30.5 L 222.601562 20.507812 L 221.679688 22.1875 L 221.679688 30.5 Z M 217.667969 30.5 "/>
<use xlink:href="#surface26" mask="url(#mask7)"/>
<path style="fill:none;stroke-width:1;stroke-linecap:round;stroke-linejoin:round;stroke:rgb(57.254902%,89.019608%,66.27451%);stroke-opacity:1;stroke-miterlimit:4;" d="M 143.604167 201.5929 C 148.8125 195.166797 153.473958 198.948392 158.682292 192.522289 C 163.895833 186.09097 159.234375 182.314591 164.442708 175.888488 C 169.65625 169.457169 174.317708 173.238764 179.526042 166.807445 C 184.739583 160.381342 180.078125 156.604963 185.291667 150.173644 C 190.505208 143.747541 195.161458 147.52392 200.375 141.092601 M 154.5 210.423575 C 159.708333 203.997472 164.369792 207.779067 169.578125 201.352964 C 174.791667 194.926861 170.130208 191.145267 175.338542 184.719164 C 180.552083 178.293061 185.213542 182.069439 190.421875 175.643336 C 195.635417 169.212017 190.973958 165.435639 196.1875 159.00432 C 201.395833 152.578217 206.057292 156.354596 211.270833 149.928493 M 165.395833 219.259467 C 170.604167 212.833364 175.265625 216.609743 180.473958 210.18364 C 185.682292 203.757537 181.020833 199.981158 186.234375 193.549839 C 191.442708 187.123736 196.104167 190.900115 201.317708 184.474012 C 206.53125 178.042693 201.869792 174.266314 207.078125 167.840211 C 212.291667 161.408892 216.953125 165.190487 222.161458 158.759168 M 176.286458 228.090142 C 181.494792 221.66404 186.15625 225.440418 191.364583 219.019531 C 196.578125 212.588212 191.916667 208.811834 197.130208 202.380515 C 202.338542 195.954412 207 199.73079 212.213542 193.304688 C 217.421875 186.878585 212.760417 183.09699 217.973958 176.670887 C 223.1875 170.239568 227.848958 174.021163 233.057292 167.589844 " transform="matrix(0.75,0,0,0.748899,0,0)"/>
<path style="fill:none;stroke-width:1;stroke-linecap:round;stroke-linejoin:round;stroke:rgb(14.901961%,19.607843%,21.960784%);stroke-opacity:1;stroke-miterlimit:4;" d="M 1 441.977137 L 439.395833 441.977137 " transform="matrix(0.75,0,0,0.748899,0,0)"/>
<path style="fill-rule:nonzero;fill:rgb(100%,100%,100%);fill-opacity:1;stroke-width:1;stroke-linecap:butt;stroke-linejoin:round;stroke:rgb(14.901961%,19.607843%,21.960784%);stroke-opacity:1;stroke-miterlimit:4;" d="M 22.703125 419.084145 C 22.703125 419.084145 21.557292 436.083065 22.895833 439.520404 C 24.229167 442.957744 29.005208 448.304136 31.869792 447.156618 C 34.734375 446.014315 33.96875 439.327413 33.96875 434.742555 C 33.96875 430.162914 35.114583 423.283019 35.114583 422.140717 C 35.114583 420.993199 22.703125 419.084145 22.703125 419.084145 Z M 110.744792 430.543681 C 110.744792 430.543681 110.364583 442.190993 112.463542 442.957744 C 114.5625 443.719278 126.598958 442.383984 128.697917 442.764752 C 130.796875 443.145519 137.484375 443.531503 139.963542 442.764752 C 142.447917 442.003217 145.692708 440.662707 144.739583 438.753653 C 143.786458 436.8446 131.5625 431.691199 128.885417 429.969922 C 126.213542 428.248644 121.4375 425.004297 121.4375 425.004297 Z M 110.744792 430.543681 " transform="matrix(0.75,0,0,0.748899,0,0)"/>
<path style="fill-rule:nonzero;fill:rgb(14.901961%,19.607843%,21.960784%);fill-opacity:1;stroke-width:1;stroke-linecap:butt;stroke-linejoin:round;stroke:rgb(14.901961%,19.607843%,21.960784%);stroke-opacity:1;stroke-miterlimit:4;" d="M 47.911458 288.835593 C 47.911458 288.835593 46.958333 295.517279 46.572917 307.169807 C 46.192708 318.817119 50.203125 343.071484 50.203125 343.071484 L 45.239583 371.336949 L 26.140625 414.880055 C 26.140625 414.880055 21.557292 416.027574 22.703125 419.084145 C 23.848958 422.140717 27.859375 425.385064 30.151042 425.385064 C 32.442708 425.385064 35.5 424.430538 36.453125 422.902252 C 37.40625 421.373966 37.791667 417.555859 37.791667 417.555859 C 37.791667 417.555859 71.020833 373.246002 71.59375 371.717716 C 72.166667 370.18943 77.515625 346.701815 77.515625 346.701815 L 91.265625 365.223805 L 110.364583 422.328493 C 110.364583 422.328493 109.026042 424.04977 109.791667 426.532583 C 110.552083 429.015395 111.890625 432.452734 111.890625 432.452734 C 111.890625 432.452734 113.802083 432.452734 117.046875 431.305216 C 120.291667 430.157698 123.541667 427.294118 123.541667 427.294118 C 123.541667 427.294118 124.302083 425.765832 123.921875 423.856778 C 123.541667 421.947725 122.395833 421.180974 122.583333 419.652688 C 122.776042 418.124403 115.901042 363.695519 114.755208 360.070404 C 113.609375 356.440074 87.255208 301.818199 87.255208 301.818199 L 85.34375 287.87585 C 85.34375 287.881066 68.348958 294.755744 47.911458 288.835593 Z M 47.911458 288.835593 " transform="matrix(0.75,0,0,0.748899,0,0)"/>
<path style="fill-rule:nonzero;fill:rgb(100%,100%,100%);fill-opacity:1;stroke-width:1;stroke-linecap:round;stroke-linejoin:round;stroke:rgb(14.901961%,19.607843%,21.960784%);stroke-opacity:1;stroke-miterlimit:4;" d="M 74.65625 169.91096 C 74.65625 169.91096 67.119792 166.974357 61.005208 168.533938 C 54.895833 170.09352 45.427083 178.459972 46.119792 183.378653 C 46.8125 188.297335 58.005208 199.047495 58.005208 199.047495 L 57.572917 208.874426 L 77.104167 217.30347 L 79.885417 204.753791 C 79.885417 204.753791 87.0625 202.917762 86.786458 201.853699 C 86.515625 200.794853 84.869792 191.025299 84.869792 191.025299 C 84.869792 191.025299 87.057292 189.616981 85.583333 187.160248 C 84.104167 184.708732 80.932292 181.224449 80.932292 181.224449 C 80.932292 181.224449 81.916667 177.155974 74.65625 169.91096 Z M 74.65625 169.91096 " transform="matrix(0.75,0,0,0.748899,0,0)"/>
<path style="fill-rule:nonzero;fill:rgb(14.901961%,19.607843%,21.960784%);fill-opacity:1;stroke-width:1;stroke-linecap:round;stroke-linejoin:round;stroke:rgb(14.901961%,19.607843%,21.960784%);stroke-opacity:1;stroke-miterlimit:4;" d="M 79.885417 204.753791 C 79.885417 204.753791 75.291667 204.774655 74.541667 204.623392 C 73.786458 204.472128 69.104167 201.754596 69.104167 201.754596 L 77.557292 213.980882 Z M 79.885417 204.753791 " transform="matrix(0.75,0,0,0.748899,0,0)"/>
<path style=" stroke:none;fill-rule:nonzero;fill:rgb(14.901961%,19.607843%,21.960784%);fill-opacity:1;" d="M 59.847656 137.597656 C 60.207031 138.164062 60.3125 138.738281 60.078125 138.886719 C 59.847656 139.035156 59.367188 138.699219 59.003906 138.136719 C 58.644531 137.570312 58.539062 136.996094 58.773438 136.847656 C 59.003906 136.699219 59.484375 137.035156 59.847656 137.597656 Z M 59.847656 137.597656 "/>
<path style="fill:none;stroke-width:1;stroke-linecap:round;stroke-linejoin:round;stroke:rgb(14.901961%,19.607843%,21.960784%);stroke-opacity:1;stroke-miterlimit:4;" d="M 79.171875 180.212546 C 79.171875 180.212546 77.421875 179.711811 76.473958 181.667808 M 83.770833 193.925391 C 83.770833 193.925391 81.947917 194.509582 79.953125 193.382927 " transform="matrix(0.75,0,0,0.748899,0,0)"/>
<path style="fill-rule:nonzero;fill:rgb(14.901961%,19.607843%,21.960784%);fill-opacity:1;stroke-width:1;stroke-linecap:round;stroke-linejoin:round;stroke:rgb(14.901961%,19.607843%,21.960784%);stroke-opacity:1;stroke-miterlimit:4;" d="M 75.947917 171.64267 L 67.963542 175.815464 C 67.963542 175.815464 71.03125 177.860133 70.380208 179.727459 L 69.723958 181.594784 L 69.895833 188.907606 L 67.838542 189.716085 C 67.838542 189.716085 61.625 185.360731 60.119792 189.423989 C 58.609375 193.492463 63.880208 196.392555 63.880208 196.392555 C 63.880208 196.392555 61.708333 201.191268 59.71875 202.265763 C 57.729167 203.340257 58.84375 199.93943 54.911458 198.96404 C 50.984375 197.988649 43.5625 191.108755 43.411458 187.186328 C 43.260417 183.263902 45.208333 174.27153 51.838542 170.312592 C 58.46875 166.353653 63.052083 165.466935 66.776042 165.644278 C 70.505208 165.826838 74.192708 163.683065 75.401042 166.20239 C 76.614583 168.721714 75.947917 171.64267 75.947917 171.64267 Z M 75.947917 171.64267 " transform="matrix(0.75,0,0,0.748899,0,0)"/>
<path style="fill-rule:nonzero;fill:rgb(100%,100%,100%);fill-opacity:1;stroke-width:1;stroke-linecap:butt;stroke-linejoin:round;stroke:rgb(14.901961%,19.607843%,21.960784%);stroke-opacity:1;stroke-miterlimit:4;" d="M 56.125 208.811834 C 56.125 208.811834 48.869792 218.555308 46.005208 230.583387 C 43.135417 242.616682 42.5625 256.939798 45.046875 264.20046 C 47.53125 271.455905 47.151042 284.250735 47.151042 284.250735 C 47.151042 284.250735 45.239583 287.881066 47.338542 290.170887 C 49.442708 292.460708 62.807292 296.664798 74.458333 294.94352 C 86.109375 293.227459 86.489583 290.363879 87.0625 288.454825 C 87.635417 286.540556 87.447917 260.570129 84.963542 248.917601 C 82.479167 237.27029 79.614583 227.146048 77.895833 221.992647 C 76.177083 216.83403 56.125 208.811834 56.125 208.811834 Z M 56.125 208.811834 " transform="matrix(0.75,0,0,0.748899,0,0)"/>
<path style="fill-rule:nonzero;fill:rgb(100%,100%,100%);fill-opacity:1;stroke-width:1;stroke-linecap:butt;stroke-linejoin:round;stroke:rgb(14.901961%,19.607843%,21.960784%);stroke-opacity:1;stroke-miterlimit:4;" d="M 56.375 202.406595 L 80.567708 218.362316 L 80.1875 226.958272 L 53.833333 209.192601 Z M 56.375 202.406595 " transform="matrix(0.75,0,0,0.748899,0,0)"/>
<path style="fill-rule:nonzero;fill:rgb(14.901961%,19.607843%,21.960784%);fill-opacity:1;stroke-width:1;stroke-linecap:butt;stroke-linejoin:round;stroke:rgb(14.901961%,19.607843%,21.960784%);stroke-opacity:1;stroke-miterlimit:4;" d="M 180.708333 236.284467 L 167.979167 225.278722 L 163.65625 222.722886 L 136.859375 270.767394 C 128.552083 280.563028 115.3125 282.993681 107.296875 276.192027 C 99.28125 269.395588 99.515625 255.938327 107.828125 246.142693 L 147.953125 208.50409 L 136.098958 198.066889 L 130.901042 194.942509 L 89.885417 238.417808 C 76.416667 254.300506 78.369792 278.10108 94.255208 291.573989 C 110.140625 305.046898 133.9375 303.090901 147.411458 287.208203 Z M 180.708333 236.284467 " transform="matrix(0.75,0,0,0.748899,0,0)"/>
<path style="fill-rule:nonzero;fill:rgb(14.901961%,19.607843%,21.960784%);fill-opacity:1;stroke-width:1;stroke-linecap:round;stroke-linejoin:round;stroke:rgb(14.901961%,19.607843%,21.960784%);stroke-opacity:1;stroke-miterlimit:4;" d="M 167.979167 225.278722 L 163.65625 222.722886 L 149.859375 247.462339 L 161.677083 257.278837 L 165.307292 259.834674 L 180.708333 236.284467 Z M 123.880208 225.216131 L 126.989583 228.163166 L 147.947917 208.50409 L 136.098958 198.066889 L 130.901042 194.942509 L 117.479167 209.166521 Z M 123.880208 225.216131 " transform="matrix(0.75,0,0,0.748899,0,0)"/>
<path style="fill-rule:nonzero;fill:rgb(100%,100%,100%);fill-opacity:1;stroke-width:1;stroke-linecap:butt;stroke-linejoin:round;stroke:rgb(14.901961%,19.607843%,21.960784%);stroke-opacity:1;stroke-miterlimit:4;" d="M 176.916667 233.973782 L 163.65625 222.722886 L 133.072917 268.451494 C 124.760417 278.247128 111.526042 280.67778 103.510417 273.876126 C 95.489583 267.079687 95.729167 253.622426 104.036458 243.826792 L 144.161458 206.188189 L 130.901042 194.942509 L 86.098958 236.096691 C 72.625 251.984605 74.583333 275.785179 90.463542 289.258088 C 106.348958 302.730997 130.151042 300.775 143.625 284.887086 Z M 176.916667 233.973782 " transform="matrix(0.75,0,0,0.748899,0,0)"/>
<path style="fill-rule:nonzero;fill:rgb(40%,63.921569%,6.27451%);fill-opacity:1;stroke-width:1;stroke-linecap:butt;stroke-linejoin:round;stroke:rgb(14.901961%,19.607843%,21.960784%);stroke-opacity:1;stroke-miterlimit:4;" d="M 161.677083 257.278837 L 176.916667 233.973782 L 163.65625 222.722886 L 148.192708 245.840165 Z M 123.880208 225.216131 L 144.161458 206.188189 L 130.901042 194.942509 L 110.395833 213.782675 Z M 123.880208 225.216131 " transform="matrix(0.75,0,0,0.748899,0,0)"/>
<path style="fill-rule:nonzero;fill:rgb(100%,100%,100%);fill-opacity:1;stroke-width:1;stroke-linecap:butt;stroke-linejoin:round;stroke:rgb(14.901961%,19.607843%,21.960784%);stroke-opacity:1;stroke-miterlimit:4;" d="M 78.088542 271.455905 L 119.53125 292.07994 C 119.53125 292.07994 122.776042 289.409352 124.307292 287.495083 C 125.833333 285.586029 127.171875 285.01227 128.890625 284.824494 C 130.609375 284.631503 131.755208 285.398254 133.854167 283.676976 C 135.953125 281.955699 136.338542 282.341682 135.572917 284.250735 C 134.807292 286.159789 134.619792 286.92654 132.901042 287.114315 C 131.182292 287.307307 130.036458 288.068842 130.036458 288.068842 C 130.036458 288.068842 135 291.125414 136.145833 291.699173 C 137.291667 292.272932 138.244792 293.227459 137.864583 293.801218 C 137.484375 294.374977 137.864583 295.329504 136.71875 295.329504 L 134.234375 295.329504 C 134.234375 295.329504 132.708333 296.664798 131.177083 298.573851 C 129.651042 300.482904 128.125 301.437431 126.40625 301.630423 C 124.6875 301.823415 120.104167 301.630423 116.088542 300.482904 C 112.078125 299.340602 78.848958 289.028585 74.458333 287.307307 C 70.0625 285.586029 64.526042 281.580147 64.526042 281.580147 Z M 52.307292 224.663235 C 52.307292 224.663235 46.765625 229.060317 47.338542 234.787477 C 47.911458 240.514637 58.416667 279.097335 58.416667 279.097335 L 77.322917 267.444807 C 77.322917 267.444807 71.401042 235.168244 67.963542 229.62886 C 64.526042 224.094692 60.515625 223.140165 60.515625 223.140165 " transform="matrix(0.75,0,0,0.748899,0,0)"/>
<path style="fill-rule:nonzero;fill:rgb(100%,100%,100%);fill-opacity:1;stroke-width:1;stroke-linecap:butt;stroke-linejoin:round;stroke:rgb(14.901961%,19.607843%,21.960784%);stroke-opacity:1;stroke-miterlimit:4;" d="M 77.322917 262.098415 L 54.979167 276.040763 C 54.979167 276.040763 57.270833 284.057744 58.989583 285.398254 L 60.708333 286.733548 C 60.708333 286.733548 79.041667 274.126494 80.1875 272.410432 C 81.333333 270.689154 77.895833 263.052941 77.322917 262.098415 Z M 77.322917 262.098415 " transform="matrix(0.75,0,0,0.748899,0,0)"/>
<path style="fill-rule:nonzero;fill:rgb(100%,100%,100%);fill-opacity:1;stroke-width:1;stroke-linecap:butt;stroke-linejoin:round;stroke:rgb(14.901961%,19.607843%,21.960784%);stroke-opacity:1;stroke-miterlimit:4;" d="M 119.010417 237.338097 L 118.640625 237.661489 C 118.067708 238.162224 117.197917 238.099632 116.692708 237.525873 L 113.614583 233.98943 C 113.114583 233.415671 113.177083 232.5446 113.75 232.043865 L 114.114583 231.725689 C 114.692708 231.224954 115.5625 231.28233 116.0625 231.856089 L 119.140625 235.392532 C 119.645833 235.966291 119.583333 236.837362 119.010417 237.338097 Z M 116.276042 239.565326 L 115.911458 239.883502 C 115.333333 240.384237 114.463542 240.321645 113.963542 239.747886 L 111.635417 237.077298 C 111.135417 236.503539 111.192708 235.627252 111.765625 235.126517 L 112.135417 234.808341 C 112.708333 234.307606 113.583333 234.370198 114.083333 234.943957 L 116.411458 237.614545 C 116.911458 238.19352 116.848958 239.064591 116.276042 239.565326 Z M 113.703125 242.142027 L 113.333333 242.460202 C 112.760417 242.960937 111.885417 242.898346 111.385417 242.324586 L 109.057292 239.648782 C 108.557292 239.075023 108.619792 238.203952 109.192708 237.703217 L 109.5625 237.385041 C 110.135417 236.884306 111.005208 236.946898 111.505208 237.520657 L 113.833333 240.191245 C 114.333333 240.765005 114.276042 241.636075 113.703125 242.136811 Z M 110.635417 243.811144 L 110.270833 244.134536 C 109.692708 244.630055 108.822917 244.572679 108.322917 243.99892 L 106.510417 241.912523 C 106.005208 241.338764 106.067708 240.467693 106.640625 239.966958 L 107.010417 239.648782 C 107.583333 239.148047 108.453125 239.205423 108.958333 239.784398 L 110.770833 241.865579 C 111.010417 242.142027 111.130208 242.50193 111.104167 242.86705 C 111.083333 243.232169 110.911458 243.571209 110.635417 243.811144 Z M 110.635417 243.811144 " transform="matrix(0.75,0,0,0.748899,0,0)"/>
</g>
</svg>
